G04 #@! TF.GenerationSoftware,KiCad,Pcbnew,(2017-12-21 revision 7586afd53)-makepkg*
G04 #@! TF.CreationDate,2018-10-14T21:46:10-07:00*
G04 #@! TF.ProjectId,fsorx,66736F72782E6B696361645F70636200,rev?*
G04 #@! TF.SameCoordinates,Original*
G04 #@! TF.FileFunction,Copper,L3,Inr,Signal*
G04 #@! TF.FilePolarity,Positive*
%FSLAX46Y46*%
G04 Gerber Fmt 4.6, Leading zero omitted, Abs format (unit mm)*
G04 Created by KiCad (PCBNEW (2017-12-21 revision 7586afd53)-makepkg) date 10/14/18 21:46:10*
%MOMM*%
%LPD*%
G01*
G04 APERTURE LIST*
%ADD10C,1.600000*%
%ADD11C,1.050000*%
%ADD12O,2.000000X1.500000*%
%ADD13C,0.800000*%
%ADD14C,0.600000*%
%ADD15C,0.300000*%
%ADD16C,0.250000*%
G04 APERTURE END LIST*
D10*
X129812802Y-53018363D03*
X129812802Y-58018363D03*
D11*
X90000000Y-130000000D03*
D10*
X111812802Y-53018363D03*
X111812802Y-58018363D03*
X123812802Y-53018363D03*
X123812802Y-58018363D03*
X117812802Y-53018363D03*
X117812802Y-58018363D03*
X123812802Y-69518363D03*
X123812802Y-74518363D03*
X117812802Y-69518363D03*
X117812802Y-74518363D03*
X127112802Y-83518363D03*
X127112802Y-78518363D03*
X115112802Y-83518363D03*
X115112802Y-78518363D03*
X121112802Y-97518363D03*
X121112802Y-92518363D03*
X109112802Y-92518363D03*
X109112802Y-97518363D03*
X115112802Y-97518363D03*
X115112802Y-92518363D03*
X127112802Y-92518363D03*
X127112802Y-97518363D03*
X121112802Y-78518363D03*
X121112802Y-83518363D03*
X109112802Y-83518363D03*
X109112802Y-78518363D03*
X133000000Y-127000000D03*
X138000000Y-127000000D03*
X133000000Y-109000000D03*
X138000000Y-109000000D03*
X138000000Y-121000000D03*
X133000000Y-121000000D03*
X138000000Y-115000000D03*
X133000000Y-115000000D03*
X121500000Y-121000000D03*
X116500000Y-121000000D03*
X116500000Y-115000000D03*
X121500000Y-115000000D03*
D12*
X101000000Y-68120000D03*
X101000000Y-65580000D03*
X101000000Y-57960000D03*
X101000000Y-55420000D03*
X101000000Y-52880000D03*
D13*
X86217424Y-125431944D03*
X82717424Y-125431944D03*
X81900000Y-77500000D03*
X85400000Y-77500000D03*
X84400000Y-77500000D03*
X83400000Y-77500000D03*
X75150000Y-84000000D03*
D11*
X86500000Y-128000000D03*
D14*
X94800000Y-72500000D03*
X94200000Y-72500000D03*
X95200000Y-70600000D03*
X94900000Y-70100000D03*
X95900000Y-70000000D03*
X92900000Y-71300000D03*
X92800000Y-71900000D03*
X92800000Y-72500000D03*
X93600000Y-72500000D03*
X96500000Y-69400000D03*
X97000000Y-68900000D03*
X96600000Y-68500000D03*
X82700000Y-68000000D03*
X82100000Y-68000000D03*
X82900000Y-68600000D03*
X82900000Y-69200000D03*
X90500000Y-80400000D03*
X91000000Y-81400000D03*
X91000000Y-80800000D03*
X87800000Y-78400000D03*
X84600000Y-82050000D03*
X90000000Y-76200000D03*
X85850000Y-80850000D03*
X118500000Y-101300000D03*
X118500000Y-101900000D03*
X82800000Y-121700000D03*
X85900000Y-121100000D03*
X86500000Y-121700000D03*
X85900000Y-121700000D03*
X82600000Y-123900000D03*
X86900000Y-118700000D03*
X86400000Y-119200000D03*
X87000000Y-119400000D03*
X82100000Y-118600000D03*
X82500000Y-119100000D03*
X81900000Y-119300000D03*
X85200000Y-90000000D03*
X84600000Y-90000000D03*
X84000000Y-90000000D03*
X125500000Y-131500000D03*
X125500000Y-130900000D03*
X126300000Y-130000000D03*
X84600000Y-129700000D03*
X84600000Y-130300000D03*
X82400000Y-118000000D03*
X82400000Y-116700000D03*
X86400000Y-114800000D03*
X86400000Y-116100000D03*
X86900000Y-116700000D03*
X86900000Y-118000000D03*
X82000000Y-103100000D03*
X81500000Y-103700000D03*
X82100000Y-106100000D03*
X82100000Y-104800000D03*
X85000000Y-108600000D03*
X85100000Y-106400000D03*
X85400000Y-104400000D03*
X84200000Y-101300000D03*
X84700000Y-100500000D03*
X90100000Y-98100000D03*
X90100000Y-97500000D03*
X88500000Y-100600000D03*
X88500000Y-99300000D03*
X90400000Y-93900000D03*
X91000000Y-93300000D03*
X82400000Y-89840000D03*
X84300000Y-86200000D03*
X84300000Y-85600000D03*
X93400000Y-85300000D03*
X93400000Y-86600000D03*
X85400000Y-88100000D03*
X86600000Y-87900000D03*
X90700000Y-77400000D03*
X91300000Y-75900000D03*
X91300000Y-74600000D03*
X90800000Y-71000000D03*
X84300000Y-67900000D03*
X84400000Y-68500000D03*
X84400000Y-69100000D03*
X83700000Y-67900000D03*
X79150000Y-80650000D03*
X87200000Y-81750000D03*
X88200000Y-81300000D03*
X86000000Y-88700000D03*
X86600000Y-88700000D03*
X78000000Y-86900000D03*
X75800000Y-87100000D03*
X75500000Y-88100000D03*
X76650000Y-77250000D03*
X77200000Y-78400000D03*
X78200000Y-79600000D03*
X87700000Y-79600000D03*
X87000000Y-80600000D03*
X89100000Y-75300000D03*
X89431735Y-73468265D03*
X90100000Y-74500000D03*
X90100000Y-73900000D03*
X91700000Y-87400000D03*
X83000000Y-91400000D03*
X79700000Y-91300000D03*
X82200000Y-87300000D03*
X84920000Y-93000000D03*
X78500000Y-97300000D03*
X78400000Y-96700000D03*
X76900000Y-94800000D03*
X77300000Y-95200000D03*
X70900000Y-87800000D03*
X75800000Y-86000000D03*
X74500000Y-86000000D03*
X70500000Y-78700000D03*
X78900000Y-78400000D03*
X78100000Y-77300000D03*
X80080000Y-76304554D03*
X73800000Y-70400000D03*
X76100000Y-70500000D03*
X121100000Y-62000000D03*
X120500000Y-62000000D03*
X125500000Y-88300000D03*
X125500000Y-87700000D03*
X112000000Y-86500000D03*
X111200000Y-87000000D03*
X125000000Y-88000000D03*
X76100000Y-71625000D03*
X73800000Y-71600000D03*
X86800000Y-102200000D03*
X86800000Y-100500000D03*
X84800000Y-114800000D03*
X84800000Y-116100000D03*
X84800000Y-112100000D03*
X82000000Y-121100000D03*
X82200000Y-121700000D03*
X86000000Y-95500000D03*
X84500000Y-97200000D03*
X84500000Y-97800000D03*
X83700000Y-106100000D03*
X83700000Y-104900000D03*
X83700000Y-104300000D03*
X118500000Y-102500000D03*
X83200000Y-87100000D03*
X88800000Y-107400000D03*
X81900000Y-107400000D03*
X72800000Y-77900000D03*
X78100000Y-74500000D03*
X87500000Y-113300000D03*
X81900000Y-113300000D03*
X87400000Y-86500000D03*
D15*
G36*
X73857818Y-71151408D02*
X73865803Y-71150000D01*
X75721027Y-71150000D01*
X75732335Y-71157859D01*
X75867116Y-71216744D01*
X76010767Y-71248328D01*
X76157818Y-71251408D01*
X76302666Y-71225867D01*
X76439794Y-71172679D01*
X76475530Y-71150000D01*
X90064970Y-71150000D01*
X90075565Y-71207728D01*
X90129710Y-71344482D01*
X90209386Y-71468115D01*
X90311558Y-71573917D01*
X90350000Y-71600635D01*
X90350000Y-75533522D01*
X90222854Y-75480075D01*
X90078776Y-75450499D01*
X89931697Y-75449473D01*
X89787219Y-75477033D01*
X89650847Y-75532131D01*
X89527773Y-75612668D01*
X89422687Y-75715577D01*
X89339590Y-75836936D01*
X89281648Y-75972125D01*
X89251068Y-76115994D01*
X89249014Y-76263062D01*
X89275565Y-76407728D01*
X89329710Y-76544482D01*
X89409386Y-76668115D01*
X89511558Y-76773917D01*
X89632335Y-76857859D01*
X89767116Y-76916744D01*
X89910767Y-76948328D01*
X90057818Y-76951408D01*
X90103691Y-76943319D01*
X90039590Y-77036936D01*
X89981648Y-77172125D01*
X89951068Y-77315994D01*
X89949014Y-77463062D01*
X89975565Y-77607728D01*
X90029710Y-77744482D01*
X90109386Y-77868115D01*
X90211558Y-77973917D01*
X90332335Y-78057859D01*
X90350000Y-78065577D01*
X90350000Y-79665057D01*
X90287219Y-79677033D01*
X90150847Y-79732131D01*
X90027773Y-79812668D01*
X89922687Y-79915577D01*
X89839590Y-80036936D01*
X89781648Y-80172125D01*
X89751068Y-80315994D01*
X89749014Y-80463062D01*
X89775565Y-80607728D01*
X89829710Y-80744482D01*
X89909386Y-80868115D01*
X90011558Y-80973917D01*
X90132335Y-81057859D01*
X90267116Y-81116744D01*
X90302089Y-81124433D01*
X90281648Y-81172125D01*
X90251068Y-81315994D01*
X90249014Y-81463062D01*
X90275565Y-81607728D01*
X90329710Y-81744482D01*
X90350000Y-81775966D01*
X90350000Y-88850000D01*
X85465803Y-88850000D01*
X85602666Y-88825867D01*
X85739794Y-88772679D01*
X85863980Y-88693868D01*
X85970493Y-88592437D01*
X86055277Y-88472249D01*
X86072528Y-88433501D01*
X86111558Y-88473917D01*
X86232335Y-88557859D01*
X86367116Y-88616744D01*
X86510767Y-88648328D01*
X86657818Y-88651408D01*
X86802666Y-88625867D01*
X86939794Y-88572679D01*
X87063980Y-88493868D01*
X87170493Y-88392437D01*
X87255277Y-88272249D01*
X87315100Y-88137882D01*
X87347686Y-87994455D01*
X87350032Y-87826459D01*
X87321464Y-87682177D01*
X87265415Y-87546193D01*
X87184021Y-87423684D01*
X87080381Y-87319319D01*
X86958444Y-87237071D01*
X86822854Y-87180075D01*
X86678776Y-87150499D01*
X86531697Y-87149473D01*
X86387219Y-87177033D01*
X86250847Y-87232131D01*
X86127773Y-87312668D01*
X86022687Y-87415577D01*
X85939590Y-87536936D01*
X85927014Y-87566278D01*
X85880381Y-87519319D01*
X85758444Y-87437071D01*
X85622854Y-87380075D01*
X85478776Y-87350499D01*
X85331697Y-87349473D01*
X85187219Y-87377033D01*
X85050847Y-87432131D01*
X84927773Y-87512668D01*
X84822687Y-87615577D01*
X84739590Y-87736936D01*
X84681648Y-87872125D01*
X84651068Y-88015994D01*
X84649014Y-88163062D01*
X84675565Y-88307728D01*
X84729710Y-88444482D01*
X84809386Y-88568115D01*
X84911558Y-88673917D01*
X85032335Y-88757859D01*
X85167116Y-88816744D01*
X85310767Y-88848328D01*
X85390595Y-88850000D01*
X70150000Y-88850000D01*
X70150000Y-87868434D01*
X70175565Y-88007728D01*
X70229710Y-88144482D01*
X70309386Y-88268115D01*
X70411558Y-88373917D01*
X70532335Y-88457859D01*
X70667116Y-88516744D01*
X70810767Y-88548328D01*
X70957818Y-88551408D01*
X71102666Y-88525867D01*
X71239794Y-88472679D01*
X71363980Y-88393868D01*
X71470493Y-88292437D01*
X71555277Y-88172249D01*
X71615100Y-88037882D01*
X71647686Y-87894455D01*
X71650032Y-87726459D01*
X71621464Y-87582177D01*
X71565415Y-87446193D01*
X71510184Y-87363062D01*
X81449014Y-87363062D01*
X81475565Y-87507728D01*
X81529710Y-87644482D01*
X81609386Y-87768115D01*
X81711558Y-87873917D01*
X81832335Y-87957859D01*
X81967116Y-88016744D01*
X82110767Y-88048328D01*
X82257818Y-88051408D01*
X82402666Y-88025867D01*
X82539794Y-87972679D01*
X82663980Y-87893868D01*
X82770493Y-87792437D01*
X82807206Y-87740394D01*
X82832335Y-87757859D01*
X82967116Y-87816744D01*
X83110767Y-87848328D01*
X83257818Y-87851408D01*
X83402666Y-87825867D01*
X83539794Y-87772679D01*
X83663980Y-87693868D01*
X83770493Y-87592437D01*
X83855277Y-87472249D01*
X83915100Y-87337882D01*
X83947686Y-87194455D01*
X83950032Y-87026459D01*
X83921464Y-86882177D01*
X83903052Y-86837507D01*
X83932335Y-86857859D01*
X84067116Y-86916744D01*
X84210767Y-86948328D01*
X84357818Y-86951408D01*
X84502666Y-86925867D01*
X84639794Y-86872679D01*
X84763980Y-86793868D01*
X84870493Y-86692437D01*
X84955277Y-86572249D01*
X84959367Y-86563062D01*
X86649014Y-86563062D01*
X86675565Y-86707728D01*
X86729710Y-86844482D01*
X86809386Y-86968115D01*
X86911558Y-87073917D01*
X87032335Y-87157859D01*
X87167116Y-87216744D01*
X87310767Y-87248328D01*
X87457818Y-87251408D01*
X87602666Y-87225867D01*
X87739794Y-87172679D01*
X87863980Y-87093868D01*
X87970493Y-86992437D01*
X88055277Y-86872249D01*
X88115100Y-86737882D01*
X88147686Y-86594455D01*
X88150032Y-86426459D01*
X88121464Y-86282177D01*
X88065415Y-86146193D01*
X87984021Y-86023684D01*
X87880381Y-85919319D01*
X87758444Y-85837071D01*
X87622854Y-85780075D01*
X87478776Y-85750499D01*
X87331697Y-85749473D01*
X87187219Y-85777033D01*
X87050847Y-85832131D01*
X86927773Y-85912668D01*
X86822687Y-86015577D01*
X86739590Y-86136936D01*
X86681648Y-86272125D01*
X86651068Y-86415994D01*
X86649014Y-86563062D01*
X84959367Y-86563062D01*
X85015100Y-86437882D01*
X85047686Y-86294455D01*
X85050032Y-86126459D01*
X85021464Y-85982177D01*
X84987521Y-85899826D01*
X85015100Y-85837882D01*
X85047686Y-85694455D01*
X85050032Y-85526459D01*
X85021464Y-85382177D01*
X84965415Y-85246193D01*
X84884021Y-85123684D01*
X84780381Y-85019319D01*
X84658444Y-84937071D01*
X84522854Y-84880075D01*
X84378776Y-84850499D01*
X84231697Y-84849473D01*
X84087219Y-84877033D01*
X83950847Y-84932131D01*
X83827773Y-85012668D01*
X83722687Y-85115577D01*
X83639590Y-85236936D01*
X83581648Y-85372125D01*
X83551068Y-85515994D01*
X83549014Y-85663062D01*
X83575565Y-85807728D01*
X83612320Y-85900561D01*
X83581648Y-85972125D01*
X83551068Y-86115994D01*
X83549014Y-86263062D01*
X83575565Y-86407728D01*
X83597654Y-86463519D01*
X83558444Y-86437071D01*
X83422854Y-86380075D01*
X83278776Y-86350499D01*
X83131697Y-86349473D01*
X82987219Y-86377033D01*
X82850847Y-86432131D01*
X82727773Y-86512668D01*
X82622687Y-86615577D01*
X82592323Y-86659923D01*
X82558444Y-86637071D01*
X82422854Y-86580075D01*
X82278776Y-86550499D01*
X82131697Y-86549473D01*
X81987219Y-86577033D01*
X81850847Y-86632131D01*
X81727773Y-86712668D01*
X81622687Y-86815577D01*
X81539590Y-86936936D01*
X81481648Y-87072125D01*
X81451068Y-87215994D01*
X81449014Y-87363062D01*
X71510184Y-87363062D01*
X71484021Y-87323684D01*
X71380381Y-87219319D01*
X71258444Y-87137071D01*
X71122854Y-87080075D01*
X70978776Y-87050499D01*
X70831697Y-87049473D01*
X70687219Y-87077033D01*
X70550847Y-87132131D01*
X70427773Y-87212668D01*
X70322687Y-87315577D01*
X70239590Y-87436936D01*
X70181648Y-87572125D01*
X70151068Y-87715994D01*
X70150000Y-87792437D01*
X70150000Y-86063062D01*
X73749014Y-86063062D01*
X73775565Y-86207728D01*
X73829710Y-86344482D01*
X73909386Y-86468115D01*
X74011558Y-86573917D01*
X74132335Y-86657859D01*
X74267116Y-86716744D01*
X74410767Y-86748328D01*
X74557818Y-86751408D01*
X74702666Y-86725867D01*
X74839794Y-86672679D01*
X74963980Y-86593868D01*
X75070493Y-86492437D01*
X75151268Y-86377933D01*
X75209386Y-86468115D01*
X75311558Y-86573917D01*
X75432335Y-86657859D01*
X75567116Y-86716744D01*
X75710767Y-86748328D01*
X75857818Y-86751408D01*
X76002666Y-86725867D01*
X76139794Y-86672679D01*
X76263980Y-86593868D01*
X76370493Y-86492437D01*
X76455277Y-86372249D01*
X76515100Y-86237882D01*
X76547686Y-86094455D01*
X76550032Y-85926459D01*
X76521464Y-85782177D01*
X76465415Y-85646193D01*
X76384021Y-85523684D01*
X76280381Y-85419319D01*
X76158444Y-85337071D01*
X76022854Y-85280075D01*
X75878776Y-85250499D01*
X75731697Y-85249473D01*
X75587219Y-85277033D01*
X75450847Y-85332131D01*
X75327773Y-85412668D01*
X75222687Y-85515577D01*
X75149576Y-85622353D01*
X75084021Y-85523684D01*
X74980381Y-85419319D01*
X74858444Y-85337071D01*
X74722854Y-85280075D01*
X74578776Y-85250499D01*
X74431697Y-85249473D01*
X74287219Y-85277033D01*
X74150847Y-85332131D01*
X74027773Y-85412668D01*
X73922687Y-85515577D01*
X73839590Y-85636936D01*
X73781648Y-85772125D01*
X73751068Y-85915994D01*
X73749014Y-86063062D01*
X70150000Y-86063062D01*
X70150000Y-84071470D01*
X74298882Y-84071470D01*
X74328974Y-84235425D01*
X74390338Y-84390413D01*
X74480637Y-84530530D01*
X74596432Y-84650440D01*
X74733313Y-84745574D01*
X74886065Y-84812310D01*
X75048870Y-84848105D01*
X75215527Y-84851596D01*
X75379688Y-84822650D01*
X75535100Y-84762369D01*
X75675844Y-84673050D01*
X75796559Y-84558095D01*
X75892647Y-84421882D01*
X75960447Y-84269600D01*
X75997378Y-84107049D01*
X76000037Y-83916653D01*
X75967659Y-83753134D01*
X75904137Y-83599018D01*
X75811890Y-83460176D01*
X75694432Y-83341895D01*
X75556237Y-83248681D01*
X75402568Y-83184084D01*
X75239279Y-83150566D01*
X75072590Y-83149402D01*
X74908848Y-83180637D01*
X74754293Y-83243082D01*
X74614810Y-83334357D01*
X74495711Y-83450987D01*
X74401535Y-83588528D01*
X74335867Y-83741742D01*
X74301210Y-83904793D01*
X74298882Y-84071470D01*
X70150000Y-84071470D01*
X70150000Y-82113062D01*
X83849014Y-82113062D01*
X83875565Y-82257728D01*
X83929710Y-82394482D01*
X84009386Y-82518115D01*
X84111558Y-82623917D01*
X84232335Y-82707859D01*
X84367116Y-82766744D01*
X84510767Y-82798328D01*
X84657818Y-82801408D01*
X84802666Y-82775867D01*
X84939794Y-82722679D01*
X85063980Y-82643868D01*
X85170493Y-82542437D01*
X85255277Y-82422249D01*
X85315100Y-82287882D01*
X85347686Y-82144455D01*
X85350032Y-81976459D01*
X85321464Y-81832177D01*
X85313586Y-81813062D01*
X86449014Y-81813062D01*
X86475565Y-81957728D01*
X86529710Y-82094482D01*
X86609386Y-82218115D01*
X86711558Y-82323917D01*
X86832335Y-82407859D01*
X86967116Y-82466744D01*
X87110767Y-82498328D01*
X87257818Y-82501408D01*
X87402666Y-82475867D01*
X87539794Y-82422679D01*
X87663980Y-82343868D01*
X87770493Y-82242437D01*
X87855277Y-82122249D01*
X87912813Y-81993019D01*
X87967116Y-82016744D01*
X88110767Y-82048328D01*
X88257818Y-82051408D01*
X88402666Y-82025867D01*
X88539794Y-81972679D01*
X88663980Y-81893868D01*
X88770493Y-81792437D01*
X88855277Y-81672249D01*
X88915100Y-81537882D01*
X88947686Y-81394455D01*
X88950032Y-81226459D01*
X88921464Y-81082177D01*
X88865415Y-80946193D01*
X88784021Y-80823684D01*
X88680381Y-80719319D01*
X88558444Y-80637071D01*
X88422854Y-80580075D01*
X88278776Y-80550499D01*
X88131697Y-80549473D01*
X87987219Y-80577033D01*
X87850847Y-80632131D01*
X87727773Y-80712668D01*
X87622687Y-80815577D01*
X87539590Y-80936936D01*
X87487944Y-81057436D01*
X87422854Y-81030075D01*
X87278776Y-81000499D01*
X87131697Y-80999473D01*
X86987219Y-81027033D01*
X86850847Y-81082131D01*
X86727773Y-81162668D01*
X86622687Y-81265577D01*
X86539590Y-81386936D01*
X86481648Y-81522125D01*
X86451068Y-81665994D01*
X86449014Y-81813062D01*
X85313586Y-81813062D01*
X85265415Y-81696193D01*
X85184021Y-81573684D01*
X85080381Y-81469319D01*
X84958444Y-81387071D01*
X84822854Y-81330075D01*
X84678776Y-81300499D01*
X84531697Y-81299473D01*
X84387219Y-81327033D01*
X84250847Y-81382131D01*
X84127773Y-81462668D01*
X84022687Y-81565577D01*
X83939590Y-81686936D01*
X83881648Y-81822125D01*
X83851068Y-81965994D01*
X83849014Y-82113062D01*
X70150000Y-82113062D01*
X70150000Y-80713062D01*
X78399014Y-80713062D01*
X78425565Y-80857728D01*
X78479710Y-80994482D01*
X78559386Y-81118115D01*
X78661558Y-81223917D01*
X78782335Y-81307859D01*
X78917116Y-81366744D01*
X79060767Y-81398328D01*
X79207818Y-81401408D01*
X79352666Y-81375867D01*
X79489794Y-81322679D01*
X79613980Y-81243868D01*
X79720493Y-81142437D01*
X79805277Y-81022249D01*
X79865100Y-80887882D01*
X79897686Y-80744455D01*
X79900032Y-80576459D01*
X79871464Y-80432177D01*
X79815415Y-80296193D01*
X79734021Y-80173684D01*
X79630381Y-80069319D01*
X79508444Y-79987071D01*
X79372854Y-79930075D01*
X79228776Y-79900499D01*
X79081697Y-79899473D01*
X78937219Y-79927033D01*
X78800847Y-79982131D01*
X78677773Y-80062668D01*
X78572687Y-80165577D01*
X78489590Y-80286936D01*
X78431648Y-80422125D01*
X78401068Y-80565994D01*
X78399014Y-80713062D01*
X70150000Y-80713062D01*
X70150000Y-79365577D01*
X70267116Y-79416744D01*
X70410767Y-79448328D01*
X70557818Y-79451408D01*
X70702666Y-79425867D01*
X70839794Y-79372679D01*
X70963980Y-79293868D01*
X71070493Y-79192437D01*
X71155277Y-79072249D01*
X71215100Y-78937882D01*
X71247686Y-78794455D01*
X71250032Y-78626459D01*
X71221464Y-78482177D01*
X71165415Y-78346193D01*
X71084021Y-78223684D01*
X70980381Y-78119319D01*
X70858444Y-78037071D01*
X70722854Y-77980075D01*
X70639977Y-77963062D01*
X72049014Y-77963062D01*
X72075565Y-78107728D01*
X72129710Y-78244482D01*
X72209386Y-78368115D01*
X72311558Y-78473917D01*
X72432335Y-78557859D01*
X72567116Y-78616744D01*
X72710767Y-78648328D01*
X72857818Y-78651408D01*
X73002666Y-78625867D01*
X73139794Y-78572679D01*
X73263980Y-78493868D01*
X73370493Y-78392437D01*
X73455277Y-78272249D01*
X73515100Y-78137882D01*
X73547686Y-77994455D01*
X73550032Y-77826459D01*
X73521464Y-77682177D01*
X73465415Y-77546193D01*
X73384021Y-77423684D01*
X73323821Y-77363062D01*
X77349014Y-77363062D01*
X77375565Y-77507728D01*
X77429710Y-77644482D01*
X77509386Y-77768115D01*
X77611558Y-77873917D01*
X77732335Y-77957859D01*
X77867116Y-78016744D01*
X78010767Y-78048328D01*
X78157818Y-78051408D01*
X78239565Y-78036994D01*
X78181648Y-78172125D01*
X78151068Y-78315994D01*
X78149014Y-78463062D01*
X78175565Y-78607728D01*
X78229710Y-78744482D01*
X78309386Y-78868115D01*
X78411558Y-78973917D01*
X78532335Y-79057859D01*
X78667116Y-79116744D01*
X78810767Y-79148328D01*
X78957818Y-79151408D01*
X79102666Y-79125867D01*
X79239794Y-79072679D01*
X79363980Y-78993868D01*
X79470493Y-78892437D01*
X79555277Y-78772249D01*
X79615100Y-78637882D01*
X79647686Y-78494455D01*
X79648124Y-78463062D01*
X87049014Y-78463062D01*
X87075565Y-78607728D01*
X87129710Y-78744482D01*
X87209386Y-78868115D01*
X87311558Y-78973917D01*
X87432335Y-79057859D01*
X87567116Y-79116744D01*
X87710767Y-79148328D01*
X87857818Y-79151408D01*
X88002666Y-79125867D01*
X88139794Y-79072679D01*
X88263980Y-78993868D01*
X88370493Y-78892437D01*
X88455277Y-78772249D01*
X88515100Y-78637882D01*
X88547686Y-78494455D01*
X88550032Y-78326459D01*
X88521464Y-78182177D01*
X88465415Y-78046193D01*
X88384021Y-77923684D01*
X88280381Y-77819319D01*
X88158444Y-77737071D01*
X88022854Y-77680075D01*
X87878776Y-77650499D01*
X87731697Y-77649473D01*
X87587219Y-77677033D01*
X87450847Y-77732131D01*
X87327773Y-77812668D01*
X87222687Y-77915577D01*
X87139590Y-78036936D01*
X87081648Y-78172125D01*
X87051068Y-78315994D01*
X87049014Y-78463062D01*
X79648124Y-78463062D01*
X79650032Y-78326459D01*
X79621464Y-78182177D01*
X79565415Y-78046193D01*
X79484021Y-77923684D01*
X79380381Y-77819319D01*
X79258444Y-77737071D01*
X79122854Y-77680075D01*
X78978776Y-77650499D01*
X78831697Y-77649473D01*
X78759266Y-77663290D01*
X78800145Y-77571470D01*
X81048882Y-77571470D01*
X81078974Y-77735425D01*
X81140338Y-77890413D01*
X81230637Y-78030530D01*
X81346432Y-78150440D01*
X81483313Y-78245574D01*
X81636065Y-78312310D01*
X81798870Y-78348105D01*
X81965527Y-78351596D01*
X82129688Y-78322650D01*
X82285100Y-78262369D01*
X82425844Y-78173050D01*
X82546559Y-78058095D01*
X82642647Y-77921882D01*
X82649990Y-77905390D01*
X82730637Y-78030530D01*
X82846432Y-78150440D01*
X82983313Y-78245574D01*
X83136065Y-78312310D01*
X83298870Y-78348105D01*
X83465527Y-78351596D01*
X83629688Y-78322650D01*
X83785100Y-78262369D01*
X83901339Y-78188601D01*
X83983313Y-78245574D01*
X84136065Y-78312310D01*
X84298870Y-78348105D01*
X84465527Y-78351596D01*
X84629688Y-78322650D01*
X84785100Y-78262369D01*
X84901339Y-78188601D01*
X84983313Y-78245574D01*
X85136065Y-78312310D01*
X85298870Y-78348105D01*
X85465527Y-78351596D01*
X85629688Y-78322650D01*
X85785100Y-78262369D01*
X85925844Y-78173050D01*
X86046559Y-78058095D01*
X86142647Y-77921882D01*
X86210447Y-77769600D01*
X86247378Y-77607049D01*
X86250037Y-77416653D01*
X86217659Y-77253134D01*
X86154137Y-77099018D01*
X86061890Y-76960176D01*
X85944432Y-76841895D01*
X85806237Y-76748681D01*
X85652568Y-76684084D01*
X85489279Y-76650566D01*
X85322590Y-76649402D01*
X85158848Y-76680637D01*
X85004293Y-76743082D01*
X84899552Y-76811623D01*
X84806237Y-76748681D01*
X84652568Y-76684084D01*
X84489279Y-76650566D01*
X84322590Y-76649402D01*
X84158848Y-76680637D01*
X84004293Y-76743082D01*
X83899552Y-76811623D01*
X83806237Y-76748681D01*
X83652568Y-76684084D01*
X83489279Y-76650566D01*
X83322590Y-76649402D01*
X83158848Y-76680637D01*
X83004293Y-76743082D01*
X82864810Y-76834357D01*
X82745711Y-76950987D01*
X82651535Y-77088528D01*
X82649822Y-77092524D01*
X82561890Y-76960176D01*
X82444432Y-76841895D01*
X82306237Y-76748681D01*
X82152568Y-76684084D01*
X81989279Y-76650566D01*
X81822590Y-76649402D01*
X81658848Y-76680637D01*
X81504293Y-76743082D01*
X81364810Y-76834357D01*
X81245711Y-76950987D01*
X81151535Y-77088528D01*
X81085867Y-77241742D01*
X81051210Y-77404793D01*
X81048882Y-77571470D01*
X78800145Y-77571470D01*
X78815100Y-77537882D01*
X78847686Y-77394455D01*
X78850032Y-77226459D01*
X78821464Y-77082177D01*
X78765415Y-76946193D01*
X78684021Y-76823684D01*
X78580381Y-76719319D01*
X78458444Y-76637071D01*
X78322854Y-76580075D01*
X78178776Y-76550499D01*
X78031697Y-76549473D01*
X77887219Y-76577033D01*
X77750847Y-76632131D01*
X77627773Y-76712668D01*
X77522687Y-76815577D01*
X77439590Y-76936936D01*
X77381648Y-77072125D01*
X77351068Y-77215994D01*
X77349014Y-77363062D01*
X73323821Y-77363062D01*
X73280381Y-77319319D01*
X73158444Y-77237071D01*
X73022854Y-77180075D01*
X72878776Y-77150499D01*
X72731697Y-77149473D01*
X72587219Y-77177033D01*
X72450847Y-77232131D01*
X72327773Y-77312668D01*
X72222687Y-77415577D01*
X72139590Y-77536936D01*
X72081648Y-77672125D01*
X72051068Y-77815994D01*
X72049014Y-77963062D01*
X70639977Y-77963062D01*
X70578776Y-77950499D01*
X70431697Y-77949473D01*
X70287219Y-77977033D01*
X70150847Y-78032131D01*
X70150000Y-78032685D01*
X70150000Y-76367616D01*
X79329014Y-76367616D01*
X79355565Y-76512282D01*
X79409710Y-76649036D01*
X79489386Y-76772669D01*
X79591558Y-76878471D01*
X79712335Y-76962413D01*
X79847116Y-77021298D01*
X79990767Y-77052882D01*
X80137818Y-77055962D01*
X80282666Y-77030421D01*
X80419794Y-76977233D01*
X80543980Y-76898422D01*
X80650493Y-76796991D01*
X80735277Y-76676803D01*
X80795100Y-76542436D01*
X80827686Y-76399009D01*
X80830032Y-76231013D01*
X80801464Y-76086731D01*
X80745415Y-75950747D01*
X80664021Y-75828238D01*
X80560381Y-75723873D01*
X80438444Y-75641625D01*
X80302854Y-75584629D01*
X80158776Y-75555053D01*
X80011697Y-75554027D01*
X79867219Y-75581587D01*
X79730847Y-75636685D01*
X79607773Y-75717222D01*
X79502687Y-75820131D01*
X79419590Y-75941490D01*
X79361648Y-76076679D01*
X79331068Y-76220548D01*
X79329014Y-76367616D01*
X70150000Y-76367616D01*
X70150000Y-74563062D01*
X77349014Y-74563062D01*
X77375565Y-74707728D01*
X77429710Y-74844482D01*
X77509386Y-74968115D01*
X77611558Y-75073917D01*
X77732335Y-75157859D01*
X77867116Y-75216744D01*
X78010767Y-75248328D01*
X78157818Y-75251408D01*
X78302666Y-75225867D01*
X78439794Y-75172679D01*
X78563980Y-75093868D01*
X78670493Y-74992437D01*
X78755277Y-74872249D01*
X78815100Y-74737882D01*
X78847686Y-74594455D01*
X78850032Y-74426459D01*
X78821464Y-74282177D01*
X78765415Y-74146193D01*
X78684021Y-74023684D01*
X78580381Y-73919319D01*
X78458444Y-73837071D01*
X78322854Y-73780075D01*
X78178776Y-73750499D01*
X78031697Y-73749473D01*
X77887219Y-73777033D01*
X77750847Y-73832131D01*
X77627773Y-73912668D01*
X77522687Y-74015577D01*
X77439590Y-74136936D01*
X77381648Y-74272125D01*
X77351068Y-74415994D01*
X77349014Y-74563062D01*
X70150000Y-74563062D01*
X70150000Y-71150000D01*
X73790595Y-71150000D01*
X73857818Y-71151408D01*
X73857818Y-71151408D01*
G37*
X73857818Y-71151408D02*
X73865803Y-71150000D01*
X75721027Y-71150000D01*
X75732335Y-71157859D01*
X75867116Y-71216744D01*
X76010767Y-71248328D01*
X76157818Y-71251408D01*
X76302666Y-71225867D01*
X76439794Y-71172679D01*
X76475530Y-71150000D01*
X90064970Y-71150000D01*
X90075565Y-71207728D01*
X90129710Y-71344482D01*
X90209386Y-71468115D01*
X90311558Y-71573917D01*
X90350000Y-71600635D01*
X90350000Y-75533522D01*
X90222854Y-75480075D01*
X90078776Y-75450499D01*
X89931697Y-75449473D01*
X89787219Y-75477033D01*
X89650847Y-75532131D01*
X89527773Y-75612668D01*
X89422687Y-75715577D01*
X89339590Y-75836936D01*
X89281648Y-75972125D01*
X89251068Y-76115994D01*
X89249014Y-76263062D01*
X89275565Y-76407728D01*
X89329710Y-76544482D01*
X89409386Y-76668115D01*
X89511558Y-76773917D01*
X89632335Y-76857859D01*
X89767116Y-76916744D01*
X89910767Y-76948328D01*
X90057818Y-76951408D01*
X90103691Y-76943319D01*
X90039590Y-77036936D01*
X89981648Y-77172125D01*
X89951068Y-77315994D01*
X89949014Y-77463062D01*
X89975565Y-77607728D01*
X90029710Y-77744482D01*
X90109386Y-77868115D01*
X90211558Y-77973917D01*
X90332335Y-78057859D01*
X90350000Y-78065577D01*
X90350000Y-79665057D01*
X90287219Y-79677033D01*
X90150847Y-79732131D01*
X90027773Y-79812668D01*
X89922687Y-79915577D01*
X89839590Y-80036936D01*
X89781648Y-80172125D01*
X89751068Y-80315994D01*
X89749014Y-80463062D01*
X89775565Y-80607728D01*
X89829710Y-80744482D01*
X89909386Y-80868115D01*
X90011558Y-80973917D01*
X90132335Y-81057859D01*
X90267116Y-81116744D01*
X90302089Y-81124433D01*
X90281648Y-81172125D01*
X90251068Y-81315994D01*
X90249014Y-81463062D01*
X90275565Y-81607728D01*
X90329710Y-81744482D01*
X90350000Y-81775966D01*
X90350000Y-88850000D01*
X85465803Y-88850000D01*
X85602666Y-88825867D01*
X85739794Y-88772679D01*
X85863980Y-88693868D01*
X85970493Y-88592437D01*
X86055277Y-88472249D01*
X86072528Y-88433501D01*
X86111558Y-88473917D01*
X86232335Y-88557859D01*
X86367116Y-88616744D01*
X86510767Y-88648328D01*
X86657818Y-88651408D01*
X86802666Y-88625867D01*
X86939794Y-88572679D01*
X87063980Y-88493868D01*
X87170493Y-88392437D01*
X87255277Y-88272249D01*
X87315100Y-88137882D01*
X87347686Y-87994455D01*
X87350032Y-87826459D01*
X87321464Y-87682177D01*
X87265415Y-87546193D01*
X87184021Y-87423684D01*
X87080381Y-87319319D01*
X86958444Y-87237071D01*
X86822854Y-87180075D01*
X86678776Y-87150499D01*
X86531697Y-87149473D01*
X86387219Y-87177033D01*
X86250847Y-87232131D01*
X86127773Y-87312668D01*
X86022687Y-87415577D01*
X85939590Y-87536936D01*
X85927014Y-87566278D01*
X85880381Y-87519319D01*
X85758444Y-87437071D01*
X85622854Y-87380075D01*
X85478776Y-87350499D01*
X85331697Y-87349473D01*
X85187219Y-87377033D01*
X85050847Y-87432131D01*
X84927773Y-87512668D01*
X84822687Y-87615577D01*
X84739590Y-87736936D01*
X84681648Y-87872125D01*
X84651068Y-88015994D01*
X84649014Y-88163062D01*
X84675565Y-88307728D01*
X84729710Y-88444482D01*
X84809386Y-88568115D01*
X84911558Y-88673917D01*
X85032335Y-88757859D01*
X85167116Y-88816744D01*
X85310767Y-88848328D01*
X85390595Y-88850000D01*
X70150000Y-88850000D01*
X70150000Y-87868434D01*
X70175565Y-88007728D01*
X70229710Y-88144482D01*
X70309386Y-88268115D01*
X70411558Y-88373917D01*
X70532335Y-88457859D01*
X70667116Y-88516744D01*
X70810767Y-88548328D01*
X70957818Y-88551408D01*
X71102666Y-88525867D01*
X71239794Y-88472679D01*
X71363980Y-88393868D01*
X71470493Y-88292437D01*
X71555277Y-88172249D01*
X71615100Y-88037882D01*
X71647686Y-87894455D01*
X71650032Y-87726459D01*
X71621464Y-87582177D01*
X71565415Y-87446193D01*
X71510184Y-87363062D01*
X81449014Y-87363062D01*
X81475565Y-87507728D01*
X81529710Y-87644482D01*
X81609386Y-87768115D01*
X81711558Y-87873917D01*
X81832335Y-87957859D01*
X81967116Y-88016744D01*
X82110767Y-88048328D01*
X82257818Y-88051408D01*
X82402666Y-88025867D01*
X82539794Y-87972679D01*
X82663980Y-87893868D01*
X82770493Y-87792437D01*
X82807206Y-87740394D01*
X82832335Y-87757859D01*
X82967116Y-87816744D01*
X83110767Y-87848328D01*
X83257818Y-87851408D01*
X83402666Y-87825867D01*
X83539794Y-87772679D01*
X83663980Y-87693868D01*
X83770493Y-87592437D01*
X83855277Y-87472249D01*
X83915100Y-87337882D01*
X83947686Y-87194455D01*
X83950032Y-87026459D01*
X83921464Y-86882177D01*
X83903052Y-86837507D01*
X83932335Y-86857859D01*
X84067116Y-86916744D01*
X84210767Y-86948328D01*
X84357818Y-86951408D01*
X84502666Y-86925867D01*
X84639794Y-86872679D01*
X84763980Y-86793868D01*
X84870493Y-86692437D01*
X84955277Y-86572249D01*
X84959367Y-86563062D01*
X86649014Y-86563062D01*
X86675565Y-86707728D01*
X86729710Y-86844482D01*
X86809386Y-86968115D01*
X86911558Y-87073917D01*
X87032335Y-87157859D01*
X87167116Y-87216744D01*
X87310767Y-87248328D01*
X87457818Y-87251408D01*
X87602666Y-87225867D01*
X87739794Y-87172679D01*
X87863980Y-87093868D01*
X87970493Y-86992437D01*
X88055277Y-86872249D01*
X88115100Y-86737882D01*
X88147686Y-86594455D01*
X88150032Y-86426459D01*
X88121464Y-86282177D01*
X88065415Y-86146193D01*
X87984021Y-86023684D01*
X87880381Y-85919319D01*
X87758444Y-85837071D01*
X87622854Y-85780075D01*
X87478776Y-85750499D01*
X87331697Y-85749473D01*
X87187219Y-85777033D01*
X87050847Y-85832131D01*
X86927773Y-85912668D01*
X86822687Y-86015577D01*
X86739590Y-86136936D01*
X86681648Y-86272125D01*
X86651068Y-86415994D01*
X86649014Y-86563062D01*
X84959367Y-86563062D01*
X85015100Y-86437882D01*
X85047686Y-86294455D01*
X85050032Y-86126459D01*
X85021464Y-85982177D01*
X84987521Y-85899826D01*
X85015100Y-85837882D01*
X85047686Y-85694455D01*
X85050032Y-85526459D01*
X85021464Y-85382177D01*
X84965415Y-85246193D01*
X84884021Y-85123684D01*
X84780381Y-85019319D01*
X84658444Y-84937071D01*
X84522854Y-84880075D01*
X84378776Y-84850499D01*
X84231697Y-84849473D01*
X84087219Y-84877033D01*
X83950847Y-84932131D01*
X83827773Y-85012668D01*
X83722687Y-85115577D01*
X83639590Y-85236936D01*
X83581648Y-85372125D01*
X83551068Y-85515994D01*
X83549014Y-85663062D01*
X83575565Y-85807728D01*
X83612320Y-85900561D01*
X83581648Y-85972125D01*
X83551068Y-86115994D01*
X83549014Y-86263062D01*
X83575565Y-86407728D01*
X83597654Y-86463519D01*
X83558444Y-86437071D01*
X83422854Y-86380075D01*
X83278776Y-86350499D01*
X83131697Y-86349473D01*
X82987219Y-86377033D01*
X82850847Y-86432131D01*
X82727773Y-86512668D01*
X82622687Y-86615577D01*
X82592323Y-86659923D01*
X82558444Y-86637071D01*
X82422854Y-86580075D01*
X82278776Y-86550499D01*
X82131697Y-86549473D01*
X81987219Y-86577033D01*
X81850847Y-86632131D01*
X81727773Y-86712668D01*
X81622687Y-86815577D01*
X81539590Y-86936936D01*
X81481648Y-87072125D01*
X81451068Y-87215994D01*
X81449014Y-87363062D01*
X71510184Y-87363062D01*
X71484021Y-87323684D01*
X71380381Y-87219319D01*
X71258444Y-87137071D01*
X71122854Y-87080075D01*
X70978776Y-87050499D01*
X70831697Y-87049473D01*
X70687219Y-87077033D01*
X70550847Y-87132131D01*
X70427773Y-87212668D01*
X70322687Y-87315577D01*
X70239590Y-87436936D01*
X70181648Y-87572125D01*
X70151068Y-87715994D01*
X70150000Y-87792437D01*
X70150000Y-86063062D01*
X73749014Y-86063062D01*
X73775565Y-86207728D01*
X73829710Y-86344482D01*
X73909386Y-86468115D01*
X74011558Y-86573917D01*
X74132335Y-86657859D01*
X74267116Y-86716744D01*
X74410767Y-86748328D01*
X74557818Y-86751408D01*
X74702666Y-86725867D01*
X74839794Y-86672679D01*
X74963980Y-86593868D01*
X75070493Y-86492437D01*
X75151268Y-86377933D01*
X75209386Y-86468115D01*
X75311558Y-86573917D01*
X75432335Y-86657859D01*
X75567116Y-86716744D01*
X75710767Y-86748328D01*
X75857818Y-86751408D01*
X76002666Y-86725867D01*
X76139794Y-86672679D01*
X76263980Y-86593868D01*
X76370493Y-86492437D01*
X76455277Y-86372249D01*
X76515100Y-86237882D01*
X76547686Y-86094455D01*
X76550032Y-85926459D01*
X76521464Y-85782177D01*
X76465415Y-85646193D01*
X76384021Y-85523684D01*
X76280381Y-85419319D01*
X76158444Y-85337071D01*
X76022854Y-85280075D01*
X75878776Y-85250499D01*
X75731697Y-85249473D01*
X75587219Y-85277033D01*
X75450847Y-85332131D01*
X75327773Y-85412668D01*
X75222687Y-85515577D01*
X75149576Y-85622353D01*
X75084021Y-85523684D01*
X74980381Y-85419319D01*
X74858444Y-85337071D01*
X74722854Y-85280075D01*
X74578776Y-85250499D01*
X74431697Y-85249473D01*
X74287219Y-85277033D01*
X74150847Y-85332131D01*
X74027773Y-85412668D01*
X73922687Y-85515577D01*
X73839590Y-85636936D01*
X73781648Y-85772125D01*
X73751068Y-85915994D01*
X73749014Y-86063062D01*
X70150000Y-86063062D01*
X70150000Y-84071470D01*
X74298882Y-84071470D01*
X74328974Y-84235425D01*
X74390338Y-84390413D01*
X74480637Y-84530530D01*
X74596432Y-84650440D01*
X74733313Y-84745574D01*
X74886065Y-84812310D01*
X75048870Y-84848105D01*
X75215527Y-84851596D01*
X75379688Y-84822650D01*
X75535100Y-84762369D01*
X75675844Y-84673050D01*
X75796559Y-84558095D01*
X75892647Y-84421882D01*
X75960447Y-84269600D01*
X75997378Y-84107049D01*
X76000037Y-83916653D01*
X75967659Y-83753134D01*
X75904137Y-83599018D01*
X75811890Y-83460176D01*
X75694432Y-83341895D01*
X75556237Y-83248681D01*
X75402568Y-83184084D01*
X75239279Y-83150566D01*
X75072590Y-83149402D01*
X74908848Y-83180637D01*
X74754293Y-83243082D01*
X74614810Y-83334357D01*
X74495711Y-83450987D01*
X74401535Y-83588528D01*
X74335867Y-83741742D01*
X74301210Y-83904793D01*
X74298882Y-84071470D01*
X70150000Y-84071470D01*
X70150000Y-82113062D01*
X83849014Y-82113062D01*
X83875565Y-82257728D01*
X83929710Y-82394482D01*
X84009386Y-82518115D01*
X84111558Y-82623917D01*
X84232335Y-82707859D01*
X84367116Y-82766744D01*
X84510767Y-82798328D01*
X84657818Y-82801408D01*
X84802666Y-82775867D01*
X84939794Y-82722679D01*
X85063980Y-82643868D01*
X85170493Y-82542437D01*
X85255277Y-82422249D01*
X85315100Y-82287882D01*
X85347686Y-82144455D01*
X85350032Y-81976459D01*
X85321464Y-81832177D01*
X85313586Y-81813062D01*
X86449014Y-81813062D01*
X86475565Y-81957728D01*
X86529710Y-82094482D01*
X86609386Y-82218115D01*
X86711558Y-82323917D01*
X86832335Y-82407859D01*
X86967116Y-82466744D01*
X87110767Y-82498328D01*
X87257818Y-82501408D01*
X87402666Y-82475867D01*
X87539794Y-82422679D01*
X87663980Y-82343868D01*
X87770493Y-82242437D01*
X87855277Y-82122249D01*
X87912813Y-81993019D01*
X87967116Y-82016744D01*
X88110767Y-82048328D01*
X88257818Y-82051408D01*
X88402666Y-82025867D01*
X88539794Y-81972679D01*
X88663980Y-81893868D01*
X88770493Y-81792437D01*
X88855277Y-81672249D01*
X88915100Y-81537882D01*
X88947686Y-81394455D01*
X88950032Y-81226459D01*
X88921464Y-81082177D01*
X88865415Y-80946193D01*
X88784021Y-80823684D01*
X88680381Y-80719319D01*
X88558444Y-80637071D01*
X88422854Y-80580075D01*
X88278776Y-80550499D01*
X88131697Y-80549473D01*
X87987219Y-80577033D01*
X87850847Y-80632131D01*
X87727773Y-80712668D01*
X87622687Y-80815577D01*
X87539590Y-80936936D01*
X87487944Y-81057436D01*
X87422854Y-81030075D01*
X87278776Y-81000499D01*
X87131697Y-80999473D01*
X86987219Y-81027033D01*
X86850847Y-81082131D01*
X86727773Y-81162668D01*
X86622687Y-81265577D01*
X86539590Y-81386936D01*
X86481648Y-81522125D01*
X86451068Y-81665994D01*
X86449014Y-81813062D01*
X85313586Y-81813062D01*
X85265415Y-81696193D01*
X85184021Y-81573684D01*
X85080381Y-81469319D01*
X84958444Y-81387071D01*
X84822854Y-81330075D01*
X84678776Y-81300499D01*
X84531697Y-81299473D01*
X84387219Y-81327033D01*
X84250847Y-81382131D01*
X84127773Y-81462668D01*
X84022687Y-81565577D01*
X83939590Y-81686936D01*
X83881648Y-81822125D01*
X83851068Y-81965994D01*
X83849014Y-82113062D01*
X70150000Y-82113062D01*
X70150000Y-80713062D01*
X78399014Y-80713062D01*
X78425565Y-80857728D01*
X78479710Y-80994482D01*
X78559386Y-81118115D01*
X78661558Y-81223917D01*
X78782335Y-81307859D01*
X78917116Y-81366744D01*
X79060767Y-81398328D01*
X79207818Y-81401408D01*
X79352666Y-81375867D01*
X79489794Y-81322679D01*
X79613980Y-81243868D01*
X79720493Y-81142437D01*
X79805277Y-81022249D01*
X79865100Y-80887882D01*
X79897686Y-80744455D01*
X79900032Y-80576459D01*
X79871464Y-80432177D01*
X79815415Y-80296193D01*
X79734021Y-80173684D01*
X79630381Y-80069319D01*
X79508444Y-79987071D01*
X79372854Y-79930075D01*
X79228776Y-79900499D01*
X79081697Y-79899473D01*
X78937219Y-79927033D01*
X78800847Y-79982131D01*
X78677773Y-80062668D01*
X78572687Y-80165577D01*
X78489590Y-80286936D01*
X78431648Y-80422125D01*
X78401068Y-80565994D01*
X78399014Y-80713062D01*
X70150000Y-80713062D01*
X70150000Y-79365577D01*
X70267116Y-79416744D01*
X70410767Y-79448328D01*
X70557818Y-79451408D01*
X70702666Y-79425867D01*
X70839794Y-79372679D01*
X70963980Y-79293868D01*
X71070493Y-79192437D01*
X71155277Y-79072249D01*
X71215100Y-78937882D01*
X71247686Y-78794455D01*
X71250032Y-78626459D01*
X71221464Y-78482177D01*
X71165415Y-78346193D01*
X71084021Y-78223684D01*
X70980381Y-78119319D01*
X70858444Y-78037071D01*
X70722854Y-77980075D01*
X70639977Y-77963062D01*
X72049014Y-77963062D01*
X72075565Y-78107728D01*
X72129710Y-78244482D01*
X72209386Y-78368115D01*
X72311558Y-78473917D01*
X72432335Y-78557859D01*
X72567116Y-78616744D01*
X72710767Y-78648328D01*
X72857818Y-78651408D01*
X73002666Y-78625867D01*
X73139794Y-78572679D01*
X73263980Y-78493868D01*
X73370493Y-78392437D01*
X73455277Y-78272249D01*
X73515100Y-78137882D01*
X73547686Y-77994455D01*
X73550032Y-77826459D01*
X73521464Y-77682177D01*
X73465415Y-77546193D01*
X73384021Y-77423684D01*
X73323821Y-77363062D01*
X77349014Y-77363062D01*
X77375565Y-77507728D01*
X77429710Y-77644482D01*
X77509386Y-77768115D01*
X77611558Y-77873917D01*
X77732335Y-77957859D01*
X77867116Y-78016744D01*
X78010767Y-78048328D01*
X78157818Y-78051408D01*
X78239565Y-78036994D01*
X78181648Y-78172125D01*
X78151068Y-78315994D01*
X78149014Y-78463062D01*
X78175565Y-78607728D01*
X78229710Y-78744482D01*
X78309386Y-78868115D01*
X78411558Y-78973917D01*
X78532335Y-79057859D01*
X78667116Y-79116744D01*
X78810767Y-79148328D01*
X78957818Y-79151408D01*
X79102666Y-79125867D01*
X79239794Y-79072679D01*
X79363980Y-78993868D01*
X79470493Y-78892437D01*
X79555277Y-78772249D01*
X79615100Y-78637882D01*
X79647686Y-78494455D01*
X79648124Y-78463062D01*
X87049014Y-78463062D01*
X87075565Y-78607728D01*
X87129710Y-78744482D01*
X87209386Y-78868115D01*
X87311558Y-78973917D01*
X87432335Y-79057859D01*
X87567116Y-79116744D01*
X87710767Y-79148328D01*
X87857818Y-79151408D01*
X88002666Y-79125867D01*
X88139794Y-79072679D01*
X88263980Y-78993868D01*
X88370493Y-78892437D01*
X88455277Y-78772249D01*
X88515100Y-78637882D01*
X88547686Y-78494455D01*
X88550032Y-78326459D01*
X88521464Y-78182177D01*
X88465415Y-78046193D01*
X88384021Y-77923684D01*
X88280381Y-77819319D01*
X88158444Y-77737071D01*
X88022854Y-77680075D01*
X87878776Y-77650499D01*
X87731697Y-77649473D01*
X87587219Y-77677033D01*
X87450847Y-77732131D01*
X87327773Y-77812668D01*
X87222687Y-77915577D01*
X87139590Y-78036936D01*
X87081648Y-78172125D01*
X87051068Y-78315994D01*
X87049014Y-78463062D01*
X79648124Y-78463062D01*
X79650032Y-78326459D01*
X79621464Y-78182177D01*
X79565415Y-78046193D01*
X79484021Y-77923684D01*
X79380381Y-77819319D01*
X79258444Y-77737071D01*
X79122854Y-77680075D01*
X78978776Y-77650499D01*
X78831697Y-77649473D01*
X78759266Y-77663290D01*
X78800145Y-77571470D01*
X81048882Y-77571470D01*
X81078974Y-77735425D01*
X81140338Y-77890413D01*
X81230637Y-78030530D01*
X81346432Y-78150440D01*
X81483313Y-78245574D01*
X81636065Y-78312310D01*
X81798870Y-78348105D01*
X81965527Y-78351596D01*
X82129688Y-78322650D01*
X82285100Y-78262369D01*
X82425844Y-78173050D01*
X82546559Y-78058095D01*
X82642647Y-77921882D01*
X82649990Y-77905390D01*
X82730637Y-78030530D01*
X82846432Y-78150440D01*
X82983313Y-78245574D01*
X83136065Y-78312310D01*
X83298870Y-78348105D01*
X83465527Y-78351596D01*
X83629688Y-78322650D01*
X83785100Y-78262369D01*
X83901339Y-78188601D01*
X83983313Y-78245574D01*
X84136065Y-78312310D01*
X84298870Y-78348105D01*
X84465527Y-78351596D01*
X84629688Y-78322650D01*
X84785100Y-78262369D01*
X84901339Y-78188601D01*
X84983313Y-78245574D01*
X85136065Y-78312310D01*
X85298870Y-78348105D01*
X85465527Y-78351596D01*
X85629688Y-78322650D01*
X85785100Y-78262369D01*
X85925844Y-78173050D01*
X86046559Y-78058095D01*
X86142647Y-77921882D01*
X86210447Y-77769600D01*
X86247378Y-77607049D01*
X86250037Y-77416653D01*
X86217659Y-77253134D01*
X86154137Y-77099018D01*
X86061890Y-76960176D01*
X85944432Y-76841895D01*
X85806237Y-76748681D01*
X85652568Y-76684084D01*
X85489279Y-76650566D01*
X85322590Y-76649402D01*
X85158848Y-76680637D01*
X85004293Y-76743082D01*
X84899552Y-76811623D01*
X84806237Y-76748681D01*
X84652568Y-76684084D01*
X84489279Y-76650566D01*
X84322590Y-76649402D01*
X84158848Y-76680637D01*
X84004293Y-76743082D01*
X83899552Y-76811623D01*
X83806237Y-76748681D01*
X83652568Y-76684084D01*
X83489279Y-76650566D01*
X83322590Y-76649402D01*
X83158848Y-76680637D01*
X83004293Y-76743082D01*
X82864810Y-76834357D01*
X82745711Y-76950987D01*
X82651535Y-77088528D01*
X82649822Y-77092524D01*
X82561890Y-76960176D01*
X82444432Y-76841895D01*
X82306237Y-76748681D01*
X82152568Y-76684084D01*
X81989279Y-76650566D01*
X81822590Y-76649402D01*
X81658848Y-76680637D01*
X81504293Y-76743082D01*
X81364810Y-76834357D01*
X81245711Y-76950987D01*
X81151535Y-77088528D01*
X81085867Y-77241742D01*
X81051210Y-77404793D01*
X81048882Y-77571470D01*
X78800145Y-77571470D01*
X78815100Y-77537882D01*
X78847686Y-77394455D01*
X78850032Y-77226459D01*
X78821464Y-77082177D01*
X78765415Y-76946193D01*
X78684021Y-76823684D01*
X78580381Y-76719319D01*
X78458444Y-76637071D01*
X78322854Y-76580075D01*
X78178776Y-76550499D01*
X78031697Y-76549473D01*
X77887219Y-76577033D01*
X77750847Y-76632131D01*
X77627773Y-76712668D01*
X77522687Y-76815577D01*
X77439590Y-76936936D01*
X77381648Y-77072125D01*
X77351068Y-77215994D01*
X77349014Y-77363062D01*
X73323821Y-77363062D01*
X73280381Y-77319319D01*
X73158444Y-77237071D01*
X73022854Y-77180075D01*
X72878776Y-77150499D01*
X72731697Y-77149473D01*
X72587219Y-77177033D01*
X72450847Y-77232131D01*
X72327773Y-77312668D01*
X72222687Y-77415577D01*
X72139590Y-77536936D01*
X72081648Y-77672125D01*
X72051068Y-77815994D01*
X72049014Y-77963062D01*
X70639977Y-77963062D01*
X70578776Y-77950499D01*
X70431697Y-77949473D01*
X70287219Y-77977033D01*
X70150847Y-78032131D01*
X70150000Y-78032685D01*
X70150000Y-76367616D01*
X79329014Y-76367616D01*
X79355565Y-76512282D01*
X79409710Y-76649036D01*
X79489386Y-76772669D01*
X79591558Y-76878471D01*
X79712335Y-76962413D01*
X79847116Y-77021298D01*
X79990767Y-77052882D01*
X80137818Y-77055962D01*
X80282666Y-77030421D01*
X80419794Y-76977233D01*
X80543980Y-76898422D01*
X80650493Y-76796991D01*
X80735277Y-76676803D01*
X80795100Y-76542436D01*
X80827686Y-76399009D01*
X80830032Y-76231013D01*
X80801464Y-76086731D01*
X80745415Y-75950747D01*
X80664021Y-75828238D01*
X80560381Y-75723873D01*
X80438444Y-75641625D01*
X80302854Y-75584629D01*
X80158776Y-75555053D01*
X80011697Y-75554027D01*
X79867219Y-75581587D01*
X79730847Y-75636685D01*
X79607773Y-75717222D01*
X79502687Y-75820131D01*
X79419590Y-75941490D01*
X79361648Y-76076679D01*
X79331068Y-76220548D01*
X79329014Y-76367616D01*
X70150000Y-76367616D01*
X70150000Y-74563062D01*
X77349014Y-74563062D01*
X77375565Y-74707728D01*
X77429710Y-74844482D01*
X77509386Y-74968115D01*
X77611558Y-75073917D01*
X77732335Y-75157859D01*
X77867116Y-75216744D01*
X78010767Y-75248328D01*
X78157818Y-75251408D01*
X78302666Y-75225867D01*
X78439794Y-75172679D01*
X78563980Y-75093868D01*
X78670493Y-74992437D01*
X78755277Y-74872249D01*
X78815100Y-74737882D01*
X78847686Y-74594455D01*
X78850032Y-74426459D01*
X78821464Y-74282177D01*
X78765415Y-74146193D01*
X78684021Y-74023684D01*
X78580381Y-73919319D01*
X78458444Y-73837071D01*
X78322854Y-73780075D01*
X78178776Y-73750499D01*
X78031697Y-73749473D01*
X77887219Y-73777033D01*
X77750847Y-73832131D01*
X77627773Y-73912668D01*
X77522687Y-74015577D01*
X77439590Y-74136936D01*
X77381648Y-74272125D01*
X77351068Y-74415994D01*
X77349014Y-74563062D01*
X70150000Y-74563062D01*
X70150000Y-71150000D01*
X73790595Y-71150000D01*
X73857818Y-71151408D01*
G36*
X120350000Y-77655707D02*
X120227589Y-77775581D01*
X120100174Y-77961666D01*
X120011329Y-78168955D01*
X119964440Y-78389554D01*
X119961291Y-78615058D01*
X120002003Y-78836880D01*
X120085024Y-79046569D01*
X120207194Y-79236139D01*
X120350000Y-79384019D01*
X120350000Y-82655707D01*
X120227589Y-82775581D01*
X120100174Y-82961666D01*
X120011329Y-83168955D01*
X119964440Y-83389554D01*
X119961291Y-83615058D01*
X120002003Y-83836880D01*
X120085024Y-84046569D01*
X120207194Y-84236139D01*
X120350000Y-84384019D01*
X120350000Y-91655707D01*
X120227589Y-91775581D01*
X120100174Y-91961666D01*
X120011329Y-92168955D01*
X119964440Y-92389554D01*
X119961291Y-92615058D01*
X120002003Y-92836880D01*
X120085024Y-93046569D01*
X120207194Y-93236139D01*
X120350000Y-93384019D01*
X120350000Y-96655707D01*
X120227589Y-96775581D01*
X120100174Y-96961666D01*
X120011329Y-97168955D01*
X119964440Y-97389554D01*
X119961291Y-97615058D01*
X120002003Y-97836880D01*
X120085024Y-98046569D01*
X120207194Y-98236139D01*
X120350000Y-98384019D01*
X120350000Y-98850000D01*
X88969217Y-98850000D01*
X88916330Y-98796743D01*
X88810652Y-98725462D01*
X88693140Y-98676065D01*
X88568272Y-98650433D01*
X88440804Y-98649543D01*
X88315590Y-98673429D01*
X88197401Y-98721181D01*
X88090737Y-98790979D01*
X88030467Y-98850000D01*
X84000000Y-98850000D01*
X83970736Y-98852882D01*
X83942597Y-98861418D01*
X83916664Y-98875280D01*
X83893934Y-98893934D01*
X83875280Y-98916664D01*
X83861418Y-98942597D01*
X83852882Y-98970736D01*
X83850000Y-99000000D01*
X83850000Y-100752199D01*
X83790737Y-100790979D01*
X83699662Y-100880166D01*
X83627645Y-100985345D01*
X83577428Y-101102509D01*
X83550925Y-101227195D01*
X83549146Y-101354654D01*
X83572157Y-101480031D01*
X83619082Y-101598551D01*
X83688135Y-101705700D01*
X83776684Y-101797395D01*
X83850000Y-101848351D01*
X83850000Y-116250000D01*
X83100000Y-116250000D01*
X83070736Y-116252882D01*
X83042597Y-116261418D01*
X83016664Y-116275280D01*
X82993934Y-116293934D01*
X82975280Y-116316664D01*
X82961418Y-116342597D01*
X82955633Y-116361669D01*
X82906151Y-116287193D01*
X82816330Y-116196743D01*
X82710652Y-116125462D01*
X82593140Y-116076065D01*
X82468272Y-116050433D01*
X82340804Y-116049543D01*
X82215590Y-116073429D01*
X82097401Y-116121181D01*
X81990737Y-116190979D01*
X81899662Y-116280166D01*
X81827645Y-116385345D01*
X81777428Y-116502509D01*
X81750925Y-116627195D01*
X81749146Y-116754654D01*
X81772157Y-116880031D01*
X81819082Y-116998551D01*
X81888135Y-117105700D01*
X81976684Y-117197395D01*
X82081357Y-117270145D01*
X82198167Y-117321178D01*
X82322665Y-117348550D01*
X82384688Y-117349849D01*
X82340804Y-117349543D01*
X82215590Y-117373429D01*
X82097401Y-117421181D01*
X81990737Y-117490979D01*
X81899662Y-117580166D01*
X81827645Y-117685345D01*
X81777428Y-117802509D01*
X81750925Y-117927195D01*
X81749173Y-118052740D01*
X81690737Y-118090979D01*
X81599662Y-118180166D01*
X81527645Y-118285345D01*
X81477428Y-118402509D01*
X81450925Y-118527195D01*
X81449146Y-118654654D01*
X81472157Y-118780031D01*
X81480472Y-118801032D01*
X81399662Y-118880166D01*
X81327645Y-118985345D01*
X81277428Y-119102509D01*
X81250925Y-119227195D01*
X81249146Y-119354654D01*
X81272157Y-119480031D01*
X81319082Y-119598551D01*
X81388135Y-119705700D01*
X81476684Y-119797395D01*
X81581357Y-119870145D01*
X81698167Y-119921178D01*
X81822665Y-119948550D01*
X81950109Y-119951220D01*
X82075644Y-119929085D01*
X82194488Y-119882988D01*
X82302116Y-119814685D01*
X82381150Y-119739423D01*
X82422665Y-119748550D01*
X82550109Y-119751220D01*
X82675644Y-119729085D01*
X82794488Y-119682988D01*
X82902116Y-119614685D01*
X82950000Y-119569086D01*
X82950000Y-121850000D01*
X78000000Y-121850000D01*
X77970736Y-121852882D01*
X77942597Y-121861418D01*
X77916664Y-121875280D01*
X77893934Y-121893934D01*
X77875280Y-121916664D01*
X77861418Y-121942597D01*
X77852882Y-121970736D01*
X77850000Y-122000000D01*
X77850000Y-134850000D01*
X72650304Y-134850000D01*
X72626084Y-134825610D01*
X71959495Y-134375990D01*
X71218269Y-134064408D01*
X70430640Y-133902731D01*
X70150000Y-133900772D01*
X70150000Y-113354654D01*
X81249146Y-113354654D01*
X81272157Y-113480031D01*
X81319082Y-113598551D01*
X81388135Y-113705700D01*
X81476684Y-113797395D01*
X81581357Y-113870145D01*
X81698167Y-113921178D01*
X81822665Y-113948550D01*
X81950109Y-113951220D01*
X82075644Y-113929085D01*
X82194488Y-113882988D01*
X82302116Y-113814685D01*
X82394428Y-113726778D01*
X82467906Y-113622616D01*
X82519754Y-113506165D01*
X82547995Y-113381861D01*
X82550028Y-113236264D01*
X82525268Y-113111220D01*
X82476693Y-112993367D01*
X82406151Y-112887193D01*
X82316330Y-112796743D01*
X82210652Y-112725462D01*
X82093140Y-112676065D01*
X81968272Y-112650433D01*
X81840804Y-112649543D01*
X81715590Y-112673429D01*
X81597401Y-112721181D01*
X81490737Y-112790979D01*
X81399662Y-112880166D01*
X81327645Y-112985345D01*
X81277428Y-113102509D01*
X81250925Y-113227195D01*
X81249146Y-113354654D01*
X70150000Y-113354654D01*
X70150000Y-107454654D01*
X81249146Y-107454654D01*
X81272157Y-107580031D01*
X81319082Y-107698551D01*
X81388135Y-107805700D01*
X81476684Y-107897395D01*
X81581357Y-107970145D01*
X81698167Y-108021178D01*
X81822665Y-108048550D01*
X81950109Y-108051220D01*
X82075644Y-108029085D01*
X82194488Y-107982988D01*
X82302116Y-107914685D01*
X82394428Y-107826778D01*
X82467906Y-107722616D01*
X82519754Y-107606165D01*
X82547995Y-107481861D01*
X82550028Y-107336264D01*
X82525268Y-107211220D01*
X82476693Y-107093367D01*
X82406151Y-106987193D01*
X82316330Y-106896743D01*
X82210652Y-106825462D01*
X82093140Y-106776065D01*
X81968272Y-106750433D01*
X81840804Y-106749543D01*
X81715590Y-106773429D01*
X81597401Y-106821181D01*
X81490737Y-106890979D01*
X81399662Y-106980166D01*
X81327645Y-107085345D01*
X81277428Y-107202509D01*
X81250925Y-107327195D01*
X81249146Y-107454654D01*
X70150000Y-107454654D01*
X70150000Y-103754654D01*
X80849146Y-103754654D01*
X80872157Y-103880031D01*
X80919082Y-103998551D01*
X80988135Y-104105700D01*
X81076684Y-104197395D01*
X81181357Y-104270145D01*
X81298167Y-104321178D01*
X81422665Y-104348550D01*
X81550109Y-104351220D01*
X81646594Y-104334207D01*
X81599662Y-104380166D01*
X81527645Y-104485345D01*
X81477428Y-104602509D01*
X81450925Y-104727195D01*
X81449146Y-104854654D01*
X81472157Y-104980031D01*
X81519082Y-105098551D01*
X81588135Y-105205700D01*
X81676684Y-105297395D01*
X81781357Y-105370145D01*
X81898167Y-105421178D01*
X82022665Y-105448550D01*
X82084688Y-105449849D01*
X82040804Y-105449543D01*
X81915590Y-105473429D01*
X81797401Y-105521181D01*
X81690737Y-105590979D01*
X81599662Y-105680166D01*
X81527645Y-105785345D01*
X81477428Y-105902509D01*
X81450925Y-106027195D01*
X81449146Y-106154654D01*
X81472157Y-106280031D01*
X81519082Y-106398551D01*
X81588135Y-106505700D01*
X81676684Y-106597395D01*
X81781357Y-106670145D01*
X81898167Y-106721178D01*
X82022665Y-106748550D01*
X82150109Y-106751220D01*
X82275644Y-106729085D01*
X82394488Y-106682988D01*
X82502116Y-106614685D01*
X82594428Y-106526778D01*
X82667906Y-106422616D01*
X82719754Y-106306165D01*
X82747995Y-106181861D01*
X82750028Y-106036264D01*
X82725268Y-105911220D01*
X82676693Y-105793367D01*
X82606151Y-105687193D01*
X82516330Y-105596743D01*
X82410652Y-105525462D01*
X82293140Y-105476065D01*
X82168272Y-105450433D01*
X82155094Y-105450341D01*
X82275644Y-105429085D01*
X82394488Y-105382988D01*
X82502116Y-105314685D01*
X82594428Y-105226778D01*
X82667906Y-105122616D01*
X82719754Y-105006165D01*
X82747995Y-104881861D01*
X82750028Y-104736264D01*
X82725268Y-104611220D01*
X82676693Y-104493367D01*
X82606151Y-104387193D01*
X82516330Y-104296743D01*
X82410652Y-104225462D01*
X82293140Y-104176065D01*
X82168272Y-104150433D01*
X82040804Y-104149543D01*
X81952917Y-104166309D01*
X81994428Y-104126778D01*
X82067906Y-104022616D01*
X82119754Y-103906165D01*
X82147995Y-103781861D01*
X82148665Y-103733842D01*
X82175644Y-103729085D01*
X82294488Y-103682988D01*
X82402116Y-103614685D01*
X82494428Y-103526778D01*
X82567906Y-103422616D01*
X82619754Y-103306165D01*
X82647995Y-103181861D01*
X82650028Y-103036264D01*
X82625268Y-102911220D01*
X82576693Y-102793367D01*
X82506151Y-102687193D01*
X82416330Y-102596743D01*
X82310652Y-102525462D01*
X82193140Y-102476065D01*
X82068272Y-102450433D01*
X81940804Y-102449543D01*
X81815590Y-102473429D01*
X81697401Y-102521181D01*
X81590737Y-102590979D01*
X81499662Y-102680166D01*
X81427645Y-102785345D01*
X81377428Y-102902509D01*
X81350925Y-103027195D01*
X81350372Y-103066794D01*
X81315590Y-103073429D01*
X81197401Y-103121181D01*
X81090737Y-103190979D01*
X80999662Y-103280166D01*
X80927645Y-103385345D01*
X80877428Y-103502509D01*
X80850925Y-103627195D01*
X80849146Y-103754654D01*
X70150000Y-103754654D01*
X70150000Y-96754654D01*
X77749146Y-96754654D01*
X77772157Y-96880031D01*
X77819082Y-96998551D01*
X77880883Y-97094447D01*
X77877428Y-97102509D01*
X77850925Y-97227195D01*
X77849146Y-97354654D01*
X77872157Y-97480031D01*
X77919082Y-97598551D01*
X77988135Y-97705700D01*
X78076684Y-97797395D01*
X78181357Y-97870145D01*
X78298167Y-97921178D01*
X78422665Y-97948550D01*
X78550109Y-97951220D01*
X78675644Y-97929085D01*
X78794488Y-97882988D01*
X78902116Y-97814685D01*
X78994428Y-97726778D01*
X79067906Y-97622616D01*
X79098165Y-97554654D01*
X89449146Y-97554654D01*
X89472157Y-97680031D01*
X89519082Y-97798551D01*
X89520825Y-97801256D01*
X89477428Y-97902509D01*
X89450925Y-98027195D01*
X89449146Y-98154654D01*
X89472157Y-98280031D01*
X89519082Y-98398551D01*
X89588135Y-98505700D01*
X89676684Y-98597395D01*
X89781357Y-98670145D01*
X89898167Y-98721178D01*
X90022665Y-98748550D01*
X90150109Y-98751220D01*
X90275644Y-98729085D01*
X90394488Y-98682988D01*
X90502116Y-98614685D01*
X90594428Y-98526778D01*
X90667906Y-98422616D01*
X90719754Y-98306165D01*
X90747995Y-98181861D01*
X90750028Y-98036264D01*
X90725268Y-97911220D01*
X90678729Y-97798307D01*
X90719754Y-97706165D01*
X90740452Y-97615058D01*
X107961291Y-97615058D01*
X108002003Y-97836880D01*
X108085024Y-98046569D01*
X108207194Y-98236139D01*
X108363858Y-98398369D01*
X108549049Y-98527080D01*
X108755713Y-98617370D01*
X108975979Y-98665798D01*
X109201456Y-98670521D01*
X109423556Y-98631359D01*
X109633820Y-98549803D01*
X109824238Y-98428960D01*
X109987558Y-98273432D01*
X110117559Y-98089144D01*
X110209289Y-97883116D01*
X110259254Y-97663194D01*
X110259926Y-97615058D01*
X113961291Y-97615058D01*
X114002003Y-97836880D01*
X114085024Y-98046569D01*
X114207194Y-98236139D01*
X114363858Y-98398369D01*
X114549049Y-98527080D01*
X114755713Y-98617370D01*
X114975979Y-98665798D01*
X115201456Y-98670521D01*
X115423556Y-98631359D01*
X115633820Y-98549803D01*
X115824238Y-98428960D01*
X115987558Y-98273432D01*
X116117559Y-98089144D01*
X116209289Y-97883116D01*
X116259254Y-97663194D01*
X116262851Y-97405600D01*
X116219046Y-97184368D01*
X116133104Y-96975859D01*
X116008300Y-96788013D01*
X115849386Y-96627986D01*
X115662416Y-96501873D01*
X115454512Y-96414478D01*
X115233591Y-96369129D01*
X115008070Y-96367555D01*
X114786538Y-96409814D01*
X114577434Y-96494298D01*
X114388721Y-96617788D01*
X114227589Y-96775581D01*
X114100174Y-96961666D01*
X114011329Y-97168955D01*
X113964440Y-97389554D01*
X113961291Y-97615058D01*
X110259926Y-97615058D01*
X110262851Y-97405600D01*
X110219046Y-97184368D01*
X110133104Y-96975859D01*
X110008300Y-96788013D01*
X109849386Y-96627986D01*
X109662416Y-96501873D01*
X109454512Y-96414478D01*
X109233591Y-96369129D01*
X109008070Y-96367555D01*
X108786538Y-96409814D01*
X108577434Y-96494298D01*
X108388721Y-96617788D01*
X108227589Y-96775581D01*
X108100174Y-96961666D01*
X108011329Y-97168955D01*
X107964440Y-97389554D01*
X107961291Y-97615058D01*
X90740452Y-97615058D01*
X90747995Y-97581861D01*
X90750028Y-97436264D01*
X90725268Y-97311220D01*
X90676693Y-97193367D01*
X90606151Y-97087193D01*
X90516330Y-96996743D01*
X90410652Y-96925462D01*
X90293140Y-96876065D01*
X90168272Y-96850433D01*
X90040804Y-96849543D01*
X89915590Y-96873429D01*
X89797401Y-96921181D01*
X89690737Y-96990979D01*
X89599662Y-97080166D01*
X89527645Y-97185345D01*
X89477428Y-97302509D01*
X89450925Y-97427195D01*
X89449146Y-97554654D01*
X79098165Y-97554654D01*
X79119754Y-97506165D01*
X79147995Y-97381861D01*
X79150028Y-97236264D01*
X79125268Y-97111220D01*
X79076693Y-96993367D01*
X79019354Y-96907064D01*
X79019754Y-96906165D01*
X79047995Y-96781861D01*
X79050028Y-96636264D01*
X79025268Y-96511220D01*
X78976693Y-96393367D01*
X78906151Y-96287193D01*
X78816330Y-96196743D01*
X78710652Y-96125462D01*
X78593140Y-96076065D01*
X78468272Y-96050433D01*
X78340804Y-96049543D01*
X78215590Y-96073429D01*
X78097401Y-96121181D01*
X77990737Y-96190979D01*
X77899662Y-96280166D01*
X77827645Y-96385345D01*
X77777428Y-96502509D01*
X77750925Y-96627195D01*
X77749146Y-96754654D01*
X70150000Y-96754654D01*
X70150000Y-94854654D01*
X76249146Y-94854654D01*
X76272157Y-94980031D01*
X76319082Y-95098551D01*
X76388135Y-95205700D01*
X76476684Y-95297395D01*
X76581357Y-95370145D01*
X76686415Y-95416044D01*
X76719082Y-95498551D01*
X76788135Y-95605700D01*
X76876684Y-95697395D01*
X76981357Y-95770145D01*
X77098167Y-95821178D01*
X77222665Y-95848550D01*
X77350109Y-95851220D01*
X77475644Y-95829085D01*
X77594488Y-95782988D01*
X77702116Y-95714685D01*
X77794428Y-95626778D01*
X77867906Y-95522616D01*
X77919754Y-95406165D01*
X77947995Y-95281861D01*
X77950028Y-95136264D01*
X77925268Y-95011220D01*
X77876693Y-94893367D01*
X77806151Y-94787193D01*
X77716330Y-94696743D01*
X77610652Y-94625462D01*
X77514475Y-94585033D01*
X77476693Y-94493367D01*
X77406151Y-94387193D01*
X77316330Y-94296743D01*
X77210652Y-94225462D01*
X77093140Y-94176065D01*
X76968272Y-94150433D01*
X76840804Y-94149543D01*
X76715590Y-94173429D01*
X76597401Y-94221181D01*
X76490737Y-94290979D01*
X76399662Y-94380166D01*
X76327645Y-94485345D01*
X76277428Y-94602509D01*
X76250925Y-94727195D01*
X76249146Y-94854654D01*
X70150000Y-94854654D01*
X70150000Y-92650000D01*
X84371846Y-92650000D01*
X84347645Y-92685345D01*
X84297428Y-92802509D01*
X84270925Y-92927195D01*
X84269146Y-93054654D01*
X84292157Y-93180031D01*
X84339082Y-93298551D01*
X84408135Y-93405700D01*
X84496684Y-93497395D01*
X84601357Y-93570145D01*
X84718167Y-93621178D01*
X84842665Y-93648550D01*
X84970109Y-93651220D01*
X85095644Y-93629085D01*
X85214488Y-93582988D01*
X85322116Y-93514685D01*
X85414428Y-93426778D01*
X85487906Y-93322616D01*
X85539754Y-93206165D01*
X85567995Y-93081861D01*
X85570028Y-92936264D01*
X85545268Y-92811220D01*
X85496693Y-92693367D01*
X85467880Y-92650000D01*
X90938408Y-92650000D01*
X90815590Y-92673429D01*
X90697401Y-92721181D01*
X90590737Y-92790979D01*
X90499662Y-92880166D01*
X90427645Y-92985345D01*
X90377428Y-93102509D01*
X90350925Y-93227195D01*
X90350612Y-93249611D01*
X90340804Y-93249543D01*
X90215590Y-93273429D01*
X90097401Y-93321181D01*
X89990737Y-93390979D01*
X89899662Y-93480166D01*
X89827645Y-93585345D01*
X89777428Y-93702509D01*
X89750925Y-93827195D01*
X89749146Y-93954654D01*
X89772157Y-94080031D01*
X89819082Y-94198551D01*
X89888135Y-94305700D01*
X89976684Y-94397395D01*
X90081357Y-94470145D01*
X90198167Y-94521178D01*
X90322665Y-94548550D01*
X90450109Y-94551220D01*
X90575644Y-94529085D01*
X90694488Y-94482988D01*
X90802116Y-94414685D01*
X90894428Y-94326778D01*
X90967906Y-94222616D01*
X91019754Y-94106165D01*
X91047995Y-93981861D01*
X91048423Y-93951185D01*
X91050109Y-93951220D01*
X91175644Y-93929085D01*
X91294488Y-93882988D01*
X91402116Y-93814685D01*
X91494428Y-93726778D01*
X91567906Y-93622616D01*
X91619754Y-93506165D01*
X91647995Y-93381861D01*
X91650028Y-93236264D01*
X91625268Y-93111220D01*
X91576693Y-92993367D01*
X91506151Y-92887193D01*
X91416330Y-92796743D01*
X91310652Y-92725462D01*
X91193140Y-92676065D01*
X91068272Y-92650433D01*
X91006257Y-92650000D01*
X104500000Y-92650000D01*
X104529264Y-92647118D01*
X104557403Y-92638582D01*
X104583336Y-92624720D01*
X104595109Y-92615058D01*
X107961291Y-92615058D01*
X108002003Y-92836880D01*
X108085024Y-93046569D01*
X108207194Y-93236139D01*
X108363858Y-93398369D01*
X108549049Y-93527080D01*
X108755713Y-93617370D01*
X108975979Y-93665798D01*
X109201456Y-93670521D01*
X109423556Y-93631359D01*
X109633820Y-93549803D01*
X109824238Y-93428960D01*
X109987558Y-93273432D01*
X110117559Y-93089144D01*
X110209289Y-92883116D01*
X110259254Y-92663194D01*
X110259926Y-92615058D01*
X113961291Y-92615058D01*
X114002003Y-92836880D01*
X114085024Y-93046569D01*
X114207194Y-93236139D01*
X114363858Y-93398369D01*
X114549049Y-93527080D01*
X114755713Y-93617370D01*
X114975979Y-93665798D01*
X115201456Y-93670521D01*
X115423556Y-93631359D01*
X115633820Y-93549803D01*
X115824238Y-93428960D01*
X115987558Y-93273432D01*
X116117559Y-93089144D01*
X116209289Y-92883116D01*
X116259254Y-92663194D01*
X116262851Y-92405600D01*
X116219046Y-92184368D01*
X116133104Y-91975859D01*
X116008300Y-91788013D01*
X115849386Y-91627986D01*
X115662416Y-91501873D01*
X115454512Y-91414478D01*
X115233591Y-91369129D01*
X115008070Y-91367555D01*
X114786538Y-91409814D01*
X114577434Y-91494298D01*
X114388721Y-91617788D01*
X114227589Y-91775581D01*
X114100174Y-91961666D01*
X114011329Y-92168955D01*
X113964440Y-92389554D01*
X113961291Y-92615058D01*
X110259926Y-92615058D01*
X110262851Y-92405600D01*
X110219046Y-92184368D01*
X110133104Y-91975859D01*
X110008300Y-91788013D01*
X109849386Y-91627986D01*
X109662416Y-91501873D01*
X109454512Y-91414478D01*
X109233591Y-91369129D01*
X109008070Y-91367555D01*
X108786538Y-91409814D01*
X108577434Y-91494298D01*
X108388721Y-91617788D01*
X108227589Y-91775581D01*
X108100174Y-91961666D01*
X108011329Y-92168955D01*
X107964440Y-92389554D01*
X107961291Y-92615058D01*
X104595109Y-92615058D01*
X104606066Y-92606066D01*
X104624720Y-92583336D01*
X104638582Y-92557403D01*
X104647118Y-92529264D01*
X104650000Y-92500000D01*
X104650000Y-87054654D01*
X110549146Y-87054654D01*
X110572157Y-87180031D01*
X110619082Y-87298551D01*
X110688135Y-87405700D01*
X110776684Y-87497395D01*
X110881357Y-87570145D01*
X110998167Y-87621178D01*
X111122665Y-87648550D01*
X111250109Y-87651220D01*
X111375644Y-87629085D01*
X111494488Y-87582988D01*
X111602116Y-87514685D01*
X111694428Y-87426778D01*
X111767906Y-87322616D01*
X111819754Y-87206165D01*
X111837117Y-87129741D01*
X111922665Y-87148550D01*
X112050109Y-87151220D01*
X112175644Y-87129085D01*
X112294488Y-87082988D01*
X112402116Y-87014685D01*
X112494428Y-86926778D01*
X112567906Y-86822616D01*
X112619754Y-86706165D01*
X112647995Y-86581861D01*
X112650028Y-86436264D01*
X112625268Y-86311220D01*
X112576693Y-86193367D01*
X112506151Y-86087193D01*
X112416330Y-85996743D01*
X112310652Y-85925462D01*
X112193140Y-85876065D01*
X112068272Y-85850433D01*
X111940804Y-85849543D01*
X111815590Y-85873429D01*
X111697401Y-85921181D01*
X111590737Y-85990979D01*
X111499662Y-86080166D01*
X111427645Y-86185345D01*
X111377428Y-86302509D01*
X111363104Y-86369899D01*
X111268272Y-86350433D01*
X111140804Y-86349543D01*
X111015590Y-86373429D01*
X110897401Y-86421181D01*
X110790737Y-86490979D01*
X110699662Y-86580166D01*
X110627645Y-86685345D01*
X110577428Y-86802509D01*
X110550925Y-86927195D01*
X110549146Y-87054654D01*
X104650000Y-87054654D01*
X104650000Y-83615058D01*
X107961291Y-83615058D01*
X108002003Y-83836880D01*
X108085024Y-84046569D01*
X108207194Y-84236139D01*
X108363858Y-84398369D01*
X108549049Y-84527080D01*
X108755713Y-84617370D01*
X108975979Y-84665798D01*
X109201456Y-84670521D01*
X109423556Y-84631359D01*
X109633820Y-84549803D01*
X109824238Y-84428960D01*
X109987558Y-84273432D01*
X110117559Y-84089144D01*
X110209289Y-83883116D01*
X110259254Y-83663194D01*
X110259926Y-83615058D01*
X113961291Y-83615058D01*
X114002003Y-83836880D01*
X114085024Y-84046569D01*
X114207194Y-84236139D01*
X114363858Y-84398369D01*
X114549049Y-84527080D01*
X114755713Y-84617370D01*
X114975979Y-84665798D01*
X115201456Y-84670521D01*
X115423556Y-84631359D01*
X115633820Y-84549803D01*
X115824238Y-84428960D01*
X115987558Y-84273432D01*
X116117559Y-84089144D01*
X116209289Y-83883116D01*
X116259254Y-83663194D01*
X116262851Y-83405600D01*
X116219046Y-83184368D01*
X116133104Y-82975859D01*
X116008300Y-82788013D01*
X115849386Y-82627986D01*
X115662416Y-82501873D01*
X115454512Y-82414478D01*
X115233591Y-82369129D01*
X115008070Y-82367555D01*
X114786538Y-82409814D01*
X114577434Y-82494298D01*
X114388721Y-82617788D01*
X114227589Y-82775581D01*
X114100174Y-82961666D01*
X114011329Y-83168955D01*
X113964440Y-83389554D01*
X113961291Y-83615058D01*
X110259926Y-83615058D01*
X110262851Y-83405600D01*
X110219046Y-83184368D01*
X110133104Y-82975859D01*
X110008300Y-82788013D01*
X109849386Y-82627986D01*
X109662416Y-82501873D01*
X109454512Y-82414478D01*
X109233591Y-82369129D01*
X109008070Y-82367555D01*
X108786538Y-82409814D01*
X108577434Y-82494298D01*
X108388721Y-82617788D01*
X108227589Y-82775581D01*
X108100174Y-82961666D01*
X108011329Y-83168955D01*
X107964440Y-83389554D01*
X107961291Y-83615058D01*
X104650000Y-83615058D01*
X104650000Y-78615058D01*
X107961291Y-78615058D01*
X108002003Y-78836880D01*
X108085024Y-79046569D01*
X108207194Y-79236139D01*
X108363858Y-79398369D01*
X108549049Y-79527080D01*
X108755713Y-79617370D01*
X108975979Y-79665798D01*
X109201456Y-79670521D01*
X109423556Y-79631359D01*
X109633820Y-79549803D01*
X109824238Y-79428960D01*
X109987558Y-79273432D01*
X110117559Y-79089144D01*
X110209289Y-78883116D01*
X110259254Y-78663194D01*
X110259926Y-78615058D01*
X113961291Y-78615058D01*
X114002003Y-78836880D01*
X114085024Y-79046569D01*
X114207194Y-79236139D01*
X114363858Y-79398369D01*
X114549049Y-79527080D01*
X114755713Y-79617370D01*
X114975979Y-79665798D01*
X115201456Y-79670521D01*
X115423556Y-79631359D01*
X115633820Y-79549803D01*
X115824238Y-79428960D01*
X115987558Y-79273432D01*
X116117559Y-79089144D01*
X116209289Y-78883116D01*
X116259254Y-78663194D01*
X116262851Y-78405600D01*
X116219046Y-78184368D01*
X116133104Y-77975859D01*
X116008300Y-77788013D01*
X115849386Y-77627986D01*
X115662416Y-77501873D01*
X115454512Y-77414478D01*
X115233591Y-77369129D01*
X115008070Y-77367555D01*
X114786538Y-77409814D01*
X114577434Y-77494298D01*
X114388721Y-77617788D01*
X114227589Y-77775581D01*
X114100174Y-77961666D01*
X114011329Y-78168955D01*
X113964440Y-78389554D01*
X113961291Y-78615058D01*
X110259926Y-78615058D01*
X110262851Y-78405600D01*
X110219046Y-78184368D01*
X110133104Y-77975859D01*
X110008300Y-77788013D01*
X109849386Y-77627986D01*
X109662416Y-77501873D01*
X109454512Y-77414478D01*
X109233591Y-77369129D01*
X109008070Y-77367555D01*
X108786538Y-77409814D01*
X108577434Y-77494298D01*
X108388721Y-77617788D01*
X108227589Y-77775581D01*
X108100174Y-77961666D01*
X108011329Y-78168955D01*
X107964440Y-78389554D01*
X107961291Y-78615058D01*
X104650000Y-78615058D01*
X104650000Y-74615058D01*
X116661291Y-74615058D01*
X116702003Y-74836880D01*
X116785024Y-75046569D01*
X116907194Y-75236139D01*
X117063858Y-75398369D01*
X117249049Y-75527080D01*
X117455713Y-75617370D01*
X117675979Y-75665798D01*
X117901456Y-75670521D01*
X118123556Y-75631359D01*
X118333820Y-75549803D01*
X118524238Y-75428960D01*
X118687558Y-75273432D01*
X118817559Y-75089144D01*
X118909289Y-74883116D01*
X118959254Y-74663194D01*
X118962851Y-74405600D01*
X118919046Y-74184368D01*
X118833104Y-73975859D01*
X118708300Y-73788013D01*
X118549386Y-73627986D01*
X118362416Y-73501873D01*
X118154512Y-73414478D01*
X117933591Y-73369129D01*
X117708070Y-73367555D01*
X117486538Y-73409814D01*
X117277434Y-73494298D01*
X117088721Y-73617788D01*
X116927589Y-73775581D01*
X116800174Y-73961666D01*
X116711329Y-74168955D01*
X116664440Y-74389554D01*
X116661291Y-74615058D01*
X104650000Y-74615058D01*
X104650000Y-68150000D01*
X120350000Y-68150000D01*
X120350000Y-77655707D01*
X120350000Y-77655707D01*
G37*
X120350000Y-77655707D02*
X120227589Y-77775581D01*
X120100174Y-77961666D01*
X120011329Y-78168955D01*
X119964440Y-78389554D01*
X119961291Y-78615058D01*
X120002003Y-78836880D01*
X120085024Y-79046569D01*
X120207194Y-79236139D01*
X120350000Y-79384019D01*
X120350000Y-82655707D01*
X120227589Y-82775581D01*
X120100174Y-82961666D01*
X120011329Y-83168955D01*
X119964440Y-83389554D01*
X119961291Y-83615058D01*
X120002003Y-83836880D01*
X120085024Y-84046569D01*
X120207194Y-84236139D01*
X120350000Y-84384019D01*
X120350000Y-91655707D01*
X120227589Y-91775581D01*
X120100174Y-91961666D01*
X120011329Y-92168955D01*
X119964440Y-92389554D01*
X119961291Y-92615058D01*
X120002003Y-92836880D01*
X120085024Y-93046569D01*
X120207194Y-93236139D01*
X120350000Y-93384019D01*
X120350000Y-96655707D01*
X120227589Y-96775581D01*
X120100174Y-96961666D01*
X120011329Y-97168955D01*
X119964440Y-97389554D01*
X119961291Y-97615058D01*
X120002003Y-97836880D01*
X120085024Y-98046569D01*
X120207194Y-98236139D01*
X120350000Y-98384019D01*
X120350000Y-98850000D01*
X88969217Y-98850000D01*
X88916330Y-98796743D01*
X88810652Y-98725462D01*
X88693140Y-98676065D01*
X88568272Y-98650433D01*
X88440804Y-98649543D01*
X88315590Y-98673429D01*
X88197401Y-98721181D01*
X88090737Y-98790979D01*
X88030467Y-98850000D01*
X84000000Y-98850000D01*
X83970736Y-98852882D01*
X83942597Y-98861418D01*
X83916664Y-98875280D01*
X83893934Y-98893934D01*
X83875280Y-98916664D01*
X83861418Y-98942597D01*
X83852882Y-98970736D01*
X83850000Y-99000000D01*
X83850000Y-100752199D01*
X83790737Y-100790979D01*
X83699662Y-100880166D01*
X83627645Y-100985345D01*
X83577428Y-101102509D01*
X83550925Y-101227195D01*
X83549146Y-101354654D01*
X83572157Y-101480031D01*
X83619082Y-101598551D01*
X83688135Y-101705700D01*
X83776684Y-101797395D01*
X83850000Y-101848351D01*
X83850000Y-116250000D01*
X83100000Y-116250000D01*
X83070736Y-116252882D01*
X83042597Y-116261418D01*
X83016664Y-116275280D01*
X82993934Y-116293934D01*
X82975280Y-116316664D01*
X82961418Y-116342597D01*
X82955633Y-116361669D01*
X82906151Y-116287193D01*
X82816330Y-116196743D01*
X82710652Y-116125462D01*
X82593140Y-116076065D01*
X82468272Y-116050433D01*
X82340804Y-116049543D01*
X82215590Y-116073429D01*
X82097401Y-116121181D01*
X81990737Y-116190979D01*
X81899662Y-116280166D01*
X81827645Y-116385345D01*
X81777428Y-116502509D01*
X81750925Y-116627195D01*
X81749146Y-116754654D01*
X81772157Y-116880031D01*
X81819082Y-116998551D01*
X81888135Y-117105700D01*
X81976684Y-117197395D01*
X82081357Y-117270145D01*
X82198167Y-117321178D01*
X82322665Y-117348550D01*
X82384688Y-117349849D01*
X82340804Y-117349543D01*
X82215590Y-117373429D01*
X82097401Y-117421181D01*
X81990737Y-117490979D01*
X81899662Y-117580166D01*
X81827645Y-117685345D01*
X81777428Y-117802509D01*
X81750925Y-117927195D01*
X81749173Y-118052740D01*
X81690737Y-118090979D01*
X81599662Y-118180166D01*
X81527645Y-118285345D01*
X81477428Y-118402509D01*
X81450925Y-118527195D01*
X81449146Y-118654654D01*
X81472157Y-118780031D01*
X81480472Y-118801032D01*
X81399662Y-118880166D01*
X81327645Y-118985345D01*
X81277428Y-119102509D01*
X81250925Y-119227195D01*
X81249146Y-119354654D01*
X81272157Y-119480031D01*
X81319082Y-119598551D01*
X81388135Y-119705700D01*
X81476684Y-119797395D01*
X81581357Y-119870145D01*
X81698167Y-119921178D01*
X81822665Y-119948550D01*
X81950109Y-119951220D01*
X82075644Y-119929085D01*
X82194488Y-119882988D01*
X82302116Y-119814685D01*
X82381150Y-119739423D01*
X82422665Y-119748550D01*
X82550109Y-119751220D01*
X82675644Y-119729085D01*
X82794488Y-119682988D01*
X82902116Y-119614685D01*
X82950000Y-119569086D01*
X82950000Y-121850000D01*
X78000000Y-121850000D01*
X77970736Y-121852882D01*
X77942597Y-121861418D01*
X77916664Y-121875280D01*
X77893934Y-121893934D01*
X77875280Y-121916664D01*
X77861418Y-121942597D01*
X77852882Y-121970736D01*
X77850000Y-122000000D01*
X77850000Y-134850000D01*
X72650304Y-134850000D01*
X72626084Y-134825610D01*
X71959495Y-134375990D01*
X71218269Y-134064408D01*
X70430640Y-133902731D01*
X70150000Y-133900772D01*
X70150000Y-113354654D01*
X81249146Y-113354654D01*
X81272157Y-113480031D01*
X81319082Y-113598551D01*
X81388135Y-113705700D01*
X81476684Y-113797395D01*
X81581357Y-113870145D01*
X81698167Y-113921178D01*
X81822665Y-113948550D01*
X81950109Y-113951220D01*
X82075644Y-113929085D01*
X82194488Y-113882988D01*
X82302116Y-113814685D01*
X82394428Y-113726778D01*
X82467906Y-113622616D01*
X82519754Y-113506165D01*
X82547995Y-113381861D01*
X82550028Y-113236264D01*
X82525268Y-113111220D01*
X82476693Y-112993367D01*
X82406151Y-112887193D01*
X82316330Y-112796743D01*
X82210652Y-112725462D01*
X82093140Y-112676065D01*
X81968272Y-112650433D01*
X81840804Y-112649543D01*
X81715590Y-112673429D01*
X81597401Y-112721181D01*
X81490737Y-112790979D01*
X81399662Y-112880166D01*
X81327645Y-112985345D01*
X81277428Y-113102509D01*
X81250925Y-113227195D01*
X81249146Y-113354654D01*
X70150000Y-113354654D01*
X70150000Y-107454654D01*
X81249146Y-107454654D01*
X81272157Y-107580031D01*
X81319082Y-107698551D01*
X81388135Y-107805700D01*
X81476684Y-107897395D01*
X81581357Y-107970145D01*
X81698167Y-108021178D01*
X81822665Y-108048550D01*
X81950109Y-108051220D01*
X82075644Y-108029085D01*
X82194488Y-107982988D01*
X82302116Y-107914685D01*
X82394428Y-107826778D01*
X82467906Y-107722616D01*
X82519754Y-107606165D01*
X82547995Y-107481861D01*
X82550028Y-107336264D01*
X82525268Y-107211220D01*
X82476693Y-107093367D01*
X82406151Y-106987193D01*
X82316330Y-106896743D01*
X82210652Y-106825462D01*
X82093140Y-106776065D01*
X81968272Y-106750433D01*
X81840804Y-106749543D01*
X81715590Y-106773429D01*
X81597401Y-106821181D01*
X81490737Y-106890979D01*
X81399662Y-106980166D01*
X81327645Y-107085345D01*
X81277428Y-107202509D01*
X81250925Y-107327195D01*
X81249146Y-107454654D01*
X70150000Y-107454654D01*
X70150000Y-103754654D01*
X80849146Y-103754654D01*
X80872157Y-103880031D01*
X80919082Y-103998551D01*
X80988135Y-104105700D01*
X81076684Y-104197395D01*
X81181357Y-104270145D01*
X81298167Y-104321178D01*
X81422665Y-104348550D01*
X81550109Y-104351220D01*
X81646594Y-104334207D01*
X81599662Y-104380166D01*
X81527645Y-104485345D01*
X81477428Y-104602509D01*
X81450925Y-104727195D01*
X81449146Y-104854654D01*
X81472157Y-104980031D01*
X81519082Y-105098551D01*
X81588135Y-105205700D01*
X81676684Y-105297395D01*
X81781357Y-105370145D01*
X81898167Y-105421178D01*
X82022665Y-105448550D01*
X82084688Y-105449849D01*
X82040804Y-105449543D01*
X81915590Y-105473429D01*
X81797401Y-105521181D01*
X81690737Y-105590979D01*
X81599662Y-105680166D01*
X81527645Y-105785345D01*
X81477428Y-105902509D01*
X81450925Y-106027195D01*
X81449146Y-106154654D01*
X81472157Y-106280031D01*
X81519082Y-106398551D01*
X81588135Y-106505700D01*
X81676684Y-106597395D01*
X81781357Y-106670145D01*
X81898167Y-106721178D01*
X82022665Y-106748550D01*
X82150109Y-106751220D01*
X82275644Y-106729085D01*
X82394488Y-106682988D01*
X82502116Y-106614685D01*
X82594428Y-106526778D01*
X82667906Y-106422616D01*
X82719754Y-106306165D01*
X82747995Y-106181861D01*
X82750028Y-106036264D01*
X82725268Y-105911220D01*
X82676693Y-105793367D01*
X82606151Y-105687193D01*
X82516330Y-105596743D01*
X82410652Y-105525462D01*
X82293140Y-105476065D01*
X82168272Y-105450433D01*
X82155094Y-105450341D01*
X82275644Y-105429085D01*
X82394488Y-105382988D01*
X82502116Y-105314685D01*
X82594428Y-105226778D01*
X82667906Y-105122616D01*
X82719754Y-105006165D01*
X82747995Y-104881861D01*
X82750028Y-104736264D01*
X82725268Y-104611220D01*
X82676693Y-104493367D01*
X82606151Y-104387193D01*
X82516330Y-104296743D01*
X82410652Y-104225462D01*
X82293140Y-104176065D01*
X82168272Y-104150433D01*
X82040804Y-104149543D01*
X81952917Y-104166309D01*
X81994428Y-104126778D01*
X82067906Y-104022616D01*
X82119754Y-103906165D01*
X82147995Y-103781861D01*
X82148665Y-103733842D01*
X82175644Y-103729085D01*
X82294488Y-103682988D01*
X82402116Y-103614685D01*
X82494428Y-103526778D01*
X82567906Y-103422616D01*
X82619754Y-103306165D01*
X82647995Y-103181861D01*
X82650028Y-103036264D01*
X82625268Y-102911220D01*
X82576693Y-102793367D01*
X82506151Y-102687193D01*
X82416330Y-102596743D01*
X82310652Y-102525462D01*
X82193140Y-102476065D01*
X82068272Y-102450433D01*
X81940804Y-102449543D01*
X81815590Y-102473429D01*
X81697401Y-102521181D01*
X81590737Y-102590979D01*
X81499662Y-102680166D01*
X81427645Y-102785345D01*
X81377428Y-102902509D01*
X81350925Y-103027195D01*
X81350372Y-103066794D01*
X81315590Y-103073429D01*
X81197401Y-103121181D01*
X81090737Y-103190979D01*
X80999662Y-103280166D01*
X80927645Y-103385345D01*
X80877428Y-103502509D01*
X80850925Y-103627195D01*
X80849146Y-103754654D01*
X70150000Y-103754654D01*
X70150000Y-96754654D01*
X77749146Y-96754654D01*
X77772157Y-96880031D01*
X77819082Y-96998551D01*
X77880883Y-97094447D01*
X77877428Y-97102509D01*
X77850925Y-97227195D01*
X77849146Y-97354654D01*
X77872157Y-97480031D01*
X77919082Y-97598551D01*
X77988135Y-97705700D01*
X78076684Y-97797395D01*
X78181357Y-97870145D01*
X78298167Y-97921178D01*
X78422665Y-97948550D01*
X78550109Y-97951220D01*
X78675644Y-97929085D01*
X78794488Y-97882988D01*
X78902116Y-97814685D01*
X78994428Y-97726778D01*
X79067906Y-97622616D01*
X79098165Y-97554654D01*
X89449146Y-97554654D01*
X89472157Y-97680031D01*
X89519082Y-97798551D01*
X89520825Y-97801256D01*
X89477428Y-97902509D01*
X89450925Y-98027195D01*
X89449146Y-98154654D01*
X89472157Y-98280031D01*
X89519082Y-98398551D01*
X89588135Y-98505700D01*
X89676684Y-98597395D01*
X89781357Y-98670145D01*
X89898167Y-98721178D01*
X90022665Y-98748550D01*
X90150109Y-98751220D01*
X90275644Y-98729085D01*
X90394488Y-98682988D01*
X90502116Y-98614685D01*
X90594428Y-98526778D01*
X90667906Y-98422616D01*
X90719754Y-98306165D01*
X90747995Y-98181861D01*
X90750028Y-98036264D01*
X90725268Y-97911220D01*
X90678729Y-97798307D01*
X90719754Y-97706165D01*
X90740452Y-97615058D01*
X107961291Y-97615058D01*
X108002003Y-97836880D01*
X108085024Y-98046569D01*
X108207194Y-98236139D01*
X108363858Y-98398369D01*
X108549049Y-98527080D01*
X108755713Y-98617370D01*
X108975979Y-98665798D01*
X109201456Y-98670521D01*
X109423556Y-98631359D01*
X109633820Y-98549803D01*
X109824238Y-98428960D01*
X109987558Y-98273432D01*
X110117559Y-98089144D01*
X110209289Y-97883116D01*
X110259254Y-97663194D01*
X110259926Y-97615058D01*
X113961291Y-97615058D01*
X114002003Y-97836880D01*
X114085024Y-98046569D01*
X114207194Y-98236139D01*
X114363858Y-98398369D01*
X114549049Y-98527080D01*
X114755713Y-98617370D01*
X114975979Y-98665798D01*
X115201456Y-98670521D01*
X115423556Y-98631359D01*
X115633820Y-98549803D01*
X115824238Y-98428960D01*
X115987558Y-98273432D01*
X116117559Y-98089144D01*
X116209289Y-97883116D01*
X116259254Y-97663194D01*
X116262851Y-97405600D01*
X116219046Y-97184368D01*
X116133104Y-96975859D01*
X116008300Y-96788013D01*
X115849386Y-96627986D01*
X115662416Y-96501873D01*
X115454512Y-96414478D01*
X115233591Y-96369129D01*
X115008070Y-96367555D01*
X114786538Y-96409814D01*
X114577434Y-96494298D01*
X114388721Y-96617788D01*
X114227589Y-96775581D01*
X114100174Y-96961666D01*
X114011329Y-97168955D01*
X113964440Y-97389554D01*
X113961291Y-97615058D01*
X110259926Y-97615058D01*
X110262851Y-97405600D01*
X110219046Y-97184368D01*
X110133104Y-96975859D01*
X110008300Y-96788013D01*
X109849386Y-96627986D01*
X109662416Y-96501873D01*
X109454512Y-96414478D01*
X109233591Y-96369129D01*
X109008070Y-96367555D01*
X108786538Y-96409814D01*
X108577434Y-96494298D01*
X108388721Y-96617788D01*
X108227589Y-96775581D01*
X108100174Y-96961666D01*
X108011329Y-97168955D01*
X107964440Y-97389554D01*
X107961291Y-97615058D01*
X90740452Y-97615058D01*
X90747995Y-97581861D01*
X90750028Y-97436264D01*
X90725268Y-97311220D01*
X90676693Y-97193367D01*
X90606151Y-97087193D01*
X90516330Y-96996743D01*
X90410652Y-96925462D01*
X90293140Y-96876065D01*
X90168272Y-96850433D01*
X90040804Y-96849543D01*
X89915590Y-96873429D01*
X89797401Y-96921181D01*
X89690737Y-96990979D01*
X89599662Y-97080166D01*
X89527645Y-97185345D01*
X89477428Y-97302509D01*
X89450925Y-97427195D01*
X89449146Y-97554654D01*
X79098165Y-97554654D01*
X79119754Y-97506165D01*
X79147995Y-97381861D01*
X79150028Y-97236264D01*
X79125268Y-97111220D01*
X79076693Y-96993367D01*
X79019354Y-96907064D01*
X79019754Y-96906165D01*
X79047995Y-96781861D01*
X79050028Y-96636264D01*
X79025268Y-96511220D01*
X78976693Y-96393367D01*
X78906151Y-96287193D01*
X78816330Y-96196743D01*
X78710652Y-96125462D01*
X78593140Y-96076065D01*
X78468272Y-96050433D01*
X78340804Y-96049543D01*
X78215590Y-96073429D01*
X78097401Y-96121181D01*
X77990737Y-96190979D01*
X77899662Y-96280166D01*
X77827645Y-96385345D01*
X77777428Y-96502509D01*
X77750925Y-96627195D01*
X77749146Y-96754654D01*
X70150000Y-96754654D01*
X70150000Y-94854654D01*
X76249146Y-94854654D01*
X76272157Y-94980031D01*
X76319082Y-95098551D01*
X76388135Y-95205700D01*
X76476684Y-95297395D01*
X76581357Y-95370145D01*
X76686415Y-95416044D01*
X76719082Y-95498551D01*
X76788135Y-95605700D01*
X76876684Y-95697395D01*
X76981357Y-95770145D01*
X77098167Y-95821178D01*
X77222665Y-95848550D01*
X77350109Y-95851220D01*
X77475644Y-95829085D01*
X77594488Y-95782988D01*
X77702116Y-95714685D01*
X77794428Y-95626778D01*
X77867906Y-95522616D01*
X77919754Y-95406165D01*
X77947995Y-95281861D01*
X77950028Y-95136264D01*
X77925268Y-95011220D01*
X77876693Y-94893367D01*
X77806151Y-94787193D01*
X77716330Y-94696743D01*
X77610652Y-94625462D01*
X77514475Y-94585033D01*
X77476693Y-94493367D01*
X77406151Y-94387193D01*
X77316330Y-94296743D01*
X77210652Y-94225462D01*
X77093140Y-94176065D01*
X76968272Y-94150433D01*
X76840804Y-94149543D01*
X76715590Y-94173429D01*
X76597401Y-94221181D01*
X76490737Y-94290979D01*
X76399662Y-94380166D01*
X76327645Y-94485345D01*
X76277428Y-94602509D01*
X76250925Y-94727195D01*
X76249146Y-94854654D01*
X70150000Y-94854654D01*
X70150000Y-92650000D01*
X84371846Y-92650000D01*
X84347645Y-92685345D01*
X84297428Y-92802509D01*
X84270925Y-92927195D01*
X84269146Y-93054654D01*
X84292157Y-93180031D01*
X84339082Y-93298551D01*
X84408135Y-93405700D01*
X84496684Y-93497395D01*
X84601357Y-93570145D01*
X84718167Y-93621178D01*
X84842665Y-93648550D01*
X84970109Y-93651220D01*
X85095644Y-93629085D01*
X85214488Y-93582988D01*
X85322116Y-93514685D01*
X85414428Y-93426778D01*
X85487906Y-93322616D01*
X85539754Y-93206165D01*
X85567995Y-93081861D01*
X85570028Y-92936264D01*
X85545268Y-92811220D01*
X85496693Y-92693367D01*
X85467880Y-92650000D01*
X90938408Y-92650000D01*
X90815590Y-92673429D01*
X90697401Y-92721181D01*
X90590737Y-92790979D01*
X90499662Y-92880166D01*
X90427645Y-92985345D01*
X90377428Y-93102509D01*
X90350925Y-93227195D01*
X90350612Y-93249611D01*
X90340804Y-93249543D01*
X90215590Y-93273429D01*
X90097401Y-93321181D01*
X89990737Y-93390979D01*
X89899662Y-93480166D01*
X89827645Y-93585345D01*
X89777428Y-93702509D01*
X89750925Y-93827195D01*
X89749146Y-93954654D01*
X89772157Y-94080031D01*
X89819082Y-94198551D01*
X89888135Y-94305700D01*
X89976684Y-94397395D01*
X90081357Y-94470145D01*
X90198167Y-94521178D01*
X90322665Y-94548550D01*
X90450109Y-94551220D01*
X90575644Y-94529085D01*
X90694488Y-94482988D01*
X90802116Y-94414685D01*
X90894428Y-94326778D01*
X90967906Y-94222616D01*
X91019754Y-94106165D01*
X91047995Y-93981861D01*
X91048423Y-93951185D01*
X91050109Y-93951220D01*
X91175644Y-93929085D01*
X91294488Y-93882988D01*
X91402116Y-93814685D01*
X91494428Y-93726778D01*
X91567906Y-93622616D01*
X91619754Y-93506165D01*
X91647995Y-93381861D01*
X91650028Y-93236264D01*
X91625268Y-93111220D01*
X91576693Y-92993367D01*
X91506151Y-92887193D01*
X91416330Y-92796743D01*
X91310652Y-92725462D01*
X91193140Y-92676065D01*
X91068272Y-92650433D01*
X91006257Y-92650000D01*
X104500000Y-92650000D01*
X104529264Y-92647118D01*
X104557403Y-92638582D01*
X104583336Y-92624720D01*
X104595109Y-92615058D01*
X107961291Y-92615058D01*
X108002003Y-92836880D01*
X108085024Y-93046569D01*
X108207194Y-93236139D01*
X108363858Y-93398369D01*
X108549049Y-93527080D01*
X108755713Y-93617370D01*
X108975979Y-93665798D01*
X109201456Y-93670521D01*
X109423556Y-93631359D01*
X109633820Y-93549803D01*
X109824238Y-93428960D01*
X109987558Y-93273432D01*
X110117559Y-93089144D01*
X110209289Y-92883116D01*
X110259254Y-92663194D01*
X110259926Y-92615058D01*
X113961291Y-92615058D01*
X114002003Y-92836880D01*
X114085024Y-93046569D01*
X114207194Y-93236139D01*
X114363858Y-93398369D01*
X114549049Y-93527080D01*
X114755713Y-93617370D01*
X114975979Y-93665798D01*
X115201456Y-93670521D01*
X115423556Y-93631359D01*
X115633820Y-93549803D01*
X115824238Y-93428960D01*
X115987558Y-93273432D01*
X116117559Y-93089144D01*
X116209289Y-92883116D01*
X116259254Y-92663194D01*
X116262851Y-92405600D01*
X116219046Y-92184368D01*
X116133104Y-91975859D01*
X116008300Y-91788013D01*
X115849386Y-91627986D01*
X115662416Y-91501873D01*
X115454512Y-91414478D01*
X115233591Y-91369129D01*
X115008070Y-91367555D01*
X114786538Y-91409814D01*
X114577434Y-91494298D01*
X114388721Y-91617788D01*
X114227589Y-91775581D01*
X114100174Y-91961666D01*
X114011329Y-92168955D01*
X113964440Y-92389554D01*
X113961291Y-92615058D01*
X110259926Y-92615058D01*
X110262851Y-92405600D01*
X110219046Y-92184368D01*
X110133104Y-91975859D01*
X110008300Y-91788013D01*
X109849386Y-91627986D01*
X109662416Y-91501873D01*
X109454512Y-91414478D01*
X109233591Y-91369129D01*
X109008070Y-91367555D01*
X108786538Y-91409814D01*
X108577434Y-91494298D01*
X108388721Y-91617788D01*
X108227589Y-91775581D01*
X108100174Y-91961666D01*
X108011329Y-92168955D01*
X107964440Y-92389554D01*
X107961291Y-92615058D01*
X104595109Y-92615058D01*
X104606066Y-92606066D01*
X104624720Y-92583336D01*
X104638582Y-92557403D01*
X104647118Y-92529264D01*
X104650000Y-92500000D01*
X104650000Y-87054654D01*
X110549146Y-87054654D01*
X110572157Y-87180031D01*
X110619082Y-87298551D01*
X110688135Y-87405700D01*
X110776684Y-87497395D01*
X110881357Y-87570145D01*
X110998167Y-87621178D01*
X111122665Y-87648550D01*
X111250109Y-87651220D01*
X111375644Y-87629085D01*
X111494488Y-87582988D01*
X111602116Y-87514685D01*
X111694428Y-87426778D01*
X111767906Y-87322616D01*
X111819754Y-87206165D01*
X111837117Y-87129741D01*
X111922665Y-87148550D01*
X112050109Y-87151220D01*
X112175644Y-87129085D01*
X112294488Y-87082988D01*
X112402116Y-87014685D01*
X112494428Y-86926778D01*
X112567906Y-86822616D01*
X112619754Y-86706165D01*
X112647995Y-86581861D01*
X112650028Y-86436264D01*
X112625268Y-86311220D01*
X112576693Y-86193367D01*
X112506151Y-86087193D01*
X112416330Y-85996743D01*
X112310652Y-85925462D01*
X112193140Y-85876065D01*
X112068272Y-85850433D01*
X111940804Y-85849543D01*
X111815590Y-85873429D01*
X111697401Y-85921181D01*
X111590737Y-85990979D01*
X111499662Y-86080166D01*
X111427645Y-86185345D01*
X111377428Y-86302509D01*
X111363104Y-86369899D01*
X111268272Y-86350433D01*
X111140804Y-86349543D01*
X111015590Y-86373429D01*
X110897401Y-86421181D01*
X110790737Y-86490979D01*
X110699662Y-86580166D01*
X110627645Y-86685345D01*
X110577428Y-86802509D01*
X110550925Y-86927195D01*
X110549146Y-87054654D01*
X104650000Y-87054654D01*
X104650000Y-83615058D01*
X107961291Y-83615058D01*
X108002003Y-83836880D01*
X108085024Y-84046569D01*
X108207194Y-84236139D01*
X108363858Y-84398369D01*
X108549049Y-84527080D01*
X108755713Y-84617370D01*
X108975979Y-84665798D01*
X109201456Y-84670521D01*
X109423556Y-84631359D01*
X109633820Y-84549803D01*
X109824238Y-84428960D01*
X109987558Y-84273432D01*
X110117559Y-84089144D01*
X110209289Y-83883116D01*
X110259254Y-83663194D01*
X110259926Y-83615058D01*
X113961291Y-83615058D01*
X114002003Y-83836880D01*
X114085024Y-84046569D01*
X114207194Y-84236139D01*
X114363858Y-84398369D01*
X114549049Y-84527080D01*
X114755713Y-84617370D01*
X114975979Y-84665798D01*
X115201456Y-84670521D01*
X115423556Y-84631359D01*
X115633820Y-84549803D01*
X115824238Y-84428960D01*
X115987558Y-84273432D01*
X116117559Y-84089144D01*
X116209289Y-83883116D01*
X116259254Y-83663194D01*
X116262851Y-83405600D01*
X116219046Y-83184368D01*
X116133104Y-82975859D01*
X116008300Y-82788013D01*
X115849386Y-82627986D01*
X115662416Y-82501873D01*
X115454512Y-82414478D01*
X115233591Y-82369129D01*
X115008070Y-82367555D01*
X114786538Y-82409814D01*
X114577434Y-82494298D01*
X114388721Y-82617788D01*
X114227589Y-82775581D01*
X114100174Y-82961666D01*
X114011329Y-83168955D01*
X113964440Y-83389554D01*
X113961291Y-83615058D01*
X110259926Y-83615058D01*
X110262851Y-83405600D01*
X110219046Y-83184368D01*
X110133104Y-82975859D01*
X110008300Y-82788013D01*
X109849386Y-82627986D01*
X109662416Y-82501873D01*
X109454512Y-82414478D01*
X109233591Y-82369129D01*
X109008070Y-82367555D01*
X108786538Y-82409814D01*
X108577434Y-82494298D01*
X108388721Y-82617788D01*
X108227589Y-82775581D01*
X108100174Y-82961666D01*
X108011329Y-83168955D01*
X107964440Y-83389554D01*
X107961291Y-83615058D01*
X104650000Y-83615058D01*
X104650000Y-78615058D01*
X107961291Y-78615058D01*
X108002003Y-78836880D01*
X108085024Y-79046569D01*
X108207194Y-79236139D01*
X108363858Y-79398369D01*
X108549049Y-79527080D01*
X108755713Y-79617370D01*
X108975979Y-79665798D01*
X109201456Y-79670521D01*
X109423556Y-79631359D01*
X109633820Y-79549803D01*
X109824238Y-79428960D01*
X109987558Y-79273432D01*
X110117559Y-79089144D01*
X110209289Y-78883116D01*
X110259254Y-78663194D01*
X110259926Y-78615058D01*
X113961291Y-78615058D01*
X114002003Y-78836880D01*
X114085024Y-79046569D01*
X114207194Y-79236139D01*
X114363858Y-79398369D01*
X114549049Y-79527080D01*
X114755713Y-79617370D01*
X114975979Y-79665798D01*
X115201456Y-79670521D01*
X115423556Y-79631359D01*
X115633820Y-79549803D01*
X115824238Y-79428960D01*
X115987558Y-79273432D01*
X116117559Y-79089144D01*
X116209289Y-78883116D01*
X116259254Y-78663194D01*
X116262851Y-78405600D01*
X116219046Y-78184368D01*
X116133104Y-77975859D01*
X116008300Y-77788013D01*
X115849386Y-77627986D01*
X115662416Y-77501873D01*
X115454512Y-77414478D01*
X115233591Y-77369129D01*
X115008070Y-77367555D01*
X114786538Y-77409814D01*
X114577434Y-77494298D01*
X114388721Y-77617788D01*
X114227589Y-77775581D01*
X114100174Y-77961666D01*
X114011329Y-78168955D01*
X113964440Y-78389554D01*
X113961291Y-78615058D01*
X110259926Y-78615058D01*
X110262851Y-78405600D01*
X110219046Y-78184368D01*
X110133104Y-77975859D01*
X110008300Y-77788013D01*
X109849386Y-77627986D01*
X109662416Y-77501873D01*
X109454512Y-77414478D01*
X109233591Y-77369129D01*
X109008070Y-77367555D01*
X108786538Y-77409814D01*
X108577434Y-77494298D01*
X108388721Y-77617788D01*
X108227589Y-77775581D01*
X108100174Y-77961666D01*
X108011329Y-78168955D01*
X107964440Y-78389554D01*
X107961291Y-78615058D01*
X104650000Y-78615058D01*
X104650000Y-74615058D01*
X116661291Y-74615058D01*
X116702003Y-74836880D01*
X116785024Y-75046569D01*
X116907194Y-75236139D01*
X117063858Y-75398369D01*
X117249049Y-75527080D01*
X117455713Y-75617370D01*
X117675979Y-75665798D01*
X117901456Y-75670521D01*
X118123556Y-75631359D01*
X118333820Y-75549803D01*
X118524238Y-75428960D01*
X118687558Y-75273432D01*
X118817559Y-75089144D01*
X118909289Y-74883116D01*
X118959254Y-74663194D01*
X118962851Y-74405600D01*
X118919046Y-74184368D01*
X118833104Y-73975859D01*
X118708300Y-73788013D01*
X118549386Y-73627986D01*
X118362416Y-73501873D01*
X118154512Y-73414478D01*
X117933591Y-73369129D01*
X117708070Y-73367555D01*
X117486538Y-73409814D01*
X117277434Y-73494298D01*
X117088721Y-73617788D01*
X116927589Y-73775581D01*
X116800174Y-73961666D01*
X116711329Y-74168955D01*
X116664440Y-74389554D01*
X116661291Y-74615058D01*
X104650000Y-74615058D01*
X104650000Y-68150000D01*
X120350000Y-68150000D01*
X120350000Y-77655707D01*
G36*
X134850000Y-134850000D02*
X109650000Y-134850000D01*
X109650000Y-130954654D01*
X124849146Y-130954654D01*
X124872157Y-131080031D01*
X124919082Y-131198551D01*
X124920825Y-131201256D01*
X124877428Y-131302509D01*
X124850925Y-131427195D01*
X124849146Y-131554654D01*
X124872157Y-131680031D01*
X124919082Y-131798551D01*
X124988135Y-131905700D01*
X125076684Y-131997395D01*
X125181357Y-132070145D01*
X125298167Y-132121178D01*
X125422665Y-132148550D01*
X125550109Y-132151220D01*
X125675644Y-132129085D01*
X125794488Y-132082988D01*
X125902116Y-132014685D01*
X125994428Y-131926778D01*
X126067906Y-131822616D01*
X126119754Y-131706165D01*
X126147995Y-131581861D01*
X126150028Y-131436264D01*
X126125268Y-131311220D01*
X126078729Y-131198307D01*
X126119754Y-131106165D01*
X126147995Y-130981861D01*
X126150028Y-130836264D01*
X126125268Y-130711220D01*
X126085957Y-130615844D01*
X126098167Y-130621178D01*
X126222665Y-130648550D01*
X126350109Y-130651220D01*
X126475644Y-130629085D01*
X126594488Y-130582988D01*
X126702116Y-130514685D01*
X126794428Y-130426778D01*
X126867906Y-130322616D01*
X126919754Y-130206165D01*
X126947995Y-130081861D01*
X126950028Y-129936264D01*
X126925268Y-129811220D01*
X126876693Y-129693367D01*
X126806151Y-129587193D01*
X126716330Y-129496743D01*
X126610652Y-129425462D01*
X126493140Y-129376065D01*
X126368272Y-129350433D01*
X126240804Y-129349543D01*
X126115590Y-129373429D01*
X125997401Y-129421181D01*
X125890737Y-129490979D01*
X125799662Y-129580166D01*
X125727645Y-129685345D01*
X125677428Y-129802509D01*
X125650925Y-129927195D01*
X125649146Y-130054654D01*
X125672157Y-130180031D01*
X125713581Y-130284658D01*
X125693140Y-130276065D01*
X125568272Y-130250433D01*
X125440804Y-130249543D01*
X125315590Y-130273429D01*
X125197401Y-130321181D01*
X125090737Y-130390979D01*
X124999662Y-130480166D01*
X124927645Y-130585345D01*
X124877428Y-130702509D01*
X124850925Y-130827195D01*
X124849146Y-130954654D01*
X109650000Y-130954654D01*
X109650000Y-127096695D01*
X131848489Y-127096695D01*
X131889201Y-127318517D01*
X131972222Y-127528206D01*
X132094392Y-127717776D01*
X132251056Y-127880006D01*
X132436247Y-128008717D01*
X132642911Y-128099007D01*
X132863177Y-128147435D01*
X133088654Y-128152158D01*
X133310754Y-128112996D01*
X133521018Y-128031440D01*
X133711436Y-127910597D01*
X133874756Y-127755069D01*
X134004757Y-127570781D01*
X134096487Y-127364753D01*
X134146452Y-127144831D01*
X134150049Y-126887237D01*
X134106244Y-126666005D01*
X134020302Y-126457496D01*
X133895498Y-126269650D01*
X133736584Y-126109623D01*
X133549614Y-125983510D01*
X133341710Y-125896115D01*
X133120789Y-125850766D01*
X132895268Y-125849192D01*
X132673736Y-125891451D01*
X132464632Y-125975935D01*
X132275919Y-126099425D01*
X132114787Y-126257218D01*
X131987372Y-126443303D01*
X131898527Y-126650592D01*
X131851638Y-126871191D01*
X131848489Y-127096695D01*
X109650000Y-127096695D01*
X109650000Y-121096695D01*
X115348489Y-121096695D01*
X115389201Y-121318517D01*
X115472222Y-121528206D01*
X115594392Y-121717776D01*
X115751056Y-121880006D01*
X115936247Y-122008717D01*
X116142911Y-122099007D01*
X116363177Y-122147435D01*
X116588654Y-122152158D01*
X116810754Y-122112996D01*
X117021018Y-122031440D01*
X117211436Y-121910597D01*
X117374756Y-121755069D01*
X117504757Y-121570781D01*
X117596487Y-121364753D01*
X117646452Y-121144831D01*
X117647124Y-121096695D01*
X120348489Y-121096695D01*
X120389201Y-121318517D01*
X120472222Y-121528206D01*
X120594392Y-121717776D01*
X120751056Y-121880006D01*
X120936247Y-122008717D01*
X121142911Y-122099007D01*
X121363177Y-122147435D01*
X121588654Y-122152158D01*
X121810754Y-122112996D01*
X122021018Y-122031440D01*
X122211436Y-121910597D01*
X122374756Y-121755069D01*
X122504757Y-121570781D01*
X122596487Y-121364753D01*
X122646452Y-121144831D01*
X122647124Y-121096695D01*
X131848489Y-121096695D01*
X131889201Y-121318517D01*
X131972222Y-121528206D01*
X132094392Y-121717776D01*
X132251056Y-121880006D01*
X132436247Y-122008717D01*
X132642911Y-122099007D01*
X132863177Y-122147435D01*
X133088654Y-122152158D01*
X133310754Y-122112996D01*
X133521018Y-122031440D01*
X133711436Y-121910597D01*
X133874756Y-121755069D01*
X134004757Y-121570781D01*
X134096487Y-121364753D01*
X134146452Y-121144831D01*
X134150049Y-120887237D01*
X134106244Y-120666005D01*
X134020302Y-120457496D01*
X133895498Y-120269650D01*
X133736584Y-120109623D01*
X133549614Y-119983510D01*
X133341710Y-119896115D01*
X133120789Y-119850766D01*
X132895268Y-119849192D01*
X132673736Y-119891451D01*
X132464632Y-119975935D01*
X132275919Y-120099425D01*
X132114787Y-120257218D01*
X131987372Y-120443303D01*
X131898527Y-120650592D01*
X131851638Y-120871191D01*
X131848489Y-121096695D01*
X122647124Y-121096695D01*
X122650049Y-120887237D01*
X122606244Y-120666005D01*
X122520302Y-120457496D01*
X122395498Y-120269650D01*
X122236584Y-120109623D01*
X122049614Y-119983510D01*
X121841710Y-119896115D01*
X121620789Y-119850766D01*
X121395268Y-119849192D01*
X121173736Y-119891451D01*
X120964632Y-119975935D01*
X120775919Y-120099425D01*
X120614787Y-120257218D01*
X120487372Y-120443303D01*
X120398527Y-120650592D01*
X120351638Y-120871191D01*
X120348489Y-121096695D01*
X117647124Y-121096695D01*
X117650049Y-120887237D01*
X117606244Y-120666005D01*
X117520302Y-120457496D01*
X117395498Y-120269650D01*
X117236584Y-120109623D01*
X117049614Y-119983510D01*
X116841710Y-119896115D01*
X116620789Y-119850766D01*
X116395268Y-119849192D01*
X116173736Y-119891451D01*
X115964632Y-119975935D01*
X115775919Y-120099425D01*
X115614787Y-120257218D01*
X115487372Y-120443303D01*
X115398527Y-120650592D01*
X115351638Y-120871191D01*
X115348489Y-121096695D01*
X109650000Y-121096695D01*
X109650000Y-115096695D01*
X115348489Y-115096695D01*
X115389201Y-115318517D01*
X115472222Y-115528206D01*
X115594392Y-115717776D01*
X115751056Y-115880006D01*
X115936247Y-116008717D01*
X116142911Y-116099007D01*
X116363177Y-116147435D01*
X116588654Y-116152158D01*
X116810754Y-116112996D01*
X117021018Y-116031440D01*
X117211436Y-115910597D01*
X117374756Y-115755069D01*
X117504757Y-115570781D01*
X117596487Y-115364753D01*
X117646452Y-115144831D01*
X117647124Y-115096695D01*
X120348489Y-115096695D01*
X120389201Y-115318517D01*
X120472222Y-115528206D01*
X120594392Y-115717776D01*
X120751056Y-115880006D01*
X120936247Y-116008717D01*
X121142911Y-116099007D01*
X121363177Y-116147435D01*
X121588654Y-116152158D01*
X121810754Y-116112996D01*
X122021018Y-116031440D01*
X122211436Y-115910597D01*
X122374756Y-115755069D01*
X122504757Y-115570781D01*
X122596487Y-115364753D01*
X122646452Y-115144831D01*
X122647124Y-115096695D01*
X131848489Y-115096695D01*
X131889201Y-115318517D01*
X131972222Y-115528206D01*
X132094392Y-115717776D01*
X132251056Y-115880006D01*
X132436247Y-116008717D01*
X132642911Y-116099007D01*
X132863177Y-116147435D01*
X133088654Y-116152158D01*
X133310754Y-116112996D01*
X133521018Y-116031440D01*
X133711436Y-115910597D01*
X133874756Y-115755069D01*
X134004757Y-115570781D01*
X134096487Y-115364753D01*
X134146452Y-115144831D01*
X134150049Y-114887237D01*
X134106244Y-114666005D01*
X134020302Y-114457496D01*
X133895498Y-114269650D01*
X133736584Y-114109623D01*
X133549614Y-113983510D01*
X133341710Y-113896115D01*
X133120789Y-113850766D01*
X132895268Y-113849192D01*
X132673736Y-113891451D01*
X132464632Y-113975935D01*
X132275919Y-114099425D01*
X132114787Y-114257218D01*
X131987372Y-114443303D01*
X131898527Y-114650592D01*
X131851638Y-114871191D01*
X131848489Y-115096695D01*
X122647124Y-115096695D01*
X122650049Y-114887237D01*
X122606244Y-114666005D01*
X122520302Y-114457496D01*
X122395498Y-114269650D01*
X122236584Y-114109623D01*
X122049614Y-113983510D01*
X121841710Y-113896115D01*
X121620789Y-113850766D01*
X121395268Y-113849192D01*
X121173736Y-113891451D01*
X120964632Y-113975935D01*
X120775919Y-114099425D01*
X120614787Y-114257218D01*
X120487372Y-114443303D01*
X120398527Y-114650592D01*
X120351638Y-114871191D01*
X120348489Y-115096695D01*
X117647124Y-115096695D01*
X117650049Y-114887237D01*
X117606244Y-114666005D01*
X117520302Y-114457496D01*
X117395498Y-114269650D01*
X117236584Y-114109623D01*
X117049614Y-113983510D01*
X116841710Y-113896115D01*
X116620789Y-113850766D01*
X116395268Y-113849192D01*
X116173736Y-113891451D01*
X115964632Y-113975935D01*
X115775919Y-114099425D01*
X115614787Y-114257218D01*
X115487372Y-114443303D01*
X115398527Y-114650592D01*
X115351638Y-114871191D01*
X115348489Y-115096695D01*
X109650000Y-115096695D01*
X109650000Y-112500000D01*
X109647118Y-112470736D01*
X109638582Y-112442597D01*
X109624720Y-112416664D01*
X109606066Y-112393934D01*
X109583336Y-112375280D01*
X109557403Y-112361418D01*
X109529264Y-112352882D01*
X109500000Y-112350000D01*
X103363264Y-112350000D01*
X102214575Y-111575200D01*
X100695966Y-110936835D01*
X99082288Y-110605595D01*
X97435003Y-110594094D01*
X95816856Y-110902772D01*
X94289483Y-111519871D01*
X92911060Y-112421886D01*
X91734092Y-113574459D01*
X90803407Y-114933689D01*
X90154457Y-116447803D01*
X89811959Y-118059130D01*
X89788959Y-119706295D01*
X90086332Y-121326557D01*
X90293578Y-121850000D01*
X85750000Y-121850000D01*
X85750000Y-119259307D01*
X85772157Y-119380031D01*
X85819082Y-119498551D01*
X85888135Y-119605700D01*
X85976684Y-119697395D01*
X86081357Y-119770145D01*
X86198167Y-119821178D01*
X86322665Y-119848550D01*
X86450109Y-119851220D01*
X86520164Y-119838867D01*
X86576684Y-119897395D01*
X86681357Y-119970145D01*
X86798167Y-120021178D01*
X86922665Y-120048550D01*
X87050109Y-120051220D01*
X87175644Y-120029085D01*
X87294488Y-119982988D01*
X87402116Y-119914685D01*
X87494428Y-119826778D01*
X87567906Y-119722616D01*
X87619754Y-119606165D01*
X87647995Y-119481861D01*
X87650028Y-119336264D01*
X87625268Y-119211220D01*
X87576693Y-119093367D01*
X87506151Y-118987193D01*
X87490634Y-118971568D01*
X87519754Y-118906165D01*
X87547995Y-118781861D01*
X87550028Y-118636264D01*
X87525268Y-118511220D01*
X87476693Y-118393367D01*
X87448224Y-118350517D01*
X87467906Y-118322616D01*
X87519754Y-118206165D01*
X87547995Y-118081861D01*
X87550028Y-117936264D01*
X87525268Y-117811220D01*
X87476693Y-117693367D01*
X87406151Y-117587193D01*
X87316330Y-117496743D01*
X87210652Y-117425462D01*
X87093140Y-117376065D01*
X86968272Y-117350433D01*
X86955094Y-117350341D01*
X87075644Y-117329085D01*
X87194488Y-117282988D01*
X87302116Y-117214685D01*
X87394428Y-117126778D01*
X87467906Y-117022616D01*
X87519754Y-116906165D01*
X87547995Y-116781861D01*
X87550028Y-116636264D01*
X87525268Y-116511220D01*
X87476693Y-116393367D01*
X87406151Y-116287193D01*
X87316330Y-116196743D01*
X87210652Y-116125462D01*
X87093140Y-116076065D01*
X87049597Y-116067127D01*
X87050028Y-116036264D01*
X87025268Y-115911220D01*
X86976693Y-115793367D01*
X86906151Y-115687193D01*
X86816330Y-115596743D01*
X86710652Y-115525462D01*
X86593140Y-115476065D01*
X86468272Y-115450433D01*
X86455094Y-115450341D01*
X86575644Y-115429085D01*
X86694488Y-115382988D01*
X86802116Y-115314685D01*
X86894428Y-115226778D01*
X86967906Y-115122616D01*
X87019754Y-115006165D01*
X87047995Y-114881861D01*
X87050028Y-114736264D01*
X87025268Y-114611220D01*
X86976693Y-114493367D01*
X86906151Y-114387193D01*
X86816330Y-114296743D01*
X86710652Y-114225462D01*
X86593140Y-114176065D01*
X86468272Y-114150433D01*
X86340804Y-114149543D01*
X86215590Y-114173429D01*
X86097401Y-114221181D01*
X85990737Y-114290979D01*
X85899662Y-114380166D01*
X85827645Y-114485345D01*
X85777428Y-114602509D01*
X85750925Y-114727195D01*
X85749146Y-114854654D01*
X85772157Y-114980031D01*
X85819082Y-115098551D01*
X85888135Y-115205700D01*
X85976684Y-115297395D01*
X86081357Y-115370145D01*
X86198167Y-115421178D01*
X86322665Y-115448550D01*
X86384688Y-115449849D01*
X86340804Y-115449543D01*
X86215590Y-115473429D01*
X86097401Y-115521181D01*
X85990737Y-115590979D01*
X85899662Y-115680166D01*
X85827645Y-115785345D01*
X85777428Y-115902509D01*
X85750925Y-116027195D01*
X85749146Y-116154654D01*
X85772157Y-116280031D01*
X85819082Y-116398551D01*
X85888135Y-116505700D01*
X85976684Y-116597395D01*
X86081357Y-116670145D01*
X86198167Y-116721178D01*
X86249456Y-116732454D01*
X86249146Y-116754654D01*
X86272157Y-116880031D01*
X86319082Y-116998551D01*
X86388135Y-117105700D01*
X86476684Y-117197395D01*
X86581357Y-117270145D01*
X86698167Y-117321178D01*
X86822665Y-117348550D01*
X86884688Y-117349849D01*
X86840804Y-117349543D01*
X86715590Y-117373429D01*
X86597401Y-117421181D01*
X86490737Y-117490979D01*
X86399662Y-117580166D01*
X86327645Y-117685345D01*
X86277428Y-117802509D01*
X86250925Y-117927195D01*
X86249146Y-118054654D01*
X86272157Y-118180031D01*
X86319082Y-118298551D01*
X86352048Y-118349705D01*
X86327645Y-118385345D01*
X86277428Y-118502509D01*
X86264330Y-118564131D01*
X86215590Y-118573429D01*
X86097401Y-118621181D01*
X85990737Y-118690979D01*
X85899662Y-118780166D01*
X85827645Y-118885345D01*
X85777428Y-119002509D01*
X85750925Y-119127195D01*
X85750000Y-119193468D01*
X85750000Y-116400000D01*
X85747118Y-116370736D01*
X85738582Y-116342597D01*
X85724720Y-116316664D01*
X85706066Y-116293934D01*
X85683336Y-116275280D01*
X85657403Y-116261418D01*
X85629264Y-116252882D01*
X85600000Y-116250000D01*
X84650000Y-116250000D01*
X84650000Y-113354654D01*
X86849146Y-113354654D01*
X86872157Y-113480031D01*
X86919082Y-113598551D01*
X86988135Y-113705700D01*
X87076684Y-113797395D01*
X87181357Y-113870145D01*
X87298167Y-113921178D01*
X87422665Y-113948550D01*
X87550109Y-113951220D01*
X87675644Y-113929085D01*
X87794488Y-113882988D01*
X87902116Y-113814685D01*
X87994428Y-113726778D01*
X88067906Y-113622616D01*
X88119754Y-113506165D01*
X88147995Y-113381861D01*
X88150028Y-113236264D01*
X88125268Y-113111220D01*
X88076693Y-112993367D01*
X88006151Y-112887193D01*
X87916330Y-112796743D01*
X87810652Y-112725462D01*
X87693140Y-112676065D01*
X87568272Y-112650433D01*
X87440804Y-112649543D01*
X87315590Y-112673429D01*
X87197401Y-112721181D01*
X87090737Y-112790979D01*
X86999662Y-112880166D01*
X86927645Y-112985345D01*
X86877428Y-113102509D01*
X86850925Y-113227195D01*
X86849146Y-113354654D01*
X84650000Y-113354654D01*
X84650000Y-109148351D01*
X84681357Y-109170145D01*
X84798167Y-109221178D01*
X84922665Y-109248550D01*
X85050109Y-109251220D01*
X85175644Y-109229085D01*
X85294488Y-109182988D01*
X85402116Y-109114685D01*
X85421007Y-109096695D01*
X131848489Y-109096695D01*
X131889201Y-109318517D01*
X131972222Y-109528206D01*
X132094392Y-109717776D01*
X132251056Y-109880006D01*
X132436247Y-110008717D01*
X132642911Y-110099007D01*
X132863177Y-110147435D01*
X133088654Y-110152158D01*
X133310754Y-110112996D01*
X133521018Y-110031440D01*
X133711436Y-109910597D01*
X133874756Y-109755069D01*
X134004757Y-109570781D01*
X134096487Y-109364753D01*
X134146452Y-109144831D01*
X134150049Y-108887237D01*
X134106244Y-108666005D01*
X134020302Y-108457496D01*
X133895498Y-108269650D01*
X133736584Y-108109623D01*
X133549614Y-107983510D01*
X133341710Y-107896115D01*
X133120789Y-107850766D01*
X132895268Y-107849192D01*
X132673736Y-107891451D01*
X132464632Y-107975935D01*
X132275919Y-108099425D01*
X132114787Y-108257218D01*
X131987372Y-108443303D01*
X131898527Y-108650592D01*
X131851638Y-108871191D01*
X131848489Y-109096695D01*
X85421007Y-109096695D01*
X85494428Y-109026778D01*
X85567906Y-108922616D01*
X85619754Y-108806165D01*
X85647995Y-108681861D01*
X85650028Y-108536264D01*
X85625268Y-108411220D01*
X85576693Y-108293367D01*
X85506151Y-108187193D01*
X85416330Y-108096743D01*
X85310652Y-108025462D01*
X85193140Y-107976065D01*
X85068272Y-107950433D01*
X84940804Y-107949543D01*
X84815590Y-107973429D01*
X84697401Y-108021181D01*
X84650000Y-108052199D01*
X84650000Y-107454654D01*
X88149146Y-107454654D01*
X88172157Y-107580031D01*
X88219082Y-107698551D01*
X88288135Y-107805700D01*
X88376684Y-107897395D01*
X88481357Y-107970145D01*
X88598167Y-108021178D01*
X88722665Y-108048550D01*
X88850109Y-108051220D01*
X88975644Y-108029085D01*
X89094488Y-107982988D01*
X89202116Y-107914685D01*
X89294428Y-107826778D01*
X89367906Y-107722616D01*
X89419754Y-107606165D01*
X89447995Y-107481861D01*
X89450028Y-107336264D01*
X89425268Y-107211220D01*
X89376693Y-107093367D01*
X89306151Y-106987193D01*
X89216330Y-106896743D01*
X89110652Y-106825462D01*
X88993140Y-106776065D01*
X88868272Y-106750433D01*
X88740804Y-106749543D01*
X88615590Y-106773429D01*
X88497401Y-106821181D01*
X88390737Y-106890979D01*
X88299662Y-106980166D01*
X88227645Y-107085345D01*
X88177428Y-107202509D01*
X88150925Y-107327195D01*
X88149146Y-107454654D01*
X84650000Y-107454654D01*
X84650000Y-106869763D01*
X84676684Y-106897395D01*
X84781357Y-106970145D01*
X84898167Y-107021178D01*
X85022665Y-107048550D01*
X85150109Y-107051220D01*
X85275644Y-107029085D01*
X85394488Y-106982988D01*
X85502116Y-106914685D01*
X85594428Y-106826778D01*
X85667906Y-106722616D01*
X85719754Y-106606165D01*
X85747995Y-106481861D01*
X85750028Y-106336264D01*
X85725268Y-106211220D01*
X85676693Y-106093367D01*
X85606151Y-105987193D01*
X85516330Y-105896743D01*
X85410652Y-105825462D01*
X85293140Y-105776065D01*
X85168272Y-105750433D01*
X85040804Y-105749543D01*
X84915590Y-105773429D01*
X84797401Y-105821181D01*
X84690737Y-105890979D01*
X84650000Y-105930872D01*
X84650000Y-104454654D01*
X84749146Y-104454654D01*
X84772157Y-104580031D01*
X84819082Y-104698551D01*
X84888135Y-104805700D01*
X84976684Y-104897395D01*
X85081357Y-104970145D01*
X85198167Y-105021178D01*
X85322665Y-105048550D01*
X85450109Y-105051220D01*
X85575644Y-105029085D01*
X85694488Y-104982988D01*
X85802116Y-104914685D01*
X85894428Y-104826778D01*
X85967906Y-104722616D01*
X86019754Y-104606165D01*
X86047995Y-104481861D01*
X86050028Y-104336264D01*
X86025268Y-104211220D01*
X85976693Y-104093367D01*
X85906151Y-103987193D01*
X85816330Y-103896743D01*
X85710652Y-103825462D01*
X85593140Y-103776065D01*
X85468272Y-103750433D01*
X85340804Y-103749543D01*
X85215590Y-103773429D01*
X85097401Y-103821181D01*
X84990737Y-103890979D01*
X84899662Y-103980166D01*
X84827645Y-104085345D01*
X84777428Y-104202509D01*
X84750925Y-104327195D01*
X84749146Y-104454654D01*
X84650000Y-104454654D01*
X84650000Y-101769086D01*
X84694428Y-101726778D01*
X84767906Y-101622616D01*
X84819754Y-101506165D01*
X84847995Y-101381861D01*
X84848374Y-101354654D01*
X117849146Y-101354654D01*
X117872157Y-101480031D01*
X117919082Y-101598551D01*
X117920825Y-101601256D01*
X117877428Y-101702509D01*
X117850925Y-101827195D01*
X117849146Y-101954654D01*
X117872157Y-102080031D01*
X117919082Y-102198551D01*
X117920825Y-102201256D01*
X117877428Y-102302509D01*
X117850925Y-102427195D01*
X117849146Y-102554654D01*
X117872157Y-102680031D01*
X117919082Y-102798551D01*
X117988135Y-102905700D01*
X118076684Y-102997395D01*
X118181357Y-103070145D01*
X118298167Y-103121178D01*
X118422665Y-103148550D01*
X118550109Y-103151220D01*
X118675644Y-103129085D01*
X118794488Y-103082988D01*
X118902116Y-103014685D01*
X118994428Y-102926778D01*
X119067906Y-102822616D01*
X119119754Y-102706165D01*
X119147995Y-102581861D01*
X119150028Y-102436264D01*
X119125268Y-102311220D01*
X119078729Y-102198307D01*
X119119754Y-102106165D01*
X119147995Y-101981861D01*
X119150028Y-101836264D01*
X119125268Y-101711220D01*
X119078729Y-101598307D01*
X119119754Y-101506165D01*
X119147995Y-101381861D01*
X119150028Y-101236264D01*
X119125268Y-101111220D01*
X119076693Y-100993367D01*
X119006151Y-100887193D01*
X118916330Y-100796743D01*
X118810652Y-100725462D01*
X118693140Y-100676065D01*
X118568272Y-100650433D01*
X118440804Y-100649543D01*
X118315590Y-100673429D01*
X118197401Y-100721181D01*
X118090737Y-100790979D01*
X117999662Y-100880166D01*
X117927645Y-100985345D01*
X117877428Y-101102509D01*
X117850925Y-101227195D01*
X117849146Y-101354654D01*
X84848374Y-101354654D01*
X84850028Y-101236264D01*
X84830386Y-101137065D01*
X84875644Y-101129085D01*
X84994488Y-101082988D01*
X85102116Y-101014685D01*
X85194428Y-100926778D01*
X85267906Y-100822616D01*
X85319754Y-100706165D01*
X85347995Y-100581861D01*
X85350028Y-100436264D01*
X85325268Y-100311220D01*
X85276693Y-100193367D01*
X85206151Y-100087193D01*
X85116330Y-99996743D01*
X85010652Y-99925462D01*
X84893140Y-99876065D01*
X84768272Y-99850433D01*
X84650000Y-99849607D01*
X84650000Y-99650000D01*
X87952239Y-99650000D01*
X87988135Y-99705700D01*
X88076684Y-99797395D01*
X88181357Y-99870145D01*
X88298167Y-99921178D01*
X88422665Y-99948550D01*
X88484688Y-99949849D01*
X88440804Y-99949543D01*
X88315590Y-99973429D01*
X88197401Y-100021181D01*
X88090737Y-100090979D01*
X87999662Y-100180166D01*
X87927645Y-100285345D01*
X87877428Y-100402509D01*
X87850925Y-100527195D01*
X87849146Y-100654654D01*
X87872157Y-100780031D01*
X87919082Y-100898551D01*
X87988135Y-101005700D01*
X88076684Y-101097395D01*
X88181357Y-101170145D01*
X88298167Y-101221178D01*
X88422665Y-101248550D01*
X88550109Y-101251220D01*
X88675644Y-101229085D01*
X88794488Y-101182988D01*
X88902116Y-101114685D01*
X88994428Y-101026778D01*
X89067906Y-100922616D01*
X89119754Y-100806165D01*
X89147995Y-100681861D01*
X89150028Y-100536264D01*
X89125268Y-100411220D01*
X89076693Y-100293367D01*
X89006151Y-100187193D01*
X88916330Y-100096743D01*
X88810652Y-100025462D01*
X88693140Y-99976065D01*
X88568272Y-99950433D01*
X88555094Y-99950341D01*
X88675644Y-99929085D01*
X88794488Y-99882988D01*
X88902116Y-99814685D01*
X88994428Y-99726778D01*
X89048589Y-99650000D01*
X121000000Y-99650000D01*
X121029264Y-99647118D01*
X121057403Y-99638582D01*
X121083336Y-99624720D01*
X121106066Y-99606066D01*
X121124720Y-99583336D01*
X121138582Y-99557403D01*
X121147118Y-99529264D01*
X121150000Y-99500000D01*
X121150000Y-98669443D01*
X121201456Y-98670521D01*
X121423556Y-98631359D01*
X121633820Y-98549803D01*
X121824238Y-98428960D01*
X121987558Y-98273432D01*
X122117559Y-98089144D01*
X122209289Y-97883116D01*
X122259254Y-97663194D01*
X122259926Y-97615058D01*
X125961291Y-97615058D01*
X126002003Y-97836880D01*
X126085024Y-98046569D01*
X126207194Y-98236139D01*
X126363858Y-98398369D01*
X126549049Y-98527080D01*
X126755713Y-98617370D01*
X126975979Y-98665798D01*
X127201456Y-98670521D01*
X127423556Y-98631359D01*
X127633820Y-98549803D01*
X127824238Y-98428960D01*
X127987558Y-98273432D01*
X128117559Y-98089144D01*
X128209289Y-97883116D01*
X128259254Y-97663194D01*
X128262851Y-97405600D01*
X128219046Y-97184368D01*
X128133104Y-96975859D01*
X128008300Y-96788013D01*
X127849386Y-96627986D01*
X127662416Y-96501873D01*
X127454512Y-96414478D01*
X127233591Y-96369129D01*
X127008070Y-96367555D01*
X126786538Y-96409814D01*
X126577434Y-96494298D01*
X126388721Y-96617788D01*
X126227589Y-96775581D01*
X126100174Y-96961666D01*
X126011329Y-97168955D01*
X125964440Y-97389554D01*
X125961291Y-97615058D01*
X122259926Y-97615058D01*
X122262851Y-97405600D01*
X122219046Y-97184368D01*
X122133104Y-96975859D01*
X122008300Y-96788013D01*
X121849386Y-96627986D01*
X121662416Y-96501873D01*
X121454512Y-96414478D01*
X121233591Y-96369129D01*
X121150000Y-96368546D01*
X121150000Y-93669443D01*
X121201456Y-93670521D01*
X121423556Y-93631359D01*
X121633820Y-93549803D01*
X121824238Y-93428960D01*
X121987558Y-93273432D01*
X122117559Y-93089144D01*
X122209289Y-92883116D01*
X122259254Y-92663194D01*
X122259926Y-92615058D01*
X125961291Y-92615058D01*
X126002003Y-92836880D01*
X126085024Y-93046569D01*
X126207194Y-93236139D01*
X126363858Y-93398369D01*
X126549049Y-93527080D01*
X126755713Y-93617370D01*
X126975979Y-93665798D01*
X127201456Y-93670521D01*
X127423556Y-93631359D01*
X127633820Y-93549803D01*
X127824238Y-93428960D01*
X127987558Y-93273432D01*
X128117559Y-93089144D01*
X128209289Y-92883116D01*
X128259254Y-92663194D01*
X128262851Y-92405600D01*
X128219046Y-92184368D01*
X128133104Y-91975859D01*
X128008300Y-91788013D01*
X127849386Y-91627986D01*
X127662416Y-91501873D01*
X127454512Y-91414478D01*
X127233591Y-91369129D01*
X127008070Y-91367555D01*
X126786538Y-91409814D01*
X126577434Y-91494298D01*
X126388721Y-91617788D01*
X126227589Y-91775581D01*
X126100174Y-91961666D01*
X126011329Y-92168955D01*
X125964440Y-92389554D01*
X125961291Y-92615058D01*
X122259926Y-92615058D01*
X122262851Y-92405600D01*
X122219046Y-92184368D01*
X122133104Y-91975859D01*
X122008300Y-91788013D01*
X121849386Y-91627986D01*
X121662416Y-91501873D01*
X121454512Y-91414478D01*
X121233591Y-91369129D01*
X121150000Y-91368546D01*
X121150000Y-88054654D01*
X124349146Y-88054654D01*
X124372157Y-88180031D01*
X124419082Y-88298551D01*
X124488135Y-88405700D01*
X124576684Y-88497395D01*
X124681357Y-88570145D01*
X124798167Y-88621178D01*
X124922665Y-88648550D01*
X124951696Y-88649158D01*
X124988135Y-88705700D01*
X125076684Y-88797395D01*
X125181357Y-88870145D01*
X125298167Y-88921178D01*
X125422665Y-88948550D01*
X125550109Y-88951220D01*
X125675644Y-88929085D01*
X125794488Y-88882988D01*
X125902116Y-88814685D01*
X125994428Y-88726778D01*
X126067906Y-88622616D01*
X126119754Y-88506165D01*
X126147995Y-88381861D01*
X126150028Y-88236264D01*
X126125268Y-88111220D01*
X126078729Y-87998307D01*
X126119754Y-87906165D01*
X126147995Y-87781861D01*
X126150028Y-87636264D01*
X126125268Y-87511220D01*
X126076693Y-87393367D01*
X126006151Y-87287193D01*
X125916330Y-87196743D01*
X125810652Y-87125462D01*
X125693140Y-87076065D01*
X125568272Y-87050433D01*
X125440804Y-87049543D01*
X125315590Y-87073429D01*
X125197401Y-87121181D01*
X125090737Y-87190979D01*
X124999662Y-87280166D01*
X124952105Y-87349622D01*
X124940804Y-87349543D01*
X124815590Y-87373429D01*
X124697401Y-87421181D01*
X124590737Y-87490979D01*
X124499662Y-87580166D01*
X124427645Y-87685345D01*
X124377428Y-87802509D01*
X124350925Y-87927195D01*
X124349146Y-88054654D01*
X121150000Y-88054654D01*
X121150000Y-84669443D01*
X121201456Y-84670521D01*
X121423556Y-84631359D01*
X121633820Y-84549803D01*
X121824238Y-84428960D01*
X121987558Y-84273432D01*
X122117559Y-84089144D01*
X122209289Y-83883116D01*
X122259254Y-83663194D01*
X122259926Y-83615058D01*
X125961291Y-83615058D01*
X126002003Y-83836880D01*
X126085024Y-84046569D01*
X126207194Y-84236139D01*
X126363858Y-84398369D01*
X126549049Y-84527080D01*
X126755713Y-84617370D01*
X126975979Y-84665798D01*
X127201456Y-84670521D01*
X127423556Y-84631359D01*
X127633820Y-84549803D01*
X127824238Y-84428960D01*
X127987558Y-84273432D01*
X128117559Y-84089144D01*
X128209289Y-83883116D01*
X128259254Y-83663194D01*
X128262851Y-83405600D01*
X128219046Y-83184368D01*
X128133104Y-82975859D01*
X128008300Y-82788013D01*
X127849386Y-82627986D01*
X127662416Y-82501873D01*
X127454512Y-82414478D01*
X127233591Y-82369129D01*
X127008070Y-82367555D01*
X126786538Y-82409814D01*
X126577434Y-82494298D01*
X126388721Y-82617788D01*
X126227589Y-82775581D01*
X126100174Y-82961666D01*
X126011329Y-83168955D01*
X125964440Y-83389554D01*
X125961291Y-83615058D01*
X122259926Y-83615058D01*
X122262851Y-83405600D01*
X122219046Y-83184368D01*
X122133104Y-82975859D01*
X122008300Y-82788013D01*
X121849386Y-82627986D01*
X121662416Y-82501873D01*
X121454512Y-82414478D01*
X121233591Y-82369129D01*
X121150000Y-82368546D01*
X121150000Y-79669443D01*
X121201456Y-79670521D01*
X121423556Y-79631359D01*
X121633820Y-79549803D01*
X121824238Y-79428960D01*
X121987558Y-79273432D01*
X122117559Y-79089144D01*
X122209289Y-78883116D01*
X122259254Y-78663194D01*
X122259926Y-78615058D01*
X125961291Y-78615058D01*
X126002003Y-78836880D01*
X126085024Y-79046569D01*
X126207194Y-79236139D01*
X126363858Y-79398369D01*
X126549049Y-79527080D01*
X126755713Y-79617370D01*
X126975979Y-79665798D01*
X127201456Y-79670521D01*
X127423556Y-79631359D01*
X127633820Y-79549803D01*
X127824238Y-79428960D01*
X127987558Y-79273432D01*
X128117559Y-79089144D01*
X128209289Y-78883116D01*
X128259254Y-78663194D01*
X128262851Y-78405600D01*
X128219046Y-78184368D01*
X128133104Y-77975859D01*
X128008300Y-77788013D01*
X127849386Y-77627986D01*
X127662416Y-77501873D01*
X127454512Y-77414478D01*
X127233591Y-77369129D01*
X127008070Y-77367555D01*
X126786538Y-77409814D01*
X126577434Y-77494298D01*
X126388721Y-77617788D01*
X126227589Y-77775581D01*
X126100174Y-77961666D01*
X126011329Y-78168955D01*
X125964440Y-78389554D01*
X125961291Y-78615058D01*
X122259926Y-78615058D01*
X122262851Y-78405600D01*
X122219046Y-78184368D01*
X122133104Y-77975859D01*
X122008300Y-77788013D01*
X121849386Y-77627986D01*
X121662416Y-77501873D01*
X121454512Y-77414478D01*
X121233591Y-77369129D01*
X121150000Y-77368546D01*
X121150000Y-74615058D01*
X122661291Y-74615058D01*
X122702003Y-74836880D01*
X122785024Y-75046569D01*
X122907194Y-75236139D01*
X123063858Y-75398369D01*
X123249049Y-75527080D01*
X123455713Y-75617370D01*
X123675979Y-75665798D01*
X123901456Y-75670521D01*
X124123556Y-75631359D01*
X124333820Y-75549803D01*
X124524238Y-75428960D01*
X124687558Y-75273432D01*
X124817559Y-75089144D01*
X124909289Y-74883116D01*
X124959254Y-74663194D01*
X124962851Y-74405600D01*
X124919046Y-74184368D01*
X124833104Y-73975859D01*
X124708300Y-73788013D01*
X124549386Y-73627986D01*
X124362416Y-73501873D01*
X124154512Y-73414478D01*
X123933591Y-73369129D01*
X123708070Y-73367555D01*
X123486538Y-73409814D01*
X123277434Y-73494298D01*
X123088721Y-73617788D01*
X122927589Y-73775581D01*
X122800174Y-73961666D01*
X122711329Y-74168955D01*
X122664440Y-74389554D01*
X122661291Y-74615058D01*
X121150000Y-74615058D01*
X121150000Y-68150000D01*
X134850000Y-68150000D01*
X134850000Y-134850000D01*
X134850000Y-134850000D01*
G37*
X134850000Y-134850000D02*
X109650000Y-134850000D01*
X109650000Y-130954654D01*
X124849146Y-130954654D01*
X124872157Y-131080031D01*
X124919082Y-131198551D01*
X124920825Y-131201256D01*
X124877428Y-131302509D01*
X124850925Y-131427195D01*
X124849146Y-131554654D01*
X124872157Y-131680031D01*
X124919082Y-131798551D01*
X124988135Y-131905700D01*
X125076684Y-131997395D01*
X125181357Y-132070145D01*
X125298167Y-132121178D01*
X125422665Y-132148550D01*
X125550109Y-132151220D01*
X125675644Y-132129085D01*
X125794488Y-132082988D01*
X125902116Y-132014685D01*
X125994428Y-131926778D01*
X126067906Y-131822616D01*
X126119754Y-131706165D01*
X126147995Y-131581861D01*
X126150028Y-131436264D01*
X126125268Y-131311220D01*
X126078729Y-131198307D01*
X126119754Y-131106165D01*
X126147995Y-130981861D01*
X126150028Y-130836264D01*
X126125268Y-130711220D01*
X126085957Y-130615844D01*
X126098167Y-130621178D01*
X126222665Y-130648550D01*
X126350109Y-130651220D01*
X126475644Y-130629085D01*
X126594488Y-130582988D01*
X126702116Y-130514685D01*
X126794428Y-130426778D01*
X126867906Y-130322616D01*
X126919754Y-130206165D01*
X126947995Y-130081861D01*
X126950028Y-129936264D01*
X126925268Y-129811220D01*
X126876693Y-129693367D01*
X126806151Y-129587193D01*
X126716330Y-129496743D01*
X126610652Y-129425462D01*
X126493140Y-129376065D01*
X126368272Y-129350433D01*
X126240804Y-129349543D01*
X126115590Y-129373429D01*
X125997401Y-129421181D01*
X125890737Y-129490979D01*
X125799662Y-129580166D01*
X125727645Y-129685345D01*
X125677428Y-129802509D01*
X125650925Y-129927195D01*
X125649146Y-130054654D01*
X125672157Y-130180031D01*
X125713581Y-130284658D01*
X125693140Y-130276065D01*
X125568272Y-130250433D01*
X125440804Y-130249543D01*
X125315590Y-130273429D01*
X125197401Y-130321181D01*
X125090737Y-130390979D01*
X124999662Y-130480166D01*
X124927645Y-130585345D01*
X124877428Y-130702509D01*
X124850925Y-130827195D01*
X124849146Y-130954654D01*
X109650000Y-130954654D01*
X109650000Y-127096695D01*
X131848489Y-127096695D01*
X131889201Y-127318517D01*
X131972222Y-127528206D01*
X132094392Y-127717776D01*
X132251056Y-127880006D01*
X132436247Y-128008717D01*
X132642911Y-128099007D01*
X132863177Y-128147435D01*
X133088654Y-128152158D01*
X133310754Y-128112996D01*
X133521018Y-128031440D01*
X133711436Y-127910597D01*
X133874756Y-127755069D01*
X134004757Y-127570781D01*
X134096487Y-127364753D01*
X134146452Y-127144831D01*
X134150049Y-126887237D01*
X134106244Y-126666005D01*
X134020302Y-126457496D01*
X133895498Y-126269650D01*
X133736584Y-126109623D01*
X133549614Y-125983510D01*
X133341710Y-125896115D01*
X133120789Y-125850766D01*
X132895268Y-125849192D01*
X132673736Y-125891451D01*
X132464632Y-125975935D01*
X132275919Y-126099425D01*
X132114787Y-126257218D01*
X131987372Y-126443303D01*
X131898527Y-126650592D01*
X131851638Y-126871191D01*
X131848489Y-127096695D01*
X109650000Y-127096695D01*
X109650000Y-121096695D01*
X115348489Y-121096695D01*
X115389201Y-121318517D01*
X115472222Y-121528206D01*
X115594392Y-121717776D01*
X115751056Y-121880006D01*
X115936247Y-122008717D01*
X116142911Y-122099007D01*
X116363177Y-122147435D01*
X116588654Y-122152158D01*
X116810754Y-122112996D01*
X117021018Y-122031440D01*
X117211436Y-121910597D01*
X117374756Y-121755069D01*
X117504757Y-121570781D01*
X117596487Y-121364753D01*
X117646452Y-121144831D01*
X117647124Y-121096695D01*
X120348489Y-121096695D01*
X120389201Y-121318517D01*
X120472222Y-121528206D01*
X120594392Y-121717776D01*
X120751056Y-121880006D01*
X120936247Y-122008717D01*
X121142911Y-122099007D01*
X121363177Y-122147435D01*
X121588654Y-122152158D01*
X121810754Y-122112996D01*
X122021018Y-122031440D01*
X122211436Y-121910597D01*
X122374756Y-121755069D01*
X122504757Y-121570781D01*
X122596487Y-121364753D01*
X122646452Y-121144831D01*
X122647124Y-121096695D01*
X131848489Y-121096695D01*
X131889201Y-121318517D01*
X131972222Y-121528206D01*
X132094392Y-121717776D01*
X132251056Y-121880006D01*
X132436247Y-122008717D01*
X132642911Y-122099007D01*
X132863177Y-122147435D01*
X133088654Y-122152158D01*
X133310754Y-122112996D01*
X133521018Y-122031440D01*
X133711436Y-121910597D01*
X133874756Y-121755069D01*
X134004757Y-121570781D01*
X134096487Y-121364753D01*
X134146452Y-121144831D01*
X134150049Y-120887237D01*
X134106244Y-120666005D01*
X134020302Y-120457496D01*
X133895498Y-120269650D01*
X133736584Y-120109623D01*
X133549614Y-119983510D01*
X133341710Y-119896115D01*
X133120789Y-119850766D01*
X132895268Y-119849192D01*
X132673736Y-119891451D01*
X132464632Y-119975935D01*
X132275919Y-120099425D01*
X132114787Y-120257218D01*
X131987372Y-120443303D01*
X131898527Y-120650592D01*
X131851638Y-120871191D01*
X131848489Y-121096695D01*
X122647124Y-121096695D01*
X122650049Y-120887237D01*
X122606244Y-120666005D01*
X122520302Y-120457496D01*
X122395498Y-120269650D01*
X122236584Y-120109623D01*
X122049614Y-119983510D01*
X121841710Y-119896115D01*
X121620789Y-119850766D01*
X121395268Y-119849192D01*
X121173736Y-119891451D01*
X120964632Y-119975935D01*
X120775919Y-120099425D01*
X120614787Y-120257218D01*
X120487372Y-120443303D01*
X120398527Y-120650592D01*
X120351638Y-120871191D01*
X120348489Y-121096695D01*
X117647124Y-121096695D01*
X117650049Y-120887237D01*
X117606244Y-120666005D01*
X117520302Y-120457496D01*
X117395498Y-120269650D01*
X117236584Y-120109623D01*
X117049614Y-119983510D01*
X116841710Y-119896115D01*
X116620789Y-119850766D01*
X116395268Y-119849192D01*
X116173736Y-119891451D01*
X115964632Y-119975935D01*
X115775919Y-120099425D01*
X115614787Y-120257218D01*
X115487372Y-120443303D01*
X115398527Y-120650592D01*
X115351638Y-120871191D01*
X115348489Y-121096695D01*
X109650000Y-121096695D01*
X109650000Y-115096695D01*
X115348489Y-115096695D01*
X115389201Y-115318517D01*
X115472222Y-115528206D01*
X115594392Y-115717776D01*
X115751056Y-115880006D01*
X115936247Y-116008717D01*
X116142911Y-116099007D01*
X116363177Y-116147435D01*
X116588654Y-116152158D01*
X116810754Y-116112996D01*
X117021018Y-116031440D01*
X117211436Y-115910597D01*
X117374756Y-115755069D01*
X117504757Y-115570781D01*
X117596487Y-115364753D01*
X117646452Y-115144831D01*
X117647124Y-115096695D01*
X120348489Y-115096695D01*
X120389201Y-115318517D01*
X120472222Y-115528206D01*
X120594392Y-115717776D01*
X120751056Y-115880006D01*
X120936247Y-116008717D01*
X121142911Y-116099007D01*
X121363177Y-116147435D01*
X121588654Y-116152158D01*
X121810754Y-116112996D01*
X122021018Y-116031440D01*
X122211436Y-115910597D01*
X122374756Y-115755069D01*
X122504757Y-115570781D01*
X122596487Y-115364753D01*
X122646452Y-115144831D01*
X122647124Y-115096695D01*
X131848489Y-115096695D01*
X131889201Y-115318517D01*
X131972222Y-115528206D01*
X132094392Y-115717776D01*
X132251056Y-115880006D01*
X132436247Y-116008717D01*
X132642911Y-116099007D01*
X132863177Y-116147435D01*
X133088654Y-116152158D01*
X133310754Y-116112996D01*
X133521018Y-116031440D01*
X133711436Y-115910597D01*
X133874756Y-115755069D01*
X134004757Y-115570781D01*
X134096487Y-115364753D01*
X134146452Y-115144831D01*
X134150049Y-114887237D01*
X134106244Y-114666005D01*
X134020302Y-114457496D01*
X133895498Y-114269650D01*
X133736584Y-114109623D01*
X133549614Y-113983510D01*
X133341710Y-113896115D01*
X133120789Y-113850766D01*
X132895268Y-113849192D01*
X132673736Y-113891451D01*
X132464632Y-113975935D01*
X132275919Y-114099425D01*
X132114787Y-114257218D01*
X131987372Y-114443303D01*
X131898527Y-114650592D01*
X131851638Y-114871191D01*
X131848489Y-115096695D01*
X122647124Y-115096695D01*
X122650049Y-114887237D01*
X122606244Y-114666005D01*
X122520302Y-114457496D01*
X122395498Y-114269650D01*
X122236584Y-114109623D01*
X122049614Y-113983510D01*
X121841710Y-113896115D01*
X121620789Y-113850766D01*
X121395268Y-113849192D01*
X121173736Y-113891451D01*
X120964632Y-113975935D01*
X120775919Y-114099425D01*
X120614787Y-114257218D01*
X120487372Y-114443303D01*
X120398527Y-114650592D01*
X120351638Y-114871191D01*
X120348489Y-115096695D01*
X117647124Y-115096695D01*
X117650049Y-114887237D01*
X117606244Y-114666005D01*
X117520302Y-114457496D01*
X117395498Y-114269650D01*
X117236584Y-114109623D01*
X117049614Y-113983510D01*
X116841710Y-113896115D01*
X116620789Y-113850766D01*
X116395268Y-113849192D01*
X116173736Y-113891451D01*
X115964632Y-113975935D01*
X115775919Y-114099425D01*
X115614787Y-114257218D01*
X115487372Y-114443303D01*
X115398527Y-114650592D01*
X115351638Y-114871191D01*
X115348489Y-115096695D01*
X109650000Y-115096695D01*
X109650000Y-112500000D01*
X109647118Y-112470736D01*
X109638582Y-112442597D01*
X109624720Y-112416664D01*
X109606066Y-112393934D01*
X109583336Y-112375280D01*
X109557403Y-112361418D01*
X109529264Y-112352882D01*
X109500000Y-112350000D01*
X103363264Y-112350000D01*
X102214575Y-111575200D01*
X100695966Y-110936835D01*
X99082288Y-110605595D01*
X97435003Y-110594094D01*
X95816856Y-110902772D01*
X94289483Y-111519871D01*
X92911060Y-112421886D01*
X91734092Y-113574459D01*
X90803407Y-114933689D01*
X90154457Y-116447803D01*
X89811959Y-118059130D01*
X89788959Y-119706295D01*
X90086332Y-121326557D01*
X90293578Y-121850000D01*
X85750000Y-121850000D01*
X85750000Y-119259307D01*
X85772157Y-119380031D01*
X85819082Y-119498551D01*
X85888135Y-119605700D01*
X85976684Y-119697395D01*
X86081357Y-119770145D01*
X86198167Y-119821178D01*
X86322665Y-119848550D01*
X86450109Y-119851220D01*
X86520164Y-119838867D01*
X86576684Y-119897395D01*
X86681357Y-119970145D01*
X86798167Y-120021178D01*
X86922665Y-120048550D01*
X87050109Y-120051220D01*
X87175644Y-120029085D01*
X87294488Y-119982988D01*
X87402116Y-119914685D01*
X87494428Y-119826778D01*
X87567906Y-119722616D01*
X87619754Y-119606165D01*
X87647995Y-119481861D01*
X87650028Y-119336264D01*
X87625268Y-119211220D01*
X87576693Y-119093367D01*
X87506151Y-118987193D01*
X87490634Y-118971568D01*
X87519754Y-118906165D01*
X87547995Y-118781861D01*
X87550028Y-118636264D01*
X87525268Y-118511220D01*
X87476693Y-118393367D01*
X87448224Y-118350517D01*
X87467906Y-118322616D01*
X87519754Y-118206165D01*
X87547995Y-118081861D01*
X87550028Y-117936264D01*
X87525268Y-117811220D01*
X87476693Y-117693367D01*
X87406151Y-117587193D01*
X87316330Y-117496743D01*
X87210652Y-117425462D01*
X87093140Y-117376065D01*
X86968272Y-117350433D01*
X86955094Y-117350341D01*
X87075644Y-117329085D01*
X87194488Y-117282988D01*
X87302116Y-117214685D01*
X87394428Y-117126778D01*
X87467906Y-117022616D01*
X87519754Y-116906165D01*
X87547995Y-116781861D01*
X87550028Y-116636264D01*
X87525268Y-116511220D01*
X87476693Y-116393367D01*
X87406151Y-116287193D01*
X87316330Y-116196743D01*
X87210652Y-116125462D01*
X87093140Y-116076065D01*
X87049597Y-116067127D01*
X87050028Y-116036264D01*
X87025268Y-115911220D01*
X86976693Y-115793367D01*
X86906151Y-115687193D01*
X86816330Y-115596743D01*
X86710652Y-115525462D01*
X86593140Y-115476065D01*
X86468272Y-115450433D01*
X86455094Y-115450341D01*
X86575644Y-115429085D01*
X86694488Y-115382988D01*
X86802116Y-115314685D01*
X86894428Y-115226778D01*
X86967906Y-115122616D01*
X87019754Y-115006165D01*
X87047995Y-114881861D01*
X87050028Y-114736264D01*
X87025268Y-114611220D01*
X86976693Y-114493367D01*
X86906151Y-114387193D01*
X86816330Y-114296743D01*
X86710652Y-114225462D01*
X86593140Y-114176065D01*
X86468272Y-114150433D01*
X86340804Y-114149543D01*
X86215590Y-114173429D01*
X86097401Y-114221181D01*
X85990737Y-114290979D01*
X85899662Y-114380166D01*
X85827645Y-114485345D01*
X85777428Y-114602509D01*
X85750925Y-114727195D01*
X85749146Y-114854654D01*
X85772157Y-114980031D01*
X85819082Y-115098551D01*
X85888135Y-115205700D01*
X85976684Y-115297395D01*
X86081357Y-115370145D01*
X86198167Y-115421178D01*
X86322665Y-115448550D01*
X86384688Y-115449849D01*
X86340804Y-115449543D01*
X86215590Y-115473429D01*
X86097401Y-115521181D01*
X85990737Y-115590979D01*
X85899662Y-115680166D01*
X85827645Y-115785345D01*
X85777428Y-115902509D01*
X85750925Y-116027195D01*
X85749146Y-116154654D01*
X85772157Y-116280031D01*
X85819082Y-116398551D01*
X85888135Y-116505700D01*
X85976684Y-116597395D01*
X86081357Y-116670145D01*
X86198167Y-116721178D01*
X86249456Y-116732454D01*
X86249146Y-116754654D01*
X86272157Y-116880031D01*
X86319082Y-116998551D01*
X86388135Y-117105700D01*
X86476684Y-117197395D01*
X86581357Y-117270145D01*
X86698167Y-117321178D01*
X86822665Y-117348550D01*
X86884688Y-117349849D01*
X86840804Y-117349543D01*
X86715590Y-117373429D01*
X86597401Y-117421181D01*
X86490737Y-117490979D01*
X86399662Y-117580166D01*
X86327645Y-117685345D01*
X86277428Y-117802509D01*
X86250925Y-117927195D01*
X86249146Y-118054654D01*
X86272157Y-118180031D01*
X86319082Y-118298551D01*
X86352048Y-118349705D01*
X86327645Y-118385345D01*
X86277428Y-118502509D01*
X86264330Y-118564131D01*
X86215590Y-118573429D01*
X86097401Y-118621181D01*
X85990737Y-118690979D01*
X85899662Y-118780166D01*
X85827645Y-118885345D01*
X85777428Y-119002509D01*
X85750925Y-119127195D01*
X85750000Y-119193468D01*
X85750000Y-116400000D01*
X85747118Y-116370736D01*
X85738582Y-116342597D01*
X85724720Y-116316664D01*
X85706066Y-116293934D01*
X85683336Y-116275280D01*
X85657403Y-116261418D01*
X85629264Y-116252882D01*
X85600000Y-116250000D01*
X84650000Y-116250000D01*
X84650000Y-113354654D01*
X86849146Y-113354654D01*
X86872157Y-113480031D01*
X86919082Y-113598551D01*
X86988135Y-113705700D01*
X87076684Y-113797395D01*
X87181357Y-113870145D01*
X87298167Y-113921178D01*
X87422665Y-113948550D01*
X87550109Y-113951220D01*
X87675644Y-113929085D01*
X87794488Y-113882988D01*
X87902116Y-113814685D01*
X87994428Y-113726778D01*
X88067906Y-113622616D01*
X88119754Y-113506165D01*
X88147995Y-113381861D01*
X88150028Y-113236264D01*
X88125268Y-113111220D01*
X88076693Y-112993367D01*
X88006151Y-112887193D01*
X87916330Y-112796743D01*
X87810652Y-112725462D01*
X87693140Y-112676065D01*
X87568272Y-112650433D01*
X87440804Y-112649543D01*
X87315590Y-112673429D01*
X87197401Y-112721181D01*
X87090737Y-112790979D01*
X86999662Y-112880166D01*
X86927645Y-112985345D01*
X86877428Y-113102509D01*
X86850925Y-113227195D01*
X86849146Y-113354654D01*
X84650000Y-113354654D01*
X84650000Y-109148351D01*
X84681357Y-109170145D01*
X84798167Y-109221178D01*
X84922665Y-109248550D01*
X85050109Y-109251220D01*
X85175644Y-109229085D01*
X85294488Y-109182988D01*
X85402116Y-109114685D01*
X85421007Y-109096695D01*
X131848489Y-109096695D01*
X131889201Y-109318517D01*
X131972222Y-109528206D01*
X132094392Y-109717776D01*
X132251056Y-109880006D01*
X132436247Y-110008717D01*
X132642911Y-110099007D01*
X132863177Y-110147435D01*
X133088654Y-110152158D01*
X133310754Y-110112996D01*
X133521018Y-110031440D01*
X133711436Y-109910597D01*
X133874756Y-109755069D01*
X134004757Y-109570781D01*
X134096487Y-109364753D01*
X134146452Y-109144831D01*
X134150049Y-108887237D01*
X134106244Y-108666005D01*
X134020302Y-108457496D01*
X133895498Y-108269650D01*
X133736584Y-108109623D01*
X133549614Y-107983510D01*
X133341710Y-107896115D01*
X133120789Y-107850766D01*
X132895268Y-107849192D01*
X132673736Y-107891451D01*
X132464632Y-107975935D01*
X132275919Y-108099425D01*
X132114787Y-108257218D01*
X131987372Y-108443303D01*
X131898527Y-108650592D01*
X131851638Y-108871191D01*
X131848489Y-109096695D01*
X85421007Y-109096695D01*
X85494428Y-109026778D01*
X85567906Y-108922616D01*
X85619754Y-108806165D01*
X85647995Y-108681861D01*
X85650028Y-108536264D01*
X85625268Y-108411220D01*
X85576693Y-108293367D01*
X85506151Y-108187193D01*
X85416330Y-108096743D01*
X85310652Y-108025462D01*
X85193140Y-107976065D01*
X85068272Y-107950433D01*
X84940804Y-107949543D01*
X84815590Y-107973429D01*
X84697401Y-108021181D01*
X84650000Y-108052199D01*
X84650000Y-107454654D01*
X88149146Y-107454654D01*
X88172157Y-107580031D01*
X88219082Y-107698551D01*
X88288135Y-107805700D01*
X88376684Y-107897395D01*
X88481357Y-107970145D01*
X88598167Y-108021178D01*
X88722665Y-108048550D01*
X88850109Y-108051220D01*
X88975644Y-108029085D01*
X89094488Y-107982988D01*
X89202116Y-107914685D01*
X89294428Y-107826778D01*
X89367906Y-107722616D01*
X89419754Y-107606165D01*
X89447995Y-107481861D01*
X89450028Y-107336264D01*
X89425268Y-107211220D01*
X89376693Y-107093367D01*
X89306151Y-106987193D01*
X89216330Y-106896743D01*
X89110652Y-106825462D01*
X88993140Y-106776065D01*
X88868272Y-106750433D01*
X88740804Y-106749543D01*
X88615590Y-106773429D01*
X88497401Y-106821181D01*
X88390737Y-106890979D01*
X88299662Y-106980166D01*
X88227645Y-107085345D01*
X88177428Y-107202509D01*
X88150925Y-107327195D01*
X88149146Y-107454654D01*
X84650000Y-107454654D01*
X84650000Y-106869763D01*
X84676684Y-106897395D01*
X84781357Y-106970145D01*
X84898167Y-107021178D01*
X85022665Y-107048550D01*
X85150109Y-107051220D01*
X85275644Y-107029085D01*
X85394488Y-106982988D01*
X85502116Y-106914685D01*
X85594428Y-106826778D01*
X85667906Y-106722616D01*
X85719754Y-106606165D01*
X85747995Y-106481861D01*
X85750028Y-106336264D01*
X85725268Y-106211220D01*
X85676693Y-106093367D01*
X85606151Y-105987193D01*
X85516330Y-105896743D01*
X85410652Y-105825462D01*
X85293140Y-105776065D01*
X85168272Y-105750433D01*
X85040804Y-105749543D01*
X84915590Y-105773429D01*
X84797401Y-105821181D01*
X84690737Y-105890979D01*
X84650000Y-105930872D01*
X84650000Y-104454654D01*
X84749146Y-104454654D01*
X84772157Y-104580031D01*
X84819082Y-104698551D01*
X84888135Y-104805700D01*
X84976684Y-104897395D01*
X85081357Y-104970145D01*
X85198167Y-105021178D01*
X85322665Y-105048550D01*
X85450109Y-105051220D01*
X85575644Y-105029085D01*
X85694488Y-104982988D01*
X85802116Y-104914685D01*
X85894428Y-104826778D01*
X85967906Y-104722616D01*
X86019754Y-104606165D01*
X86047995Y-104481861D01*
X86050028Y-104336264D01*
X86025268Y-104211220D01*
X85976693Y-104093367D01*
X85906151Y-103987193D01*
X85816330Y-103896743D01*
X85710652Y-103825462D01*
X85593140Y-103776065D01*
X85468272Y-103750433D01*
X85340804Y-103749543D01*
X85215590Y-103773429D01*
X85097401Y-103821181D01*
X84990737Y-103890979D01*
X84899662Y-103980166D01*
X84827645Y-104085345D01*
X84777428Y-104202509D01*
X84750925Y-104327195D01*
X84749146Y-104454654D01*
X84650000Y-104454654D01*
X84650000Y-101769086D01*
X84694428Y-101726778D01*
X84767906Y-101622616D01*
X84819754Y-101506165D01*
X84847995Y-101381861D01*
X84848374Y-101354654D01*
X117849146Y-101354654D01*
X117872157Y-101480031D01*
X117919082Y-101598551D01*
X117920825Y-101601256D01*
X117877428Y-101702509D01*
X117850925Y-101827195D01*
X117849146Y-101954654D01*
X117872157Y-102080031D01*
X117919082Y-102198551D01*
X117920825Y-102201256D01*
X117877428Y-102302509D01*
X117850925Y-102427195D01*
X117849146Y-102554654D01*
X117872157Y-102680031D01*
X117919082Y-102798551D01*
X117988135Y-102905700D01*
X118076684Y-102997395D01*
X118181357Y-103070145D01*
X118298167Y-103121178D01*
X118422665Y-103148550D01*
X118550109Y-103151220D01*
X118675644Y-103129085D01*
X118794488Y-103082988D01*
X118902116Y-103014685D01*
X118994428Y-102926778D01*
X119067906Y-102822616D01*
X119119754Y-102706165D01*
X119147995Y-102581861D01*
X119150028Y-102436264D01*
X119125268Y-102311220D01*
X119078729Y-102198307D01*
X119119754Y-102106165D01*
X119147995Y-101981861D01*
X119150028Y-101836264D01*
X119125268Y-101711220D01*
X119078729Y-101598307D01*
X119119754Y-101506165D01*
X119147995Y-101381861D01*
X119150028Y-101236264D01*
X119125268Y-101111220D01*
X119076693Y-100993367D01*
X119006151Y-100887193D01*
X118916330Y-100796743D01*
X118810652Y-100725462D01*
X118693140Y-100676065D01*
X118568272Y-100650433D01*
X118440804Y-100649543D01*
X118315590Y-100673429D01*
X118197401Y-100721181D01*
X118090737Y-100790979D01*
X117999662Y-100880166D01*
X117927645Y-100985345D01*
X117877428Y-101102509D01*
X117850925Y-101227195D01*
X117849146Y-101354654D01*
X84848374Y-101354654D01*
X84850028Y-101236264D01*
X84830386Y-101137065D01*
X84875644Y-101129085D01*
X84994488Y-101082988D01*
X85102116Y-101014685D01*
X85194428Y-100926778D01*
X85267906Y-100822616D01*
X85319754Y-100706165D01*
X85347995Y-100581861D01*
X85350028Y-100436264D01*
X85325268Y-100311220D01*
X85276693Y-100193367D01*
X85206151Y-100087193D01*
X85116330Y-99996743D01*
X85010652Y-99925462D01*
X84893140Y-99876065D01*
X84768272Y-99850433D01*
X84650000Y-99849607D01*
X84650000Y-99650000D01*
X87952239Y-99650000D01*
X87988135Y-99705700D01*
X88076684Y-99797395D01*
X88181357Y-99870145D01*
X88298167Y-99921178D01*
X88422665Y-99948550D01*
X88484688Y-99949849D01*
X88440804Y-99949543D01*
X88315590Y-99973429D01*
X88197401Y-100021181D01*
X88090737Y-100090979D01*
X87999662Y-100180166D01*
X87927645Y-100285345D01*
X87877428Y-100402509D01*
X87850925Y-100527195D01*
X87849146Y-100654654D01*
X87872157Y-100780031D01*
X87919082Y-100898551D01*
X87988135Y-101005700D01*
X88076684Y-101097395D01*
X88181357Y-101170145D01*
X88298167Y-101221178D01*
X88422665Y-101248550D01*
X88550109Y-101251220D01*
X88675644Y-101229085D01*
X88794488Y-101182988D01*
X88902116Y-101114685D01*
X88994428Y-101026778D01*
X89067906Y-100922616D01*
X89119754Y-100806165D01*
X89147995Y-100681861D01*
X89150028Y-100536264D01*
X89125268Y-100411220D01*
X89076693Y-100293367D01*
X89006151Y-100187193D01*
X88916330Y-100096743D01*
X88810652Y-100025462D01*
X88693140Y-99976065D01*
X88568272Y-99950433D01*
X88555094Y-99950341D01*
X88675644Y-99929085D01*
X88794488Y-99882988D01*
X88902116Y-99814685D01*
X88994428Y-99726778D01*
X89048589Y-99650000D01*
X121000000Y-99650000D01*
X121029264Y-99647118D01*
X121057403Y-99638582D01*
X121083336Y-99624720D01*
X121106066Y-99606066D01*
X121124720Y-99583336D01*
X121138582Y-99557403D01*
X121147118Y-99529264D01*
X121150000Y-99500000D01*
X121150000Y-98669443D01*
X121201456Y-98670521D01*
X121423556Y-98631359D01*
X121633820Y-98549803D01*
X121824238Y-98428960D01*
X121987558Y-98273432D01*
X122117559Y-98089144D01*
X122209289Y-97883116D01*
X122259254Y-97663194D01*
X122259926Y-97615058D01*
X125961291Y-97615058D01*
X126002003Y-97836880D01*
X126085024Y-98046569D01*
X126207194Y-98236139D01*
X126363858Y-98398369D01*
X126549049Y-98527080D01*
X126755713Y-98617370D01*
X126975979Y-98665798D01*
X127201456Y-98670521D01*
X127423556Y-98631359D01*
X127633820Y-98549803D01*
X127824238Y-98428960D01*
X127987558Y-98273432D01*
X128117559Y-98089144D01*
X128209289Y-97883116D01*
X128259254Y-97663194D01*
X128262851Y-97405600D01*
X128219046Y-97184368D01*
X128133104Y-96975859D01*
X128008300Y-96788013D01*
X127849386Y-96627986D01*
X127662416Y-96501873D01*
X127454512Y-96414478D01*
X127233591Y-96369129D01*
X127008070Y-96367555D01*
X126786538Y-96409814D01*
X126577434Y-96494298D01*
X126388721Y-96617788D01*
X126227589Y-96775581D01*
X126100174Y-96961666D01*
X126011329Y-97168955D01*
X125964440Y-97389554D01*
X125961291Y-97615058D01*
X122259926Y-97615058D01*
X122262851Y-97405600D01*
X122219046Y-97184368D01*
X122133104Y-96975859D01*
X122008300Y-96788013D01*
X121849386Y-96627986D01*
X121662416Y-96501873D01*
X121454512Y-96414478D01*
X121233591Y-96369129D01*
X121150000Y-96368546D01*
X121150000Y-93669443D01*
X121201456Y-93670521D01*
X121423556Y-93631359D01*
X121633820Y-93549803D01*
X121824238Y-93428960D01*
X121987558Y-93273432D01*
X122117559Y-93089144D01*
X122209289Y-92883116D01*
X122259254Y-92663194D01*
X122259926Y-92615058D01*
X125961291Y-92615058D01*
X126002003Y-92836880D01*
X126085024Y-93046569D01*
X126207194Y-93236139D01*
X126363858Y-93398369D01*
X126549049Y-93527080D01*
X126755713Y-93617370D01*
X126975979Y-93665798D01*
X127201456Y-93670521D01*
X127423556Y-93631359D01*
X127633820Y-93549803D01*
X127824238Y-93428960D01*
X127987558Y-93273432D01*
X128117559Y-93089144D01*
X128209289Y-92883116D01*
X128259254Y-92663194D01*
X128262851Y-92405600D01*
X128219046Y-92184368D01*
X128133104Y-91975859D01*
X128008300Y-91788013D01*
X127849386Y-91627986D01*
X127662416Y-91501873D01*
X127454512Y-91414478D01*
X127233591Y-91369129D01*
X127008070Y-91367555D01*
X126786538Y-91409814D01*
X126577434Y-91494298D01*
X126388721Y-91617788D01*
X126227589Y-91775581D01*
X126100174Y-91961666D01*
X126011329Y-92168955D01*
X125964440Y-92389554D01*
X125961291Y-92615058D01*
X122259926Y-92615058D01*
X122262851Y-92405600D01*
X122219046Y-92184368D01*
X122133104Y-91975859D01*
X122008300Y-91788013D01*
X121849386Y-91627986D01*
X121662416Y-91501873D01*
X121454512Y-91414478D01*
X121233591Y-91369129D01*
X121150000Y-91368546D01*
X121150000Y-88054654D01*
X124349146Y-88054654D01*
X124372157Y-88180031D01*
X124419082Y-88298551D01*
X124488135Y-88405700D01*
X124576684Y-88497395D01*
X124681357Y-88570145D01*
X124798167Y-88621178D01*
X124922665Y-88648550D01*
X124951696Y-88649158D01*
X124988135Y-88705700D01*
X125076684Y-88797395D01*
X125181357Y-88870145D01*
X125298167Y-88921178D01*
X125422665Y-88948550D01*
X125550109Y-88951220D01*
X125675644Y-88929085D01*
X125794488Y-88882988D01*
X125902116Y-88814685D01*
X125994428Y-88726778D01*
X126067906Y-88622616D01*
X126119754Y-88506165D01*
X126147995Y-88381861D01*
X126150028Y-88236264D01*
X126125268Y-88111220D01*
X126078729Y-87998307D01*
X126119754Y-87906165D01*
X126147995Y-87781861D01*
X126150028Y-87636264D01*
X126125268Y-87511220D01*
X126076693Y-87393367D01*
X126006151Y-87287193D01*
X125916330Y-87196743D01*
X125810652Y-87125462D01*
X125693140Y-87076065D01*
X125568272Y-87050433D01*
X125440804Y-87049543D01*
X125315590Y-87073429D01*
X125197401Y-87121181D01*
X125090737Y-87190979D01*
X124999662Y-87280166D01*
X124952105Y-87349622D01*
X124940804Y-87349543D01*
X124815590Y-87373429D01*
X124697401Y-87421181D01*
X124590737Y-87490979D01*
X124499662Y-87580166D01*
X124427645Y-87685345D01*
X124377428Y-87802509D01*
X124350925Y-87927195D01*
X124349146Y-88054654D01*
X121150000Y-88054654D01*
X121150000Y-84669443D01*
X121201456Y-84670521D01*
X121423556Y-84631359D01*
X121633820Y-84549803D01*
X121824238Y-84428960D01*
X121987558Y-84273432D01*
X122117559Y-84089144D01*
X122209289Y-83883116D01*
X122259254Y-83663194D01*
X122259926Y-83615058D01*
X125961291Y-83615058D01*
X126002003Y-83836880D01*
X126085024Y-84046569D01*
X126207194Y-84236139D01*
X126363858Y-84398369D01*
X126549049Y-84527080D01*
X126755713Y-84617370D01*
X126975979Y-84665798D01*
X127201456Y-84670521D01*
X127423556Y-84631359D01*
X127633820Y-84549803D01*
X127824238Y-84428960D01*
X127987558Y-84273432D01*
X128117559Y-84089144D01*
X128209289Y-83883116D01*
X128259254Y-83663194D01*
X128262851Y-83405600D01*
X128219046Y-83184368D01*
X128133104Y-82975859D01*
X128008300Y-82788013D01*
X127849386Y-82627986D01*
X127662416Y-82501873D01*
X127454512Y-82414478D01*
X127233591Y-82369129D01*
X127008070Y-82367555D01*
X126786538Y-82409814D01*
X126577434Y-82494298D01*
X126388721Y-82617788D01*
X126227589Y-82775581D01*
X126100174Y-82961666D01*
X126011329Y-83168955D01*
X125964440Y-83389554D01*
X125961291Y-83615058D01*
X122259926Y-83615058D01*
X122262851Y-83405600D01*
X122219046Y-83184368D01*
X122133104Y-82975859D01*
X122008300Y-82788013D01*
X121849386Y-82627986D01*
X121662416Y-82501873D01*
X121454512Y-82414478D01*
X121233591Y-82369129D01*
X121150000Y-82368546D01*
X121150000Y-79669443D01*
X121201456Y-79670521D01*
X121423556Y-79631359D01*
X121633820Y-79549803D01*
X121824238Y-79428960D01*
X121987558Y-79273432D01*
X122117559Y-79089144D01*
X122209289Y-78883116D01*
X122259254Y-78663194D01*
X122259926Y-78615058D01*
X125961291Y-78615058D01*
X126002003Y-78836880D01*
X126085024Y-79046569D01*
X126207194Y-79236139D01*
X126363858Y-79398369D01*
X126549049Y-79527080D01*
X126755713Y-79617370D01*
X126975979Y-79665798D01*
X127201456Y-79670521D01*
X127423556Y-79631359D01*
X127633820Y-79549803D01*
X127824238Y-79428960D01*
X127987558Y-79273432D01*
X128117559Y-79089144D01*
X128209289Y-78883116D01*
X128259254Y-78663194D01*
X128262851Y-78405600D01*
X128219046Y-78184368D01*
X128133104Y-77975859D01*
X128008300Y-77788013D01*
X127849386Y-77627986D01*
X127662416Y-77501873D01*
X127454512Y-77414478D01*
X127233591Y-77369129D01*
X127008070Y-77367555D01*
X126786538Y-77409814D01*
X126577434Y-77494298D01*
X126388721Y-77617788D01*
X126227589Y-77775581D01*
X126100174Y-77961666D01*
X126011329Y-78168955D01*
X125964440Y-78389554D01*
X125961291Y-78615058D01*
X122259926Y-78615058D01*
X122262851Y-78405600D01*
X122219046Y-78184368D01*
X122133104Y-77975859D01*
X122008300Y-77788013D01*
X121849386Y-77627986D01*
X121662416Y-77501873D01*
X121454512Y-77414478D01*
X121233591Y-77369129D01*
X121150000Y-77368546D01*
X121150000Y-74615058D01*
X122661291Y-74615058D01*
X122702003Y-74836880D01*
X122785024Y-75046569D01*
X122907194Y-75236139D01*
X123063858Y-75398369D01*
X123249049Y-75527080D01*
X123455713Y-75617370D01*
X123675979Y-75665798D01*
X123901456Y-75670521D01*
X124123556Y-75631359D01*
X124333820Y-75549803D01*
X124524238Y-75428960D01*
X124687558Y-75273432D01*
X124817559Y-75089144D01*
X124909289Y-74883116D01*
X124959254Y-74663194D01*
X124962851Y-74405600D01*
X124919046Y-74184368D01*
X124833104Y-73975859D01*
X124708300Y-73788013D01*
X124549386Y-73627986D01*
X124362416Y-73501873D01*
X124154512Y-73414478D01*
X123933591Y-73369129D01*
X123708070Y-73367555D01*
X123486538Y-73409814D01*
X123277434Y-73494298D01*
X123088721Y-73617788D01*
X122927589Y-73775581D01*
X122800174Y-73961666D01*
X122711329Y-74168955D01*
X122664440Y-74389554D01*
X122661291Y-74615058D01*
X121150000Y-74615058D01*
X121150000Y-68150000D01*
X134850000Y-68150000D01*
X134850000Y-134850000D01*
D16*
G36*
X99375000Y-88875000D02*
X91625000Y-88875000D01*
X91625000Y-88073606D01*
X91752036Y-88076267D01*
X91882399Y-88053280D01*
X92005815Y-88005411D01*
X92117582Y-87934481D01*
X92213444Y-87843193D01*
X92289749Y-87735024D01*
X92343590Y-87614094D01*
X92372918Y-87485009D01*
X92375029Y-87333813D01*
X92349317Y-87203960D01*
X92298873Y-87081573D01*
X92225618Y-86971316D01*
X92132343Y-86877387D01*
X92022600Y-86803364D01*
X91900569Y-86752067D01*
X91770898Y-86725450D01*
X91638527Y-86724525D01*
X91625000Y-86727105D01*
X91625000Y-85356756D01*
X92724113Y-85356756D01*
X92748009Y-85486955D01*
X92796739Y-85610034D01*
X92868447Y-85721303D01*
X92960402Y-85816526D01*
X93069101Y-85892073D01*
X93190404Y-85945069D01*
X93209186Y-85949199D01*
X93208497Y-85949330D01*
X93085762Y-85998918D01*
X92974996Y-86071402D01*
X92880418Y-86164019D01*
X92805631Y-86273243D01*
X92753483Y-86394913D01*
X92725961Y-86524394D01*
X92724113Y-86656756D01*
X92748009Y-86786955D01*
X92796739Y-86910034D01*
X92868447Y-87021303D01*
X92960402Y-87116526D01*
X93069101Y-87192073D01*
X93190404Y-87245069D01*
X93319691Y-87273495D01*
X93452036Y-87276267D01*
X93582399Y-87253280D01*
X93705815Y-87205411D01*
X93817582Y-87134481D01*
X93913444Y-87043193D01*
X93989749Y-86935024D01*
X94043590Y-86814094D01*
X94072918Y-86685009D01*
X94075029Y-86533813D01*
X94049317Y-86403960D01*
X93998873Y-86281573D01*
X93925618Y-86171316D01*
X93832343Y-86077387D01*
X93722600Y-86003364D01*
X93600569Y-85952067D01*
X93590732Y-85950048D01*
X93705815Y-85905411D01*
X93817582Y-85834481D01*
X93913444Y-85743193D01*
X93989749Y-85635024D01*
X94043590Y-85514094D01*
X94072918Y-85385009D01*
X94075029Y-85233813D01*
X94049317Y-85103960D01*
X93998873Y-84981573D01*
X93925618Y-84871316D01*
X93832343Y-84777387D01*
X93722600Y-84703364D01*
X93600569Y-84652067D01*
X93470898Y-84625450D01*
X93338527Y-84624525D01*
X93208497Y-84649330D01*
X93085762Y-84698918D01*
X92974996Y-84771402D01*
X92880418Y-84864019D01*
X92805631Y-84973243D01*
X92753483Y-85094913D01*
X92725961Y-85224394D01*
X92724113Y-85356756D01*
X91625000Y-85356756D01*
X91625000Y-81655848D01*
X91643590Y-81614094D01*
X91672918Y-81485009D01*
X91675029Y-81333813D01*
X91649317Y-81203960D01*
X91625000Y-81144962D01*
X91625000Y-81055848D01*
X91643590Y-81014094D01*
X91672918Y-80885009D01*
X91675029Y-80733813D01*
X91649317Y-80603960D01*
X91625000Y-80544962D01*
X91625000Y-76493236D01*
X91717582Y-76434481D01*
X91813444Y-76343193D01*
X91889749Y-76235024D01*
X91943590Y-76114094D01*
X91972918Y-75985009D01*
X91975029Y-75833813D01*
X91949317Y-75703960D01*
X91898873Y-75581573D01*
X91825618Y-75471316D01*
X91732343Y-75377387D01*
X91625000Y-75304983D01*
X91625000Y-75193236D01*
X91717582Y-75134481D01*
X91813444Y-75043193D01*
X91889749Y-74935024D01*
X91943590Y-74814094D01*
X91972918Y-74685009D01*
X91975029Y-74533813D01*
X91949317Y-74403960D01*
X91898873Y-74281573D01*
X91825618Y-74171316D01*
X91732343Y-74077387D01*
X91625000Y-74004983D01*
X91625000Y-71956756D01*
X92124113Y-71956756D01*
X92148009Y-72086955D01*
X92193437Y-72201694D01*
X92153483Y-72294913D01*
X92125961Y-72424394D01*
X92124113Y-72556756D01*
X92148009Y-72686955D01*
X92196739Y-72810034D01*
X92268447Y-72921303D01*
X92360402Y-73016526D01*
X92469101Y-73092073D01*
X92590404Y-73145069D01*
X92719691Y-73173495D01*
X92852036Y-73176267D01*
X92982399Y-73153280D01*
X93105815Y-73105411D01*
X93217582Y-73034481D01*
X93313444Y-72943193D01*
X93389749Y-72835024D01*
X93443590Y-72714094D01*
X93472918Y-72585009D01*
X93475029Y-72433813D01*
X93449317Y-72303960D01*
X93405927Y-72198687D01*
X93443590Y-72114094D01*
X93472918Y-71985009D01*
X93475029Y-71833813D01*
X93449317Y-71703960D01*
X93446294Y-71696625D01*
X93489749Y-71635024D01*
X93543590Y-71514094D01*
X93572918Y-71385009D01*
X93575029Y-71233813D01*
X93549317Y-71103960D01*
X93498873Y-70981573D01*
X93425618Y-70871316D01*
X93332343Y-70777387D01*
X93222600Y-70703364D01*
X93100569Y-70652067D01*
X92970898Y-70625450D01*
X92838527Y-70624525D01*
X92708497Y-70649330D01*
X92585762Y-70698918D01*
X92474996Y-70771402D01*
X92380418Y-70864019D01*
X92305631Y-70973243D01*
X92253483Y-71094913D01*
X92225961Y-71224394D01*
X92224113Y-71356756D01*
X92248009Y-71486955D01*
X92254129Y-71502413D01*
X92205631Y-71573243D01*
X92153483Y-71694913D01*
X92125961Y-71824394D01*
X92124113Y-71956756D01*
X91625000Y-71956756D01*
X91625000Y-70000000D01*
X91622598Y-69975614D01*
X91615485Y-69952165D01*
X91603934Y-69930554D01*
X91588388Y-69911612D01*
X91569446Y-69896066D01*
X91547835Y-69884515D01*
X91524386Y-69877402D01*
X91500000Y-69875000D01*
X76355125Y-69875000D01*
X76300569Y-69852067D01*
X76170898Y-69825450D01*
X76038527Y-69824525D01*
X75908497Y-69849330D01*
X75844961Y-69875000D01*
X74228804Y-69875000D01*
X74122600Y-69803364D01*
X74000569Y-69752067D01*
X73870898Y-69725450D01*
X73738527Y-69724525D01*
X73608497Y-69749330D01*
X73485762Y-69798918D01*
X73374996Y-69871402D01*
X73371322Y-69875000D01*
X70125000Y-69875000D01*
X70125000Y-67956756D01*
X83024113Y-67956756D01*
X83048009Y-68086955D01*
X83096739Y-68210034D01*
X83168447Y-68321303D01*
X83260402Y-68416526D01*
X83369101Y-68492073D01*
X83490404Y-68545069D01*
X83619691Y-68573495D01*
X83727600Y-68575755D01*
X83748009Y-68686955D01*
X83793437Y-68801694D01*
X83753483Y-68894913D01*
X83725961Y-69024394D01*
X83724113Y-69156756D01*
X83748009Y-69286955D01*
X83796739Y-69410034D01*
X83868447Y-69521303D01*
X83960402Y-69616526D01*
X84069101Y-69692073D01*
X84190404Y-69745069D01*
X84319691Y-69773495D01*
X84452036Y-69776267D01*
X84582399Y-69753280D01*
X84705815Y-69705411D01*
X84817582Y-69634481D01*
X84913444Y-69543193D01*
X84974418Y-69456756D01*
X95824113Y-69456756D01*
X95848009Y-69586955D01*
X95896739Y-69710034D01*
X95968447Y-69821303D01*
X96060402Y-69916526D01*
X96169101Y-69992073D01*
X96290404Y-70045069D01*
X96419691Y-70073495D01*
X96552036Y-70076267D01*
X96682399Y-70053280D01*
X96805815Y-70005411D01*
X96917582Y-69934481D01*
X97013444Y-69843193D01*
X97089749Y-69735024D01*
X97143590Y-69614094D01*
X97156364Y-69557871D01*
X97182399Y-69553280D01*
X97305815Y-69505411D01*
X97417582Y-69434481D01*
X97513444Y-69343193D01*
X97589749Y-69235024D01*
X97643590Y-69114094D01*
X97672918Y-68985009D01*
X97675029Y-68833813D01*
X97649317Y-68703960D01*
X97598873Y-68581573D01*
X97525618Y-68471316D01*
X97432343Y-68377387D01*
X97322600Y-68303364D01*
X97233662Y-68265978D01*
X97198873Y-68181573D01*
X97125618Y-68071316D01*
X97032343Y-67977387D01*
X96922600Y-67903364D01*
X96800569Y-67852067D01*
X96670898Y-67825450D01*
X96538527Y-67824525D01*
X96408497Y-67849330D01*
X96285762Y-67898918D01*
X96174996Y-67971402D01*
X96080418Y-68064019D01*
X96005631Y-68173243D01*
X95953483Y-68294913D01*
X95925961Y-68424394D01*
X95924113Y-68556756D01*
X95948009Y-68686955D01*
X95996739Y-68810034D01*
X96051265Y-68894641D01*
X95980418Y-68964019D01*
X95905631Y-69073243D01*
X95853483Y-69194913D01*
X95825961Y-69324394D01*
X95824113Y-69456756D01*
X84974418Y-69456756D01*
X84989749Y-69435024D01*
X85043590Y-69314094D01*
X85072918Y-69185009D01*
X85075029Y-69033813D01*
X85049317Y-68903960D01*
X85005927Y-68798687D01*
X85043590Y-68714094D01*
X85072918Y-68585009D01*
X85075029Y-68433813D01*
X85049317Y-68303960D01*
X84998873Y-68181573D01*
X84946253Y-68102374D01*
X84972918Y-67985009D01*
X84975029Y-67833813D01*
X84949317Y-67703960D01*
X84898873Y-67581573D01*
X84825618Y-67471316D01*
X84732343Y-67377387D01*
X84622600Y-67303364D01*
X84500569Y-67252067D01*
X84370898Y-67225450D01*
X84238527Y-67224525D01*
X84108497Y-67249330D01*
X83999153Y-67293508D01*
X83900569Y-67252067D01*
X83770898Y-67225450D01*
X83638527Y-67224525D01*
X83508497Y-67249330D01*
X83385762Y-67298918D01*
X83274996Y-67371402D01*
X83180418Y-67464019D01*
X83105631Y-67573243D01*
X83053483Y-67694913D01*
X83025961Y-67824394D01*
X83024113Y-67956756D01*
X70125000Y-67956756D01*
X70125000Y-62128700D01*
X70317997Y-62132743D01*
X71114662Y-61992269D01*
X71868869Y-61699732D01*
X72551892Y-61266272D01*
X73137713Y-60708402D01*
X73604021Y-60047369D01*
X73933052Y-59308352D01*
X74112275Y-58519501D01*
X74125177Y-57595523D01*
X73968050Y-56801975D01*
X73659782Y-56054060D01*
X73212113Y-55380264D01*
X72642096Y-54806254D01*
X71971443Y-54353893D01*
X71574621Y-54187084D01*
X75772075Y-54187084D01*
X75850844Y-54616261D01*
X76011473Y-55021964D01*
X76247845Y-55388741D01*
X76550956Y-55702621D01*
X76909260Y-55951650D01*
X77309110Y-56126340D01*
X77735276Y-56220039D01*
X78171526Y-56229177D01*
X78601242Y-56153406D01*
X79008057Y-55995613D01*
X79376475Y-55761808D01*
X79692464Y-55460896D01*
X79943987Y-55104338D01*
X80121465Y-54705717D01*
X80218136Y-54280216D01*
X80219436Y-54187084D01*
X83772075Y-54187084D01*
X83850844Y-54616261D01*
X84011473Y-55021964D01*
X84247845Y-55388741D01*
X84550956Y-55702621D01*
X84909260Y-55951650D01*
X85309110Y-56126340D01*
X85735276Y-56220039D01*
X86171526Y-56229177D01*
X86601242Y-56153406D01*
X87008057Y-55995613D01*
X87376475Y-55761808D01*
X87692464Y-55460896D01*
X87943987Y-55104338D01*
X88121465Y-54705717D01*
X88218136Y-54280216D01*
X88225096Y-53781827D01*
X88140342Y-53353793D01*
X87974064Y-52950371D01*
X87732595Y-52586930D01*
X87425131Y-52277313D01*
X87063384Y-52033312D01*
X86661134Y-51864221D01*
X86233701Y-51776482D01*
X85797367Y-51773436D01*
X85368751Y-51855198D01*
X84964178Y-52018656D01*
X84599061Y-52257583D01*
X84287304Y-52562877D01*
X84040783Y-52922912D01*
X83868889Y-53323972D01*
X83778167Y-53750782D01*
X83772075Y-54187084D01*
X80219436Y-54187084D01*
X80225096Y-53781827D01*
X80140342Y-53353793D01*
X79974064Y-52950371D01*
X79732595Y-52586930D01*
X79425131Y-52277313D01*
X79063384Y-52033312D01*
X78661134Y-51864221D01*
X78233701Y-51776482D01*
X77797367Y-51773436D01*
X77368751Y-51855198D01*
X76964178Y-52018656D01*
X76599061Y-52257583D01*
X76287304Y-52562877D01*
X76040783Y-52922912D01*
X75868889Y-53323972D01*
X75778167Y-53750782D01*
X75772075Y-54187084D01*
X71574621Y-54187084D01*
X71225698Y-54040410D01*
X70433266Y-53877748D01*
X70125000Y-53875596D01*
X70125000Y-51625000D01*
X99375000Y-51625000D01*
X99375000Y-88875000D01*
X99375000Y-88875000D01*
G37*
X99375000Y-88875000D02*
X91625000Y-88875000D01*
X91625000Y-88073606D01*
X91752036Y-88076267D01*
X91882399Y-88053280D01*
X92005815Y-88005411D01*
X92117582Y-87934481D01*
X92213444Y-87843193D01*
X92289749Y-87735024D01*
X92343590Y-87614094D01*
X92372918Y-87485009D01*
X92375029Y-87333813D01*
X92349317Y-87203960D01*
X92298873Y-87081573D01*
X92225618Y-86971316D01*
X92132343Y-86877387D01*
X92022600Y-86803364D01*
X91900569Y-86752067D01*
X91770898Y-86725450D01*
X91638527Y-86724525D01*
X91625000Y-86727105D01*
X91625000Y-85356756D01*
X92724113Y-85356756D01*
X92748009Y-85486955D01*
X92796739Y-85610034D01*
X92868447Y-85721303D01*
X92960402Y-85816526D01*
X93069101Y-85892073D01*
X93190404Y-85945069D01*
X93209186Y-85949199D01*
X93208497Y-85949330D01*
X93085762Y-85998918D01*
X92974996Y-86071402D01*
X92880418Y-86164019D01*
X92805631Y-86273243D01*
X92753483Y-86394913D01*
X92725961Y-86524394D01*
X92724113Y-86656756D01*
X92748009Y-86786955D01*
X92796739Y-86910034D01*
X92868447Y-87021303D01*
X92960402Y-87116526D01*
X93069101Y-87192073D01*
X93190404Y-87245069D01*
X93319691Y-87273495D01*
X93452036Y-87276267D01*
X93582399Y-87253280D01*
X93705815Y-87205411D01*
X93817582Y-87134481D01*
X93913444Y-87043193D01*
X93989749Y-86935024D01*
X94043590Y-86814094D01*
X94072918Y-86685009D01*
X94075029Y-86533813D01*
X94049317Y-86403960D01*
X93998873Y-86281573D01*
X93925618Y-86171316D01*
X93832343Y-86077387D01*
X93722600Y-86003364D01*
X93600569Y-85952067D01*
X93590732Y-85950048D01*
X93705815Y-85905411D01*
X93817582Y-85834481D01*
X93913444Y-85743193D01*
X93989749Y-85635024D01*
X94043590Y-85514094D01*
X94072918Y-85385009D01*
X94075029Y-85233813D01*
X94049317Y-85103960D01*
X93998873Y-84981573D01*
X93925618Y-84871316D01*
X93832343Y-84777387D01*
X93722600Y-84703364D01*
X93600569Y-84652067D01*
X93470898Y-84625450D01*
X93338527Y-84624525D01*
X93208497Y-84649330D01*
X93085762Y-84698918D01*
X92974996Y-84771402D01*
X92880418Y-84864019D01*
X92805631Y-84973243D01*
X92753483Y-85094913D01*
X92725961Y-85224394D01*
X92724113Y-85356756D01*
X91625000Y-85356756D01*
X91625000Y-81655848D01*
X91643590Y-81614094D01*
X91672918Y-81485009D01*
X91675029Y-81333813D01*
X91649317Y-81203960D01*
X91625000Y-81144962D01*
X91625000Y-81055848D01*
X91643590Y-81014094D01*
X91672918Y-80885009D01*
X91675029Y-80733813D01*
X91649317Y-80603960D01*
X91625000Y-80544962D01*
X91625000Y-76493236D01*
X91717582Y-76434481D01*
X91813444Y-76343193D01*
X91889749Y-76235024D01*
X91943590Y-76114094D01*
X91972918Y-75985009D01*
X91975029Y-75833813D01*
X91949317Y-75703960D01*
X91898873Y-75581573D01*
X91825618Y-75471316D01*
X91732343Y-75377387D01*
X91625000Y-75304983D01*
X91625000Y-75193236D01*
X91717582Y-75134481D01*
X91813444Y-75043193D01*
X91889749Y-74935024D01*
X91943590Y-74814094D01*
X91972918Y-74685009D01*
X91975029Y-74533813D01*
X91949317Y-74403960D01*
X91898873Y-74281573D01*
X91825618Y-74171316D01*
X91732343Y-74077387D01*
X91625000Y-74004983D01*
X91625000Y-71956756D01*
X92124113Y-71956756D01*
X92148009Y-72086955D01*
X92193437Y-72201694D01*
X92153483Y-72294913D01*
X92125961Y-72424394D01*
X92124113Y-72556756D01*
X92148009Y-72686955D01*
X92196739Y-72810034D01*
X92268447Y-72921303D01*
X92360402Y-73016526D01*
X92469101Y-73092073D01*
X92590404Y-73145069D01*
X92719691Y-73173495D01*
X92852036Y-73176267D01*
X92982399Y-73153280D01*
X93105815Y-73105411D01*
X93217582Y-73034481D01*
X93313444Y-72943193D01*
X93389749Y-72835024D01*
X93443590Y-72714094D01*
X93472918Y-72585009D01*
X93475029Y-72433813D01*
X93449317Y-72303960D01*
X93405927Y-72198687D01*
X93443590Y-72114094D01*
X93472918Y-71985009D01*
X93475029Y-71833813D01*
X93449317Y-71703960D01*
X93446294Y-71696625D01*
X93489749Y-71635024D01*
X93543590Y-71514094D01*
X93572918Y-71385009D01*
X93575029Y-71233813D01*
X93549317Y-71103960D01*
X93498873Y-70981573D01*
X93425618Y-70871316D01*
X93332343Y-70777387D01*
X93222600Y-70703364D01*
X93100569Y-70652067D01*
X92970898Y-70625450D01*
X92838527Y-70624525D01*
X92708497Y-70649330D01*
X92585762Y-70698918D01*
X92474996Y-70771402D01*
X92380418Y-70864019D01*
X92305631Y-70973243D01*
X92253483Y-71094913D01*
X92225961Y-71224394D01*
X92224113Y-71356756D01*
X92248009Y-71486955D01*
X92254129Y-71502413D01*
X92205631Y-71573243D01*
X92153483Y-71694913D01*
X92125961Y-71824394D01*
X92124113Y-71956756D01*
X91625000Y-71956756D01*
X91625000Y-70000000D01*
X91622598Y-69975614D01*
X91615485Y-69952165D01*
X91603934Y-69930554D01*
X91588388Y-69911612D01*
X91569446Y-69896066D01*
X91547835Y-69884515D01*
X91524386Y-69877402D01*
X91500000Y-69875000D01*
X76355125Y-69875000D01*
X76300569Y-69852067D01*
X76170898Y-69825450D01*
X76038527Y-69824525D01*
X75908497Y-69849330D01*
X75844961Y-69875000D01*
X74228804Y-69875000D01*
X74122600Y-69803364D01*
X74000569Y-69752067D01*
X73870898Y-69725450D01*
X73738527Y-69724525D01*
X73608497Y-69749330D01*
X73485762Y-69798918D01*
X73374996Y-69871402D01*
X73371322Y-69875000D01*
X70125000Y-69875000D01*
X70125000Y-67956756D01*
X83024113Y-67956756D01*
X83048009Y-68086955D01*
X83096739Y-68210034D01*
X83168447Y-68321303D01*
X83260402Y-68416526D01*
X83369101Y-68492073D01*
X83490404Y-68545069D01*
X83619691Y-68573495D01*
X83727600Y-68575755D01*
X83748009Y-68686955D01*
X83793437Y-68801694D01*
X83753483Y-68894913D01*
X83725961Y-69024394D01*
X83724113Y-69156756D01*
X83748009Y-69286955D01*
X83796739Y-69410034D01*
X83868447Y-69521303D01*
X83960402Y-69616526D01*
X84069101Y-69692073D01*
X84190404Y-69745069D01*
X84319691Y-69773495D01*
X84452036Y-69776267D01*
X84582399Y-69753280D01*
X84705815Y-69705411D01*
X84817582Y-69634481D01*
X84913444Y-69543193D01*
X84974418Y-69456756D01*
X95824113Y-69456756D01*
X95848009Y-69586955D01*
X95896739Y-69710034D01*
X95968447Y-69821303D01*
X96060402Y-69916526D01*
X96169101Y-69992073D01*
X96290404Y-70045069D01*
X96419691Y-70073495D01*
X96552036Y-70076267D01*
X96682399Y-70053280D01*
X96805815Y-70005411D01*
X96917582Y-69934481D01*
X97013444Y-69843193D01*
X97089749Y-69735024D01*
X97143590Y-69614094D01*
X97156364Y-69557871D01*
X97182399Y-69553280D01*
X97305815Y-69505411D01*
X97417582Y-69434481D01*
X97513444Y-69343193D01*
X97589749Y-69235024D01*
X97643590Y-69114094D01*
X97672918Y-68985009D01*
X97675029Y-68833813D01*
X97649317Y-68703960D01*
X97598873Y-68581573D01*
X97525618Y-68471316D01*
X97432343Y-68377387D01*
X97322600Y-68303364D01*
X97233662Y-68265978D01*
X97198873Y-68181573D01*
X97125618Y-68071316D01*
X97032343Y-67977387D01*
X96922600Y-67903364D01*
X96800569Y-67852067D01*
X96670898Y-67825450D01*
X96538527Y-67824525D01*
X96408497Y-67849330D01*
X96285762Y-67898918D01*
X96174996Y-67971402D01*
X96080418Y-68064019D01*
X96005631Y-68173243D01*
X95953483Y-68294913D01*
X95925961Y-68424394D01*
X95924113Y-68556756D01*
X95948009Y-68686955D01*
X95996739Y-68810034D01*
X96051265Y-68894641D01*
X95980418Y-68964019D01*
X95905631Y-69073243D01*
X95853483Y-69194913D01*
X95825961Y-69324394D01*
X95824113Y-69456756D01*
X84974418Y-69456756D01*
X84989749Y-69435024D01*
X85043590Y-69314094D01*
X85072918Y-69185009D01*
X85075029Y-69033813D01*
X85049317Y-68903960D01*
X85005927Y-68798687D01*
X85043590Y-68714094D01*
X85072918Y-68585009D01*
X85075029Y-68433813D01*
X85049317Y-68303960D01*
X84998873Y-68181573D01*
X84946253Y-68102374D01*
X84972918Y-67985009D01*
X84975029Y-67833813D01*
X84949317Y-67703960D01*
X84898873Y-67581573D01*
X84825618Y-67471316D01*
X84732343Y-67377387D01*
X84622600Y-67303364D01*
X84500569Y-67252067D01*
X84370898Y-67225450D01*
X84238527Y-67224525D01*
X84108497Y-67249330D01*
X83999153Y-67293508D01*
X83900569Y-67252067D01*
X83770898Y-67225450D01*
X83638527Y-67224525D01*
X83508497Y-67249330D01*
X83385762Y-67298918D01*
X83274996Y-67371402D01*
X83180418Y-67464019D01*
X83105631Y-67573243D01*
X83053483Y-67694913D01*
X83025961Y-67824394D01*
X83024113Y-67956756D01*
X70125000Y-67956756D01*
X70125000Y-62128700D01*
X70317997Y-62132743D01*
X71114662Y-61992269D01*
X71868869Y-61699732D01*
X72551892Y-61266272D01*
X73137713Y-60708402D01*
X73604021Y-60047369D01*
X73933052Y-59308352D01*
X74112275Y-58519501D01*
X74125177Y-57595523D01*
X73968050Y-56801975D01*
X73659782Y-56054060D01*
X73212113Y-55380264D01*
X72642096Y-54806254D01*
X71971443Y-54353893D01*
X71574621Y-54187084D01*
X75772075Y-54187084D01*
X75850844Y-54616261D01*
X76011473Y-55021964D01*
X76247845Y-55388741D01*
X76550956Y-55702621D01*
X76909260Y-55951650D01*
X77309110Y-56126340D01*
X77735276Y-56220039D01*
X78171526Y-56229177D01*
X78601242Y-56153406D01*
X79008057Y-55995613D01*
X79376475Y-55761808D01*
X79692464Y-55460896D01*
X79943987Y-55104338D01*
X80121465Y-54705717D01*
X80218136Y-54280216D01*
X80219436Y-54187084D01*
X83772075Y-54187084D01*
X83850844Y-54616261D01*
X84011473Y-55021964D01*
X84247845Y-55388741D01*
X84550956Y-55702621D01*
X84909260Y-55951650D01*
X85309110Y-56126340D01*
X85735276Y-56220039D01*
X86171526Y-56229177D01*
X86601242Y-56153406D01*
X87008057Y-55995613D01*
X87376475Y-55761808D01*
X87692464Y-55460896D01*
X87943987Y-55104338D01*
X88121465Y-54705717D01*
X88218136Y-54280216D01*
X88225096Y-53781827D01*
X88140342Y-53353793D01*
X87974064Y-52950371D01*
X87732595Y-52586930D01*
X87425131Y-52277313D01*
X87063384Y-52033312D01*
X86661134Y-51864221D01*
X86233701Y-51776482D01*
X85797367Y-51773436D01*
X85368751Y-51855198D01*
X84964178Y-52018656D01*
X84599061Y-52257583D01*
X84287304Y-52562877D01*
X84040783Y-52922912D01*
X83868889Y-53323972D01*
X83778167Y-53750782D01*
X83772075Y-54187084D01*
X80219436Y-54187084D01*
X80225096Y-53781827D01*
X80140342Y-53353793D01*
X79974064Y-52950371D01*
X79732595Y-52586930D01*
X79425131Y-52277313D01*
X79063384Y-52033312D01*
X78661134Y-51864221D01*
X78233701Y-51776482D01*
X77797367Y-51773436D01*
X77368751Y-51855198D01*
X76964178Y-52018656D01*
X76599061Y-52257583D01*
X76287304Y-52562877D01*
X76040783Y-52922912D01*
X75868889Y-53323972D01*
X75778167Y-53750782D01*
X75772075Y-54187084D01*
X71574621Y-54187084D01*
X71225698Y-54040410D01*
X70433266Y-53877748D01*
X70125000Y-53875596D01*
X70125000Y-51625000D01*
X99375000Y-51625000D01*
X99375000Y-88875000D01*
M02*
