G04 #@! TF.GenerationSoftware,KiCad,Pcbnew,(2017-12-21 revision 7586afd53)-makepkg*
G04 #@! TF.CreationDate,2018-10-14T21:46:11-07:00*
G04 #@! TF.ProjectId,fsorx,66736F72782E6B696361645F70636200,rev?*
G04 #@! TF.SameCoordinates,Original*
G04 #@! TF.FileFunction,Soldermask,Top*
G04 #@! TF.FilePolarity,Negative*
%FSLAX46Y46*%
G04 Gerber Fmt 4.6, Leading zero omitted, Abs format (unit mm)*
G04 Created by KiCad (PCBNEW (2017-12-21 revision 7586afd53)-makepkg) date 10/14/18 21:46:11*
%MOMM*%
%LPD*%
G01*
G04 APERTURE LIST*
%ADD10R,1.600000X1.000000*%
%ADD11R,0.600000X1.800000*%
%ADD12R,1.000000X2.800000*%
%ADD13C,0.500000*%
%ADD14C,0.100000*%
%ADD15C,1.600000*%
%ADD16C,1.050000*%
%ADD17R,0.750000X0.800000*%
%ADD18R,0.800000X0.750000*%
%ADD19R,1.300000X2.800000*%
%ADD20R,1.000000X1.250000*%
%ADD21R,1.060000X0.650000*%
%ADD22R,0.900000X1.200000*%
%ADD23R,2.800000X1.000000*%
%ADD24R,1.800000X0.600000*%
%ADD25R,0.500000X0.900000*%
%ADD26R,0.900000X0.500000*%
%ADD27R,0.900000X0.800000*%
%ADD28R,0.700000X0.450000*%
%ADD29R,0.800000X0.900000*%
%ADD30R,0.450000X0.700000*%
%ADD31R,0.700000X1.300000*%
%ADD32R,0.550000X1.500000*%
%ADD33R,1.800000X1.000000*%
%ADD34R,0.600000X0.400000*%
%ADD35R,0.650000X1.060000*%
%ADD36R,1.300000X0.250000*%
%ADD37R,0.250000X1.300000*%
%ADD38O,2.000000X1.500000*%
%ADD39R,1.200000X1.800000*%
%ADD40C,0.482000*%
%ADD41R,1.202000X0.802000*%
%ADD42R,0.802000X1.202000*%
%ADD43C,0.800000*%
%ADD44R,0.600000X0.800000*%
%ADD45C,7.500000*%
%ADD46C,12.500000*%
%ADD47C,3.700000*%
G04 APERTURE END LIST*
D10*
X93600000Y-73600000D03*
X93600000Y-70600000D03*
D11*
X83775000Y-69100000D03*
X82525000Y-69100000D03*
X81275000Y-69100000D03*
X80025000Y-69100000D03*
D12*
X78300000Y-65900000D03*
X85500000Y-65900000D03*
D13*
X96530330Y-69169670D03*
D14*
G36*
X96388909Y-68674695D02*
X97025305Y-69311091D01*
X96671751Y-69664645D01*
X96035355Y-69028249D01*
X96388909Y-68674695D01*
X96388909Y-68674695D01*
G37*
D13*
X95469670Y-70230330D03*
D14*
G36*
X95328249Y-69735355D02*
X95964645Y-70371751D01*
X95611091Y-70725305D01*
X94974695Y-70088909D01*
X95328249Y-69735355D01*
X95328249Y-69735355D01*
G37*
D15*
X129812802Y-53018363D03*
X129812802Y-58018363D03*
D16*
X90000000Y-130000000D03*
D17*
X76400000Y-92750000D03*
X76400000Y-94250000D03*
D18*
X80150000Y-98000000D03*
X78650000Y-98000000D03*
X91286467Y-75218265D03*
X89786467Y-75218265D03*
X78650000Y-77750000D03*
X77150000Y-77750000D03*
D17*
X87650000Y-81750000D03*
X87650000Y-80250000D03*
D19*
X89150000Y-97150000D03*
X89150000Y-93350000D03*
D18*
X82650000Y-90500000D03*
X84150000Y-90500000D03*
D17*
X75150000Y-87500000D03*
X75150000Y-86000000D03*
D18*
X83150000Y-95500000D03*
X84650000Y-95500000D03*
D17*
X91000000Y-85750000D03*
X91000000Y-87250000D03*
D15*
X111812802Y-53018363D03*
X111812802Y-58018363D03*
X123812802Y-53018363D03*
X123812802Y-58018363D03*
X117812802Y-53018363D03*
X117812802Y-58018363D03*
X123812802Y-69518363D03*
X123812802Y-74518363D03*
X117812802Y-69518363D03*
X117812802Y-74518363D03*
D18*
X112312802Y-73518363D03*
X110812802Y-73518363D03*
D15*
X127112802Y-83518363D03*
X127112802Y-78518363D03*
X115112802Y-83518363D03*
X115112802Y-78518363D03*
X121112802Y-97518363D03*
X121112802Y-92518363D03*
X109112802Y-92518363D03*
X109112802Y-97518363D03*
X115112802Y-97518363D03*
X115112802Y-92518363D03*
X127112802Y-92518363D03*
X127112802Y-97518363D03*
X121112802Y-78518363D03*
X121112802Y-83518363D03*
X109112802Y-83518363D03*
X109112802Y-78518363D03*
D20*
X119500000Y-106500000D03*
X117500000Y-106500000D03*
X125500000Y-130000000D03*
X123500000Y-130000000D03*
D15*
X133000000Y-127000000D03*
X138000000Y-127000000D03*
X133000000Y-109000000D03*
X138000000Y-109000000D03*
X138000000Y-121000000D03*
X133000000Y-121000000D03*
X138000000Y-115000000D03*
X133000000Y-115000000D03*
X121500000Y-121000000D03*
X116500000Y-121000000D03*
X116500000Y-115000000D03*
X121500000Y-115000000D03*
D21*
X122012802Y-87068363D03*
X122012802Y-88018363D03*
X122012802Y-88968363D03*
X124212802Y-88968363D03*
X124212802Y-87068363D03*
X124212802Y-88018363D03*
X112012802Y-88018363D03*
X112012802Y-88968363D03*
X112012802Y-87068363D03*
X114212802Y-87068363D03*
X114212802Y-88018363D03*
X114212802Y-88968363D03*
D22*
X120650000Y-109500000D03*
X117350000Y-109500000D03*
D23*
X71800000Y-67400000D03*
X71800000Y-74600000D03*
D24*
X75000000Y-72875000D03*
X75000000Y-71625000D03*
X75000000Y-70375000D03*
X75000000Y-69125000D03*
D25*
X85150000Y-90500000D03*
X86650000Y-90500000D03*
D26*
X132312802Y-61768363D03*
X132312802Y-60268363D03*
X109312802Y-60268363D03*
X109312802Y-61768363D03*
D21*
X98264306Y-73529909D03*
X98264306Y-72579909D03*
X98264306Y-71629909D03*
X96064306Y-71629909D03*
X96064306Y-73529909D03*
X96064306Y-72579909D03*
D27*
X129312802Y-65518363D03*
X127312802Y-66468363D03*
X127312802Y-64568363D03*
D28*
X113812802Y-65518363D03*
X115812802Y-64868363D03*
X115812802Y-66168363D03*
D29*
X120500000Y-130000000D03*
X121450000Y-132000000D03*
X119550000Y-132000000D03*
X120550000Y-127750000D03*
X122450000Y-127750000D03*
X121500000Y-125750000D03*
D30*
X123350000Y-110500000D03*
X124650000Y-110500000D03*
X124000000Y-108500000D03*
D29*
X127000000Y-127500000D03*
X126050000Y-125500000D03*
X127950000Y-125500000D03*
D30*
X127500000Y-109000000D03*
X128150000Y-111000000D03*
X126850000Y-111000000D03*
D25*
X88650000Y-77400000D03*
X90150000Y-77400000D03*
D26*
X86900000Y-77750000D03*
X86900000Y-76250000D03*
X88536467Y-71968265D03*
X88536467Y-73468265D03*
D25*
X89286467Y-70218265D03*
X90786467Y-70218265D03*
D13*
X75869670Y-88469670D03*
D14*
G36*
X76364645Y-88328249D02*
X75728249Y-88964645D01*
X75374695Y-88611091D01*
X76011091Y-87974695D01*
X76364645Y-88328249D01*
X76364645Y-88328249D01*
G37*
D13*
X76930330Y-89530330D03*
D14*
G36*
X77425305Y-89388909D02*
X76788909Y-90025305D01*
X76435355Y-89671751D01*
X77071751Y-89035355D01*
X77425305Y-89388909D01*
X77425305Y-89388909D01*
G37*
D25*
X98414306Y-75579909D03*
X96914306Y-75579909D03*
X90150000Y-78800000D03*
X88650000Y-78800000D03*
X87650000Y-85500000D03*
X89150000Y-85500000D03*
X128562802Y-62018363D03*
X130062802Y-62018363D03*
X111562802Y-62018363D03*
X113062802Y-62018363D03*
X125062802Y-62018363D03*
X126562802Y-62018363D03*
X115062802Y-62018363D03*
X116562802Y-62018363D03*
X121562802Y-62018363D03*
X123062802Y-62018363D03*
X125062802Y-66018363D03*
X123562802Y-66018363D03*
D26*
X117812802Y-64768363D03*
X117812802Y-66268363D03*
X109312802Y-70268363D03*
X109312802Y-71768363D03*
X107812802Y-71768363D03*
X107812802Y-70268363D03*
X118500000Y-127750000D03*
X118500000Y-126250000D03*
D25*
X123000000Y-106500000D03*
X121500000Y-106500000D03*
D31*
X125450000Y-132500000D03*
X123550000Y-132500000D03*
D26*
X130500000Y-127250000D03*
X130500000Y-128750000D03*
X130500000Y-107250000D03*
X130500000Y-108750000D03*
X130500000Y-125250000D03*
X130500000Y-123750000D03*
X130500000Y-112250000D03*
X130500000Y-110750000D03*
X130500000Y-120250000D03*
X130500000Y-121750000D03*
X130500000Y-115750000D03*
X130500000Y-114250000D03*
D25*
X125750000Y-123000000D03*
X124250000Y-123000000D03*
X124250000Y-113000000D03*
X125750000Y-113000000D03*
D32*
X85525000Y-93000000D03*
X82275000Y-93000000D03*
D33*
X126500000Y-119500000D03*
X126500000Y-116000000D03*
X138000000Y-100000000D03*
D34*
X91986467Y-73368265D03*
X91986467Y-72718265D03*
X91986467Y-72068265D03*
X90086467Y-72068265D03*
X90086467Y-73368265D03*
D35*
X79900000Y-73400000D03*
X78950000Y-73400000D03*
X80850000Y-73400000D03*
X80850000Y-75600000D03*
X79900000Y-75600000D03*
X78950000Y-75600000D03*
D36*
X77050000Y-86750000D03*
X77050000Y-86250000D03*
X77050000Y-85750000D03*
X77050000Y-85250000D03*
X77050000Y-84750000D03*
X77050000Y-84250000D03*
X77050000Y-83750000D03*
X77050000Y-83250000D03*
X77050000Y-82750000D03*
X77050000Y-82250000D03*
X77050000Y-81750000D03*
X77050000Y-81250000D03*
D37*
X78650000Y-79650000D03*
X79150000Y-79650000D03*
X79650000Y-79650000D03*
X80150000Y-79650000D03*
X80650000Y-79650000D03*
X81150000Y-79650000D03*
X81650000Y-79650000D03*
X82150000Y-79650000D03*
X82650000Y-79650000D03*
X83150000Y-79650000D03*
X83650000Y-79650000D03*
X84150000Y-79650000D03*
D36*
X85750000Y-81250000D03*
X85750000Y-81750000D03*
X85750000Y-82250000D03*
X85750000Y-82750000D03*
X85750000Y-83250000D03*
X85750000Y-83750000D03*
X85750000Y-84250000D03*
X85750000Y-84750000D03*
X85750000Y-85250000D03*
X85750000Y-85750000D03*
X85750000Y-86250000D03*
X85750000Y-86750000D03*
D37*
X84150000Y-88350000D03*
X83650000Y-88350000D03*
X83150000Y-88350000D03*
X82650000Y-88350000D03*
X82150000Y-88350000D03*
X81650000Y-88350000D03*
X81150000Y-88350000D03*
X80650000Y-88350000D03*
X80150000Y-88350000D03*
X79650000Y-88350000D03*
X79150000Y-88350000D03*
X78650000Y-88350000D03*
D38*
X101000000Y-68120000D03*
X101000000Y-65580000D03*
X101000000Y-57960000D03*
X101000000Y-55420000D03*
X101000000Y-52880000D03*
D35*
X111362802Y-69418363D03*
X113262802Y-69418363D03*
X113262802Y-71618363D03*
X112312802Y-71618363D03*
X111362802Y-71618363D03*
D39*
X78200000Y-91500000D03*
X78200000Y-95500000D03*
X80600000Y-95500000D03*
X80600000Y-91500000D03*
D40*
X84400000Y-73740000D03*
D14*
G36*
X84400501Y-74141000D02*
X84399499Y-74141000D01*
X83798001Y-73339000D01*
X85001999Y-73339000D01*
X84400501Y-74141000D01*
X84400501Y-74141000D01*
G37*
D40*
X84700000Y-74140000D03*
D14*
G36*
X85001000Y-74942999D02*
X84399000Y-74140335D01*
X84399000Y-74139665D01*
X85001000Y-73337001D01*
X85001000Y-74942999D01*
X85001000Y-74942999D01*
G37*
D40*
X84100000Y-74140000D03*
D14*
G36*
X84401000Y-74140335D02*
X83799000Y-74942999D01*
X83799000Y-73337001D01*
X84401000Y-74139665D01*
X84401000Y-74140335D01*
X84401000Y-74140335D01*
G37*
D40*
X84400000Y-74700000D03*
D14*
G36*
X85001999Y-75101000D02*
X83798001Y-75101000D01*
X84399499Y-74299000D01*
X84400501Y-74299000D01*
X85001999Y-75101000D01*
X85001999Y-75101000D01*
G37*
D41*
X84400000Y-75500000D03*
D40*
X82400000Y-73740000D03*
D14*
G36*
X82400501Y-74141000D02*
X82399499Y-74141000D01*
X81798001Y-73339000D01*
X83001999Y-73339000D01*
X82400501Y-74141000D01*
X82400501Y-74141000D01*
G37*
D40*
X82700000Y-74140000D03*
D14*
G36*
X83001000Y-74942999D02*
X82399000Y-74140335D01*
X82399000Y-74139665D01*
X83001000Y-73337001D01*
X83001000Y-74942999D01*
X83001000Y-74942999D01*
G37*
D40*
X82100000Y-74140000D03*
D14*
G36*
X82401000Y-74140335D02*
X81799000Y-74942999D01*
X81799000Y-73337001D01*
X82401000Y-74139665D01*
X82401000Y-74140335D01*
X82401000Y-74140335D01*
G37*
D40*
X82400000Y-74700000D03*
D14*
G36*
X83001999Y-75101000D02*
X81798001Y-75101000D01*
X82399499Y-74299000D01*
X82400501Y-74299000D01*
X83001999Y-75101000D01*
X83001999Y-75101000D01*
G37*
D41*
X82400000Y-75500000D03*
X74900000Y-80300000D03*
D40*
X74900000Y-79500000D03*
D14*
G36*
X75501999Y-79901000D02*
X74298001Y-79901000D01*
X74899499Y-79099000D01*
X74900501Y-79099000D01*
X75501999Y-79901000D01*
X75501999Y-79901000D01*
G37*
D40*
X74600000Y-78940000D03*
D14*
G36*
X74901000Y-78940335D02*
X74299000Y-79742999D01*
X74299000Y-78137001D01*
X74901000Y-78939665D01*
X74901000Y-78940335D01*
X74901000Y-78940335D01*
G37*
D40*
X75200000Y-78940000D03*
D14*
G36*
X75501000Y-79742999D02*
X74899000Y-78940335D01*
X74899000Y-78939665D01*
X75501000Y-78137001D01*
X75501000Y-79742999D01*
X75501000Y-79742999D01*
G37*
D40*
X74900000Y-78540000D03*
D14*
G36*
X74900501Y-78941000D02*
X74899499Y-78941000D01*
X74298001Y-78139000D01*
X75501999Y-78139000D01*
X74900501Y-78941000D01*
X74900501Y-78941000D01*
G37*
D41*
X72900000Y-80300000D03*
D40*
X72900000Y-79500000D03*
D14*
G36*
X73501999Y-79901000D02*
X72298001Y-79901000D01*
X72899499Y-79099000D01*
X72900501Y-79099000D01*
X73501999Y-79901000D01*
X73501999Y-79901000D01*
G37*
D40*
X72600000Y-78940000D03*
D14*
G36*
X72901000Y-78940335D02*
X72299000Y-79742999D01*
X72299000Y-78137001D01*
X72901000Y-78939665D01*
X72901000Y-78940335D01*
X72901000Y-78940335D01*
G37*
D40*
X73200000Y-78940000D03*
D14*
G36*
X73501000Y-79742999D02*
X72899000Y-78940335D01*
X72899000Y-78939665D01*
X73501000Y-78137001D01*
X73501000Y-79742999D01*
X73501000Y-79742999D01*
G37*
D40*
X72900000Y-78540000D03*
D14*
G36*
X72900501Y-78941000D02*
X72899499Y-78941000D01*
X72298001Y-78139000D01*
X73501999Y-78139000D01*
X72900501Y-78941000D01*
X72900501Y-78941000D01*
G37*
D40*
X89060000Y-83700000D03*
D14*
G36*
X88659000Y-83700501D02*
X88659000Y-83699499D01*
X89461000Y-83098001D01*
X89461000Y-84301999D01*
X88659000Y-83700501D01*
X88659000Y-83700501D01*
G37*
D40*
X88660000Y-84000000D03*
D14*
G36*
X87857001Y-84301000D02*
X88659665Y-83699000D01*
X88660335Y-83699000D01*
X89462999Y-84301000D01*
X87857001Y-84301000D01*
X87857001Y-84301000D01*
G37*
D40*
X88660000Y-83400000D03*
D14*
G36*
X88659665Y-83701000D02*
X87857001Y-83099000D01*
X89462999Y-83099000D01*
X88660335Y-83701000D01*
X88659665Y-83701000D01*
X88659665Y-83701000D01*
G37*
D40*
X88100000Y-83700000D03*
D14*
G36*
X87699000Y-84301999D02*
X87699000Y-83098001D01*
X88501000Y-83699499D01*
X88501000Y-83700501D01*
X87699000Y-84301999D01*
X87699000Y-84301999D01*
G37*
D42*
X87300000Y-83700000D03*
D41*
X89400000Y-82000000D03*
D40*
X89400000Y-81200000D03*
D14*
G36*
X90001999Y-81601000D02*
X88798001Y-81601000D01*
X89399499Y-80799000D01*
X89400501Y-80799000D01*
X90001999Y-81601000D01*
X90001999Y-81601000D01*
G37*
D40*
X89100000Y-80640000D03*
D14*
G36*
X89401000Y-80640335D02*
X88799000Y-81442999D01*
X88799000Y-79837001D01*
X89401000Y-80639665D01*
X89401000Y-80640335D01*
X89401000Y-80640335D01*
G37*
D40*
X89700000Y-80640000D03*
D14*
G36*
X90001000Y-81442999D02*
X89399000Y-80640335D01*
X89399000Y-80639665D01*
X90001000Y-79837001D01*
X90001000Y-81442999D01*
X90001000Y-81442999D01*
G37*
D40*
X89400000Y-80240000D03*
D14*
G36*
X89400501Y-80641000D02*
X89399499Y-80641000D01*
X88798001Y-79839000D01*
X90001999Y-79839000D01*
X89400501Y-80641000D01*
X89400501Y-80641000D01*
G37*
D25*
X120062802Y-62018363D03*
X118562802Y-62018363D03*
D43*
X86217424Y-125431944D03*
X82717424Y-125431944D03*
D20*
X96664306Y-77579909D03*
X98664306Y-77579909D03*
D43*
X81900000Y-77500000D03*
X85400000Y-77500000D03*
X84400000Y-77500000D03*
X83400000Y-77500000D03*
X75150000Y-84000000D03*
D44*
X73750000Y-82500000D03*
X72050000Y-82500000D03*
X72050000Y-84000000D03*
X73750000Y-84000000D03*
D26*
X70500000Y-79250000D03*
X70500000Y-80750000D03*
X70900000Y-85750000D03*
X70900000Y-87250000D03*
D45*
X70000000Y-138000000D03*
X70000000Y-58000000D03*
X140000000Y-58000000D03*
X140000000Y-138000000D03*
D46*
X98200000Y-119000000D03*
D16*
X86500000Y-128000000D03*
D18*
X112262802Y-67918363D03*
X113762802Y-67918363D03*
D47*
X78000000Y-54000000D03*
X86000000Y-54000000D03*
M02*
