G04 #@! TF.GenerationSoftware,KiCad,Pcbnew,(2017-12-21 revision 7586afd53)-makepkg*
G04 #@! TF.CreationDate,2018-10-14T14:18:47-07:00*
G04 #@! TF.ProjectId,fsorx,66736F72782E6B696361645F70636200,rev?*
G04 #@! TF.SameCoordinates,Original*
G04 #@! TF.FileFunction,Legend,Bot*
G04 #@! TF.FilePolarity,Positive*
%FSLAX46Y46*%
G04 Gerber Fmt 4.6, Leading zero omitted, Abs format (unit mm)*
G04 Created by KiCad (PCBNEW (2017-12-21 revision 7586afd53)-makepkg) date 10/14/18 14:18:47*
%MOMM*%
%LPD*%
G01*
G04 APERTURE LIST*
%ADD10C,0.120000*%
%ADD11C,0.150000*%
%ADD12C,0.125000*%
G04 APERTURE END LIST*
D10*
X82767424Y-129931944D02*
X82767424Y-126981944D01*
X85867424Y-127531944D02*
X85867424Y-129931944D01*
X85780000Y-119731944D02*
X85780000Y-118731944D01*
X84420000Y-118731944D02*
X84420000Y-119731944D01*
X83020000Y-118731944D02*
X83020000Y-119731944D01*
X84380000Y-119731944D02*
X84380000Y-118731944D01*
X85427633Y-123708278D02*
X85427633Y-121208278D01*
X83307633Y-121208278D02*
X83307633Y-124208278D01*
X93067424Y-85331944D02*
X92367424Y-85331944D01*
X92367424Y-86531944D02*
X93067424Y-86531944D01*
X86844109Y-121234105D02*
X87083523Y-120576320D01*
X85955891Y-120165895D02*
X85716477Y-120823680D01*
X81716477Y-120576320D02*
X81955891Y-121234105D01*
X83083523Y-120823680D02*
X82844109Y-120165895D01*
X88567424Y-130731944D02*
X87867424Y-130731944D01*
X87867424Y-131931944D02*
X88567424Y-131931944D01*
X79757424Y-132011944D02*
X79757424Y-131081944D01*
X79757424Y-128851944D02*
X79757424Y-129781944D01*
X79757424Y-128851944D02*
X81917424Y-128851944D01*
X79757424Y-132011944D02*
X81217424Y-132011944D01*
X89537424Y-86431944D02*
X89537424Y-87431944D01*
X90897424Y-87431944D02*
X90897424Y-86431944D01*
X87314678Y-86431944D02*
X87314678Y-87431944D01*
X88674678Y-87431944D02*
X88674678Y-86431944D01*
X84967424Y-124751944D02*
X83967424Y-124751944D01*
X83967424Y-126111944D02*
X84967424Y-126111944D01*
X87617424Y-128811944D02*
X88817424Y-128811944D01*
X88817424Y-127051944D02*
X87617424Y-127051944D01*
X81317424Y-124551944D02*
X80117424Y-124551944D01*
X80117424Y-126311944D02*
X81317424Y-126311944D01*
X88717424Y-129251944D02*
X87717424Y-129251944D01*
X87717424Y-130611944D02*
X88717424Y-130611944D01*
X90037424Y-127931944D02*
X90037424Y-128931944D01*
X91397424Y-128931944D02*
X91397424Y-127931944D01*
X86067424Y-85331944D02*
X85367424Y-85331944D01*
X85367424Y-86531944D02*
X86067424Y-86531944D01*
X85567424Y-87231944D02*
X84867424Y-87231944D01*
X84867424Y-88431944D02*
X85567424Y-88431944D01*
X93117424Y-89781944D02*
X93117424Y-90481944D01*
X94317424Y-90481944D02*
X94317424Y-89781944D01*
X81317424Y-91681944D02*
X81317424Y-90981944D01*
X80117424Y-90981944D02*
X80117424Y-91681944D01*
X88067424Y-99331944D02*
X87367424Y-99331944D01*
X87367424Y-100531944D02*
X88067424Y-100531944D01*
X83267424Y-103131944D02*
X82567424Y-103131944D01*
X82567424Y-104331944D02*
X83267424Y-104331944D01*
X86567424Y-104831944D02*
X85867424Y-104831944D01*
X85867424Y-106031944D02*
X86567424Y-106031944D01*
X82317424Y-101381944D02*
X82317424Y-102081944D01*
X83517424Y-102081944D02*
X83517424Y-101381944D01*
X85767424Y-117931944D02*
X86467424Y-117931944D01*
X86467424Y-116731944D02*
X85767424Y-116731944D01*
X83467424Y-116731944D02*
X82767424Y-116731944D01*
X82767424Y-117931944D02*
X83467424Y-117931944D01*
X86067424Y-114831944D02*
X85367424Y-114831944D01*
X85367424Y-116031944D02*
X86067424Y-116031944D01*
X82567424Y-106031944D02*
X83267424Y-106031944D01*
X83267424Y-104831944D02*
X82567424Y-104831944D01*
X91537424Y-89631944D02*
X91537424Y-90631944D01*
X92897424Y-90631944D02*
X92897424Y-89631944D01*
X82897424Y-91831944D02*
X82897424Y-90831944D01*
X81537424Y-90831944D02*
X81537424Y-91831944D01*
X88897424Y-97431944D02*
X88897424Y-96431944D01*
X87537424Y-96431944D02*
X87537424Y-97431944D01*
X87217424Y-94251944D02*
X86217424Y-94251944D01*
X86217424Y-95611944D02*
X87217424Y-95611944D01*
X86037424Y-96431944D02*
X86037424Y-97431944D01*
X87397424Y-97431944D02*
X87397424Y-96431944D01*
X85897424Y-97431944D02*
X85897424Y-96431944D01*
X84537424Y-96431944D02*
X84537424Y-97431944D01*
D11*
X89292424Y-88906944D02*
X90692424Y-88906944D01*
X89292424Y-94006944D02*
X85142424Y-94006944D01*
X89292424Y-88856944D02*
X85142424Y-88856944D01*
X89292424Y-94006944D02*
X89292424Y-93861944D01*
X85142424Y-94006944D02*
X85142424Y-93861944D01*
X85142424Y-88856944D02*
X85142424Y-89001944D01*
X89292424Y-88856944D02*
X89292424Y-88906944D01*
X81917424Y-106656944D02*
X81917424Y-112631944D01*
X87442424Y-108231944D02*
X87442424Y-112631944D01*
D10*
X87327424Y-101531944D02*
X87327424Y-103981944D01*
X84107424Y-103331944D02*
X84107424Y-101531944D01*
D11*
X82465043Y-127536705D02*
X82417424Y-127441467D01*
X82322185Y-127346229D01*
X82179328Y-127203372D01*
X82131709Y-127108134D01*
X82131709Y-127012896D01*
X82369804Y-127060515D02*
X82322185Y-126965277D01*
X82226947Y-126870039D01*
X82036471Y-126822420D01*
X81703138Y-126822420D01*
X81512662Y-126870039D01*
X81417424Y-126965277D01*
X81369804Y-127060515D01*
X81369804Y-127250991D01*
X81417424Y-127346229D01*
X81512662Y-127441467D01*
X81703138Y-127489086D01*
X82036471Y-127489086D01*
X82226947Y-127441467D01*
X82322185Y-127346229D01*
X82369804Y-127250991D01*
X82369804Y-127060515D01*
X81369804Y-127822420D02*
X81369804Y-128489086D01*
X82369804Y-128060515D01*
X88552380Y-118657142D02*
X88076190Y-118323809D01*
X88552380Y-118085714D02*
X87552380Y-118085714D01*
X87552380Y-118466666D01*
X87600000Y-118561904D01*
X87647619Y-118609523D01*
X87742857Y-118657142D01*
X87885714Y-118657142D01*
X87980952Y-118609523D01*
X88028571Y-118561904D01*
X88076190Y-118466666D01*
X88076190Y-118085714D01*
X87647619Y-119038095D02*
X87600000Y-119085714D01*
X87552380Y-119180952D01*
X87552380Y-119419047D01*
X87600000Y-119514285D01*
X87647619Y-119561904D01*
X87742857Y-119609523D01*
X87838095Y-119609523D01*
X87980952Y-119561904D01*
X88552380Y-118990476D01*
X88552380Y-119609523D01*
X87552380Y-119942857D02*
X87552380Y-120609523D01*
X88552380Y-120180952D01*
X81352380Y-118657142D02*
X80876190Y-118323809D01*
X81352380Y-118085714D02*
X80352380Y-118085714D01*
X80352380Y-118466666D01*
X80400000Y-118561904D01*
X80447619Y-118609523D01*
X80542857Y-118657142D01*
X80685714Y-118657142D01*
X80780952Y-118609523D01*
X80828571Y-118561904D01*
X80876190Y-118466666D01*
X80876190Y-118085714D01*
X80447619Y-119038095D02*
X80400000Y-119085714D01*
X80352380Y-119180952D01*
X80352380Y-119419047D01*
X80400000Y-119514285D01*
X80447619Y-119561904D01*
X80542857Y-119609523D01*
X80638095Y-119609523D01*
X80780952Y-119561904D01*
X81352380Y-118990476D01*
X81352380Y-119609523D01*
X80780952Y-120180952D02*
X80733333Y-120085714D01*
X80685714Y-120038095D01*
X80590476Y-119990476D01*
X80542857Y-119990476D01*
X80447619Y-120038095D01*
X80400000Y-120085714D01*
X80352380Y-120180952D01*
X80352380Y-120371428D01*
X80400000Y-120466666D01*
X80447619Y-120514285D01*
X80542857Y-120561904D01*
X80590476Y-120561904D01*
X80685714Y-120514285D01*
X80733333Y-120466666D01*
X80780952Y-120371428D01*
X80780952Y-120180952D01*
X80828571Y-120085714D01*
X80876190Y-120038095D01*
X80971428Y-119990476D01*
X81161904Y-119990476D01*
X81257142Y-120038095D01*
X81304761Y-120085714D01*
X81352380Y-120180952D01*
X81352380Y-120371428D01*
X81304761Y-120466666D01*
X81257142Y-120514285D01*
X81161904Y-120561904D01*
X80971428Y-120561904D01*
X80876190Y-120514285D01*
X80828571Y-120466666D01*
X80780952Y-120371428D01*
X85952380Y-122738095D02*
X86761904Y-122738095D01*
X86857142Y-122785714D01*
X86904761Y-122833333D01*
X86952380Y-122928571D01*
X86952380Y-123119047D01*
X86904761Y-123214285D01*
X86857142Y-123261904D01*
X86761904Y-123309523D01*
X85952380Y-123309523D01*
X86952380Y-123833333D02*
X86952380Y-124023809D01*
X86904761Y-124119047D01*
X86857142Y-124166666D01*
X86714285Y-124261904D01*
X86523809Y-124309523D01*
X86142857Y-124309523D01*
X86047619Y-124261904D01*
X86000000Y-124214285D01*
X85952380Y-124119047D01*
X85952380Y-123928571D01*
X86000000Y-123833333D01*
X86047619Y-123785714D01*
X86142857Y-123738095D01*
X86380952Y-123738095D01*
X86476190Y-123785714D01*
X86523809Y-123833333D01*
X86571428Y-123928571D01*
X86571428Y-124119047D01*
X86523809Y-124214285D01*
X86476190Y-124261904D01*
X86380952Y-124309523D01*
X93360281Y-84789086D02*
X93407900Y-84836705D01*
X93550757Y-84884324D01*
X93645995Y-84884324D01*
X93788852Y-84836705D01*
X93884090Y-84741467D01*
X93931709Y-84646229D01*
X93979328Y-84455753D01*
X93979328Y-84312896D01*
X93931709Y-84122420D01*
X93884090Y-84027182D01*
X93788852Y-83931944D01*
X93645995Y-83884324D01*
X93550757Y-83884324D01*
X93407900Y-83931944D01*
X93360281Y-83979563D01*
X92407900Y-84884324D02*
X92979328Y-84884324D01*
X92693614Y-84884324D02*
X92693614Y-83884324D01*
X92788852Y-84027182D01*
X92884090Y-84122420D01*
X92979328Y-84170039D01*
X91550757Y-83884324D02*
X91741233Y-83884324D01*
X91836471Y-83931944D01*
X91884090Y-83979563D01*
X91979328Y-84122420D01*
X92026947Y-84312896D01*
X92026947Y-84693848D01*
X91979328Y-84789086D01*
X91931709Y-84836705D01*
X91836471Y-84884324D01*
X91645995Y-84884324D01*
X91550757Y-84836705D01*
X91503138Y-84789086D01*
X91455519Y-84693848D01*
X91455519Y-84455753D01*
X91503138Y-84360515D01*
X91550757Y-84312896D01*
X91645995Y-84265277D01*
X91836471Y-84265277D01*
X91931709Y-84312896D01*
X91979328Y-84360515D01*
X92026947Y-84455753D01*
X88955474Y-121518061D02*
X89016508Y-121489601D01*
X89110115Y-121371646D01*
X89142689Y-121282151D01*
X89146801Y-121131623D01*
X89089880Y-121009555D01*
X89016672Y-120932234D01*
X88853970Y-120822340D01*
X88719728Y-120773480D01*
X88524452Y-120753081D01*
X88418671Y-120765255D01*
X88296603Y-120822176D01*
X88202996Y-120940131D01*
X88170423Y-121029626D01*
X88166310Y-121180154D01*
X88194771Y-121241188D01*
X88125347Y-122128072D02*
X88751809Y-122356086D01*
X87848802Y-121774042D02*
X88601444Y-121794606D01*
X88389718Y-122376321D01*
X88393502Y-123340525D02*
X88588942Y-122803558D01*
X88491222Y-123072042D02*
X87551529Y-122730022D01*
X87718344Y-122689387D01*
X87840412Y-122632466D01*
X87917733Y-122559258D01*
X81184265Y-123126238D02*
X81155804Y-123187272D01*
X81159917Y-123337800D01*
X81192491Y-123427295D01*
X81286098Y-123545250D01*
X81408166Y-123602171D01*
X81513947Y-123614345D01*
X81709223Y-123593945D01*
X81843465Y-123545085D01*
X82006167Y-123435191D01*
X82079375Y-123357871D01*
X82136296Y-123235803D01*
X82132183Y-123085274D01*
X82099610Y-122995780D01*
X82006003Y-122877825D01*
X81944969Y-122849364D01*
X81428072Y-122125347D02*
X80801610Y-122353360D01*
X81867484Y-122218790D02*
X81277708Y-122686826D01*
X81065981Y-122105112D01*
X81488942Y-121596441D02*
X81517402Y-121535407D01*
X81529576Y-121429626D01*
X81448143Y-121205889D01*
X81370822Y-121132681D01*
X81309788Y-121104221D01*
X81204007Y-121092047D01*
X81114513Y-121124620D01*
X80996557Y-121218227D01*
X80655030Y-121950635D01*
X80443304Y-121368920D01*
X92342857Y-132157142D02*
X92390476Y-132204761D01*
X92533333Y-132252380D01*
X92628571Y-132252380D01*
X92771428Y-132204761D01*
X92866666Y-132109523D01*
X92914285Y-132014285D01*
X92961904Y-131823809D01*
X92961904Y-131680952D01*
X92914285Y-131490476D01*
X92866666Y-131395238D01*
X92771428Y-131300000D01*
X92628571Y-131252380D01*
X92533333Y-131252380D01*
X92390476Y-131300000D01*
X92342857Y-131347619D01*
X91485714Y-131585714D02*
X91485714Y-132252380D01*
X91723809Y-131204761D02*
X91961904Y-131919047D01*
X91342857Y-131919047D01*
X90914285Y-132252380D02*
X90723809Y-132252380D01*
X90628571Y-132204761D01*
X90580952Y-132157142D01*
X90485714Y-132014285D01*
X90438095Y-131823809D01*
X90438095Y-131442857D01*
X90485714Y-131347619D01*
X90533333Y-131300000D01*
X90628571Y-131252380D01*
X90819047Y-131252380D01*
X90914285Y-131300000D01*
X90961904Y-131347619D01*
X91009523Y-131442857D01*
X91009523Y-131680952D01*
X90961904Y-131776190D01*
X90914285Y-131823809D01*
X90819047Y-131871428D01*
X90628571Y-131871428D01*
X90533333Y-131823809D01*
X90485714Y-131776190D01*
X90438095Y-131680952D01*
X78665043Y-129860515D02*
X78617424Y-129765277D01*
X78522185Y-129670039D01*
X78379328Y-129527182D01*
X78331709Y-129431944D01*
X78331709Y-129336705D01*
X78569804Y-129384324D02*
X78522185Y-129289086D01*
X78426947Y-129193848D01*
X78236471Y-129146229D01*
X77903138Y-129146229D01*
X77712662Y-129193848D01*
X77617424Y-129289086D01*
X77569804Y-129384324D01*
X77569804Y-129574801D01*
X77617424Y-129670039D01*
X77712662Y-129765277D01*
X77903138Y-129812896D01*
X78236471Y-129812896D01*
X78426947Y-129765277D01*
X78522185Y-129670039D01*
X78569804Y-129574801D01*
X78569804Y-129384324D01*
X78569804Y-130765277D02*
X78569804Y-130193848D01*
X78569804Y-130479563D02*
X77569804Y-130479563D01*
X77712662Y-130384324D01*
X77807900Y-130289086D01*
X77855519Y-130193848D01*
X77569804Y-131384324D02*
X77569804Y-131479563D01*
X77617424Y-131574801D01*
X77665043Y-131622420D01*
X77760281Y-131670039D01*
X77950757Y-131717658D01*
X78188852Y-131717658D01*
X78379328Y-131670039D01*
X78474566Y-131622420D01*
X78522185Y-131574801D01*
X78569804Y-131479563D01*
X78569804Y-131384324D01*
X78522185Y-131289086D01*
X78474566Y-131241467D01*
X78379328Y-131193848D01*
X78188852Y-131146229D01*
X77950757Y-131146229D01*
X77760281Y-131193848D01*
X77665043Y-131241467D01*
X77617424Y-131289086D01*
X77569804Y-131384324D01*
X90669804Y-83557142D02*
X90193614Y-83223809D01*
X90669804Y-82985714D02*
X89669804Y-82985714D01*
X89669804Y-83366666D01*
X89717424Y-83461904D01*
X89765043Y-83509523D01*
X89860281Y-83557142D01*
X90003138Y-83557142D01*
X90098376Y-83509523D01*
X90145995Y-83461904D01*
X90193614Y-83366666D01*
X90193614Y-82985714D01*
X90669804Y-84509523D02*
X90669804Y-83938095D01*
X90669804Y-84223809D02*
X89669804Y-84223809D01*
X89812662Y-84128571D01*
X89907900Y-84033333D01*
X89955519Y-83938095D01*
X90003138Y-85366666D02*
X90669804Y-85366666D01*
X89622185Y-85128571D02*
X90336471Y-84890476D01*
X90336471Y-85509523D01*
X88452380Y-83557142D02*
X87976190Y-83223809D01*
X88452380Y-82985714D02*
X87452380Y-82985714D01*
X87452380Y-83366666D01*
X87500000Y-83461904D01*
X87547619Y-83509523D01*
X87642857Y-83557142D01*
X87785714Y-83557142D01*
X87880952Y-83509523D01*
X87928571Y-83461904D01*
X87976190Y-83366666D01*
X87976190Y-82985714D01*
X88452380Y-84509523D02*
X88452380Y-83938095D01*
X88452380Y-84223809D02*
X87452380Y-84223809D01*
X87595238Y-84128571D01*
X87690476Y-84033333D01*
X87738095Y-83938095D01*
X87452380Y-85414285D02*
X87452380Y-84938095D01*
X87928571Y-84890476D01*
X87880952Y-84938095D01*
X87833333Y-85033333D01*
X87833333Y-85271428D01*
X87880952Y-85366666D01*
X87928571Y-85414285D01*
X88023809Y-85461904D01*
X88261904Y-85461904D01*
X88357142Y-85414285D01*
X88404761Y-85366666D01*
X88452380Y-85271428D01*
X88452380Y-85033333D01*
X88404761Y-84938095D01*
X88357142Y-84890476D01*
X88942857Y-125852380D02*
X89276190Y-125376190D01*
X89514285Y-125852380D02*
X89514285Y-124852380D01*
X89133333Y-124852380D01*
X89038095Y-124900000D01*
X88990476Y-124947619D01*
X88942857Y-125042857D01*
X88942857Y-125185714D01*
X88990476Y-125280952D01*
X89038095Y-125328571D01*
X89133333Y-125376190D01*
X89514285Y-125376190D01*
X88561904Y-124947619D02*
X88514285Y-124900000D01*
X88419047Y-124852380D01*
X88180952Y-124852380D01*
X88085714Y-124900000D01*
X88038095Y-124947619D01*
X87990476Y-125042857D01*
X87990476Y-125138095D01*
X88038095Y-125280952D01*
X88609523Y-125852380D01*
X87990476Y-125852380D01*
X87514285Y-125852380D02*
X87323809Y-125852380D01*
X87228571Y-125804761D01*
X87180952Y-125757142D01*
X87085714Y-125614285D01*
X87038095Y-125423809D01*
X87038095Y-125042857D01*
X87085714Y-124947619D01*
X87133333Y-124900000D01*
X87228571Y-124852380D01*
X87419047Y-124852380D01*
X87514285Y-124900000D01*
X87561904Y-124947619D01*
X87609523Y-125042857D01*
X87609523Y-125280952D01*
X87561904Y-125376190D01*
X87514285Y-125423809D01*
X87419047Y-125471428D01*
X87228571Y-125471428D01*
X87133333Y-125423809D01*
X87085714Y-125376190D01*
X87038095Y-125280952D01*
X91660281Y-126784324D02*
X91993614Y-126308134D01*
X92231709Y-126784324D02*
X92231709Y-125784324D01*
X91850757Y-125784324D01*
X91755519Y-125831944D01*
X91707900Y-125879563D01*
X91660281Y-125974801D01*
X91660281Y-126117658D01*
X91707900Y-126212896D01*
X91755519Y-126260515D01*
X91850757Y-126308134D01*
X92231709Y-126308134D01*
X91326947Y-125784324D02*
X90707900Y-125784324D01*
X91041233Y-126165277D01*
X90898376Y-126165277D01*
X90803138Y-126212896D01*
X90755519Y-126260515D01*
X90707900Y-126355753D01*
X90707900Y-126593848D01*
X90755519Y-126689086D01*
X90803138Y-126736705D01*
X90898376Y-126784324D01*
X91184090Y-126784324D01*
X91279328Y-126736705D01*
X91326947Y-126689086D01*
X90374566Y-125784324D02*
X89755519Y-125784324D01*
X90088852Y-126165277D01*
X89945995Y-126165277D01*
X89850757Y-126212896D01*
X89803138Y-126260515D01*
X89755519Y-126355753D01*
X89755519Y-126593848D01*
X89803138Y-126689086D01*
X89850757Y-126736705D01*
X89945995Y-126784324D01*
X90231709Y-126784324D01*
X90326947Y-126736705D01*
X90374566Y-126689086D01*
X78360281Y-125884324D02*
X78693614Y-125408134D01*
X78931709Y-125884324D02*
X78931709Y-124884324D01*
X78550757Y-124884324D01*
X78455519Y-124931944D01*
X78407900Y-124979563D01*
X78360281Y-125074801D01*
X78360281Y-125217658D01*
X78407900Y-125312896D01*
X78455519Y-125360515D01*
X78550757Y-125408134D01*
X78931709Y-125408134D01*
X78026947Y-124884324D02*
X77407900Y-124884324D01*
X77741233Y-125265277D01*
X77598376Y-125265277D01*
X77503138Y-125312896D01*
X77455519Y-125360515D01*
X77407900Y-125455753D01*
X77407900Y-125693848D01*
X77455519Y-125789086D01*
X77503138Y-125836705D01*
X77598376Y-125884324D01*
X77884090Y-125884324D01*
X77979328Y-125836705D01*
X78026947Y-125789086D01*
X76550757Y-124884324D02*
X76741233Y-124884324D01*
X76836471Y-124931944D01*
X76884090Y-124979563D01*
X76979328Y-125122420D01*
X77026947Y-125312896D01*
X77026947Y-125693848D01*
X76979328Y-125789086D01*
X76931709Y-125836705D01*
X76836471Y-125884324D01*
X76645995Y-125884324D01*
X76550757Y-125836705D01*
X76503138Y-125789086D01*
X76455519Y-125693848D01*
X76455519Y-125455753D01*
X76503138Y-125360515D01*
X76550757Y-125312896D01*
X76645995Y-125265277D01*
X76836471Y-125265277D01*
X76931709Y-125312896D01*
X76979328Y-125360515D01*
X77026947Y-125455753D01*
X92342857Y-130952380D02*
X92676190Y-130476190D01*
X92914285Y-130952380D02*
X92914285Y-129952380D01*
X92533333Y-129952380D01*
X92438095Y-130000000D01*
X92390476Y-130047619D01*
X92342857Y-130142857D01*
X92342857Y-130285714D01*
X92390476Y-130380952D01*
X92438095Y-130428571D01*
X92533333Y-130476190D01*
X92914285Y-130476190D01*
X91485714Y-130285714D02*
X91485714Y-130952380D01*
X91723809Y-129904761D02*
X91961904Y-130619047D01*
X91342857Y-130619047D01*
X90438095Y-130952380D02*
X91009523Y-130952380D01*
X90723809Y-130952380D02*
X90723809Y-129952380D01*
X90819047Y-130095238D01*
X90914285Y-130190476D01*
X91009523Y-130238095D01*
X92769804Y-127657142D02*
X92293614Y-127323809D01*
X92769804Y-127085714D02*
X91769804Y-127085714D01*
X91769804Y-127466666D01*
X91817424Y-127561904D01*
X91865043Y-127609523D01*
X91960281Y-127657142D01*
X92103138Y-127657142D01*
X92198376Y-127609523D01*
X92245995Y-127561904D01*
X92293614Y-127466666D01*
X92293614Y-127085714D01*
X92103138Y-128514285D02*
X92769804Y-128514285D01*
X91722185Y-128276190D02*
X92436471Y-128038095D01*
X92436471Y-128657142D01*
X91865043Y-128990476D02*
X91817424Y-129038095D01*
X91769804Y-129133333D01*
X91769804Y-129371428D01*
X91817424Y-129466666D01*
X91865043Y-129514285D01*
X91960281Y-129561904D01*
X92055519Y-129561904D01*
X92198376Y-129514285D01*
X92769804Y-128942857D01*
X92769804Y-129561904D01*
D12*
X83848376Y-98858134D02*
X83562662Y-98858134D01*
X83705519Y-99358134D02*
X83705519Y-98858134D01*
X83395995Y-99358134D02*
X83395995Y-98858134D01*
X83205519Y-98858134D01*
X83157900Y-98881944D01*
X83134090Y-98905753D01*
X83110281Y-98953372D01*
X83110281Y-99024801D01*
X83134090Y-99072420D01*
X83157900Y-99096229D01*
X83205519Y-99120039D01*
X83395995Y-99120039D01*
X82943614Y-98858134D02*
X82610281Y-98858134D01*
X82824566Y-99358134D01*
D11*
X86342857Y-84757142D02*
X86390476Y-84804761D01*
X86533333Y-84852380D01*
X86628571Y-84852380D01*
X86771428Y-84804761D01*
X86866666Y-84709523D01*
X86914285Y-84614285D01*
X86961904Y-84423809D01*
X86961904Y-84280952D01*
X86914285Y-84090476D01*
X86866666Y-83995238D01*
X86771428Y-83900000D01*
X86628571Y-83852380D01*
X86533333Y-83852380D01*
X86390476Y-83900000D01*
X86342857Y-83947619D01*
X85390476Y-84852380D02*
X85961904Y-84852380D01*
X85676190Y-84852380D02*
X85676190Y-83852380D01*
X85771428Y-83995238D01*
X85866666Y-84090476D01*
X85961904Y-84138095D01*
X85057142Y-83852380D02*
X84390476Y-83852380D01*
X84819047Y-84852380D01*
X82942857Y-88657142D02*
X82990476Y-88704761D01*
X83133333Y-88752380D01*
X83228571Y-88752380D01*
X83371428Y-88704761D01*
X83466666Y-88609523D01*
X83514285Y-88514285D01*
X83561904Y-88323809D01*
X83561904Y-88180952D01*
X83514285Y-87990476D01*
X83466666Y-87895238D01*
X83371428Y-87800000D01*
X83228571Y-87752380D01*
X83133333Y-87752380D01*
X82990476Y-87800000D01*
X82942857Y-87847619D01*
X82561904Y-87847619D02*
X82514285Y-87800000D01*
X82419047Y-87752380D01*
X82180952Y-87752380D01*
X82085714Y-87800000D01*
X82038095Y-87847619D01*
X81990476Y-87942857D01*
X81990476Y-88038095D01*
X82038095Y-88180952D01*
X82609523Y-88752380D01*
X81990476Y-88752380D01*
X81038095Y-88752380D02*
X81609523Y-88752380D01*
X81323809Y-88752380D02*
X81323809Y-87752380D01*
X81419047Y-87895238D01*
X81514285Y-87990476D01*
X81609523Y-88038095D01*
X94074566Y-92489086D02*
X94122185Y-92441467D01*
X94169804Y-92298610D01*
X94169804Y-92203372D01*
X94122185Y-92060515D01*
X94026947Y-91965277D01*
X93931709Y-91917658D01*
X93741233Y-91870039D01*
X93598376Y-91870039D01*
X93407900Y-91917658D01*
X93312662Y-91965277D01*
X93217424Y-92060515D01*
X93169804Y-92203372D01*
X93169804Y-92298610D01*
X93217424Y-92441467D01*
X93265043Y-92489086D01*
X93265043Y-92870039D02*
X93217424Y-92917658D01*
X93169804Y-93012896D01*
X93169804Y-93250991D01*
X93217424Y-93346229D01*
X93265043Y-93393848D01*
X93360281Y-93441467D01*
X93455519Y-93441467D01*
X93598376Y-93393848D01*
X94169804Y-92822420D01*
X94169804Y-93441467D01*
X93265043Y-93822420D02*
X93217424Y-93870039D01*
X93169804Y-93965277D01*
X93169804Y-94203372D01*
X93217424Y-94298610D01*
X93265043Y-94346229D01*
X93360281Y-94393848D01*
X93455519Y-94393848D01*
X93598376Y-94346229D01*
X94169804Y-93774801D01*
X94169804Y-94393848D01*
X81157142Y-93457142D02*
X81204761Y-93409523D01*
X81252380Y-93266666D01*
X81252380Y-93171428D01*
X81204761Y-93028571D01*
X81109523Y-92933333D01*
X81014285Y-92885714D01*
X80823809Y-92838095D01*
X80680952Y-92838095D01*
X80490476Y-92885714D01*
X80395238Y-92933333D01*
X80300000Y-93028571D01*
X80252380Y-93171428D01*
X80252380Y-93266666D01*
X80300000Y-93409523D01*
X80347619Y-93457142D01*
X80347619Y-93838095D02*
X80300000Y-93885714D01*
X80252380Y-93980952D01*
X80252380Y-94219047D01*
X80300000Y-94314285D01*
X80347619Y-94361904D01*
X80442857Y-94409523D01*
X80538095Y-94409523D01*
X80680952Y-94361904D01*
X81252380Y-93790476D01*
X81252380Y-94409523D01*
X80252380Y-94742857D02*
X80252380Y-95361904D01*
X80633333Y-95028571D01*
X80633333Y-95171428D01*
X80680952Y-95266666D01*
X80728571Y-95314285D01*
X80823809Y-95361904D01*
X81061904Y-95361904D01*
X81157142Y-95314285D01*
X81204761Y-95266666D01*
X81252380Y-95171428D01*
X81252380Y-94885714D01*
X81204761Y-94790476D01*
X81157142Y-94742857D01*
X91242857Y-100289086D02*
X91290476Y-100336705D01*
X91433333Y-100384324D01*
X91528571Y-100384324D01*
X91671428Y-100336705D01*
X91766666Y-100241467D01*
X91814285Y-100146229D01*
X91861904Y-99955753D01*
X91861904Y-99812896D01*
X91814285Y-99622420D01*
X91766666Y-99527182D01*
X91671428Y-99431944D01*
X91528571Y-99384324D01*
X91433333Y-99384324D01*
X91290476Y-99431944D01*
X91242857Y-99479563D01*
X90861904Y-99479563D02*
X90814285Y-99431944D01*
X90719047Y-99384324D01*
X90480952Y-99384324D01*
X90385714Y-99431944D01*
X90338095Y-99479563D01*
X90290476Y-99574801D01*
X90290476Y-99670039D01*
X90338095Y-99812896D01*
X90909523Y-100384324D01*
X90290476Y-100384324D01*
X89433333Y-99717658D02*
X89433333Y-100384324D01*
X89671428Y-99336705D02*
X89909523Y-100050991D01*
X89290476Y-100050991D01*
X80442857Y-104289086D02*
X80490476Y-104336705D01*
X80633333Y-104384324D01*
X80728571Y-104384324D01*
X80871428Y-104336705D01*
X80966666Y-104241467D01*
X81014285Y-104146229D01*
X81061904Y-103955753D01*
X81061904Y-103812896D01*
X81014285Y-103622420D01*
X80966666Y-103527182D01*
X80871428Y-103431944D01*
X80728571Y-103384324D01*
X80633333Y-103384324D01*
X80490476Y-103431944D01*
X80442857Y-103479563D01*
X80061904Y-103479563D02*
X80014285Y-103431944D01*
X79919047Y-103384324D01*
X79680952Y-103384324D01*
X79585714Y-103431944D01*
X79538095Y-103479563D01*
X79490476Y-103574801D01*
X79490476Y-103670039D01*
X79538095Y-103812896D01*
X80109523Y-104384324D01*
X79490476Y-104384324D01*
X78585714Y-103384324D02*
X79061904Y-103384324D01*
X79109523Y-103860515D01*
X79061904Y-103812896D01*
X78966666Y-103765277D01*
X78728571Y-103765277D01*
X78633333Y-103812896D01*
X78585714Y-103860515D01*
X78538095Y-103955753D01*
X78538095Y-104193848D01*
X78585714Y-104289086D01*
X78633333Y-104336705D01*
X78728571Y-104384324D01*
X78966666Y-104384324D01*
X79061904Y-104336705D01*
X79109523Y-104289086D01*
X89860281Y-105789086D02*
X89907900Y-105836705D01*
X90050757Y-105884324D01*
X90145995Y-105884324D01*
X90288852Y-105836705D01*
X90384090Y-105741467D01*
X90431709Y-105646229D01*
X90479328Y-105455753D01*
X90479328Y-105312896D01*
X90431709Y-105122420D01*
X90384090Y-105027182D01*
X90288852Y-104931944D01*
X90145995Y-104884324D01*
X90050757Y-104884324D01*
X89907900Y-104931944D01*
X89860281Y-104979563D01*
X89479328Y-104979563D02*
X89431709Y-104931944D01*
X89336471Y-104884324D01*
X89098376Y-104884324D01*
X89003138Y-104931944D01*
X88955519Y-104979563D01*
X88907900Y-105074801D01*
X88907900Y-105170039D01*
X88955519Y-105312896D01*
X89526947Y-105884324D01*
X88907900Y-105884324D01*
X88574566Y-104884324D02*
X87907900Y-104884324D01*
X88336471Y-105884324D01*
X81757142Y-100857142D02*
X81804761Y-100809523D01*
X81852380Y-100666666D01*
X81852380Y-100571428D01*
X81804761Y-100428571D01*
X81709523Y-100333333D01*
X81614285Y-100285714D01*
X81423809Y-100238095D01*
X81280952Y-100238095D01*
X81090476Y-100285714D01*
X80995238Y-100333333D01*
X80900000Y-100428571D01*
X80852380Y-100571428D01*
X80852380Y-100666666D01*
X80900000Y-100809523D01*
X80947619Y-100857142D01*
X80947619Y-101238095D02*
X80900000Y-101285714D01*
X80852380Y-101380952D01*
X80852380Y-101619047D01*
X80900000Y-101714285D01*
X80947619Y-101761904D01*
X81042857Y-101809523D01*
X81138095Y-101809523D01*
X81280952Y-101761904D01*
X81852380Y-101190476D01*
X81852380Y-101809523D01*
X81280952Y-102380952D02*
X81233333Y-102285714D01*
X81185714Y-102238095D01*
X81090476Y-102190476D01*
X81042857Y-102190476D01*
X80947619Y-102238095D01*
X80900000Y-102285714D01*
X80852380Y-102380952D01*
X80852380Y-102571428D01*
X80900000Y-102666666D01*
X80947619Y-102714285D01*
X81042857Y-102761904D01*
X81090476Y-102761904D01*
X81185714Y-102714285D01*
X81233333Y-102666666D01*
X81280952Y-102571428D01*
X81280952Y-102380952D01*
X81328571Y-102285714D01*
X81376190Y-102238095D01*
X81471428Y-102190476D01*
X81661904Y-102190476D01*
X81757142Y-102238095D01*
X81804761Y-102285714D01*
X81852380Y-102380952D01*
X81852380Y-102571428D01*
X81804761Y-102666666D01*
X81757142Y-102714285D01*
X81661904Y-102761904D01*
X81471428Y-102761904D01*
X81376190Y-102714285D01*
X81328571Y-102666666D01*
X81280952Y-102571428D01*
X89560281Y-117689086D02*
X89607900Y-117736705D01*
X89750757Y-117784324D01*
X89845995Y-117784324D01*
X89988852Y-117736705D01*
X90084090Y-117641467D01*
X90131709Y-117546229D01*
X90179328Y-117355753D01*
X90179328Y-117212896D01*
X90131709Y-117022420D01*
X90084090Y-116927182D01*
X89988852Y-116831944D01*
X89845995Y-116784324D01*
X89750757Y-116784324D01*
X89607900Y-116831944D01*
X89560281Y-116879563D01*
X89226947Y-116784324D02*
X88607900Y-116784324D01*
X88941233Y-117165277D01*
X88798376Y-117165277D01*
X88703138Y-117212896D01*
X88655519Y-117260515D01*
X88607900Y-117355753D01*
X88607900Y-117593848D01*
X88655519Y-117689086D01*
X88703138Y-117736705D01*
X88798376Y-117784324D01*
X89084090Y-117784324D01*
X89179328Y-117736705D01*
X89226947Y-117689086D01*
X87750757Y-117117658D02*
X87750757Y-117784324D01*
X87988852Y-116736705D02*
X88226947Y-117450991D01*
X87607900Y-117450991D01*
X80960281Y-117689086D02*
X81007900Y-117736705D01*
X81150757Y-117784324D01*
X81245995Y-117784324D01*
X81388852Y-117736705D01*
X81484090Y-117641467D01*
X81531709Y-117546229D01*
X81579328Y-117355753D01*
X81579328Y-117212896D01*
X81531709Y-117022420D01*
X81484090Y-116927182D01*
X81388852Y-116831944D01*
X81245995Y-116784324D01*
X81150757Y-116784324D01*
X81007900Y-116831944D01*
X80960281Y-116879563D01*
X80626947Y-116784324D02*
X80007900Y-116784324D01*
X80341233Y-117165277D01*
X80198376Y-117165277D01*
X80103138Y-117212896D01*
X80055519Y-117260515D01*
X80007900Y-117355753D01*
X80007900Y-117593848D01*
X80055519Y-117689086D01*
X80103138Y-117736705D01*
X80198376Y-117784324D01*
X80484090Y-117784324D01*
X80579328Y-117736705D01*
X80626947Y-117689086D01*
X79103138Y-116784324D02*
X79579328Y-116784324D01*
X79626947Y-117260515D01*
X79579328Y-117212896D01*
X79484090Y-117165277D01*
X79245995Y-117165277D01*
X79150757Y-117212896D01*
X79103138Y-117260515D01*
X79055519Y-117355753D01*
X79055519Y-117593848D01*
X79103138Y-117689086D01*
X79150757Y-117736705D01*
X79245995Y-117784324D01*
X79484090Y-117784324D01*
X79579328Y-117736705D01*
X79626947Y-117689086D01*
X89360281Y-115789086D02*
X89407900Y-115836705D01*
X89550757Y-115884324D01*
X89645995Y-115884324D01*
X89788852Y-115836705D01*
X89884090Y-115741467D01*
X89931709Y-115646229D01*
X89979328Y-115455753D01*
X89979328Y-115312896D01*
X89931709Y-115122420D01*
X89884090Y-115027182D01*
X89788852Y-114931944D01*
X89645995Y-114884324D01*
X89550757Y-114884324D01*
X89407900Y-114931944D01*
X89360281Y-114979563D01*
X89026947Y-114884324D02*
X88407900Y-114884324D01*
X88741233Y-115265277D01*
X88598376Y-115265277D01*
X88503138Y-115312896D01*
X88455519Y-115360515D01*
X88407900Y-115455753D01*
X88407900Y-115693848D01*
X88455519Y-115789086D01*
X88503138Y-115836705D01*
X88598376Y-115884324D01*
X88884090Y-115884324D01*
X88979328Y-115836705D01*
X89026947Y-115789086D01*
X87550757Y-114884324D02*
X87741233Y-114884324D01*
X87836471Y-114931944D01*
X87884090Y-114979563D01*
X87979328Y-115122420D01*
X88026947Y-115312896D01*
X88026947Y-115693848D01*
X87979328Y-115789086D01*
X87931709Y-115836705D01*
X87836471Y-115884324D01*
X87645995Y-115884324D01*
X87550757Y-115836705D01*
X87503138Y-115789086D01*
X87455519Y-115693848D01*
X87455519Y-115455753D01*
X87503138Y-115360515D01*
X87550757Y-115312896D01*
X87645995Y-115265277D01*
X87836471Y-115265277D01*
X87931709Y-115312896D01*
X87979328Y-115360515D01*
X88026947Y-115455753D01*
X80442857Y-105789086D02*
X80490476Y-105836705D01*
X80633333Y-105884324D01*
X80728571Y-105884324D01*
X80871428Y-105836705D01*
X80966666Y-105741467D01*
X81014285Y-105646229D01*
X81061904Y-105455753D01*
X81061904Y-105312896D01*
X81014285Y-105122420D01*
X80966666Y-105027182D01*
X80871428Y-104931944D01*
X80728571Y-104884324D01*
X80633333Y-104884324D01*
X80490476Y-104931944D01*
X80442857Y-104979563D01*
X80109523Y-104884324D02*
X79490476Y-104884324D01*
X79823809Y-105265277D01*
X79680952Y-105265277D01*
X79585714Y-105312896D01*
X79538095Y-105360515D01*
X79490476Y-105455753D01*
X79490476Y-105693848D01*
X79538095Y-105789086D01*
X79585714Y-105836705D01*
X79680952Y-105884324D01*
X79966666Y-105884324D01*
X80061904Y-105836705D01*
X80109523Y-105789086D01*
X79157142Y-104884324D02*
X78490476Y-104884324D01*
X78919047Y-105884324D01*
X92669804Y-92489086D02*
X92193614Y-92155753D01*
X92669804Y-91917658D02*
X91669804Y-91917658D01*
X91669804Y-92298610D01*
X91717424Y-92393848D01*
X91765043Y-92441467D01*
X91860281Y-92489086D01*
X92003138Y-92489086D01*
X92098376Y-92441467D01*
X92145995Y-92393848D01*
X92193614Y-92298610D01*
X92193614Y-91917658D01*
X92669804Y-93441467D02*
X92669804Y-92870039D01*
X92669804Y-93155753D02*
X91669804Y-93155753D01*
X91812662Y-93060515D01*
X91907900Y-92965277D01*
X91955519Y-92870039D01*
X92669804Y-93917658D02*
X92669804Y-94108134D01*
X92622185Y-94203372D01*
X92574566Y-94250991D01*
X92431709Y-94346229D01*
X92241233Y-94393848D01*
X91860281Y-94393848D01*
X91765043Y-94346229D01*
X91717424Y-94298610D01*
X91669804Y-94203372D01*
X91669804Y-94012896D01*
X91717424Y-93917658D01*
X91765043Y-93870039D01*
X91860281Y-93822420D01*
X92098376Y-93822420D01*
X92193614Y-93870039D01*
X92241233Y-93917658D01*
X92288852Y-94012896D01*
X92288852Y-94203372D01*
X92241233Y-94298610D01*
X92193614Y-94346229D01*
X92098376Y-94393848D01*
X82669804Y-93289086D02*
X82193614Y-92955753D01*
X82669804Y-92717658D02*
X81669804Y-92717658D01*
X81669804Y-93098610D01*
X81717424Y-93193848D01*
X81765043Y-93241467D01*
X81860281Y-93289086D01*
X82003138Y-93289086D01*
X82098376Y-93241467D01*
X82145995Y-93193848D01*
X82193614Y-93098610D01*
X82193614Y-92717658D01*
X81765043Y-93670039D02*
X81717424Y-93717658D01*
X81669804Y-93812896D01*
X81669804Y-94050991D01*
X81717424Y-94146229D01*
X81765043Y-94193848D01*
X81860281Y-94241467D01*
X81955519Y-94241467D01*
X82098376Y-94193848D01*
X82669804Y-93622420D01*
X82669804Y-94241467D01*
X81669804Y-94860515D02*
X81669804Y-94955753D01*
X81717424Y-95050991D01*
X81765043Y-95098610D01*
X81860281Y-95146229D01*
X82050757Y-95193848D01*
X82288852Y-95193848D01*
X82479328Y-95146229D01*
X82574566Y-95098610D01*
X82622185Y-95050991D01*
X82669804Y-94955753D01*
X82669804Y-94860515D01*
X82622185Y-94765277D01*
X82574566Y-94717658D01*
X82479328Y-94670039D01*
X82288852Y-94622420D01*
X82050757Y-94622420D01*
X81860281Y-94670039D01*
X81765043Y-94717658D01*
X81717424Y-94765277D01*
X81669804Y-94860515D01*
X91652380Y-96357142D02*
X91176190Y-96023809D01*
X91652380Y-95785714D02*
X90652380Y-95785714D01*
X90652380Y-96166666D01*
X90700000Y-96261904D01*
X90747619Y-96309523D01*
X90842857Y-96357142D01*
X90985714Y-96357142D01*
X91080952Y-96309523D01*
X91128571Y-96261904D01*
X91176190Y-96166666D01*
X91176190Y-95785714D01*
X90747619Y-96738095D02*
X90700000Y-96785714D01*
X90652380Y-96880952D01*
X90652380Y-97119047D01*
X90700000Y-97214285D01*
X90747619Y-97261904D01*
X90842857Y-97309523D01*
X90938095Y-97309523D01*
X91080952Y-97261904D01*
X91652380Y-96690476D01*
X91652380Y-97309523D01*
X91652380Y-98261904D02*
X91652380Y-97690476D01*
X91652380Y-97976190D02*
X90652380Y-97976190D01*
X90795238Y-97880952D01*
X90890476Y-97785714D01*
X90938095Y-97690476D01*
X90042857Y-95352380D02*
X90376190Y-94876190D01*
X90614285Y-95352380D02*
X90614285Y-94352380D01*
X90233333Y-94352380D01*
X90138095Y-94400000D01*
X90090476Y-94447619D01*
X90042857Y-94542857D01*
X90042857Y-94685714D01*
X90090476Y-94780952D01*
X90138095Y-94828571D01*
X90233333Y-94876190D01*
X90614285Y-94876190D01*
X89661904Y-94447619D02*
X89614285Y-94400000D01*
X89519047Y-94352380D01*
X89280952Y-94352380D01*
X89185714Y-94400000D01*
X89138095Y-94447619D01*
X89090476Y-94542857D01*
X89090476Y-94638095D01*
X89138095Y-94780952D01*
X89709523Y-95352380D01*
X89090476Y-95352380D01*
X88709523Y-94447619D02*
X88661904Y-94400000D01*
X88566666Y-94352380D01*
X88328571Y-94352380D01*
X88233333Y-94400000D01*
X88185714Y-94447619D01*
X88138095Y-94542857D01*
X88138095Y-94638095D01*
X88185714Y-94780952D01*
X88757142Y-95352380D01*
X88138095Y-95352380D01*
X83952380Y-96289086D02*
X83476190Y-95955753D01*
X83952380Y-95717658D02*
X82952380Y-95717658D01*
X82952380Y-96098610D01*
X83000000Y-96193848D01*
X83047619Y-96241467D01*
X83142857Y-96289086D01*
X83285714Y-96289086D01*
X83380952Y-96241467D01*
X83428571Y-96193848D01*
X83476190Y-96098610D01*
X83476190Y-95717658D01*
X83047619Y-96670039D02*
X83000000Y-96717658D01*
X82952380Y-96812896D01*
X82952380Y-97050991D01*
X83000000Y-97146229D01*
X83047619Y-97193848D01*
X83142857Y-97241467D01*
X83238095Y-97241467D01*
X83380952Y-97193848D01*
X83952380Y-96622420D01*
X83952380Y-97241467D01*
X82952380Y-97574801D02*
X82952380Y-98193848D01*
X83333333Y-97860515D01*
X83333333Y-98003372D01*
X83380952Y-98098610D01*
X83428571Y-98146229D01*
X83523809Y-98193848D01*
X83761904Y-98193848D01*
X83857142Y-98146229D01*
X83904761Y-98098610D01*
X83952380Y-98003372D01*
X83952380Y-97717658D01*
X83904761Y-97622420D01*
X83857142Y-97574801D01*
X82652380Y-96289086D02*
X82176190Y-95955753D01*
X82652380Y-95717658D02*
X81652380Y-95717658D01*
X81652380Y-96098610D01*
X81700000Y-96193848D01*
X81747619Y-96241467D01*
X81842857Y-96289086D01*
X81985714Y-96289086D01*
X82080952Y-96241467D01*
X82128571Y-96193848D01*
X82176190Y-96098610D01*
X82176190Y-95717658D01*
X81747619Y-96670039D02*
X81700000Y-96717658D01*
X81652380Y-96812896D01*
X81652380Y-97050991D01*
X81700000Y-97146229D01*
X81747619Y-97193848D01*
X81842857Y-97241467D01*
X81938095Y-97241467D01*
X82080952Y-97193848D01*
X82652380Y-96622420D01*
X82652380Y-97241467D01*
X81985714Y-98098610D02*
X82652380Y-98098610D01*
X81604761Y-97860515D02*
X82319047Y-97622420D01*
X82319047Y-98241467D01*
D12*
X90343614Y-102900991D02*
X90343614Y-103186705D01*
X90843614Y-103043848D02*
X90343614Y-103043848D01*
X90843614Y-103353372D02*
X90343614Y-103353372D01*
X90343614Y-103543848D01*
X90367424Y-103591467D01*
X90391233Y-103615277D01*
X90438852Y-103639086D01*
X90510281Y-103639086D01*
X90557900Y-103615277D01*
X90581709Y-103591467D01*
X90605519Y-103543848D01*
X90605519Y-103353372D01*
X90343614Y-104067658D02*
X90343614Y-103972420D01*
X90367424Y-103924801D01*
X90391233Y-103900991D01*
X90462662Y-103853372D01*
X90557900Y-103829563D01*
X90748376Y-103829563D01*
X90795995Y-103853372D01*
X90819804Y-103877182D01*
X90843614Y-103924801D01*
X90843614Y-104020039D01*
X90819804Y-104067658D01*
X90795995Y-104091467D01*
X90748376Y-104115277D01*
X90629328Y-104115277D01*
X90581709Y-104091467D01*
X90557900Y-104067658D01*
X90534090Y-104020039D01*
X90534090Y-103924801D01*
X90557900Y-103877182D01*
X90581709Y-103853372D01*
X90629328Y-103829563D01*
D11*
X84979328Y-94384324D02*
X84979328Y-95193848D01*
X84931709Y-95289086D01*
X84884090Y-95336705D01*
X84788852Y-95384324D01*
X84598376Y-95384324D01*
X84503138Y-95336705D01*
X84455519Y-95289086D01*
X84407900Y-95193848D01*
X84407900Y-94384324D01*
X83455519Y-94384324D02*
X83931709Y-94384324D01*
X83979328Y-94860515D01*
X83931709Y-94812896D01*
X83836471Y-94765277D01*
X83598376Y-94765277D01*
X83503138Y-94812896D01*
X83455519Y-94860515D01*
X83407900Y-94955753D01*
X83407900Y-95193848D01*
X83455519Y-95289086D01*
X83503138Y-95336705D01*
X83598376Y-95384324D01*
X83836471Y-95384324D01*
X83931709Y-95336705D01*
X83979328Y-95289086D01*
X80619804Y-109670039D02*
X81429328Y-109670039D01*
X81524566Y-109717658D01*
X81572185Y-109765277D01*
X81619804Y-109860515D01*
X81619804Y-110050991D01*
X81572185Y-110146229D01*
X81524566Y-110193848D01*
X81429328Y-110241467D01*
X80619804Y-110241467D01*
X80619804Y-110622420D02*
X80619804Y-111289086D01*
X81619804Y-110860515D01*
X87669804Y-101670039D02*
X88479328Y-101670039D01*
X88574566Y-101717658D01*
X88622185Y-101765277D01*
X88669804Y-101860515D01*
X88669804Y-102050991D01*
X88622185Y-102146229D01*
X88574566Y-102193848D01*
X88479328Y-102241467D01*
X87669804Y-102241467D01*
X88098376Y-102860515D02*
X88050757Y-102765277D01*
X88003138Y-102717658D01*
X87907900Y-102670039D01*
X87860281Y-102670039D01*
X87765043Y-102717658D01*
X87717424Y-102765277D01*
X87669804Y-102860515D01*
X87669804Y-103050991D01*
X87717424Y-103146229D01*
X87765043Y-103193848D01*
X87860281Y-103241467D01*
X87907900Y-103241467D01*
X88003138Y-103193848D01*
X88050757Y-103146229D01*
X88098376Y-103050991D01*
X88098376Y-102860515D01*
X88145995Y-102765277D01*
X88193614Y-102717658D01*
X88288852Y-102670039D01*
X88479328Y-102670039D01*
X88574566Y-102717658D01*
X88622185Y-102765277D01*
X88669804Y-102860515D01*
X88669804Y-103050991D01*
X88622185Y-103146229D01*
X88574566Y-103193848D01*
X88479328Y-103241467D01*
X88288852Y-103241467D01*
X88193614Y-103193848D01*
X88145995Y-103146229D01*
X88098376Y-103050991D01*
M02*
