M48
;DRILL file {KiCad (2017-12-21 revision 7586afd53)-makepkg} date 10/14/18 21:46:16
;FORMAT={-:-/ absolute / inch / decimal}
FMAT,2
INCH,TZ
T1C0.0138
T2C0.0157
T3C0.0256
T4C0.0315
%
G90
G05
M72
T1
X2.7756Y-3.0984
X2.7913Y-3.4567
X2.8661Y-3.0669
X2.9055Y-2.7717
X2.9055Y-2.8189
X2.9331Y-3.3858
X2.9724Y-3.4685
X2.9843Y-3.3858
X2.9843Y-3.4291
X2.9961Y-2.7756
X2.9961Y-2.8199
X3.0177Y-3.0413
X3.0276Y-3.7323
X3.0394Y-3.0866
X3.0433Y-3.748
X3.0709Y-3.4213
X3.0748Y-2.9331
X3.0748Y-3.0433
X3.0787Y-3.1339
X3.0866Y-3.8071
X3.0906Y-3.8307
X3.1063Y-3.0866
X3.1161Y-3.1752
X3.1378Y-3.5945
X3.1528Y-3.0041
X3.2087Y-4.0827
X3.2244Y-4.2283
X3.2244Y-4.4606
X3.2244Y-4.6969
X3.2283Y-4.0591
X3.2283Y-4.7677
X3.2323Y-2.6772
X3.2323Y-4.126
X3.2323Y-4.1772
X3.2323Y-4.6693
X3.2362Y-3.437
X3.2362Y-4.7913
X3.2441Y-3.537
X3.2441Y-4.5945
X3.2441Y-4.6457
X3.248Y-4.689
X3.252Y-4.878
X3.2559Y-2.6772
X3.2598Y-4.7913
X3.2638Y-2.7008
X3.2638Y-2.7244
X3.2677Y-3.5984
X3.2756Y-3.4291
X3.2953Y-2.6732
X3.2953Y-4.1063
X3.2953Y-4.1299
X3.2953Y-4.1772
X3.3071Y-3.5433
X3.315Y-3.9882
X3.3189Y-2.6732
X3.3189Y-3.3701
X3.3189Y-3.3937
X3.3228Y-2.6969
X3.3228Y-2.7205
X3.3268Y-3.8268
X3.3268Y-3.8504
X3.3307Y-3.2303
X3.3307Y-3.5433
X3.3307Y-5.1063
X3.3307Y-5.1299
X3.3346Y-3.9567
X3.3386Y-4.4134
X3.3386Y-4.5197
X3.3386Y-4.5709
X3.3433Y-3.6614
X3.3465Y-4.2756
X3.3504Y-4.189
X3.3543Y-3.5433
X3.3622Y-3.4685
X3.3622Y-4.1102
X3.3799Y-3.1831
X3.3819Y-4.7677
X3.3819Y-4.7913
X3.3858Y-3.4921
X3.3858Y-3.7598
X3.4016Y-4.5197
X3.4016Y-4.5709
X3.4016Y-4.6929
X3.4055Y-4.7913
X3.4094Y-3.4606
X3.4094Y-3.4921
X3.4173Y-3.9567
X3.4173Y-4.0236
X3.4213Y-4.5945
X3.4213Y-4.6457
X3.4213Y-4.6732
X3.4252Y-3.1732
X3.4252Y-4.7008
X3.4331Y-3.2185
X3.4409Y-3.4055
X3.4449Y-4.4606
X3.4528Y-3.1339
X3.4567Y-3.0866
X3.4724Y-3.2008
X3.4843Y-3.9094
X3.4843Y-3.9606
X3.4961Y-4.2283
X3.5079Y-2.9646
X3.5209Y-2.8925
X3.5433Y-3.
X3.5472Y-2.9094
X3.5472Y-2.9331
X3.5472Y-3.8386
X3.5472Y-3.8622
X3.5591Y-3.6969
X3.563Y-3.1654
X3.5709Y-3.0472
X3.5748Y-2.7953
X3.5827Y-3.1811
X3.5827Y-3.2047
X3.5827Y-3.6732
X3.5945Y-2.937
X3.5945Y-2.9882
X3.6102Y-3.4409
X3.6535Y-2.8307
X3.6535Y-2.8543
X3.6575Y-2.8071
X3.6772Y-3.3583
X3.6772Y-3.4094
X3.685Y-2.8543
X3.7087Y-2.8543
X3.7323Y-2.8543
X3.7362Y-2.7598
X3.748Y-2.7795
X3.7756Y-2.7559
X3.7992Y-2.7323
X3.8031Y-2.6969
X3.8189Y-2.7126
X4.378Y-3.4252
X4.4094Y-3.4055
X4.6654Y-3.9882
X4.6654Y-4.0118
X4.6654Y-4.0354
X4.7441Y-2.4409
X4.7677Y-2.4409
X4.9213Y-3.4646
X4.9409Y-3.4528
X4.9409Y-3.4764
X4.9409Y-5.1535
X4.9409Y-5.1772
X4.9724Y-5.1181
T2
X2.9587Y-3.3071
X3.2835Y-3.0512
X3.3228Y-3.0512
X3.2244Y-3.0512
X3.3622Y-3.0512
X3.3944Y-4.9383
X3.2566Y-4.9383
T3
X3.5433Y-5.1181
X3.4055Y-5.0394
T4
X4.5866Y-4.5276
X4.7835Y-4.5276
X5.0044Y-3.6425
X5.0044Y-3.8393
X4.2958Y-3.0913
X4.2958Y-3.2881
X5.1107Y-2.0873
X5.1107Y-2.2842
X4.5866Y-4.7638
X4.7835Y-4.7638
X4.532Y-3.6425
X4.532Y-3.8393
X4.2958Y-3.6425
X4.2958Y-3.8393
X3.9764Y-2.0819
X3.9764Y-2.1819
X3.9764Y-2.2819
X3.9764Y-2.5819
X3.9764Y-2.6819
X5.2362Y-4.2913
X5.4331Y-4.2913
X5.2362Y-4.5276
X5.4331Y-4.5276
X4.7682Y-3.0913
X4.7682Y-3.2881
X4.532Y-3.0913
X4.532Y-3.2881
X4.8745Y-2.0873
X4.8745Y-2.2842
X5.2362Y-5.
X5.4331Y-5.
X5.2362Y-4.7638
X5.4331Y-4.7638
X4.8745Y-2.7369
X4.8745Y-2.9338
X4.7682Y-3.6425
X4.7682Y-3.8393
X4.6383Y-2.0873
X4.6383Y-2.2842
X4.4021Y-2.0873
X4.4021Y-2.2842
X4.6383Y-2.7369
X4.6383Y-2.9338
X5.0044Y-3.0913
X5.0044Y-3.2881
T0
M30
