<?xml version="1.0" encoding="UTF-8" standalone="no"?>
<svg
   xmlns:dc="http://purl.org/dc/elements/1.1/"
   xmlns:cc="http://creativecommons.org/ns#"
   xmlns:rdf="http://www.w3.org/1999/02/22-rdf-syntax-ns#"
   xmlns:svg="http://www.w3.org/2000/svg"
   xmlns="http://www.w3.org/2000/svg"
   xmlns:sodipodi="http://sodipodi.sourceforge.net/DTD/sodipodi-0.dtd"
   xmlns:inkscape="http://www.inkscape.org/namespaces/inkscape"
   version="1.1"
   width="15cm"
   height="15cm"
   viewBox="0 0 59054.923 59054.923"
   id="svg1590"
   sodipodi:docname="enclosure_mirrored.svg"
   inkscape:version="0.92.2 (5c3e80d, 2017-08-06)">
  <metadata
     id="metadata1596">
    <rdf:RDF>
      <cc:Work
         rdf:about="">
        <dc:format>image/svg+xml</dc:format>
        <dc:type
           rdf:resource="http://purl.org/dc/dcmitype/StillImage" />
        <dc:title>SVG Picture created as fieldmill-brd.svg date 2018/10/21 13:07:28 </dc:title>
      </cc:Work>
    </rdf:RDF>
  </metadata>
  <defs
     id="defs1594" />
  <sodipodi:namedview
     pagecolor="#ffffff"
     bordercolor="#666666"
     borderopacity="1"
     objecttolerance="10"
     gridtolerance="10"
     guidetolerance="10"
     inkscape:pageopacity="0"
     inkscape:pageshadow="2"
     inkscape:window-width="1920"
     inkscape:window-height="1001"
     id="namedview1592"
     showgrid="true"
     inkscape:document-units="mm"
     showborder="false"
     inkscape:zoom="1.4718869"
     inkscape:cx="135.74797"
     inkscape:cy="239.25432"
     inkscape:window-x="-9"
     inkscape:window-y="-9"
     inkscape:window-maximized="1"
     inkscape:current-layer="svg1590" />
  <title
     id="title2">SVG Picture created as fieldmill-brd.svg date 2018/10/21 13:07:28 </title>
  <desc
     id="desc4">Picture generated by PCBNEW </desc>
  <g
     style="fill:#000000;fill-opacity:1;stroke:#000000;stroke-linecap:round;stroke-linejoin:round;stroke-opacity:1"
     id="g6"
     transform="matrix(-1,0,0,1,47244,11814.923)" />
  <g
     style="fill:#000000;fill-opacity:0;stroke:#000000;stroke-width:-0.0003937;stroke-linecap:round;stroke-linejoin:round;stroke-opacity:1"
     id="g8"
     transform="matrix(-1,0,0,1,47244,11814.923)" />
  <g
     style="fill:#000000;fill-opacity:0;stroke:#000000;stroke-width:47.24409866;stroke-linecap:round;stroke-linejoin:round;stroke-opacity:1"
     id="g578"
     transform="matrix(-1,0,0,1,47244,11814.923)">
    <path
       d="m 34458,33631 -118,-236"
       id="path532"
       inkscape:connector-curvature="0" />
    <path
       d="m 34222,33631 h 236"
       id="path534"
       inkscape:connector-curvature="0" />
    <path
       d="m 34340,33395 -118,236"
       id="path536"
       inkscape:connector-curvature="0" />
    <path
       d="m 35108,29822 v -197"
       id="path538"
       inkscape:connector-curvature="0" />
    <path
       d="m 34832,29822 h 276"
       id="path540"
       inkscape:connector-curvature="0" />
    <path
       d="m 34832,30275 v -453"
       id="path542"
       inkscape:connector-curvature="0" />
    <path
       d="m 34635,30275 h 197"
       id="path544"
       inkscape:connector-curvature="0" />
    <path
       d="m 34635,29625 v 650"
       id="path546"
       inkscape:connector-curvature="0" />
    <path
       d="m 35108,29625 h -473"
       id="path548"
       inkscape:connector-curvature="0" />
    <path
       d="m 35108,33720 v 197"
       id="path550"
       inkscape:connector-curvature="0" />
    <path
       d="m 34832,33720 h 276"
       id="path552"
       inkscape:connector-curvature="0" />
    <path
       d="m 34832,33267 v 453"
       id="path554"
       inkscape:connector-curvature="0" />
    <path
       d="m 34635,33267 h 197"
       id="path556"
       inkscape:connector-curvature="0" />
    <path
       d="m 34635,33917 v -650"
       id="path558"
       inkscape:connector-curvature="0" />
    <path
       d="m 35108,33917 h -473"
       id="path560"
       inkscape:connector-curvature="0" />
    <path
       d="m 36230,33248 h 197"
       id="path562"
       inkscape:connector-curvature="0" />
    <path
       d="m 36230,30295 v 2953"
       id="path564"
       inkscape:connector-curvature="0" />
    <path
       d="m 36427,30295 h -197"
       id="path566"
       inkscape:connector-curvature="0" />
    <path
       d="M 36427,33248 V 30295"
       id="path568"
       inkscape:connector-curvature="0" />
  </g>
  <g
     style="fill:#000000;fill-opacity:0;stroke:#000000;stroke-width:47.24409866;stroke-linecap:round;stroke-linejoin:round;stroke-opacity:1"
     id="g734"
     transform="matrix(-1,0,0,1,47244,11814.923)">
    <path
       d="m 32730,10945 1148,804"
       id="path714"
       inkscape:connector-curvature="0" />
    <path
       d="m 31092,9798 1148,804"
       id="path716"
       inkscape:connector-curvature="0" />
    <path
       d="m 32949,12377 1003,702"
       id="path718"
       inkscape:connector-curvature="0" />
    <path
       d="m 31310,11230 1149,803"
       id="path720"
       inkscape:connector-curvature="0" />
    <path
       d="m 33768,12950 184,129"
       id="path722"
       inkscape:connector-curvature="0" />
    <path
       d="m 30418,9326 184,129"
       id="path724"
       inkscape:connector-curvature="0" />
    <path
       d="m 30602,9455 343,-490"
       id="path726"
       inkscape:connector-curvature="0" />
    <path
       d="m 29817,10184 1003,702"
       id="path728"
       inkscape:connector-curvature="0" />
    <path
       d="m 34552,12221 -600,858"
       id="path730"
       inkscape:connector-curvature="0" />
    <path
       d="m 30418,9326 -601,858"
       id="path732"
       inkscape:connector-curvature="0" />
  </g>
  <g
     style="fill:#000000;fill-opacity:0;stroke:#000000;stroke-width:59.05509949;stroke-linecap:round;stroke-linejoin:round;stroke-opacity:1"
     id="g1588"
     transform="matrix(-1,0,0,1,47244,11814.923)">
    <path
       d="m 36595,31640 h 281 l 56,-19 38,-37 19,-57 v -37"
       id="path1370"
       inkscape:connector-curvature="0" />
    <path
       d="m 36726,31996 h 263"
       id="path1372"
       inkscape:connector-curvature="0" />
    <path
       d="m 36576,31902 281,-93 v 243"
       id="path1374"
       inkscape:connector-curvature="0" />
    <path
       d="m 29694,9298 230,161 57,17 52,-9 48,-35 21,-31"
       id="path1536"
       inkscape:connector-curvature="0" />
    <path
       d="m 29608,9421 -140,200 198,-22 -32,46 -6,42 4,26 20,37 77,53 41,7 27,-5 36,-20 65,-92 6,-42 -4,-26"
       id="path1538"
       inkscape:connector-curvature="0" />
    <circle
       cx="23622"
       cy="23622"
       r="7500"
       id="circle1584"
       style="stroke-width:208.3326416;stroke-miterlimit:4;stroke-dasharray:none" />
    <circle
       cx="23622"
       cy="23622"
       r="25196"
       id="circle1586" />
  </g>
  <rect
     style="fill:none;fill-opacity:1;stroke:#000000;stroke-width:208.3326416;stroke-miterlimit:4;stroke-dasharray:none;stroke-opacity:1"
     id="rect6094"
     width="4597.7847"
     height="6462.8477"
     x="-14107.293"
     y="40346.98"
     ry="2061.1934"
     transform="scale(-1,1)" />
  <rect
     style="fill:none;fill-opacity:1;stroke:#000000;stroke-width:226.32402039;stroke-miterlimit:4;stroke-dasharray:none;stroke-opacity:1"
     id="rect6100"
     width="7864.7944"
     height="3870.5466"
     x="-4170.0796"
     y="25532.795"
     ry="1935.2733"
     transform="matrix(-0.82048709,0.57166506,0.54171106,0.84056477,0,0)"
     inkscape:transform-center-x="56.505139"
     inkscape:transform-center-y="-1411.2633" />
</svg>
