G04 #@! TF.GenerationSoftware,KiCad,Pcbnew,(2017-12-21 revision 7586afd53)-makepkg*
G04 #@! TF.CreationDate,2018-01-22T18:21:21-08:00*
G04 #@! TF.ProjectId,fieldmill,6669656C646D696C6C2E6B696361645F,A*
G04 #@! TF.SameCoordinates,Original*
G04 #@! TF.FileFunction,Copper,L3,Inr,Signal*
G04 #@! TF.FilePolarity,Positive*
%FSLAX46Y46*%
G04 Gerber Fmt 4.6, Leading zero omitted, Abs format (unit mm)*
G04 Created by KiCad (PCBNEW (2017-12-21 revision 7586afd53)-makepkg) date 01/22/18 18:21:21*
%MOMM*%
%LPD*%
G01*
G04 APERTURE LIST*
%ADD10C,0.600000*%
%ADD11C,0.550000*%
%ADD12C,0.200000*%
G04 APERTURE END LIST*
D10*
X143800000Y-96000000D03*
X140200000Y-91600000D03*
X143500000Y-100000000D03*
X74625000Y-85350000D03*
X128700000Y-122500000D03*
X126800000Y-122700000D03*
X146650000Y-93900000D03*
X118275000Y-89450000D03*
D11*
X80950000Y-100000000D03*
X74650000Y-75800000D03*
X80850000Y-88850000D03*
D10*
X88280000Y-107670000D03*
X147400000Y-100000000D03*
X86760000Y-91380000D03*
X115725000Y-98525000D03*
X111150000Y-88870000D03*
X111160000Y-111130000D03*
X88850000Y-111140000D03*
X88870000Y-88850000D03*
X115760000Y-100000000D03*
X84250000Y-100000000D03*
X100000000Y-115760000D03*
X100000000Y-84250000D03*
X96000000Y-115281675D03*
X85379536Y-95850000D03*
X104150000Y-114620464D03*
X112140000Y-90860000D03*
X111880000Y-108490000D03*
X85850000Y-103588125D03*
X103650000Y-85866579D03*
X96550000Y-86434008D03*
X113552595Y-103500000D03*
D12*
G36*
X110179570Y-50409003D02*
X119617977Y-53330678D01*
X128309141Y-58029973D01*
X135922019Y-64327893D01*
X142166638Y-71984553D01*
X146805143Y-80708312D01*
X149660855Y-90166886D01*
X150625000Y-100000000D01*
X150605262Y-101413533D01*
X149366936Y-111215893D01*
X146248239Y-120591043D01*
X141367960Y-129181886D01*
X134911989Y-136661200D01*
X127126231Y-142744101D01*
X118307244Y-147198892D01*
X108790939Y-149855892D01*
X98939790Y-150613897D01*
X89129024Y-149444034D01*
X79732330Y-146390863D01*
X71107626Y-141570679D01*
X63583423Y-135167080D01*
X57446316Y-127423978D01*
X53152200Y-119068532D01*
X88699208Y-119068532D01*
X88708156Y-119126394D01*
X88728172Y-119181416D01*
X88758494Y-119231502D01*
X88797968Y-119274745D01*
X88845088Y-119309497D01*
X88848701Y-119311617D01*
X88851215Y-119313069D01*
X88904531Y-119337265D01*
X88961532Y-119350644D01*
X89020045Y-119352696D01*
X89077844Y-119343345D01*
X89132724Y-119322945D01*
X89182598Y-119292274D01*
X89225565Y-119252500D01*
X89259987Y-119205138D01*
X89284553Y-119151992D01*
X89298330Y-119095086D01*
X89300792Y-119036588D01*
X89291844Y-118978726D01*
X89271827Y-118923704D01*
X89241506Y-118873617D01*
X89202032Y-118830375D01*
X89154912Y-118795623D01*
X89151299Y-118793503D01*
X89148785Y-118792051D01*
X89095469Y-118767855D01*
X89038468Y-118754476D01*
X88979954Y-118752423D01*
X88922156Y-118761775D01*
X88867276Y-118782175D01*
X88817402Y-118812845D01*
X88774435Y-118852620D01*
X88740013Y-118899982D01*
X88715446Y-118953128D01*
X88701669Y-119010034D01*
X88699208Y-119068532D01*
X53152200Y-119068532D01*
X52930065Y-118636305D01*
X51982607Y-115332125D01*
X95399211Y-115332125D01*
X95420452Y-115447858D01*
X95463768Y-115557261D01*
X95527509Y-115656167D01*
X95609247Y-115740809D01*
X95705868Y-115807962D01*
X95813693Y-115855070D01*
X95928614Y-115880337D01*
X96046254Y-115882801D01*
X96162133Y-115862369D01*
X96271835Y-115819818D01*
X96371184Y-115756769D01*
X96456395Y-115675624D01*
X96524221Y-115579474D01*
X96572080Y-115471981D01*
X96598149Y-115357239D01*
X96600026Y-115222842D01*
X96577171Y-115107417D01*
X96532332Y-114998629D01*
X96467216Y-114900623D01*
X96384305Y-114817130D01*
X96286755Y-114751332D01*
X96178283Y-114705735D01*
X96063021Y-114682075D01*
X95945357Y-114681253D01*
X95829775Y-114703302D01*
X95720677Y-114747380D01*
X95622219Y-114811810D01*
X95538150Y-114894136D01*
X95471672Y-114991224D01*
X95425318Y-115099375D01*
X95400854Y-115214470D01*
X95399211Y-115332125D01*
X51982607Y-115332125D01*
X51793008Y-114670914D01*
X103549211Y-114670914D01*
X103570452Y-114786647D01*
X103613768Y-114896050D01*
X103677509Y-114994956D01*
X103759247Y-115079598D01*
X103855868Y-115146751D01*
X103963693Y-115193859D01*
X104078614Y-115219126D01*
X104196254Y-115221590D01*
X104312133Y-115201158D01*
X104421835Y-115158607D01*
X104521184Y-115095558D01*
X104606395Y-115014413D01*
X104674221Y-114918263D01*
X104722080Y-114810770D01*
X104748149Y-114696028D01*
X104750026Y-114561631D01*
X104727171Y-114446206D01*
X104682332Y-114337418D01*
X104617216Y-114239412D01*
X104534305Y-114155919D01*
X104436755Y-114090121D01*
X104328283Y-114044524D01*
X104213021Y-114020864D01*
X104095357Y-114020042D01*
X103979775Y-114042091D01*
X103870677Y-114086169D01*
X103772219Y-114150599D01*
X103688150Y-114232925D01*
X103621672Y-114330013D01*
X103575318Y-114438164D01*
X103550854Y-114553259D01*
X103549211Y-114670914D01*
X51793008Y-114670914D01*
X50206694Y-109138782D01*
X50087594Y-107720450D01*
X87679211Y-107720450D01*
X87700452Y-107836183D01*
X87743768Y-107945586D01*
X87807509Y-108044492D01*
X87889247Y-108129134D01*
X87985868Y-108196287D01*
X88093693Y-108243395D01*
X88208614Y-108268662D01*
X88326254Y-108271126D01*
X88442133Y-108250694D01*
X88551835Y-108208143D01*
X88651184Y-108145094D01*
X88736395Y-108063949D01*
X88804221Y-107967799D01*
X88852080Y-107860306D01*
X88878149Y-107745564D01*
X88880026Y-107611167D01*
X88857171Y-107495742D01*
X88812332Y-107386954D01*
X88747216Y-107288948D01*
X88664305Y-107205455D01*
X88566755Y-107139657D01*
X88458283Y-107094060D01*
X88343021Y-107070400D01*
X88225357Y-107069578D01*
X88109775Y-107091627D01*
X88000677Y-107135705D01*
X87902219Y-107200135D01*
X87818150Y-107282461D01*
X87751672Y-107379549D01*
X87705318Y-107487700D01*
X87680854Y-107602795D01*
X87679211Y-107720450D01*
X50087594Y-107720450D01*
X49744830Y-103638575D01*
X85249211Y-103638575D01*
X85270452Y-103754308D01*
X85313768Y-103863711D01*
X85377509Y-103962617D01*
X85459247Y-104047259D01*
X85555868Y-104114412D01*
X85663693Y-104161520D01*
X85778614Y-104186787D01*
X85896254Y-104189251D01*
X86012133Y-104168819D01*
X86121835Y-104126268D01*
X86221184Y-104063219D01*
X86306395Y-103982074D01*
X86374221Y-103885924D01*
X86422080Y-103778431D01*
X86448149Y-103663689D01*
X86450026Y-103529292D01*
X86427171Y-103413867D01*
X86382332Y-103305079D01*
X86317216Y-103207073D01*
X86234305Y-103123580D01*
X86136755Y-103057782D01*
X86028283Y-103012185D01*
X85913021Y-102988525D01*
X85795357Y-102987703D01*
X85679775Y-103009752D01*
X85570677Y-103053830D01*
X85472219Y-103118260D01*
X85388150Y-103200586D01*
X85321672Y-103297674D01*
X85275318Y-103405825D01*
X85250854Y-103520920D01*
X85249211Y-103638575D01*
X49744830Y-103638575D01*
X49454385Y-100179763D01*
X87126255Y-100179763D01*
X87406350Y-102676863D01*
X88166133Y-105072002D01*
X89376664Y-107273950D01*
X90991834Y-109198836D01*
X92950123Y-110773341D01*
X95176940Y-111937492D01*
X97587466Y-112646948D01*
X100089884Y-112874686D01*
X102588878Y-112612031D01*
X104989263Y-111868988D01*
X107199609Y-110673859D01*
X109135723Y-109072165D01*
X109569379Y-108540450D01*
X111279211Y-108540450D01*
X111300452Y-108656183D01*
X111343768Y-108765586D01*
X111407509Y-108864492D01*
X111489247Y-108949134D01*
X111585868Y-109016287D01*
X111693693Y-109063395D01*
X111808614Y-109088662D01*
X111926254Y-109091126D01*
X112042133Y-109070694D01*
X112151835Y-109028143D01*
X112251184Y-108965094D01*
X112336395Y-108883949D01*
X112404221Y-108787799D01*
X112452080Y-108680306D01*
X112478149Y-108565564D01*
X112480026Y-108431167D01*
X112457171Y-108315742D01*
X112412332Y-108206954D01*
X112347216Y-108108948D01*
X112264305Y-108025455D01*
X112166755Y-107959657D01*
X112058283Y-107914060D01*
X111943021Y-107890400D01*
X111825357Y-107889578D01*
X111709775Y-107911627D01*
X111600677Y-107955705D01*
X111502219Y-108020135D01*
X111418150Y-108102461D01*
X111351672Y-108199549D01*
X111305318Y-108307700D01*
X111280854Y-108422795D01*
X111279211Y-108540450D01*
X109569379Y-108540450D01*
X110723861Y-107124916D01*
X111903530Y-104906281D01*
X112312879Y-103550450D01*
X112951806Y-103550450D01*
X112973047Y-103666183D01*
X113016363Y-103775586D01*
X113080104Y-103874492D01*
X113161842Y-103959134D01*
X113258463Y-104026287D01*
X113366288Y-104073395D01*
X113481209Y-104098662D01*
X113598849Y-104101126D01*
X113714728Y-104080694D01*
X113824430Y-104038143D01*
X113923779Y-103975094D01*
X114008990Y-103893949D01*
X114076816Y-103797799D01*
X114124675Y-103690306D01*
X114150744Y-103575564D01*
X114152621Y-103441167D01*
X114129766Y-103325742D01*
X114084927Y-103216954D01*
X114019811Y-103118948D01*
X113936900Y-103035455D01*
X113839350Y-102969657D01*
X113730878Y-102924060D01*
X113615616Y-102900400D01*
X113497952Y-102899578D01*
X113382370Y-102921627D01*
X113273272Y-102965705D01*
X113174814Y-103030135D01*
X113090745Y-103112461D01*
X113024267Y-103209549D01*
X112977913Y-103317700D01*
X112953449Y-103432795D01*
X112951806Y-103550450D01*
X112312879Y-103550450D01*
X112629798Y-102500767D01*
X112875000Y-100000000D01*
X112874980Y-99998548D01*
X121700000Y-99998548D01*
X121700000Y-100001452D01*
X121705713Y-100059722D01*
X121722636Y-100115773D01*
X121750124Y-100167469D01*
X121787129Y-100212842D01*
X121832242Y-100250163D01*
X121883745Y-100278011D01*
X121939677Y-100295325D01*
X121997906Y-100301445D01*
X122056214Y-100296138D01*
X122112382Y-100279607D01*
X122164269Y-100252481D01*
X122209899Y-100215794D01*
X122247534Y-100170942D01*
X122275741Y-100119635D01*
X122293444Y-100063826D01*
X122299971Y-100005641D01*
X122300000Y-100001452D01*
X122300000Y-99998548D01*
X122294287Y-99940278D01*
X122277364Y-99884227D01*
X122249876Y-99832531D01*
X122212871Y-99787158D01*
X122167758Y-99749837D01*
X122116255Y-99721989D01*
X122060323Y-99704675D01*
X122002094Y-99698555D01*
X121943786Y-99703862D01*
X121887618Y-99720393D01*
X121835731Y-99747519D01*
X121790101Y-99784206D01*
X121752466Y-99829058D01*
X121724259Y-99880365D01*
X121706556Y-99936174D01*
X121700029Y-99994359D01*
X121700000Y-99998548D01*
X112874980Y-99998548D01*
X112869980Y-99640509D01*
X112735432Y-98575450D01*
X115124211Y-98575450D01*
X115145452Y-98691183D01*
X115188768Y-98800586D01*
X115252509Y-98899492D01*
X115334247Y-98984134D01*
X115430868Y-99051287D01*
X115538693Y-99098395D01*
X115653614Y-99123662D01*
X115771254Y-99126126D01*
X115887133Y-99105694D01*
X115996835Y-99063143D01*
X116096184Y-99000094D01*
X116181395Y-98918949D01*
X116249221Y-98822799D01*
X116297080Y-98715306D01*
X116323149Y-98600564D01*
X116325026Y-98466167D01*
X116302171Y-98350742D01*
X116257332Y-98241954D01*
X116192216Y-98143948D01*
X116109305Y-98060455D01*
X116011755Y-97994657D01*
X115903283Y-97949060D01*
X115788021Y-97925400D01*
X115670357Y-97924578D01*
X115554775Y-97946627D01*
X115445677Y-97990705D01*
X115347219Y-98055135D01*
X115263150Y-98137461D01*
X115196672Y-98234549D01*
X115150318Y-98342700D01*
X115125854Y-98457795D01*
X115124211Y-98575450D01*
X112735432Y-98575450D01*
X112555048Y-97147563D01*
X111761898Y-94763266D01*
X110520741Y-92578434D01*
X109080977Y-90910450D01*
X111539211Y-90910450D01*
X111560452Y-91026183D01*
X111603768Y-91135586D01*
X111667509Y-91234492D01*
X111749247Y-91319134D01*
X111845868Y-91386287D01*
X111953693Y-91433395D01*
X112068614Y-91458662D01*
X112186254Y-91461126D01*
X112302133Y-91440694D01*
X112411835Y-91398143D01*
X112511184Y-91335094D01*
X112596395Y-91253949D01*
X112664221Y-91157799D01*
X112712080Y-91050306D01*
X112738149Y-90935564D01*
X112740026Y-90801167D01*
X112717171Y-90685742D01*
X112672332Y-90576954D01*
X112607216Y-90478948D01*
X112524305Y-90395455D01*
X112426755Y-90329657D01*
X112318283Y-90284060D01*
X112203021Y-90260400D01*
X112085357Y-90259578D01*
X111969775Y-90281627D01*
X111860677Y-90325705D01*
X111762219Y-90390135D01*
X111678150Y-90472461D01*
X111611672Y-90569549D01*
X111565318Y-90677700D01*
X111540854Y-90792795D01*
X111539211Y-90910450D01*
X109080977Y-90910450D01*
X108878852Y-90676287D01*
X106898770Y-89129278D01*
X104655916Y-87996331D01*
X102235720Y-87320600D01*
X99730366Y-87127824D01*
X97235283Y-87425344D01*
X94845506Y-88201830D01*
X92652063Y-89427704D01*
X90738500Y-91056273D01*
X89177705Y-93025507D01*
X88029128Y-95260396D01*
X87336517Y-97675816D01*
X87126255Y-100179763D01*
X49454385Y-100179763D01*
X49379935Y-99293165D01*
X49760488Y-95900450D01*
X84778747Y-95900450D01*
X84799988Y-96016183D01*
X84843304Y-96125586D01*
X84907045Y-96224492D01*
X84988783Y-96309134D01*
X85085404Y-96376287D01*
X85193229Y-96423395D01*
X85308150Y-96448662D01*
X85425790Y-96451126D01*
X85541669Y-96430694D01*
X85651371Y-96388143D01*
X85750720Y-96325094D01*
X85835931Y-96243949D01*
X85903757Y-96147799D01*
X85951616Y-96040306D01*
X85977685Y-95925564D01*
X85979562Y-95791167D01*
X85956707Y-95675742D01*
X85911868Y-95566954D01*
X85846752Y-95468948D01*
X85763841Y-95385455D01*
X85666291Y-95319657D01*
X85557819Y-95274060D01*
X85442557Y-95250400D01*
X85324893Y-95249578D01*
X85209311Y-95271627D01*
X85100213Y-95315705D01*
X85001755Y-95380135D01*
X84917686Y-95462461D01*
X84851208Y-95559549D01*
X84804854Y-95667700D01*
X84780390Y-95782795D01*
X84778747Y-95900450D01*
X49760488Y-95900450D01*
X50261879Y-91430450D01*
X86159211Y-91430450D01*
X86180452Y-91546183D01*
X86223768Y-91655586D01*
X86287509Y-91754492D01*
X86369247Y-91839134D01*
X86465868Y-91906287D01*
X86573693Y-91953395D01*
X86688614Y-91978662D01*
X86806254Y-91981126D01*
X86922133Y-91960694D01*
X87031835Y-91918143D01*
X87131184Y-91855094D01*
X87216395Y-91773949D01*
X87284221Y-91677799D01*
X87332080Y-91570306D01*
X87358149Y-91455564D01*
X87360026Y-91321167D01*
X87337171Y-91205742D01*
X87292332Y-91096954D01*
X87227216Y-90998948D01*
X87144305Y-90915455D01*
X87046755Y-90849657D01*
X86938283Y-90804060D01*
X86823021Y-90780400D01*
X86705357Y-90779578D01*
X86589775Y-90801627D01*
X86480677Y-90845705D01*
X86382219Y-90910135D01*
X86298150Y-90992461D01*
X86231672Y-91089549D01*
X86185318Y-91197700D01*
X86160854Y-91312795D01*
X86159211Y-91430450D01*
X50261879Y-91430450D01*
X50481278Y-89474471D01*
X51429765Y-86484458D01*
X95949211Y-86484458D01*
X95970452Y-86600191D01*
X96013768Y-86709594D01*
X96077509Y-86808500D01*
X96159247Y-86893142D01*
X96255868Y-86960295D01*
X96363693Y-87007403D01*
X96478614Y-87032670D01*
X96596254Y-87035134D01*
X96712133Y-87014702D01*
X96821835Y-86972151D01*
X96921184Y-86909102D01*
X97006395Y-86827957D01*
X97074221Y-86731807D01*
X97122080Y-86624314D01*
X97148149Y-86509572D01*
X97150026Y-86375175D01*
X97127171Y-86259750D01*
X97082332Y-86150962D01*
X97017216Y-86052956D01*
X96934305Y-85969463D01*
X96856569Y-85917029D01*
X103049211Y-85917029D01*
X103070452Y-86032762D01*
X103113768Y-86142165D01*
X103177509Y-86241071D01*
X103259247Y-86325713D01*
X103355868Y-86392866D01*
X103463693Y-86439974D01*
X103578614Y-86465241D01*
X103696254Y-86467705D01*
X103812133Y-86447273D01*
X103921835Y-86404722D01*
X104021184Y-86341673D01*
X104106395Y-86260528D01*
X104174221Y-86164378D01*
X104222080Y-86056885D01*
X104248149Y-85942143D01*
X104250026Y-85807746D01*
X104227171Y-85692321D01*
X104182332Y-85583533D01*
X104117216Y-85485527D01*
X104034305Y-85402034D01*
X103936755Y-85336236D01*
X103828283Y-85290639D01*
X103713021Y-85266979D01*
X103595357Y-85266157D01*
X103479775Y-85288206D01*
X103370677Y-85332284D01*
X103272219Y-85396714D01*
X103188150Y-85479040D01*
X103121672Y-85576128D01*
X103075318Y-85684279D01*
X103050854Y-85799374D01*
X103049211Y-85917029D01*
X96856569Y-85917029D01*
X96836755Y-85903665D01*
X96728283Y-85858068D01*
X96613021Y-85834408D01*
X96495357Y-85833586D01*
X96379775Y-85855635D01*
X96270677Y-85899713D01*
X96172219Y-85964143D01*
X96088150Y-86046469D01*
X96021672Y-86143557D01*
X95975318Y-86251708D01*
X95950854Y-86366803D01*
X95949211Y-86484458D01*
X51429765Y-86484458D01*
X53192603Y-80927287D01*
X88699471Y-80927287D01*
X88701114Y-80985814D01*
X88714095Y-81042907D01*
X88737918Y-81096391D01*
X88771676Y-81144228D01*
X88814083Y-81184599D01*
X88863523Y-81215963D01*
X88918114Y-81237128D01*
X88975776Y-81247285D01*
X89034312Y-81246050D01*
X89091494Y-81233468D01*
X89145143Y-81210019D01*
X89148785Y-81207949D01*
X89151299Y-81206497D01*
X89198900Y-81172407D01*
X89238973Y-81129719D01*
X89269991Y-81080061D01*
X89290774Y-81025324D01*
X89300529Y-80967593D01*
X89298885Y-80909066D01*
X89285905Y-80851973D01*
X89262081Y-80798489D01*
X89228324Y-80750652D01*
X89185917Y-80710281D01*
X89136477Y-80678917D01*
X89081886Y-80657752D01*
X89024224Y-80647595D01*
X88965688Y-80648830D01*
X88908506Y-80661412D01*
X88854857Y-80684861D01*
X88851215Y-80686931D01*
X88848701Y-80688383D01*
X88801100Y-80722473D01*
X88761027Y-80765161D01*
X88730009Y-80814819D01*
X88709226Y-80869556D01*
X88699471Y-80927287D01*
X53192603Y-80927287D01*
X53468773Y-80056691D01*
X58228629Y-71398545D01*
X64579543Y-63829821D01*
X72279612Y-57638807D01*
X81035541Y-53061317D01*
X90513821Y-50271708D01*
X100353426Y-49376234D01*
X110179570Y-50409003D01*
X110179570Y-50409003D01*
G37*
X110179570Y-50409003D02*
X119617977Y-53330678D01*
X128309141Y-58029973D01*
X135922019Y-64327893D01*
X142166638Y-71984553D01*
X146805143Y-80708312D01*
X149660855Y-90166886D01*
X150625000Y-100000000D01*
X150605262Y-101413533D01*
X149366936Y-111215893D01*
X146248239Y-120591043D01*
X141367960Y-129181886D01*
X134911989Y-136661200D01*
X127126231Y-142744101D01*
X118307244Y-147198892D01*
X108790939Y-149855892D01*
X98939790Y-150613897D01*
X89129024Y-149444034D01*
X79732330Y-146390863D01*
X71107626Y-141570679D01*
X63583423Y-135167080D01*
X57446316Y-127423978D01*
X53152200Y-119068532D01*
X88699208Y-119068532D01*
X88708156Y-119126394D01*
X88728172Y-119181416D01*
X88758494Y-119231502D01*
X88797968Y-119274745D01*
X88845088Y-119309497D01*
X88848701Y-119311617D01*
X88851215Y-119313069D01*
X88904531Y-119337265D01*
X88961532Y-119350644D01*
X89020045Y-119352696D01*
X89077844Y-119343345D01*
X89132724Y-119322945D01*
X89182598Y-119292274D01*
X89225565Y-119252500D01*
X89259987Y-119205138D01*
X89284553Y-119151992D01*
X89298330Y-119095086D01*
X89300792Y-119036588D01*
X89291844Y-118978726D01*
X89271827Y-118923704D01*
X89241506Y-118873617D01*
X89202032Y-118830375D01*
X89154912Y-118795623D01*
X89151299Y-118793503D01*
X89148785Y-118792051D01*
X89095469Y-118767855D01*
X89038468Y-118754476D01*
X88979954Y-118752423D01*
X88922156Y-118761775D01*
X88867276Y-118782175D01*
X88817402Y-118812845D01*
X88774435Y-118852620D01*
X88740013Y-118899982D01*
X88715446Y-118953128D01*
X88701669Y-119010034D01*
X88699208Y-119068532D01*
X53152200Y-119068532D01*
X52930065Y-118636305D01*
X51982607Y-115332125D01*
X95399211Y-115332125D01*
X95420452Y-115447858D01*
X95463768Y-115557261D01*
X95527509Y-115656167D01*
X95609247Y-115740809D01*
X95705868Y-115807962D01*
X95813693Y-115855070D01*
X95928614Y-115880337D01*
X96046254Y-115882801D01*
X96162133Y-115862369D01*
X96271835Y-115819818D01*
X96371184Y-115756769D01*
X96456395Y-115675624D01*
X96524221Y-115579474D01*
X96572080Y-115471981D01*
X96598149Y-115357239D01*
X96600026Y-115222842D01*
X96577171Y-115107417D01*
X96532332Y-114998629D01*
X96467216Y-114900623D01*
X96384305Y-114817130D01*
X96286755Y-114751332D01*
X96178283Y-114705735D01*
X96063021Y-114682075D01*
X95945357Y-114681253D01*
X95829775Y-114703302D01*
X95720677Y-114747380D01*
X95622219Y-114811810D01*
X95538150Y-114894136D01*
X95471672Y-114991224D01*
X95425318Y-115099375D01*
X95400854Y-115214470D01*
X95399211Y-115332125D01*
X51982607Y-115332125D01*
X51793008Y-114670914D01*
X103549211Y-114670914D01*
X103570452Y-114786647D01*
X103613768Y-114896050D01*
X103677509Y-114994956D01*
X103759247Y-115079598D01*
X103855868Y-115146751D01*
X103963693Y-115193859D01*
X104078614Y-115219126D01*
X104196254Y-115221590D01*
X104312133Y-115201158D01*
X104421835Y-115158607D01*
X104521184Y-115095558D01*
X104606395Y-115014413D01*
X104674221Y-114918263D01*
X104722080Y-114810770D01*
X104748149Y-114696028D01*
X104750026Y-114561631D01*
X104727171Y-114446206D01*
X104682332Y-114337418D01*
X104617216Y-114239412D01*
X104534305Y-114155919D01*
X104436755Y-114090121D01*
X104328283Y-114044524D01*
X104213021Y-114020864D01*
X104095357Y-114020042D01*
X103979775Y-114042091D01*
X103870677Y-114086169D01*
X103772219Y-114150599D01*
X103688150Y-114232925D01*
X103621672Y-114330013D01*
X103575318Y-114438164D01*
X103550854Y-114553259D01*
X103549211Y-114670914D01*
X51793008Y-114670914D01*
X50206694Y-109138782D01*
X50087594Y-107720450D01*
X87679211Y-107720450D01*
X87700452Y-107836183D01*
X87743768Y-107945586D01*
X87807509Y-108044492D01*
X87889247Y-108129134D01*
X87985868Y-108196287D01*
X88093693Y-108243395D01*
X88208614Y-108268662D01*
X88326254Y-108271126D01*
X88442133Y-108250694D01*
X88551835Y-108208143D01*
X88651184Y-108145094D01*
X88736395Y-108063949D01*
X88804221Y-107967799D01*
X88852080Y-107860306D01*
X88878149Y-107745564D01*
X88880026Y-107611167D01*
X88857171Y-107495742D01*
X88812332Y-107386954D01*
X88747216Y-107288948D01*
X88664305Y-107205455D01*
X88566755Y-107139657D01*
X88458283Y-107094060D01*
X88343021Y-107070400D01*
X88225357Y-107069578D01*
X88109775Y-107091627D01*
X88000677Y-107135705D01*
X87902219Y-107200135D01*
X87818150Y-107282461D01*
X87751672Y-107379549D01*
X87705318Y-107487700D01*
X87680854Y-107602795D01*
X87679211Y-107720450D01*
X50087594Y-107720450D01*
X49744830Y-103638575D01*
X85249211Y-103638575D01*
X85270452Y-103754308D01*
X85313768Y-103863711D01*
X85377509Y-103962617D01*
X85459247Y-104047259D01*
X85555868Y-104114412D01*
X85663693Y-104161520D01*
X85778614Y-104186787D01*
X85896254Y-104189251D01*
X86012133Y-104168819D01*
X86121835Y-104126268D01*
X86221184Y-104063219D01*
X86306395Y-103982074D01*
X86374221Y-103885924D01*
X86422080Y-103778431D01*
X86448149Y-103663689D01*
X86450026Y-103529292D01*
X86427171Y-103413867D01*
X86382332Y-103305079D01*
X86317216Y-103207073D01*
X86234305Y-103123580D01*
X86136755Y-103057782D01*
X86028283Y-103012185D01*
X85913021Y-102988525D01*
X85795357Y-102987703D01*
X85679775Y-103009752D01*
X85570677Y-103053830D01*
X85472219Y-103118260D01*
X85388150Y-103200586D01*
X85321672Y-103297674D01*
X85275318Y-103405825D01*
X85250854Y-103520920D01*
X85249211Y-103638575D01*
X49744830Y-103638575D01*
X49454385Y-100179763D01*
X87126255Y-100179763D01*
X87406350Y-102676863D01*
X88166133Y-105072002D01*
X89376664Y-107273950D01*
X90991834Y-109198836D01*
X92950123Y-110773341D01*
X95176940Y-111937492D01*
X97587466Y-112646948D01*
X100089884Y-112874686D01*
X102588878Y-112612031D01*
X104989263Y-111868988D01*
X107199609Y-110673859D01*
X109135723Y-109072165D01*
X109569379Y-108540450D01*
X111279211Y-108540450D01*
X111300452Y-108656183D01*
X111343768Y-108765586D01*
X111407509Y-108864492D01*
X111489247Y-108949134D01*
X111585868Y-109016287D01*
X111693693Y-109063395D01*
X111808614Y-109088662D01*
X111926254Y-109091126D01*
X112042133Y-109070694D01*
X112151835Y-109028143D01*
X112251184Y-108965094D01*
X112336395Y-108883949D01*
X112404221Y-108787799D01*
X112452080Y-108680306D01*
X112478149Y-108565564D01*
X112480026Y-108431167D01*
X112457171Y-108315742D01*
X112412332Y-108206954D01*
X112347216Y-108108948D01*
X112264305Y-108025455D01*
X112166755Y-107959657D01*
X112058283Y-107914060D01*
X111943021Y-107890400D01*
X111825357Y-107889578D01*
X111709775Y-107911627D01*
X111600677Y-107955705D01*
X111502219Y-108020135D01*
X111418150Y-108102461D01*
X111351672Y-108199549D01*
X111305318Y-108307700D01*
X111280854Y-108422795D01*
X111279211Y-108540450D01*
X109569379Y-108540450D01*
X110723861Y-107124916D01*
X111903530Y-104906281D01*
X112312879Y-103550450D01*
X112951806Y-103550450D01*
X112973047Y-103666183D01*
X113016363Y-103775586D01*
X113080104Y-103874492D01*
X113161842Y-103959134D01*
X113258463Y-104026287D01*
X113366288Y-104073395D01*
X113481209Y-104098662D01*
X113598849Y-104101126D01*
X113714728Y-104080694D01*
X113824430Y-104038143D01*
X113923779Y-103975094D01*
X114008990Y-103893949D01*
X114076816Y-103797799D01*
X114124675Y-103690306D01*
X114150744Y-103575564D01*
X114152621Y-103441167D01*
X114129766Y-103325742D01*
X114084927Y-103216954D01*
X114019811Y-103118948D01*
X113936900Y-103035455D01*
X113839350Y-102969657D01*
X113730878Y-102924060D01*
X113615616Y-102900400D01*
X113497952Y-102899578D01*
X113382370Y-102921627D01*
X113273272Y-102965705D01*
X113174814Y-103030135D01*
X113090745Y-103112461D01*
X113024267Y-103209549D01*
X112977913Y-103317700D01*
X112953449Y-103432795D01*
X112951806Y-103550450D01*
X112312879Y-103550450D01*
X112629798Y-102500767D01*
X112875000Y-100000000D01*
X112874980Y-99998548D01*
X121700000Y-99998548D01*
X121700000Y-100001452D01*
X121705713Y-100059722D01*
X121722636Y-100115773D01*
X121750124Y-100167469D01*
X121787129Y-100212842D01*
X121832242Y-100250163D01*
X121883745Y-100278011D01*
X121939677Y-100295325D01*
X121997906Y-100301445D01*
X122056214Y-100296138D01*
X122112382Y-100279607D01*
X122164269Y-100252481D01*
X122209899Y-100215794D01*
X122247534Y-100170942D01*
X122275741Y-100119635D01*
X122293444Y-100063826D01*
X122299971Y-100005641D01*
X122300000Y-100001452D01*
X122300000Y-99998548D01*
X122294287Y-99940278D01*
X122277364Y-99884227D01*
X122249876Y-99832531D01*
X122212871Y-99787158D01*
X122167758Y-99749837D01*
X122116255Y-99721989D01*
X122060323Y-99704675D01*
X122002094Y-99698555D01*
X121943786Y-99703862D01*
X121887618Y-99720393D01*
X121835731Y-99747519D01*
X121790101Y-99784206D01*
X121752466Y-99829058D01*
X121724259Y-99880365D01*
X121706556Y-99936174D01*
X121700029Y-99994359D01*
X121700000Y-99998548D01*
X112874980Y-99998548D01*
X112869980Y-99640509D01*
X112735432Y-98575450D01*
X115124211Y-98575450D01*
X115145452Y-98691183D01*
X115188768Y-98800586D01*
X115252509Y-98899492D01*
X115334247Y-98984134D01*
X115430868Y-99051287D01*
X115538693Y-99098395D01*
X115653614Y-99123662D01*
X115771254Y-99126126D01*
X115887133Y-99105694D01*
X115996835Y-99063143D01*
X116096184Y-99000094D01*
X116181395Y-98918949D01*
X116249221Y-98822799D01*
X116297080Y-98715306D01*
X116323149Y-98600564D01*
X116325026Y-98466167D01*
X116302171Y-98350742D01*
X116257332Y-98241954D01*
X116192216Y-98143948D01*
X116109305Y-98060455D01*
X116011755Y-97994657D01*
X115903283Y-97949060D01*
X115788021Y-97925400D01*
X115670357Y-97924578D01*
X115554775Y-97946627D01*
X115445677Y-97990705D01*
X115347219Y-98055135D01*
X115263150Y-98137461D01*
X115196672Y-98234549D01*
X115150318Y-98342700D01*
X115125854Y-98457795D01*
X115124211Y-98575450D01*
X112735432Y-98575450D01*
X112555048Y-97147563D01*
X111761898Y-94763266D01*
X110520741Y-92578434D01*
X109080977Y-90910450D01*
X111539211Y-90910450D01*
X111560452Y-91026183D01*
X111603768Y-91135586D01*
X111667509Y-91234492D01*
X111749247Y-91319134D01*
X111845868Y-91386287D01*
X111953693Y-91433395D01*
X112068614Y-91458662D01*
X112186254Y-91461126D01*
X112302133Y-91440694D01*
X112411835Y-91398143D01*
X112511184Y-91335094D01*
X112596395Y-91253949D01*
X112664221Y-91157799D01*
X112712080Y-91050306D01*
X112738149Y-90935564D01*
X112740026Y-90801167D01*
X112717171Y-90685742D01*
X112672332Y-90576954D01*
X112607216Y-90478948D01*
X112524305Y-90395455D01*
X112426755Y-90329657D01*
X112318283Y-90284060D01*
X112203021Y-90260400D01*
X112085357Y-90259578D01*
X111969775Y-90281627D01*
X111860677Y-90325705D01*
X111762219Y-90390135D01*
X111678150Y-90472461D01*
X111611672Y-90569549D01*
X111565318Y-90677700D01*
X111540854Y-90792795D01*
X111539211Y-90910450D01*
X109080977Y-90910450D01*
X108878852Y-90676287D01*
X106898770Y-89129278D01*
X104655916Y-87996331D01*
X102235720Y-87320600D01*
X99730366Y-87127824D01*
X97235283Y-87425344D01*
X94845506Y-88201830D01*
X92652063Y-89427704D01*
X90738500Y-91056273D01*
X89177705Y-93025507D01*
X88029128Y-95260396D01*
X87336517Y-97675816D01*
X87126255Y-100179763D01*
X49454385Y-100179763D01*
X49379935Y-99293165D01*
X49760488Y-95900450D01*
X84778747Y-95900450D01*
X84799988Y-96016183D01*
X84843304Y-96125586D01*
X84907045Y-96224492D01*
X84988783Y-96309134D01*
X85085404Y-96376287D01*
X85193229Y-96423395D01*
X85308150Y-96448662D01*
X85425790Y-96451126D01*
X85541669Y-96430694D01*
X85651371Y-96388143D01*
X85750720Y-96325094D01*
X85835931Y-96243949D01*
X85903757Y-96147799D01*
X85951616Y-96040306D01*
X85977685Y-95925564D01*
X85979562Y-95791167D01*
X85956707Y-95675742D01*
X85911868Y-95566954D01*
X85846752Y-95468948D01*
X85763841Y-95385455D01*
X85666291Y-95319657D01*
X85557819Y-95274060D01*
X85442557Y-95250400D01*
X85324893Y-95249578D01*
X85209311Y-95271627D01*
X85100213Y-95315705D01*
X85001755Y-95380135D01*
X84917686Y-95462461D01*
X84851208Y-95559549D01*
X84804854Y-95667700D01*
X84780390Y-95782795D01*
X84778747Y-95900450D01*
X49760488Y-95900450D01*
X50261879Y-91430450D01*
X86159211Y-91430450D01*
X86180452Y-91546183D01*
X86223768Y-91655586D01*
X86287509Y-91754492D01*
X86369247Y-91839134D01*
X86465868Y-91906287D01*
X86573693Y-91953395D01*
X86688614Y-91978662D01*
X86806254Y-91981126D01*
X86922133Y-91960694D01*
X87031835Y-91918143D01*
X87131184Y-91855094D01*
X87216395Y-91773949D01*
X87284221Y-91677799D01*
X87332080Y-91570306D01*
X87358149Y-91455564D01*
X87360026Y-91321167D01*
X87337171Y-91205742D01*
X87292332Y-91096954D01*
X87227216Y-90998948D01*
X87144305Y-90915455D01*
X87046755Y-90849657D01*
X86938283Y-90804060D01*
X86823021Y-90780400D01*
X86705357Y-90779578D01*
X86589775Y-90801627D01*
X86480677Y-90845705D01*
X86382219Y-90910135D01*
X86298150Y-90992461D01*
X86231672Y-91089549D01*
X86185318Y-91197700D01*
X86160854Y-91312795D01*
X86159211Y-91430450D01*
X50261879Y-91430450D01*
X50481278Y-89474471D01*
X51429765Y-86484458D01*
X95949211Y-86484458D01*
X95970452Y-86600191D01*
X96013768Y-86709594D01*
X96077509Y-86808500D01*
X96159247Y-86893142D01*
X96255868Y-86960295D01*
X96363693Y-87007403D01*
X96478614Y-87032670D01*
X96596254Y-87035134D01*
X96712133Y-87014702D01*
X96821835Y-86972151D01*
X96921184Y-86909102D01*
X97006395Y-86827957D01*
X97074221Y-86731807D01*
X97122080Y-86624314D01*
X97148149Y-86509572D01*
X97150026Y-86375175D01*
X97127171Y-86259750D01*
X97082332Y-86150962D01*
X97017216Y-86052956D01*
X96934305Y-85969463D01*
X96856569Y-85917029D01*
X103049211Y-85917029D01*
X103070452Y-86032762D01*
X103113768Y-86142165D01*
X103177509Y-86241071D01*
X103259247Y-86325713D01*
X103355868Y-86392866D01*
X103463693Y-86439974D01*
X103578614Y-86465241D01*
X103696254Y-86467705D01*
X103812133Y-86447273D01*
X103921835Y-86404722D01*
X104021184Y-86341673D01*
X104106395Y-86260528D01*
X104174221Y-86164378D01*
X104222080Y-86056885D01*
X104248149Y-85942143D01*
X104250026Y-85807746D01*
X104227171Y-85692321D01*
X104182332Y-85583533D01*
X104117216Y-85485527D01*
X104034305Y-85402034D01*
X103936755Y-85336236D01*
X103828283Y-85290639D01*
X103713021Y-85266979D01*
X103595357Y-85266157D01*
X103479775Y-85288206D01*
X103370677Y-85332284D01*
X103272219Y-85396714D01*
X103188150Y-85479040D01*
X103121672Y-85576128D01*
X103075318Y-85684279D01*
X103050854Y-85799374D01*
X103049211Y-85917029D01*
X96856569Y-85917029D01*
X96836755Y-85903665D01*
X96728283Y-85858068D01*
X96613021Y-85834408D01*
X96495357Y-85833586D01*
X96379775Y-85855635D01*
X96270677Y-85899713D01*
X96172219Y-85964143D01*
X96088150Y-86046469D01*
X96021672Y-86143557D01*
X95975318Y-86251708D01*
X95950854Y-86366803D01*
X95949211Y-86484458D01*
X51429765Y-86484458D01*
X53192603Y-80927287D01*
X88699471Y-80927287D01*
X88701114Y-80985814D01*
X88714095Y-81042907D01*
X88737918Y-81096391D01*
X88771676Y-81144228D01*
X88814083Y-81184599D01*
X88863523Y-81215963D01*
X88918114Y-81237128D01*
X88975776Y-81247285D01*
X89034312Y-81246050D01*
X89091494Y-81233468D01*
X89145143Y-81210019D01*
X89148785Y-81207949D01*
X89151299Y-81206497D01*
X89198900Y-81172407D01*
X89238973Y-81129719D01*
X89269991Y-81080061D01*
X89290774Y-81025324D01*
X89300529Y-80967593D01*
X89298885Y-80909066D01*
X89285905Y-80851973D01*
X89262081Y-80798489D01*
X89228324Y-80750652D01*
X89185917Y-80710281D01*
X89136477Y-80678917D01*
X89081886Y-80657752D01*
X89024224Y-80647595D01*
X88965688Y-80648830D01*
X88908506Y-80661412D01*
X88854857Y-80684861D01*
X88851215Y-80686931D01*
X88848701Y-80688383D01*
X88801100Y-80722473D01*
X88761027Y-80765161D01*
X88730009Y-80814819D01*
X88709226Y-80869556D01*
X88699471Y-80927287D01*
X53192603Y-80927287D01*
X53468773Y-80056691D01*
X58228629Y-71398545D01*
X64579543Y-63829821D01*
X72279612Y-57638807D01*
X81035541Y-53061317D01*
X90513821Y-50271708D01*
X100353426Y-49376234D01*
X110179570Y-50409003D01*
M02*
