G04 #@! TF.GenerationSoftware,KiCad,Pcbnew,(2017-12-21 revision 7586afd53)-makepkg*
G04 #@! TF.CreationDate,2018-01-22T18:21:21-08:00*
G04 #@! TF.ProjectId,fieldmill,6669656C646D696C6C2E6B696361645F,A*
G04 #@! TF.SameCoordinates,Original*
G04 #@! TF.FileFunction,Soldermask,Bot*
G04 #@! TF.FilePolarity,Negative*
%FSLAX46Y46*%
G04 Gerber Fmt 4.6, Leading zero omitted, Abs format (unit mm)*
G04 Created by KiCad (PCBNEW (2017-12-21 revision 7586afd53)-makepkg) date 01/22/18 18:21:21*
%MOMM*%
%LPD*%
G01*
G04 APERTURE LIST*
%ADD10R,1.060000X0.660000*%
%ADD11R,1.720000X0.710000*%
%ADD12R,0.660000X1.060000*%
%ADD13R,1.160000X0.410000*%
%ADD14R,0.410000X1.160000*%
%ADD15C,3.160000*%
%ADD16C,0.100000*%
%ADD17R,0.910000X0.960000*%
%ADD18R,0.960000X0.910000*%
%ADD19R,1.960000X0.760000*%
%ADD20R,2.960000X1.160000*%
%ADD21C,0.660000*%
%ADD22R,0.668000X1.303000*%
%ADD23R,0.760000X1.660000*%
%ADD24R,1.960000X1.360000*%
%ADD25R,0.460000X1.760000*%
%ADD26R,1.460000X2.960000*%
%ADD27R,1.160000X1.410000*%
%ADD28R,0.860000X1.460000*%
%ADD29R,0.710000X1.720000*%
%ADD30R,1.760000X0.460000*%
%ADD31R,2.560000X5.030000*%
%ADD32R,0.710000X1.660000*%
%ADD33R,1.860000X1.060000*%
%ADD34C,1.060000*%
%ADD35R,1.060000X1.860000*%
%ADD36R,1.460000X0.860000*%
%ADD37R,0.860000X0.610000*%
%ADD38C,1.160000*%
%ADD39C,0.960000*%
%ADD40C,0.860000*%
%ADD41O,11.560000X7.560000*%
%ADD42C,7.560000*%
%ADD43C,7.560000*%
G04 APERTURE END LIST*
D10*
X122100000Y-93550000D03*
X122100000Y-92050000D03*
X116000000Y-90000000D03*
X116000000Y-91500000D03*
D11*
X130900000Y-82900000D03*
X130900000Y-81950000D03*
X130900000Y-81000000D03*
X133600000Y-81000000D03*
X133600000Y-82900000D03*
X133600000Y-81950000D03*
D12*
X71050000Y-90700000D03*
X69550000Y-90700000D03*
D13*
X116433260Y-84391674D03*
X116433260Y-83891674D03*
X116433260Y-83391674D03*
X116433260Y-82891674D03*
X116433260Y-82391674D03*
X116433260Y-81891674D03*
X116433260Y-81391674D03*
X116433260Y-80891674D03*
X116433260Y-80391674D03*
X116433260Y-79891674D03*
X116433260Y-79391674D03*
X116433260Y-78891674D03*
X116433260Y-78391674D03*
X116433260Y-77891674D03*
X116433260Y-77391674D03*
X116433260Y-76891674D03*
D14*
X118383260Y-74941674D03*
X118883260Y-74941674D03*
X119383260Y-74941674D03*
X119883260Y-74941674D03*
X120383260Y-74941674D03*
X120883260Y-74941674D03*
X121383260Y-74941674D03*
X121883260Y-74941674D03*
X122383260Y-74941674D03*
X122883260Y-74941674D03*
X123383260Y-74941674D03*
X123883260Y-74941674D03*
X124383260Y-74941674D03*
X124883260Y-74941674D03*
X125383260Y-74941674D03*
X125883260Y-74941674D03*
D13*
X127833260Y-76891674D03*
X127833260Y-77391674D03*
X127833260Y-77891674D03*
X127833260Y-78391674D03*
X127833260Y-78891674D03*
X127833260Y-79391674D03*
X127833260Y-79891674D03*
X127833260Y-80391674D03*
X127833260Y-80891674D03*
X127833260Y-81391674D03*
X127833260Y-81891674D03*
X127833260Y-82391674D03*
X127833260Y-82891674D03*
X127833260Y-83391674D03*
X127833260Y-83891674D03*
X127833260Y-84391674D03*
D14*
X125883260Y-86341674D03*
X125383260Y-86341674D03*
X124883260Y-86341674D03*
X124383260Y-86341674D03*
X123883260Y-86341674D03*
X123383260Y-86341674D03*
X122883260Y-86341674D03*
X122383260Y-86341674D03*
X121883260Y-86341674D03*
X121383260Y-86341674D03*
X120883260Y-86341674D03*
X120383260Y-86341674D03*
X119883260Y-86341674D03*
X119383260Y-86341674D03*
X118883260Y-86341674D03*
X118383260Y-86341674D03*
D12*
X76950000Y-85850000D03*
X78450000Y-85850000D03*
D15*
X100500000Y-82000000D03*
D16*
G36*
X95790669Y-84474874D02*
X102974874Y-77290669D01*
X105209331Y-79525126D01*
X98025126Y-86709331D01*
X95790669Y-84474874D01*
X95790669Y-84474874D01*
G37*
D15*
X99500000Y-118000000D03*
D16*
G36*
X94790669Y-120474874D02*
X101974874Y-113290669D01*
X104209331Y-115525126D01*
X97025126Y-122709331D01*
X94790669Y-120474874D01*
X94790669Y-120474874D01*
G37*
D17*
X75200000Y-95050000D03*
X75200000Y-93550000D03*
X79200000Y-93850000D03*
X79200000Y-95350000D03*
X79200000Y-104450000D03*
X79200000Y-105950000D03*
D18*
X83250000Y-95300000D03*
X84750000Y-95300000D03*
X85350000Y-104300000D03*
X83850000Y-104300000D03*
D17*
X75200000Y-104650000D03*
X75200000Y-106150000D03*
X75500000Y-76750000D03*
X75500000Y-75250000D03*
X75500000Y-86950000D03*
X75500000Y-85450000D03*
D18*
X73950000Y-74850000D03*
X72450000Y-74850000D03*
X78450000Y-74850000D03*
X76950000Y-74850000D03*
X76950000Y-87350000D03*
X78450000Y-87350000D03*
X72350000Y-87350000D03*
X73850000Y-87350000D03*
D17*
X118100000Y-90000000D03*
X118100000Y-91500000D03*
X117100000Y-90000000D03*
X117100000Y-91500000D03*
D18*
X112183260Y-85300000D03*
X110683260Y-85300000D03*
X110650000Y-79800000D03*
X112150000Y-79800000D03*
X113050000Y-79800000D03*
X114550000Y-79800000D03*
X119850000Y-73600000D03*
X118350000Y-73600000D03*
D17*
X115750000Y-74700000D03*
X115750000Y-73200000D03*
D18*
X117550000Y-87675000D03*
X119050000Y-87675000D03*
X128250000Y-74900000D03*
X126750000Y-74900000D03*
D17*
X127600000Y-102750000D03*
X127600000Y-104250000D03*
X127600000Y-105850000D03*
X127600000Y-107350000D03*
D18*
X148150000Y-93200000D03*
X146650000Y-93200000D03*
X148750000Y-99200000D03*
X147250000Y-99200000D03*
D19*
X136300000Y-78925000D03*
X136300000Y-80175000D03*
X136300000Y-81425000D03*
X136300000Y-82675000D03*
D20*
X139500000Y-84400000D03*
X139500000Y-77200000D03*
D12*
X75150000Y-92400000D03*
X76650000Y-92400000D03*
X82450000Y-92400000D03*
X83950000Y-92400000D03*
X84650000Y-107200000D03*
X83150000Y-107200000D03*
X76650000Y-107400000D03*
X75150000Y-107400000D03*
D10*
X74000000Y-93550000D03*
X74000000Y-95050000D03*
D12*
X83250000Y-94100000D03*
X84750000Y-94100000D03*
X83850000Y-105500000D03*
X85350000Y-105500000D03*
D10*
X74000000Y-106150000D03*
X74000000Y-104650000D03*
D12*
X71950000Y-78800000D03*
X70450000Y-78800000D03*
X80450000Y-79900000D03*
X78950000Y-79900000D03*
X80450000Y-78600000D03*
X78950000Y-78600000D03*
X70450000Y-80100000D03*
X71950000Y-80100000D03*
X80450000Y-81900000D03*
X78950000Y-81900000D03*
X78950000Y-83200000D03*
X80450000Y-83200000D03*
X71950000Y-83300000D03*
X70450000Y-83300000D03*
X70450000Y-82000000D03*
X71950000Y-82000000D03*
X73950000Y-76350000D03*
X72450000Y-76350000D03*
X78450000Y-76350000D03*
X76950000Y-76350000D03*
X72400000Y-85850000D03*
X73900000Y-85850000D03*
X131950000Y-77700000D03*
X130450000Y-77700000D03*
X131950000Y-79300000D03*
X130450000Y-79300000D03*
D10*
X118300000Y-93900000D03*
X118300000Y-92400000D03*
X119200000Y-90000000D03*
X119200000Y-91500000D03*
X116900000Y-93900000D03*
X116900000Y-92400000D03*
D21*
X116330330Y-87430330D03*
D16*
G36*
X116938442Y-87288909D02*
X116188909Y-88038442D01*
X115722218Y-87571751D01*
X116471751Y-86822218D01*
X116938442Y-87288909D01*
X116938442Y-87288909D01*
G37*
D21*
X115269670Y-86369670D03*
D16*
G36*
X115877782Y-86228249D02*
X115128249Y-86977782D01*
X114661558Y-86511091D01*
X115411091Y-85761558D01*
X115877782Y-86228249D01*
X115877782Y-86228249D01*
G37*
D10*
X119550000Y-92800000D03*
X119550000Y-94300000D03*
X120800000Y-93550000D03*
X120800000Y-92050000D03*
D12*
X115050000Y-113500000D03*
X116550000Y-113500000D03*
X115050000Y-114800000D03*
X116550000Y-114800000D03*
D22*
X80470000Y-103048000D03*
X75390000Y-103048000D03*
X76660000Y-103048000D03*
X77930000Y-103048000D03*
X79200000Y-103048000D03*
X81740000Y-103048000D03*
X83010000Y-103048000D03*
X83010000Y-96698000D03*
X81740000Y-96698000D03*
X80470000Y-96698000D03*
X79200000Y-96698000D03*
X77930000Y-96698000D03*
X76660000Y-96698000D03*
X75390000Y-96698000D03*
D23*
X129355000Y-108050000D03*
X130625000Y-108050000D03*
X131895000Y-108050000D03*
X133165000Y-108050000D03*
X134435000Y-108050000D03*
X135705000Y-108050000D03*
X136975000Y-108050000D03*
X138245000Y-108050000D03*
X138245000Y-100950000D03*
X136975000Y-100950000D03*
X135705000Y-100950000D03*
X134435000Y-100950000D03*
X133165000Y-100950000D03*
X131895000Y-100950000D03*
X130625000Y-100950000D03*
X129355000Y-100950000D03*
D24*
X113500000Y-81500000D03*
X109500000Y-81500000D03*
X109500000Y-83900000D03*
X113500000Y-83900000D03*
D25*
X73500000Y-83900000D03*
X74150000Y-83900000D03*
X74800000Y-83900000D03*
X75450000Y-83900000D03*
X76100000Y-83900000D03*
X76750000Y-83900000D03*
X77400000Y-83900000D03*
X77400000Y-78300000D03*
X76750000Y-78300000D03*
X76100000Y-78300000D03*
X75450000Y-78300000D03*
X74800000Y-78300000D03*
X74150000Y-78300000D03*
X73500000Y-78300000D03*
D26*
X112300000Y-69100000D03*
X112300000Y-72900000D03*
D17*
X129100000Y-84050000D03*
X129100000Y-85550000D03*
D27*
X116400000Y-118900000D03*
X114400000Y-118900000D03*
D18*
X115150000Y-122300000D03*
X116650000Y-122300000D03*
X143250000Y-98000000D03*
X141750000Y-98000000D03*
D27*
X124000000Y-126800000D03*
X122000000Y-126800000D03*
D18*
X116450000Y-117100000D03*
X114950000Y-117100000D03*
X114950000Y-116000000D03*
X116450000Y-116000000D03*
D28*
X114450000Y-120500000D03*
X116350000Y-120500000D03*
D10*
X140000000Y-93550000D03*
X140000000Y-92050000D03*
D12*
X141750000Y-92000000D03*
X143250000Y-92000000D03*
D29*
X148350000Y-94950000D03*
X146450000Y-94950000D03*
X146450000Y-97650000D03*
X147400000Y-97650000D03*
X148350000Y-97650000D03*
X143250000Y-96350000D03*
X142300000Y-96350000D03*
X141350000Y-96350000D03*
X141350000Y-93650000D03*
X143250000Y-93650000D03*
D30*
X118350000Y-121775000D03*
X118350000Y-121125000D03*
X118350000Y-120475000D03*
X118350000Y-119825000D03*
X118350000Y-119175000D03*
X118350000Y-118525000D03*
X118350000Y-117875000D03*
X118350000Y-117225000D03*
X118350000Y-116575000D03*
X118350000Y-115925000D03*
X118350000Y-115275000D03*
X118350000Y-114625000D03*
X123950000Y-114625000D03*
X123950000Y-115275000D03*
X123950000Y-115925000D03*
X123950000Y-116575000D03*
X123950000Y-117225000D03*
X123950000Y-117875000D03*
X123950000Y-118525000D03*
X123950000Y-119175000D03*
X123950000Y-119825000D03*
X123950000Y-120475000D03*
X123950000Y-121125000D03*
X123950000Y-121775000D03*
D31*
X121150000Y-118200000D03*
D20*
X131075000Y-125550000D03*
X131075000Y-115850000D03*
D19*
X127725000Y-117575000D03*
X127725000Y-118825000D03*
X127725000Y-120075000D03*
X127725000Y-121325000D03*
X127725000Y-122575000D03*
X127725000Y-123825000D03*
D10*
X117000000Y-74700000D03*
X117000000Y-73200000D03*
D12*
X116550000Y-112200000D03*
X115050000Y-112200000D03*
D32*
X106375000Y-76800000D03*
X109625000Y-76800000D03*
D20*
X131700000Y-86900000D03*
X131700000Y-94100000D03*
D19*
X128500000Y-92375000D03*
X128500000Y-91125000D03*
X128500000Y-89875000D03*
X128500000Y-88625000D03*
D12*
X69950000Y-89200000D03*
X71450000Y-89200000D03*
D33*
X75500000Y-73750000D03*
X75500000Y-70850000D03*
D12*
X68800000Y-100500000D03*
X70300000Y-100500000D03*
X70300000Y-99000000D03*
X68800000Y-99000000D03*
X126950000Y-115100000D03*
X125450000Y-115100000D03*
D33*
X128000000Y-111250000D03*
X128000000Y-108350000D03*
X122500000Y-107950000D03*
X122500000Y-110850000D03*
D28*
X122150000Y-123100000D03*
X120250000Y-123100000D03*
D12*
X121150000Y-125200000D03*
X122650000Y-125200000D03*
D33*
X107500000Y-71250000D03*
X107500000Y-74150000D03*
D34*
X141925305Y-89325305D03*
D16*
G36*
X142957681Y-89042462D02*
X141642462Y-90357681D01*
X140892929Y-89608148D01*
X142208148Y-88292929D01*
X142957681Y-89042462D01*
X142957681Y-89042462D01*
G37*
D34*
X139874695Y-87274695D03*
D16*
G36*
X140907071Y-86991852D02*
X139591852Y-88307071D01*
X138842319Y-87557538D01*
X140157538Y-86242319D01*
X140907071Y-86991852D01*
X140907071Y-86991852D01*
G37*
D34*
X140425305Y-72974695D03*
D16*
G36*
X140708148Y-74007071D02*
X139392929Y-72691852D01*
X140142462Y-71942319D01*
X141457681Y-73257538D01*
X140708148Y-74007071D01*
X140708148Y-74007071D01*
G37*
D34*
X138374695Y-75025305D03*
D16*
G36*
X138657538Y-76057681D02*
X137342319Y-74742462D01*
X138091852Y-73992929D01*
X139407071Y-75308148D01*
X138657538Y-76057681D01*
X138657538Y-76057681D01*
G37*
D35*
X131050000Y-98000000D03*
X133950000Y-98000000D03*
D36*
X144700000Y-95950000D03*
X144700000Y-94050000D03*
D33*
X138500000Y-93350000D03*
X138500000Y-96250000D03*
D37*
X76600000Y-94950000D03*
X76600000Y-93650000D03*
X78600000Y-94300000D03*
X81800000Y-93650000D03*
X81800000Y-94950000D03*
X79800000Y-94300000D03*
X79800000Y-105500000D03*
X81800000Y-106150000D03*
X81800000Y-104850000D03*
X78600000Y-105500000D03*
X76600000Y-104850000D03*
X76600000Y-106150000D03*
D38*
X122882108Y-71268278D03*
D16*
G36*
X123172724Y-69842036D02*
X124122941Y-70507384D01*
X122591492Y-72694520D01*
X121641275Y-72029172D01*
X123172724Y-69842036D01*
X123172724Y-69842036D01*
G37*
D38*
X118720816Y-68354509D03*
D16*
G36*
X119011432Y-66928267D02*
X119961649Y-67593615D01*
X118430200Y-69780751D01*
X117479983Y-69115403D01*
X119011432Y-66928267D01*
X119011432Y-66928267D01*
G37*
D38*
X126861292Y-70013769D03*
D16*
G36*
X127151908Y-68587527D02*
X128102125Y-69252875D01*
X126570676Y-71440011D01*
X125620459Y-70774663D01*
X127151908Y-68587527D01*
X127151908Y-68587527D01*
G37*
D38*
X122700000Y-67100000D03*
D16*
G36*
X122990616Y-65673758D02*
X123940833Y-66339106D01*
X122409384Y-68526242D01*
X121459167Y-67860894D01*
X122990616Y-65673758D01*
X122990616Y-65673758D01*
G37*
D38*
X118538708Y-64186232D03*
D16*
G36*
X118829324Y-62759990D02*
X119779541Y-63425338D01*
X118248092Y-65612474D01*
X117297875Y-64947126D01*
X118829324Y-62759990D01*
X118829324Y-62759990D01*
G37*
D34*
X113099335Y-93024859D03*
D16*
G36*
X112304373Y-92810765D02*
X113446321Y-92278266D01*
X113894297Y-93238953D01*
X112752349Y-93771452D01*
X112304373Y-92810765D01*
X112304373Y-92810765D01*
G37*
D39*
X114458797Y-92390931D03*
D16*
G36*
X113639651Y-92243284D02*
X114872230Y-91668523D01*
X115277943Y-92538578D01*
X114045364Y-93113339D01*
X113639651Y-92243284D01*
X113639651Y-92243284D01*
G37*
D40*
X113606477Y-94112428D03*
D16*
G36*
X112899093Y-93967834D02*
X113950410Y-93477597D01*
X114313861Y-94257022D01*
X113262544Y-94747259D01*
X112899093Y-93967834D01*
X112899093Y-93967834D01*
G37*
D39*
X114965939Y-93478501D03*
D16*
G36*
X114101478Y-93351985D02*
X115424687Y-92734962D01*
X115830400Y-93605017D01*
X114507191Y-94222040D01*
X114101478Y-93351985D01*
X114101478Y-93351985D01*
G37*
D28*
X121250000Y-88900000D03*
X119350000Y-88900000D03*
D41*
X122000000Y-100000000D03*
D42*
X89000000Y-119052560D03*
D43*
X90000000Y-117320509D02*
X88000000Y-120784611D01*
D42*
X89000000Y-80947440D03*
D43*
X88000000Y-79215389D02*
X90000000Y-82679491D01*
M02*
