M48
;DRILL file {KiCad (2017-12-21 revision 7586afd53)-makepkg} date 01/22/18 18:21:32
;FORMAT={-:-/ absolute / inch / decimal}
FMAT,2
INCH,TZ
T1C0.0118
T2C0.0138
%
G90
G05
M72
T1
X2.939Y-2.9843
X3.1831Y-3.498
X3.187Y-3.937
T2
X2.938Y-3.3602
X3.3169Y-3.937
X3.3614Y-3.7736
X3.3799Y-4.0783
X3.4157Y-3.5976
X3.4756Y-4.239
X3.498Y-4.3756
X3.4988Y-3.498
X3.7795Y-4.5386
X3.8012Y-3.4029
X3.937Y-3.3169
X3.937Y-4.5575
X4.0807Y-3.3806
X4.1004Y-4.5126
X4.376Y-3.4988
X4.3764Y-4.3752
X4.4047Y-4.2713
X4.415Y-3.5772
X4.4706Y-4.0748
X4.5561Y-3.8789
X4.5575Y-3.937
X4.6565Y-3.5217
X4.9921Y-4.8307
X5.0669Y-4.8228
X5.5197Y-3.6063
X5.6496Y-3.937
X5.6614Y-3.7795
X5.7736Y-3.6969
X5.8031Y-3.937
T0
M30
