<?xml version="1.0" encoding="UTF-8" standalone="no"?>
<!-- Created with Inkscape (http://www.inkscape.org/) -->

<svg
   xmlns:dc="http://purl.org/dc/elements/1.1/"
   xmlns:cc="http://creativecommons.org/ns#"
   xmlns:rdf="http://www.w3.org/1999/02/22-rdf-syntax-ns#"
   xmlns:svg="http://www.w3.org/2000/svg"
   xmlns="http://www.w3.org/2000/svg"
   xmlns:sodipodi="http://sodipodi.sourceforge.net/DTD/sodipodi-0.dtd"
   xmlns:inkscape="http://www.inkscape.org/namespaces/inkscape"
   width="210mm"
   height="297mm"
   viewBox="0 0 210 297"
   version="1.1"
   id="svg3756"
   sodipodi:docname="sensors2.svg"
   inkscape:version="0.92.2 (5c3e80d, 2017-08-06)">
  <defs
     id="defs3750" />
  <sodipodi:namedview
     id="base"
     pagecolor="#ffffff"
     bordercolor="#666666"
     borderopacity="1.0"
     inkscape:pageopacity="0.0"
     inkscape:pageshadow="2"
     inkscape:zoom="1.4142136"
     inkscape:cx="90.155627"
     inkscape:cy="-69.021347"
     inkscape:document-units="mm"
     inkscape:current-layer="layer1"
     showgrid="true"
     inkscape:window-width="1920"
     inkscape:window-height="1001"
     inkscape:window-x="-9"
     inkscape:window-y="-9"
     inkscape:window-maximized="1">
    <inkscape:grid
       type="xygrid"
       id="grid3758"
       units="mm"
       spacingx="1"
       spacingy="1"
       dotted="false"
       empspacing="10" />
  </sodipodi:namedview>
  <metadata
     id="metadata3753">
    <rdf:RDF>
      <cc:Work
         rdf:about="">
        <dc:format>image/svg+xml</dc:format>
        <dc:type
           rdf:resource="http://purl.org/dc/dcmitype/StillImage" />
        <dc:title></dc:title>
      </cc:Work>
    </rdf:RDF>
  </metadata>
  <g
     inkscape:label="Layer 1"
     inkscape:groupmode="layer"
     id="layer1">
    <path
       style="fill:none;fill-opacity:1;stroke:#000000;stroke-width:0.37795275;stroke-miterlimit:4;stroke-dasharray:none;stroke-opacity:1"
       d="M -163.94531 1028.5918 A 188.97638 188.97638 0 0 0 -188.94531 1121.8906 L -2.3476562 1121.8906 L -163.94531 1028.5918 z "
       transform="scale(0.26458333)"
       id="path4581-5-3-4-3-0" />
    <path
       style="fill:none;fill-opacity:1;stroke:#000000;stroke-width:0.37795275;stroke-miterlimit:4;stroke-dasharray:none;stroke-opacity:1"
       d="M -1.71875 1124.2383 L -163.33789 1217.5488 A 188.97638 188.97638 0 0 0 -95.029297 1285.8574 L -1.71875 1124.2383 z "
       transform="scale(0.26458333)"
       id="path4581-5-3-4-5" />
    <circle
       id="path3770"
       style="fill:none;fill-opacity:1;stroke:#000000;stroke-width:0.1;stroke-miterlimit:4;stroke-dasharray:0.8, 0.8;stroke-dashoffset:0;stroke-opacity:1"
       r="50"
       cy="576.43903"
       cx="5.4842629" />
    <path
       style="fill:none;fill-opacity:1;stroke:#000000;stroke-width:0.37795275;stroke-miterlimit:4;stroke-dasharray:none;stroke-opacity:1"
       d="M 2.328125 1123.1367 L 163.94531 1216.4473 A 188.97638 188.97638 0 0 0 188.94531 1123.1367 L 2.328125 1123.1367 z "
       transform="scale(0.26458333)"
       id="path4581" />
    <path
       style="fill:none;fill-opacity:1;stroke:#000000;stroke-width:0.37795275;stroke-miterlimit:4;stroke-dasharray:none;stroke-opacity:1"
       d="M 1.71875 1124.2383 L 95.017578 1285.8359 A 188.97638 188.97638 0 0 0 163.31641 1217.5371 L 1.71875 1124.2383 z "
       transform="scale(0.26458333)"
       id="path4581-5" />
    <path
       style="fill:none;fill-opacity:1;stroke:#000000;stroke-width:0.37795275;stroke-miterlimit:4;stroke-dasharray:none;stroke-opacity:1"
       d="M 0.63085938 1124.8711 L 0.63085938 1311.4883 A 188.97638 188.97638 0 0 0 93.939453 1286.4863 L 0.63085938 1124.8711 z "
       transform="scale(0.26458333)"
       id="path4581-5-3" />
    <path
       style="fill:none;fill-opacity:1;stroke:#000000;stroke-width:0.37795275;stroke-miterlimit:4;stroke-dasharray:none;stroke-opacity:1"
       d="M -0.63085938 1124.8711 L -93.927734 1286.4648 A 188.97638 188.97638 0 0 0 -0.63085938 1311.4648 L -0.63085938 1124.8711 z "
       transform="scale(0.26458333)"
       id="path4581-5-3-4" />
    <path
       style="fill:none;fill-opacity:1;stroke:#000000;stroke-width:0.37795275;stroke-miterlimit:4;stroke-dasharray:none;stroke-opacity:1"
       d="M -95.029297 959.18164 A 188.97638 188.97638 0 0 0 -163.33789 1027.4902 L -1.71875 1120.8008 L -95.029297 959.18164 z "
       transform="scale(0.26458333)"
       id="path4581-5-3-4-3-0-3" />
    <path
       style="fill:none;fill-opacity:1;stroke:#000000;stroke-width:0.37795275;stroke-miterlimit:4;stroke-dasharray:none;stroke-opacity:1"
       d="M 0.63085938 933.57422 L 0.63085938 1120.168 L 93.927734 958.57422 A 188.97638 188.97638 0 0 0 0.63085938 933.57422 z "
       transform="scale(0.26458333)"
       id="path4581-5-3-4-3-0-3-9-8" />
    <path
       style="fill:none;fill-opacity:1;stroke:#000000;stroke-width:0.37795275;stroke-miterlimit:4;stroke-dasharray:none;stroke-opacity:1"
       d="M 95.017578 959.20312 L 1.71875 1120.8008 L 163.31641 1027.502 A 188.97638 188.97638 0 0 0 95.017578 959.20312 z "
       transform="scale(0.26458333)"
       id="path4581-5-3-4-3-0-3-9-8-2" />
    <path
       style="fill:none;fill-opacity:1;stroke:#000000;stroke-width:0.37795275;stroke-miterlimit:4;stroke-dasharray:none;stroke-opacity:1"
       d="M -188.96875 1123.1367 A 188.97638 188.97638 0 0 0 -163.9668 1216.459 L -2.328125 1123.1367 L -188.96875 1123.1367 z "
       transform="scale(0.26458333)"
       id="path4581-5-3-4-3" />
    <path
       style="fill:none;fill-opacity:1;stroke:#000000;stroke-width:0.37795275;stroke-miterlimit:4;stroke-dasharray:none;stroke-opacity:1"
       d="M 163.9668 1028.5801 L 2.3476562 1121.8906 L 188.96875 1121.8906 A 188.97638 188.97638 0 0 0 163.9668 1028.5801 z "
       transform="scale(0.26458333)"
       id="path4581-5-3-4-3-0-3-9-8-2-0" />
    <path
       style="fill:none;fill-opacity:1;stroke:#000000;stroke-width:0.37795275;stroke-miterlimit:4;stroke-dasharray:none;stroke-opacity:1"
       d="M -0.63085938 933.55078 A 188.97638 188.97638 0 0 0 -93.939453 958.55273 L -0.63085938 1120.168 L -0.63085938 933.55078 z "
       transform="scale(0.26458333)"
       id="path4581-5-3-4-3-0-3-9" />
    <rect
       style="fill:none;fill-opacity:1;stroke:#000000;stroke-width:0.1;stroke-miterlimit:4;stroke-dasharray:none;stroke-dashoffset:0;stroke-opacity:1"
       id="rect4918-5-3-6-39"
       width="104"
       height="0.33333001"
       x="70"
       y="326.66666" />
    <path
       style="fill:none;fill-opacity:1;stroke:#000000;stroke-width:0.1;stroke-miterlimit:4;stroke-dasharray:none;stroke-opacity:1"
       d="M 13,297 A 13,13 0 0 1 0,310 13,13 0 0 1 -13,297 13,13 0 0 1 0,284 13,13 0 0 1 13,297 Z"
       id="path4579" />
  </g>
</svg>
