G04 #@! TF.GenerationSoftware,KiCad,Pcbnew,(2017-04-19 revision 13b2cb4d1)-makepkg*
G04 #@! TF.CreationDate,2017-04-23T13:50:34-07:00*
G04 #@! TF.ProjectId,fieldmill,6669656C646D696C6C2E6B696361645F,rev?*
G04 #@! TF.FileFunction,Copper,L2,Bot,Signal*
G04 #@! TF.FilePolarity,Positive*
%FSLAX46Y46*%
G04 Gerber Fmt 4.6, Leading zero omitted, Abs format (unit mm)*
G04 Created by KiCad (PCBNEW (2017-04-19 revision 13b2cb4d1)-makepkg) date 04/23/17 13:50:34*
%MOMM*%
%LPD*%
G01*
G04 APERTURE LIST*
%ADD10C,0.100000*%
%ADD11C,0.028222*%
%ADD12C,5.000000*%
%ADD13C,1.524000*%
G04 APERTURE END LIST*
D10*
D11*
G36*
X110370126Y-49870764D02*
X110267021Y-49869895D01*
X110163862Y-49869222D01*
X110060646Y-49868750D01*
X109957372Y-49868485D01*
X109854039Y-49868430D01*
X109750646Y-49868591D01*
X109647192Y-49868973D01*
X109543674Y-49869581D01*
X109440091Y-49870419D01*
X109336443Y-49871492D01*
X109232728Y-49872805D01*
X109128944Y-49874363D01*
X109025090Y-49876171D01*
X108921164Y-49878233D01*
X108817166Y-49880556D01*
X108711568Y-49883169D01*
X108605987Y-49886019D01*
X108500423Y-49889106D01*
X108394877Y-49892429D01*
X108289350Y-49895988D01*
X108183841Y-49899783D01*
X108078350Y-49903813D01*
X107972879Y-49908078D01*
X107867428Y-49912579D01*
X107761996Y-49917314D01*
X107656586Y-49922284D01*
X107551195Y-49927488D01*
X107445826Y-49932926D01*
X107340479Y-49938598D01*
X107235153Y-49944503D01*
X107129850Y-49950642D01*
X107024569Y-49957014D01*
X106919311Y-49963619D01*
X106814077Y-49970457D01*
X106708867Y-49977527D01*
X106603680Y-49984829D01*
X106498518Y-49992363D01*
X106393381Y-50000129D01*
X106288269Y-50008126D01*
X106183183Y-50016354D01*
X106078123Y-50024813D01*
X105973089Y-50033504D01*
X105868082Y-50042424D01*
X105763102Y-50051575D01*
X105658149Y-50060956D01*
X105553224Y-50070567D01*
X105448328Y-50080407D01*
X105343460Y-50090476D01*
X105238621Y-50100775D01*
X105133811Y-50111302D01*
X105029031Y-50122058D01*
X104924281Y-50133043D01*
X104819562Y-50144255D01*
X104714874Y-50155695D01*
X104610216Y-50167363D01*
X104505590Y-50179259D01*
X104400997Y-50191381D01*
X104296435Y-50203731D01*
X104191906Y-50216307D01*
X104087410Y-50229109D01*
X103982948Y-50242138D01*
X103878519Y-50255393D01*
X103774125Y-50268874D01*
X103669765Y-50282580D01*
X103565440Y-50296511D01*
X103461151Y-50310667D01*
X103356897Y-50325048D01*
X103252679Y-50339654D01*
X103148497Y-50354484D01*
X103044353Y-50369538D01*
X102940245Y-50384816D01*
X102836175Y-50400317D01*
X102732143Y-50416042D01*
X102628149Y-50431990D01*
X102524194Y-50448161D01*
X102420278Y-50464554D01*
X102316401Y-50481170D01*
X102212564Y-50498008D01*
X102108767Y-50515068D01*
X102005011Y-50532349D01*
X101901295Y-50549852D01*
X101797621Y-50567576D01*
X101693988Y-50585522D01*
X101590398Y-50603688D01*
X101486849Y-50622074D01*
X101383344Y-50640681D01*
X101279881Y-50659507D01*
X101176462Y-50678554D01*
X101073087Y-50697820D01*
X100969756Y-50717305D01*
X100866470Y-50737010D01*
X100763229Y-50756933D01*
X100660033Y-50777075D01*
X100556883Y-50797435D01*
X100453779Y-50818013D01*
X100350721Y-50838809D01*
X100247710Y-50859823D01*
X100144747Y-50881054D01*
X100041831Y-50902503D01*
X99938963Y-50924168D01*
X99836143Y-50946050D01*
X99733372Y-50968148D01*
X99630650Y-50990463D01*
X99527977Y-51012994D01*
X99425354Y-51035740D01*
X99322782Y-51058702D01*
X99220260Y-51081879D01*
X99117789Y-51105271D01*
X99015369Y-51128878D01*
X98913001Y-51152699D01*
X98810685Y-51176735D01*
X98708422Y-51200985D01*
X98606211Y-51225449D01*
X98504053Y-51250126D01*
X98401949Y-51275016D01*
X98299899Y-51300120D01*
X98197903Y-51325437D01*
X98095962Y-51350966D01*
X97994075Y-51376707D01*
X97892245Y-51402661D01*
X97790470Y-51428827D01*
X97688751Y-51455204D01*
X97587088Y-51481793D01*
X97485483Y-51508593D01*
X97383935Y-51535604D01*
X97282444Y-51562826D01*
X97181011Y-51590258D01*
X97079637Y-51617901D01*
X96978322Y-51645753D01*
X96877065Y-51673815D01*
X96775869Y-51702087D01*
X96674732Y-51730568D01*
X96573655Y-51759258D01*
X96472639Y-51788157D01*
X96371684Y-51817265D01*
X96270790Y-51846581D01*
X96169958Y-51876105D01*
X96069188Y-51905837D01*
X95968480Y-51935777D01*
X95867836Y-51965924D01*
X95767254Y-51996278D01*
X95666736Y-52026839D01*
X95566283Y-52057607D01*
X95465893Y-52088581D01*
X95365568Y-52119761D01*
X95265309Y-52151148D01*
X95165114Y-52182740D01*
X95064986Y-52214537D01*
X94964924Y-52246540D01*
X94864928Y-52278748D01*
X94764999Y-52311161D01*
X94665138Y-52343778D01*
X94565344Y-52376599D01*
X94465618Y-52409625D01*
X94365961Y-52442854D01*
X94266373Y-52476287D01*
X94166853Y-52509923D01*
X94067404Y-52543763D01*
X93968024Y-52577805D01*
X93868714Y-52612050D01*
X93769476Y-52646498D01*
X93670308Y-52681147D01*
X93571211Y-52715998D01*
X93472187Y-52751052D01*
X93373234Y-52786306D01*
X93274354Y-52821762D01*
X93175547Y-52857419D01*
X93076814Y-52893276D01*
X92978153Y-52929334D01*
X92879567Y-52965592D01*
X92781056Y-53002050D01*
X92682619Y-53038708D01*
X92584257Y-53075566D01*
X92485971Y-53112623D01*
X92387760Y-53149879D01*
X92289626Y-53187334D01*
X92191569Y-53224987D01*
X92093588Y-53262839D01*
X91995685Y-53300888D01*
X91897859Y-53339136D01*
X91800112Y-53377581D01*
X91702443Y-53416224D01*
X91604853Y-53455064D01*
X91507342Y-53494101D01*
X91409911Y-53533334D01*
X91312560Y-53572764D01*
X91215289Y-53612390D01*
X91118099Y-53652212D01*
X91020990Y-53692230D01*
X90923963Y-53732443D01*
X90827017Y-53772852D01*
X90730153Y-53813455D01*
X90633372Y-53854254D01*
X90536674Y-53895247D01*
X90440060Y-53936434D01*
X90343529Y-53977815D01*
X90247082Y-54019390D01*
X90150719Y-54061159D01*
X90054442Y-54103121D01*
X89958249Y-54145276D01*
X89862143Y-54187624D01*
X89766122Y-54230165D01*
X89670187Y-54272898D01*
X89574339Y-54315823D01*
X89478578Y-54358940D01*
X89382904Y-54402249D01*
X89287319Y-54445749D01*
X89191821Y-54489440D01*
X89096412Y-54533323D01*
X89001092Y-54577396D01*
X88905861Y-54621659D01*
X88810720Y-54666113D01*
X88715669Y-54710757D01*
X88620708Y-54755591D01*
X88525838Y-54800614D01*
X88431060Y-54845827D01*
X88336372Y-54891228D01*
X88241777Y-54936819D01*
X88147274Y-54982598D01*
X88052863Y-55028565D01*
X87958546Y-55074720D01*
X87864321Y-55121064D01*
X87770191Y-55167595D01*
X87676155Y-55214313D01*
X87582213Y-55261219D01*
X87488366Y-55308311D01*
X87394615Y-55355590D01*
X87300958Y-55403056D01*
X87212897Y-55449975D01*
X87127487Y-55499852D01*
X87044757Y-55552589D01*
X86964735Y-55608090D01*
X86887452Y-55666256D01*
X86812936Y-55726991D01*
X86741215Y-55790197D01*
X86672320Y-55855778D01*
X86606277Y-55923635D01*
X86543117Y-55993672D01*
X86482869Y-56065791D01*
X86425560Y-56139894D01*
X86371221Y-56215886D01*
X86319880Y-56293667D01*
X86271565Y-56373142D01*
X86226306Y-56454213D01*
X86184133Y-56536782D01*
X86145072Y-56620752D01*
X86109154Y-56706026D01*
X86076408Y-56792507D01*
X86046862Y-56880097D01*
X86020545Y-56968700D01*
X85997486Y-57058217D01*
X85977714Y-57148551D01*
X85961258Y-57239606D01*
X85948146Y-57331284D01*
X85938409Y-57423487D01*
X85932073Y-57516119D01*
X85929170Y-57609082D01*
X85929726Y-57702278D01*
X85933772Y-57795611D01*
X85941336Y-57888984D01*
X85952447Y-57982298D01*
X85967134Y-58075457D01*
X85985426Y-58168364D01*
X86007351Y-58260920D01*
X86032939Y-58353030D01*
X86062219Y-58444595D01*
X86095219Y-58535518D01*
X86131968Y-58625702D01*
X86172495Y-58715050D01*
X86216830Y-58803464D01*
X86265000Y-58890847D01*
X102010000Y-86162598D01*
X101919353Y-86214792D01*
X101828950Y-86267404D01*
X101738801Y-86320442D01*
X101648912Y-86373914D01*
X101559293Y-86427828D01*
X101469952Y-86482192D01*
X101380896Y-86537014D01*
X101292133Y-86592301D01*
X101203673Y-86648063D01*
X101115522Y-86704307D01*
X101027689Y-86761041D01*
X100940182Y-86818274D01*
X100853010Y-86876012D01*
X100766180Y-86934264D01*
X100679701Y-86993039D01*
X100593580Y-87052343D01*
X100507825Y-87112186D01*
X100422446Y-87172575D01*
X100337450Y-87233519D01*
X100252845Y-87295024D01*
X100168639Y-87357100D01*
X100084840Y-87419754D01*
X100001457Y-87482994D01*
X99918497Y-87546829D01*
X99835969Y-87611266D01*
X99753881Y-87676314D01*
X99672241Y-87741979D01*
X99591057Y-87808272D01*
X99510337Y-87875198D01*
X99430089Y-87942767D01*
X99350322Y-88010987D01*
X99271043Y-88079865D01*
X99192261Y-88149409D01*
X99113984Y-88219628D01*
X99036219Y-88290530D01*
X98958976Y-88362122D01*
X98882262Y-88434412D01*
X98806085Y-88507409D01*
X98730453Y-88581121D01*
X98655375Y-88655556D01*
X98582045Y-88729373D01*
X98509235Y-88803641D01*
X98436946Y-88878358D01*
X98365181Y-88953519D01*
X98293939Y-89029121D01*
X98223224Y-89105162D01*
X98153036Y-89181637D01*
X98083377Y-89258543D01*
X98014248Y-89335877D01*
X97945650Y-89413635D01*
X97877584Y-89491815D01*
X97810053Y-89570412D01*
X97743058Y-89649424D01*
X97676599Y-89728847D01*
X97610678Y-89808677D01*
X97545297Y-89888912D01*
X97480458Y-89969548D01*
X97416160Y-90050581D01*
X97352407Y-90132009D01*
X97289198Y-90213827D01*
X97226537Y-90296033D01*
X97164423Y-90378623D01*
X97102858Y-90461594D01*
X97041844Y-90544942D01*
X96981383Y-90628664D01*
X96921474Y-90712757D01*
X96862121Y-90797218D01*
X96803324Y-90882042D01*
X96745084Y-90967227D01*
X96687403Y-91052769D01*
X96630283Y-91138665D01*
X96573725Y-91224911D01*
X96517729Y-91311505D01*
X96462299Y-91398442D01*
X96407434Y-91485720D01*
X96353136Y-91573335D01*
X96299407Y-91661283D01*
X96246248Y-91749562D01*
X96193661Y-91838168D01*
X96141646Y-91927098D01*
X96090206Y-92016347D01*
X96039341Y-92105914D01*
X95989053Y-92195794D01*
X95939343Y-92285985D01*
X95890213Y-92376482D01*
X95841664Y-92467282D01*
X95793698Y-92558383D01*
X95746315Y-92649780D01*
X95699518Y-92741471D01*
X95653308Y-92833452D01*
X95607685Y-92925719D01*
X95562652Y-93018269D01*
X95518209Y-93111100D01*
X95474359Y-93204207D01*
X95431102Y-93297587D01*
X95388440Y-93391237D01*
X95346375Y-93485153D01*
X95304907Y-93579333D01*
X95264038Y-93673772D01*
X95223769Y-93768468D01*
X95184103Y-93863416D01*
X95145039Y-93958615D01*
X95106581Y-94054059D01*
X95068728Y-94149747D01*
X95031482Y-94245674D01*
X94994845Y-94341837D01*
X94958819Y-94438233D01*
X94923403Y-94534858D01*
X94888601Y-94631710D01*
X94854413Y-94728784D01*
X94820841Y-94826078D01*
X94787885Y-94923588D01*
X94755548Y-95021310D01*
X94723831Y-95119242D01*
X94692735Y-95217379D01*
X94662261Y-95315719D01*
X94632411Y-95414259D01*
X94603187Y-95512994D01*
X94574589Y-95611921D01*
X94546620Y-95711038D01*
X94519280Y-95810341D01*
X94492570Y-95909826D01*
X94466493Y-96009489D01*
X94441050Y-96109329D01*
X94416241Y-96209341D01*
X94392069Y-96309522D01*
X94368534Y-96409868D01*
X94345639Y-96510377D01*
X94323384Y-96611044D01*
X94301771Y-96711867D01*
X94280801Y-96812842D01*
X94260476Y-96913966D01*
X94240797Y-97015236D01*
X94221766Y-97116647D01*
X94203383Y-97218197D01*
X94185650Y-97319882D01*
X94168569Y-97421699D01*
X94152141Y-97523645D01*
X94136367Y-97625716D01*
X94121249Y-97727909D01*
X94106787Y-97830221D01*
X94092985Y-97932647D01*
X94079842Y-98035186D01*
X94067360Y-98137832D01*
X94055541Y-98240584D01*
X94044386Y-98343438D01*
X94033896Y-98446390D01*
X94024073Y-98549437D01*
X94014919Y-98652575D01*
X94006433Y-98755802D01*
X93998619Y-98859113D01*
X93991477Y-98962506D01*
X93985008Y-99065977D01*
X93979215Y-99169523D01*
X93974098Y-99273141D01*
X93969658Y-99376826D01*
X93965898Y-99480577D01*
X93962819Y-99584388D01*
X93960421Y-99688258D01*
X93958707Y-99792182D01*
X93957677Y-99896157D01*
X93957334Y-100000181D01*
X62539792Y-100000181D01*
X62440004Y-100002146D01*
X62341241Y-100007952D01*
X62243574Y-100017523D01*
X62147072Y-100030786D01*
X62051805Y-100047668D01*
X61957844Y-100068094D01*
X61865257Y-100091992D01*
X61774116Y-100119286D01*
X61684488Y-100149904D01*
X61596445Y-100183772D01*
X61510057Y-100220815D01*
X61425392Y-100260961D01*
X61342522Y-100304136D01*
X61261515Y-100350265D01*
X61182442Y-100399276D01*
X61105373Y-100451094D01*
X61030377Y-100505645D01*
X60957524Y-100562857D01*
X60886884Y-100622654D01*
X60818527Y-100684964D01*
X60752523Y-100749713D01*
X60688941Y-100816827D01*
X60627852Y-100886232D01*
X60569325Y-100957855D01*
X60513430Y-101031622D01*
X60460238Y-101107459D01*
X60409817Y-101185292D01*
X60362237Y-101265048D01*
X60317570Y-101346653D01*
X60275883Y-101430033D01*
X60237248Y-101515114D01*
X60201734Y-101601824D01*
X60169410Y-101690087D01*
X60140348Y-101779830D01*
X60114616Y-101870981D01*
X60092284Y-101963464D01*
X60073423Y-102057206D01*
X60058102Y-102152134D01*
X60046390Y-102248173D01*
X60038359Y-102345250D01*
X60034077Y-102443292D01*
X60033615Y-102542224D01*
X60037042Y-102641973D01*
X60042757Y-102746461D01*
X60048680Y-102850939D01*
X60054811Y-102955406D01*
X60061150Y-103059861D01*
X60067698Y-103164304D01*
X60074453Y-103268734D01*
X60081416Y-103373151D01*
X60088587Y-103477555D01*
X60095966Y-103581945D01*
X60103554Y-103686321D01*
X60111349Y-103790682D01*
X60119353Y-103895028D01*
X60127564Y-103999358D01*
X60135984Y-104103672D01*
X60144612Y-104207970D01*
X60153448Y-104312251D01*
X60162492Y-104416514D01*
X60171744Y-104520760D01*
X60181205Y-104624987D01*
X60190873Y-104729196D01*
X60200750Y-104833386D01*
X60210835Y-104937556D01*
X60221128Y-105041707D01*
X60231629Y-105145837D01*
X60242339Y-105249946D01*
X60253256Y-105354034D01*
X60264382Y-105458100D01*
X60275716Y-105562144D01*
X60287259Y-105666166D01*
X60299009Y-105770165D01*
X60310968Y-105874140D01*
X60323136Y-105978092D01*
X60335511Y-106082019D01*
X60348095Y-106185921D01*
X60360887Y-106289799D01*
X60373887Y-106393650D01*
X60387096Y-106497476D01*
X60400513Y-106601276D01*
X60414138Y-106705048D01*
X60427972Y-106808793D01*
X60442014Y-106912511D01*
X60456264Y-107016200D01*
X60470723Y-107119861D01*
X60485390Y-107223492D01*
X60500266Y-107327094D01*
X60515350Y-107430667D01*
X60530642Y-107534208D01*
X60546143Y-107637720D01*
X60561852Y-107741200D01*
X60577770Y-107844648D01*
X60593896Y-107948064D01*
X60610230Y-108051448D01*
X60626773Y-108154798D01*
X60643525Y-108258116D01*
X60660485Y-108361399D01*
X60677653Y-108464649D01*
X60695030Y-108567863D01*
X60712616Y-108671043D01*
X60730410Y-108774187D01*
X60748412Y-108877295D01*
X60766623Y-108980367D01*
X60785043Y-109083401D01*
X60803671Y-109186399D01*
X60822508Y-109289359D01*
X60841553Y-109392280D01*
X60860807Y-109495163D01*
X60880270Y-109598007D01*
X60899941Y-109700812D01*
X60919821Y-109803577D01*
X60939909Y-109906301D01*
X60960206Y-110008985D01*
X60980712Y-110111627D01*
X61001426Y-110214228D01*
X61022349Y-110316787D01*
X61043481Y-110419303D01*
X61064821Y-110521777D01*
X61086370Y-110624207D01*
X61108128Y-110726593D01*
X61130094Y-110828935D01*
X61152269Y-110931233D01*
X61174653Y-111033485D01*
X61197246Y-111135692D01*
X61220047Y-111237853D01*
X61243057Y-111339967D01*
X61266276Y-111442035D01*
X61289704Y-111544055D01*
X61313340Y-111646028D01*
X61337186Y-111747953D01*
X61361240Y-111849829D01*
X61385502Y-111951656D01*
X61409974Y-112053433D01*
X61434655Y-112155161D01*
X61459544Y-112256839D01*
X61484642Y-112358466D01*
X61509949Y-112460041D01*
X61535465Y-112561565D01*
X61561190Y-112663037D01*
X61587124Y-112764457D01*
X61613266Y-112865824D01*
X61639618Y-112967137D01*
X61666178Y-113068397D01*
X61692947Y-113169602D01*
X61719926Y-113270753D01*
X61747113Y-113371849D01*
X61774509Y-113472889D01*
X61802114Y-113573873D01*
X61829928Y-113674801D01*
X61857951Y-113775672D01*
X61886183Y-113876486D01*
X61914624Y-113977243D01*
X61943274Y-114077941D01*
X61972133Y-114178581D01*
X62001201Y-114279161D01*
X62030479Y-114379683D01*
X62059965Y-114480144D01*
X62089660Y-114580546D01*
X62119564Y-114680886D01*
X62149678Y-114781166D01*
X62180000Y-114881384D01*
X62210532Y-114981539D01*
X62241272Y-115081633D01*
X62272222Y-115181664D01*
X62303381Y-115281631D01*
X62334749Y-115381534D01*
X62366326Y-115481374D01*
X62398112Y-115581149D01*
X62430108Y-115680858D01*
X62462312Y-115780503D01*
X62494726Y-115880081D01*
X62527349Y-115979593D01*
X62560181Y-116079039D01*
X62593223Y-116178417D01*
X62626473Y-116277727D01*
X62659933Y-116376970D01*
X62693602Y-116476144D01*
X62727480Y-116575249D01*
X62761568Y-116674284D01*
X62795865Y-116773250D01*
X62830371Y-116872146D01*
X62865086Y-116970971D01*
X62900011Y-117069725D01*
X62935145Y-117168407D01*
X62970488Y-117267017D01*
X63006041Y-117365555D01*
X63041802Y-117464021D01*
X63077774Y-117562412D01*
X63113954Y-117660731D01*
X63150344Y-117758975D01*
X63186943Y-117857144D01*
X63223752Y-117955239D01*
X63260770Y-118053258D01*
X63297997Y-118151201D01*
X63335434Y-118249068D01*
X63373080Y-118346858D01*
X63410936Y-118444571D01*
X63449001Y-118542206D01*
X63487276Y-118639763D01*
X63525760Y-118737242D01*
X63564453Y-118834642D01*
X63603356Y-118931963D01*
X63642468Y-119029203D01*
X63681790Y-119126364D01*
X63721321Y-119223444D01*
X63761062Y-119320443D01*
X63801013Y-119417360D01*
X63841172Y-119514196D01*
X63881542Y-119610949D01*
X63922121Y-119707619D01*
X63962909Y-119804206D01*
X64003907Y-119900709D01*
X64045115Y-119997129D01*
X64086532Y-120093463D01*
X64128159Y-120189713D01*
X64169995Y-120285877D01*
X64212041Y-120381956D01*
X64254297Y-120477948D01*
X64296762Y-120573853D01*
X64339437Y-120669672D01*
X64382321Y-120765403D01*
X64425415Y-120861045D01*
X64468719Y-120956600D01*
X64512233Y-121052065D01*
X64555956Y-121147441D01*
X64599889Y-121242728D01*
X64644031Y-121337924D01*
X64688383Y-121433029D01*
X64732945Y-121528044D01*
X64777717Y-121622967D01*
X64822698Y-121717798D01*
X64867890Y-121812537D01*
X64913290Y-121907183D01*
X64958901Y-122001736D01*
X65004722Y-122096195D01*
X65050752Y-122190560D01*
X65096992Y-122284831D01*
X65143442Y-122379006D01*
X65190101Y-122473086D01*
X65236971Y-122567071D01*
X65284050Y-122660959D01*
X65331339Y-122754750D01*
X65378838Y-122848445D01*
X65426547Y-122942042D01*
X65474466Y-123035540D01*
X65522594Y-123128941D01*
X65570933Y-123222242D01*
X65619481Y-123315445D01*
X65668239Y-123408547D01*
X65717207Y-123501550D01*
X65766386Y-123594452D01*
X65815774Y-123687252D01*
X65865371Y-123779952D01*
X65915179Y-123872549D01*
X65965197Y-123965044D01*
X66015425Y-124057437D01*
X66065863Y-124149726D01*
X66116511Y-124241911D01*
X66167369Y-124333993D01*
X66218436Y-124425970D01*
X66269714Y-124517842D01*
X66321202Y-124609609D01*
X66372900Y-124701270D01*
X66424808Y-124792825D01*
X66476926Y-124884273D01*
X66529254Y-124975614D01*
X66581792Y-125066847D01*
X66634534Y-125157963D01*
X66687475Y-125248950D01*
X66740613Y-125339809D01*
X66793949Y-125430540D01*
X66847482Y-125521142D01*
X66901211Y-125611615D01*
X66955137Y-125701959D01*
X67009259Y-125792173D01*
X67063577Y-125882258D01*
X67118090Y-125972213D01*
X67172797Y-126062039D01*
X67227699Y-126151734D01*
X67282795Y-126241299D01*
X67338085Y-126330733D01*
X67393568Y-126420036D01*
X67449243Y-126509209D01*
X67505112Y-126598250D01*
X67561172Y-126687160D01*
X67617424Y-126775938D01*
X67673868Y-126864584D01*
X67730503Y-126953099D01*
X67787328Y-127041481D01*
X67844343Y-127129730D01*
X67901549Y-127217847D01*
X67958943Y-127305831D01*
X68016527Y-127393682D01*
X68074300Y-127481400D01*
X68132261Y-127568984D01*
X68190410Y-127656434D01*
X68248746Y-127743750D01*
X68307270Y-127830933D01*
X68365980Y-127917981D01*
X68424877Y-128004894D01*
X68483960Y-128091672D01*
X68543228Y-128178316D01*
X68602682Y-128264824D01*
X68662321Y-128351197D01*
X68722144Y-128437435D01*
X68782151Y-128523536D01*
X68842342Y-128609502D01*
X68902717Y-128695331D01*
X68963274Y-128781024D01*
X69024014Y-128866580D01*
X69084937Y-128951999D01*
X69146041Y-129037281D01*
X69207326Y-129122426D01*
X69268793Y-129207434D01*
X69330440Y-129292303D01*
X69392268Y-129377035D01*
X69454276Y-129461629D01*
X69516463Y-129546084D01*
X69578829Y-129630401D01*
X69641374Y-129714579D01*
X69704098Y-129798618D01*
X69766999Y-129882517D01*
X69830079Y-129966278D01*
X69893335Y-130049899D01*
X69956768Y-130133380D01*
X70020378Y-130216721D01*
X70084164Y-130299921D01*
X70148126Y-130382982D01*
X70212263Y-130465901D01*
X70276575Y-130548680D01*
X70341062Y-130631318D01*
X70405723Y-130713814D01*
X70470558Y-130796169D01*
X70535566Y-130878383D01*
X70600747Y-130960454D01*
X70666101Y-131042383D01*
X70731628Y-131124170D01*
X70797326Y-131205815D01*
X70863196Y-131287316D01*
X70929237Y-131368675D01*
X70995448Y-131449890D01*
X71061830Y-131530963D01*
X71128383Y-131611891D01*
X71195104Y-131692676D01*
X71261996Y-131773317D01*
X71329055Y-131853813D01*
X71396284Y-131934165D01*
X71463680Y-132014373D01*
X71531245Y-132094435D01*
X71598976Y-132174353D01*
X71666875Y-132254125D01*
X71734940Y-132333752D01*
X71803172Y-132413233D01*
X71871569Y-132492568D01*
X71940132Y-132571758D01*
X72008860Y-132650800D01*
X72077752Y-132729697D01*
X72146809Y-132808446D01*
X72216029Y-132887049D01*
X72285414Y-132965504D01*
X72354961Y-133043813D01*
X72424671Y-133121973D01*
X72494544Y-133199986D01*
X72564578Y-133277851D01*
X72634775Y-133355567D01*
X72705132Y-133433135D01*
X72775651Y-133510555D01*
X72846329Y-133587826D01*
X72917168Y-133664947D01*
X72988167Y-133741920D01*
X73059325Y-133818743D01*
X73130642Y-133895416D01*
X73202118Y-133971939D01*
X73273751Y-134048313D01*
X73345543Y-134124536D01*
X73417492Y-134200608D01*
X73489598Y-134276530D01*
X73561861Y-134352301D01*
X73634280Y-134427921D01*
X73706855Y-134503389D01*
X73779586Y-134578706D01*
X73852471Y-134653871D01*
X73925512Y-134728884D01*
X73998707Y-134803745D01*
X74072056Y-134878454D01*
X74145558Y-134953009D01*
X74219214Y-135027413D01*
X74293023Y-135101663D01*
X74366984Y-135175759D01*
X74441097Y-135249703D01*
X74515362Y-135323493D01*
X74589778Y-135397128D01*
X74664345Y-135470610D01*
X74739063Y-135543938D01*
X74813931Y-135617111D01*
X74888949Y-135690129D01*
X74964116Y-135762992D01*
X75039432Y-135835701D01*
X75114897Y-135908254D01*
X75190511Y-135980651D01*
X75266272Y-136052893D01*
X75342181Y-136124978D01*
X75418236Y-136196908D01*
X75494439Y-136268681D01*
X75570788Y-136340297D01*
X75647283Y-136411757D01*
X75723924Y-136483060D01*
X75800710Y-136554205D01*
X75877640Y-136625193D01*
X75954716Y-136696024D01*
X76031935Y-136766696D01*
X76109298Y-136837211D01*
X76186804Y-136907567D01*
X76264453Y-136977765D01*
X76342245Y-137047804D01*
X76420179Y-137117684D01*
X76498255Y-137187405D01*
X76576473Y-137256967D01*
X76654831Y-137326369D01*
X76733330Y-137395612D01*
X76811969Y-137464694D01*
X76890748Y-137533617D01*
X76969667Y-137602379D01*
X77048725Y-137670980D01*
X77127922Y-137739421D01*
X77207257Y-137807700D01*
X77286730Y-137875819D01*
X77366340Y-137943776D01*
X77446088Y-138011571D01*
X77525973Y-138079205D01*
X77605994Y-138146676D01*
X77686151Y-138213986D01*
X77766444Y-138281132D01*
X77846872Y-138348117D01*
X77927436Y-138414938D01*
X78008133Y-138481596D01*
X78088965Y-138548091D01*
X78169931Y-138614422D01*
X78251030Y-138680590D01*
X78332262Y-138746593D01*
X78413627Y-138812433D01*
X78495125Y-138878108D01*
X78576754Y-138943619D01*
X78658514Y-139008965D01*
X78740406Y-139074145D01*
X78822428Y-139139161D01*
X78904581Y-139204011D01*
X78986864Y-139268696D01*
X79069276Y-139333215D01*
X79151818Y-139397568D01*
X79234489Y-139461754D01*
X79317287Y-139525774D01*
X79400215Y-139589628D01*
X79483269Y-139653314D01*
X79566451Y-139716834D01*
X79649760Y-139780186D01*
X79733196Y-139843371D01*
X79816758Y-139906388D01*
X79900445Y-139969237D01*
X79984258Y-140031918D01*
X80068196Y-140094430D01*
X80152259Y-140156774D01*
X80236445Y-140218950D01*
X80320756Y-140280956D01*
X80405191Y-140342793D01*
X80489748Y-140404461D01*
X80574428Y-140465959D01*
X80659231Y-140527288D01*
X80744155Y-140588446D01*
X80829201Y-140649434D01*
X80914368Y-140710252D01*
X80999657Y-140770899D01*
X81085065Y-140831375D01*
X81170594Y-140891680D01*
X81256242Y-140951814D01*
X81342010Y-141011776D01*
X81427897Y-141071567D01*
X81513902Y-141131186D01*
X81600025Y-141190632D01*
X81686266Y-141249907D01*
X81772625Y-141309009D01*
X81859100Y-141367938D01*
X81945692Y-141426694D01*
X82032401Y-141485277D01*
X82119225Y-141543686D01*
X82206165Y-141601922D01*
X82293220Y-141659984D01*
X82380390Y-141717873D01*
X82467674Y-141775587D01*
X82555072Y-141833126D01*
X82642583Y-141890491D01*
X82730208Y-141947681D01*
X82814927Y-142000577D01*
X82900884Y-142049690D01*
X82987982Y-142095046D01*
X83076121Y-142136667D01*
X83165202Y-142174578D01*
X83255126Y-142208802D01*
X83345795Y-142239362D01*
X83437109Y-142266283D01*
X83528970Y-142289588D01*
X83621278Y-142309301D01*
X83713934Y-142325446D01*
X83806841Y-142338045D01*
X83899897Y-142347124D01*
X83993006Y-142352705D01*
X84086067Y-142354813D01*
X84178982Y-142353470D01*
X84271652Y-142348701D01*
X84363978Y-142340530D01*
X84455861Y-142328980D01*
X84547202Y-142314075D01*
X84637902Y-142295838D01*
X84727862Y-142274293D01*
X84816983Y-142249464D01*
X84905167Y-142221375D01*
X84992313Y-142190049D01*
X85078324Y-142155511D01*
X85163101Y-142117782D01*
X85246544Y-142076889D01*
X85328554Y-142032853D01*
X85409033Y-141985699D01*
X85487881Y-141935450D01*
X85565001Y-141882131D01*
X85640291Y-141825765D01*
X85713655Y-141766375D01*
X85784992Y-141703985D01*
X85854205Y-141638620D01*
X85921193Y-141570302D01*
X85985858Y-141499055D01*
X86048101Y-141424904D01*
X86107823Y-141347871D01*
X86164926Y-141267980D01*
X86219309Y-141185256D01*
X86270875Y-141099722D01*
X102107917Y-113669347D01*
X102198797Y-113721410D01*
X102289890Y-113773079D01*
X102381195Y-113824347D01*
X102472712Y-113875207D01*
X102564440Y-113925653D01*
X102656378Y-113975678D01*
X102748526Y-114025276D01*
X102840883Y-114074439D01*
X102933448Y-114123162D01*
X103026221Y-114171436D01*
X103119202Y-114219257D01*
X103212389Y-114266617D01*
X103305782Y-114313510D01*
X103399381Y-114359928D01*
X103493184Y-114405866D01*
X103587191Y-114451317D01*
X103681402Y-114496273D01*
X103775816Y-114540729D01*
X103870432Y-114584678D01*
X103965250Y-114628113D01*
X104060269Y-114671028D01*
X104155488Y-114713415D01*
X104250907Y-114755268D01*
X104346525Y-114796582D01*
X104442342Y-114837348D01*
X104538357Y-114877560D01*
X104634569Y-114917212D01*
X104730978Y-114956297D01*
X104827583Y-114994809D01*
X104924384Y-115032740D01*
X105021379Y-115070085D01*
X105118569Y-115106836D01*
X105215952Y-115142987D01*
X105313528Y-115178531D01*
X105411297Y-115213461D01*
X105509257Y-115247772D01*
X105607409Y-115281456D01*
X105705751Y-115314506D01*
X105804283Y-115346917D01*
X105903005Y-115378681D01*
X106001915Y-115409792D01*
X106101013Y-115440243D01*
X106200299Y-115470027D01*
X106299771Y-115499139D01*
X106399430Y-115527570D01*
X106499274Y-115555315D01*
X106599303Y-115582367D01*
X106699517Y-115608720D01*
X106799914Y-115634366D01*
X106900495Y-115659299D01*
X107001258Y-115683512D01*
X107102203Y-115706999D01*
X107203329Y-115729754D01*
X107304636Y-115751769D01*
X107406123Y-115773038D01*
X107507789Y-115793553D01*
X107609634Y-115813310D01*
X107711658Y-115832301D01*
X107813859Y-115850518D01*
X107916236Y-115867957D01*
X108018791Y-115884609D01*
X108121520Y-115900469D01*
X108224425Y-115915530D01*
X108327505Y-115929785D01*
X108430758Y-115943227D01*
X108534185Y-115955850D01*
X108637784Y-115967648D01*
X108741555Y-115978612D01*
X108845498Y-115988738D01*
X108949611Y-115998019D01*
X109053894Y-116006446D01*
X109158347Y-116014015D01*
X109262969Y-116020719D01*
X109367759Y-116026550D01*
X109472717Y-116031502D01*
X109577842Y-116035568D01*
X109683134Y-116038743D01*
X109788591Y-116041019D01*
X109894213Y-116042389D01*
X110000000Y-116042847D01*
X110105787Y-116042389D01*
X110211409Y-116041019D01*
X110316866Y-116038743D01*
X110422157Y-116035568D01*
X110527282Y-116031502D01*
X110632240Y-116026549D01*
X110737030Y-116020718D01*
X110841651Y-116014015D01*
X110946104Y-116006446D01*
X111050388Y-115998018D01*
X111154501Y-115988738D01*
X111258443Y-115978611D01*
X111362214Y-115967646D01*
X111465814Y-115955849D01*
X111569240Y-115943226D01*
X111672493Y-115929783D01*
X111775573Y-115915528D01*
X111878478Y-115900467D01*
X111981208Y-115884607D01*
X112083762Y-115867954D01*
X112186140Y-115850516D01*
X112288341Y-115832298D01*
X112390364Y-115813307D01*
X112492209Y-115793550D01*
X112593875Y-115773034D01*
X112695362Y-115751765D01*
X112796669Y-115729750D01*
X112897796Y-115706995D01*
X112998741Y-115683508D01*
X113099504Y-115659294D01*
X113200085Y-115634361D01*
X113300482Y-115608715D01*
X113400696Y-115582362D01*
X113500725Y-115555310D01*
X113600570Y-115527565D01*
X113700229Y-115499133D01*
X113799701Y-115470021D01*
X113898987Y-115440237D01*
X113998085Y-115409786D01*
X114096996Y-115378675D01*
X114195717Y-115346910D01*
X114294249Y-115314500D01*
X114392592Y-115281449D01*
X114490743Y-115247765D01*
X114588704Y-115213454D01*
X114686473Y-115178523D01*
X114784049Y-115142979D01*
X114881433Y-115106828D01*
X114978622Y-115070077D01*
X115075618Y-115032733D01*
X115172419Y-114994801D01*
X115269024Y-114956290D01*
X115365433Y-114917205D01*
X115461645Y-114877553D01*
X115557660Y-114837340D01*
X115653477Y-114796574D01*
X115749095Y-114755261D01*
X115844514Y-114713408D01*
X115939734Y-114671020D01*
X116034753Y-114628106D01*
X116129570Y-114584671D01*
X116224187Y-114540723D01*
X116318600Y-114496267D01*
X116412811Y-114451310D01*
X116506819Y-114405860D01*
X116600622Y-114359922D01*
X116694220Y-114313504D01*
X116787613Y-114266612D01*
X116880800Y-114219252D01*
X116973781Y-114171432D01*
X117066554Y-114123157D01*
X117159119Y-114074435D01*
X117251476Y-114025272D01*
X117343624Y-113975675D01*
X117435562Y-113925651D01*
X117527289Y-113875205D01*
X117618806Y-113824345D01*
X117710111Y-113773078D01*
X117801204Y-113721410D01*
X117892084Y-113669347D01*
X133729126Y-141099722D01*
X133780691Y-141185256D01*
X133835075Y-141267980D01*
X133892177Y-141347871D01*
X133951899Y-141424904D01*
X134014143Y-141499055D01*
X134078808Y-141570302D01*
X134145796Y-141638620D01*
X134215008Y-141703985D01*
X134286345Y-141766375D01*
X134359709Y-141825765D01*
X134435000Y-141882131D01*
X134512119Y-141935450D01*
X134590968Y-141985699D01*
X134671447Y-142032853D01*
X134753457Y-142076889D01*
X134836900Y-142117782D01*
X134921676Y-142155511D01*
X135007687Y-142190049D01*
X135094834Y-142221375D01*
X135183017Y-142249464D01*
X135272139Y-142274293D01*
X135362099Y-142295838D01*
X135452799Y-142314075D01*
X135544140Y-142328980D01*
X135636022Y-142340530D01*
X135728348Y-142348701D01*
X135821018Y-142353470D01*
X135913933Y-142354813D01*
X136006995Y-142352705D01*
X136100103Y-142347124D01*
X136193160Y-142338045D01*
X136286066Y-142325446D01*
X136378723Y-142309301D01*
X136471031Y-142289588D01*
X136562891Y-142266283D01*
X136654205Y-142239362D01*
X136744874Y-142208802D01*
X136834799Y-142174578D01*
X136923880Y-142136667D01*
X137012019Y-142095046D01*
X137099116Y-142049690D01*
X137185074Y-142000577D01*
X137269792Y-141947681D01*
X137357417Y-141890491D01*
X137444929Y-141833126D01*
X137532327Y-141775587D01*
X137619611Y-141717873D01*
X137706780Y-141659984D01*
X137793835Y-141601922D01*
X137880775Y-141543686D01*
X137967599Y-141485277D01*
X138054308Y-141426694D01*
X138140900Y-141367938D01*
X138227376Y-141309009D01*
X138313734Y-141249907D01*
X138399975Y-141190632D01*
X138486098Y-141131186D01*
X138572104Y-141071567D01*
X138657990Y-141011776D01*
X138743758Y-140951814D01*
X138829406Y-140891680D01*
X138914935Y-140831375D01*
X139000344Y-140770899D01*
X139085632Y-140710252D01*
X139170799Y-140649434D01*
X139255845Y-140588446D01*
X139340769Y-140527288D01*
X139425572Y-140465959D01*
X139510252Y-140404461D01*
X139594810Y-140342793D01*
X139679244Y-140280956D01*
X139763555Y-140218950D01*
X139847741Y-140156775D01*
X139931804Y-140094430D01*
X140015742Y-140031918D01*
X140099555Y-139969237D01*
X140183242Y-139906388D01*
X140266804Y-139843371D01*
X140350240Y-139780186D01*
X140433549Y-139716834D01*
X140516731Y-139653314D01*
X140599785Y-139589628D01*
X140682712Y-139525774D01*
X140765511Y-139461754D01*
X140848182Y-139397568D01*
X140930724Y-139333215D01*
X141013136Y-139268696D01*
X141095419Y-139204011D01*
X141177572Y-139139161D01*
X141259594Y-139074146D01*
X141341486Y-139008965D01*
X141423246Y-138943619D01*
X141504875Y-138878108D01*
X141586372Y-138812433D01*
X141667737Y-138746594D01*
X141748970Y-138680590D01*
X141830069Y-138614422D01*
X141911035Y-138548091D01*
X141991867Y-138481596D01*
X142072564Y-138414938D01*
X142153128Y-138348117D01*
X142233556Y-138281133D01*
X142313849Y-138213986D01*
X142394006Y-138146677D01*
X142474027Y-138079205D01*
X142553912Y-138011571D01*
X142633660Y-137943776D01*
X142713270Y-137875819D01*
X142792743Y-137807701D01*
X142872078Y-137739421D01*
X142951275Y-137670980D01*
X143030333Y-137602379D01*
X143109251Y-137533617D01*
X143188031Y-137464695D01*
X143266670Y-137395612D01*
X143345169Y-137326369D01*
X143423527Y-137256967D01*
X143501745Y-137187406D01*
X143579820Y-137117684D01*
X143657755Y-137047804D01*
X143735546Y-136977765D01*
X143813196Y-136907567D01*
X143890702Y-136837211D01*
X143968065Y-136766697D01*
X144045284Y-136696024D01*
X144122360Y-136625194D01*
X144199290Y-136554206D01*
X144276076Y-136483060D01*
X144352717Y-136411757D01*
X144429212Y-136340298D01*
X144505561Y-136268681D01*
X144581763Y-136196908D01*
X144657819Y-136124979D01*
X144733728Y-136052893D01*
X144809489Y-135980651D01*
X144885103Y-135908254D01*
X144960568Y-135835701D01*
X145035884Y-135762993D01*
X145111051Y-135690129D01*
X145186069Y-135617111D01*
X145260937Y-135543938D01*
X145335655Y-135470611D01*
X145410222Y-135397129D01*
X145484638Y-135323493D01*
X145558903Y-135249703D01*
X145633016Y-135175760D01*
X145706978Y-135101663D01*
X145780786Y-135027413D01*
X145854442Y-134953010D01*
X145927944Y-134878454D01*
X146001293Y-134803745D01*
X146074488Y-134728885D01*
X146147529Y-134653871D01*
X146220414Y-134578706D01*
X146293145Y-134503390D01*
X146365720Y-134427921D01*
X146438139Y-134352301D01*
X146510402Y-134276531D01*
X146582508Y-134200609D01*
X146654457Y-134124536D01*
X146726249Y-134048313D01*
X146797883Y-133971940D01*
X146869358Y-133895416D01*
X146940675Y-133818743D01*
X147011833Y-133741920D01*
X147082832Y-133664948D01*
X147153671Y-133587826D01*
X147224350Y-133510555D01*
X147294868Y-133433136D01*
X147365226Y-133355568D01*
X147435422Y-133277851D01*
X147505456Y-133199986D01*
X147575329Y-133121974D01*
X147645039Y-133043813D01*
X147714587Y-132965505D01*
X147783971Y-132887049D01*
X147853192Y-132808447D01*
X147922248Y-132729697D01*
X147991141Y-132650801D01*
X148059869Y-132571758D01*
X148128431Y-132492569D01*
X148196829Y-132413234D01*
X148265060Y-132333752D01*
X148333125Y-132254126D01*
X148401024Y-132174353D01*
X148468756Y-132094436D01*
X148536320Y-132014373D01*
X148603717Y-131934166D01*
X148670945Y-131853814D01*
X148738005Y-131773317D01*
X148804896Y-131692676D01*
X148871618Y-131611892D01*
X148938170Y-131530963D01*
X149004552Y-131449891D01*
X149070764Y-131368675D01*
X149136805Y-131287317D01*
X149202675Y-131205815D01*
X149268373Y-131124171D01*
X149333899Y-131042384D01*
X149399253Y-130960454D01*
X149464434Y-130878383D01*
X149529443Y-130796170D01*
X149594277Y-130713815D01*
X149658938Y-130631318D01*
X149723425Y-130548681D01*
X149787737Y-130465902D01*
X149851874Y-130382982D01*
X149915836Y-130299922D01*
X149979622Y-130216721D01*
X150043232Y-130133380D01*
X150106665Y-130049899D01*
X150169922Y-129966278D01*
X150233001Y-129882518D01*
X150295903Y-129798618D01*
X150358626Y-129714579D01*
X150421172Y-129630401D01*
X150483538Y-129546084D01*
X150545725Y-129461629D01*
X150607733Y-129377036D01*
X150669560Y-129292304D01*
X150731208Y-129207434D01*
X150792674Y-129122427D01*
X150853960Y-129037282D01*
X150915064Y-128952000D01*
X150975986Y-128866580D01*
X151036726Y-128781024D01*
X151097284Y-128695331D01*
X151157658Y-128609502D01*
X151217849Y-128523537D01*
X151277857Y-128437435D01*
X151337680Y-128351198D01*
X151397319Y-128264825D01*
X151456772Y-128178316D01*
X151516041Y-128091673D01*
X151575124Y-128004894D01*
X151634020Y-127917981D01*
X151692731Y-127830933D01*
X151751254Y-127743751D01*
X151809591Y-127656434D01*
X151867740Y-127568984D01*
X151925701Y-127481400D01*
X151983473Y-127393682D01*
X152041057Y-127305831D01*
X152098452Y-127217847D01*
X152155657Y-127129730D01*
X152212673Y-127041481D01*
X152269498Y-126953099D01*
X152326132Y-126864585D01*
X152382576Y-126775938D01*
X152438828Y-126687160D01*
X152494889Y-126598250D01*
X152550757Y-126509209D01*
X152606433Y-126420037D01*
X152661916Y-126330733D01*
X152717205Y-126241299D01*
X152772301Y-126151734D01*
X152827203Y-126062039D01*
X152881911Y-125972214D01*
X152936423Y-125882258D01*
X152990741Y-125792173D01*
X153044863Y-125701959D01*
X153098789Y-125611615D01*
X153152518Y-125521142D01*
X153206051Y-125430540D01*
X153259387Y-125339809D01*
X153312526Y-125248950D01*
X153365466Y-125157963D01*
X153418208Y-125066847D01*
X153470746Y-124975614D01*
X153523074Y-124884273D01*
X153575192Y-124792825D01*
X153627100Y-124701270D01*
X153678798Y-124609609D01*
X153730286Y-124517842D01*
X153781564Y-124425970D01*
X153832632Y-124333993D01*
X153883490Y-124241911D01*
X153934138Y-124149726D01*
X153984575Y-124057437D01*
X154034803Y-123965044D01*
X154084821Y-123872549D01*
X154134629Y-123779952D01*
X154184227Y-123687252D01*
X154233615Y-123594452D01*
X154282793Y-123501550D01*
X154331761Y-123408547D01*
X154380520Y-123315445D01*
X154429068Y-123222242D01*
X154477407Y-123128941D01*
X154525535Y-123035540D01*
X154573454Y-122942042D01*
X154621163Y-122848445D01*
X154668662Y-122754750D01*
X154715951Y-122660959D01*
X154763030Y-122567071D01*
X154809900Y-122473086D01*
X154856559Y-122379006D01*
X154903009Y-122284831D01*
X154949249Y-122190560D01*
X154995279Y-122096195D01*
X155041100Y-122001736D01*
X155086711Y-121907183D01*
X155132111Y-121812537D01*
X155177303Y-121717798D01*
X155222284Y-121622967D01*
X155267056Y-121528044D01*
X155311618Y-121433029D01*
X155355970Y-121337924D01*
X155400113Y-121242728D01*
X155444045Y-121147441D01*
X155487769Y-121052065D01*
X155531282Y-120956600D01*
X155574586Y-120861045D01*
X155617680Y-120765403D01*
X155660564Y-120669672D01*
X155703239Y-120573853D01*
X155745705Y-120477948D01*
X155787960Y-120381956D01*
X155830006Y-120285877D01*
X155871842Y-120189713D01*
X155913469Y-120093463D01*
X155954886Y-119997129D01*
X155996094Y-119900709D01*
X156037092Y-119804206D01*
X156077881Y-119707619D01*
X156118459Y-119610949D01*
X156158829Y-119514196D01*
X156198989Y-119417360D01*
X156238939Y-119320443D01*
X156278680Y-119223444D01*
X156318211Y-119126364D01*
X156357533Y-119029203D01*
X156396645Y-118931963D01*
X156435548Y-118834642D01*
X156474242Y-118737242D01*
X156512726Y-118639763D01*
X156551000Y-118542206D01*
X156589065Y-118444571D01*
X156626921Y-118346858D01*
X156664567Y-118249068D01*
X156702004Y-118151201D01*
X156739231Y-118053258D01*
X156776249Y-117955239D01*
X156813058Y-117857144D01*
X156849657Y-117758975D01*
X156886047Y-117660731D01*
X156922228Y-117562412D01*
X156958199Y-117464021D01*
X156993961Y-117365555D01*
X157029513Y-117267017D01*
X157064857Y-117168407D01*
X157099991Y-117069725D01*
X157134915Y-116970971D01*
X157169630Y-116872146D01*
X157204137Y-116773250D01*
X157238433Y-116674284D01*
X157272521Y-116575249D01*
X157306399Y-116476144D01*
X157340068Y-116376970D01*
X157373528Y-116277727D01*
X157406779Y-116178417D01*
X157439820Y-116079039D01*
X157472652Y-115979593D01*
X157505275Y-115880081D01*
X157537689Y-115780503D01*
X157569894Y-115680858D01*
X157601889Y-115581149D01*
X157633675Y-115481374D01*
X157665252Y-115381534D01*
X157696620Y-115281631D01*
X157727779Y-115181664D01*
X157758729Y-115081633D01*
X157789470Y-114981539D01*
X157820001Y-114881384D01*
X157850324Y-114781166D01*
X157880437Y-114680886D01*
X157910341Y-114580546D01*
X157940037Y-114480144D01*
X157969523Y-114379683D01*
X157998800Y-114279161D01*
X158027868Y-114178581D01*
X158056727Y-114077941D01*
X158085377Y-113977243D01*
X158113818Y-113876486D01*
X158142050Y-113775672D01*
X158170073Y-113674801D01*
X158197887Y-113573873D01*
X158225492Y-113472889D01*
X158252888Y-113371849D01*
X158280076Y-113270753D01*
X158307054Y-113169602D01*
X158333823Y-113068397D01*
X158360384Y-112967137D01*
X158386735Y-112865824D01*
X158412878Y-112764457D01*
X158438811Y-112663037D01*
X158464536Y-112561565D01*
X158490052Y-112460041D01*
X158515359Y-112358466D01*
X158540457Y-112256839D01*
X158565347Y-112155161D01*
X158590027Y-112053433D01*
X158614499Y-111951656D01*
X158638762Y-111849829D01*
X158662816Y-111747953D01*
X158686661Y-111646028D01*
X158710297Y-111544055D01*
X158733725Y-111442035D01*
X158756944Y-111339967D01*
X158779954Y-111237853D01*
X158802755Y-111135692D01*
X158825348Y-111033485D01*
X158847732Y-110931233D01*
X158869907Y-110828935D01*
X158891873Y-110726593D01*
X158913631Y-110624207D01*
X158935180Y-110521777D01*
X158956520Y-110419303D01*
X158977652Y-110316787D01*
X158998575Y-110214228D01*
X159019289Y-110111627D01*
X159039795Y-110008985D01*
X159060092Y-109906301D01*
X159080180Y-109803577D01*
X159100060Y-109700812D01*
X159119731Y-109598007D01*
X159139194Y-109495163D01*
X159158448Y-109392280D01*
X159177493Y-109289359D01*
X159196330Y-109186399D01*
X159214958Y-109083401D01*
X159233377Y-108980367D01*
X159251589Y-108877295D01*
X159269591Y-108774187D01*
X159287385Y-108671043D01*
X159304971Y-108567863D01*
X159322348Y-108464649D01*
X159339516Y-108361399D01*
X159356476Y-108258116D01*
X159373227Y-108154798D01*
X159389771Y-108051448D01*
X159406105Y-107948064D01*
X159422231Y-107844648D01*
X159438149Y-107741200D01*
X159453858Y-107637720D01*
X159469359Y-107534208D01*
X159484651Y-107430667D01*
X159499735Y-107327094D01*
X159514611Y-107223492D01*
X159529278Y-107119861D01*
X159543736Y-107016200D01*
X159557987Y-106912511D01*
X159572029Y-106808793D01*
X159585863Y-106705048D01*
X159599488Y-106601276D01*
X159612905Y-106497476D01*
X159626114Y-106393650D01*
X159639114Y-106289799D01*
X159651906Y-106185921D01*
X159664490Y-106082019D01*
X159676865Y-105978092D01*
X159689032Y-105874140D01*
X159700991Y-105770165D01*
X159712742Y-105666166D01*
X159724284Y-105562144D01*
X159735618Y-105458100D01*
X159746744Y-105354034D01*
X159757662Y-105249946D01*
X159768371Y-105145837D01*
X159778873Y-105041707D01*
X159789166Y-104937556D01*
X159799251Y-104833386D01*
X159809127Y-104729196D01*
X159818796Y-104624987D01*
X159828256Y-104520760D01*
X159837508Y-104416514D01*
X159846553Y-104312251D01*
X159855388Y-104207970D01*
X159864016Y-104103672D01*
X159872436Y-103999358D01*
X159880648Y-103895028D01*
X159888651Y-103790682D01*
X159896447Y-103686321D01*
X159904034Y-103581945D01*
X159911413Y-103477555D01*
X159918585Y-103373151D01*
X159925548Y-103268734D01*
X159932303Y-103164304D01*
X159938850Y-103059861D01*
X159945189Y-102955406D01*
X159951320Y-102850939D01*
X159957243Y-102746461D01*
X159962958Y-102641973D01*
X159966386Y-102542224D01*
X159965923Y-102443292D01*
X159961642Y-102345250D01*
X159953610Y-102248173D01*
X159941899Y-102152133D01*
X159926578Y-102057206D01*
X159907716Y-101963463D01*
X159885385Y-101870980D01*
X159859653Y-101779830D01*
X159830590Y-101690086D01*
X159798267Y-101601823D01*
X159762753Y-101515114D01*
X159724117Y-101430032D01*
X159682431Y-101346652D01*
X159637763Y-101265047D01*
X159590184Y-101185292D01*
X159539763Y-101107458D01*
X159486570Y-101031622D01*
X159430675Y-100957855D01*
X159372148Y-100886232D01*
X159311059Y-100816827D01*
X159247477Y-100749713D01*
X159181473Y-100684964D01*
X159113116Y-100622654D01*
X159042476Y-100562856D01*
X158969624Y-100505645D01*
X158894627Y-100451093D01*
X158817558Y-100399275D01*
X158738485Y-100350265D01*
X158657478Y-100304136D01*
X158574608Y-100260961D01*
X158489944Y-100220815D01*
X158403555Y-100183772D01*
X158315512Y-100149904D01*
X158225885Y-100119286D01*
X158134743Y-100091992D01*
X158042156Y-100068094D01*
X157948195Y-100047668D01*
X157852928Y-100030786D01*
X157756426Y-100017523D01*
X157658759Y-100007952D01*
X157559997Y-100002146D01*
X157460208Y-100000181D01*
X126042667Y-100000181D01*
X126042323Y-99896157D01*
X126041294Y-99792182D01*
X126039580Y-99688258D01*
X126037182Y-99584388D01*
X126034102Y-99480577D01*
X126030342Y-99376826D01*
X126025903Y-99273141D01*
X126020786Y-99169523D01*
X126014992Y-99065977D01*
X126008524Y-98962506D01*
X126001382Y-98859113D01*
X125993567Y-98755802D01*
X125985082Y-98652575D01*
X125975927Y-98549436D01*
X125966104Y-98446390D01*
X125955614Y-98343438D01*
X125944459Y-98240584D01*
X125932640Y-98137832D01*
X125920159Y-98035186D01*
X125907016Y-97932647D01*
X125893213Y-97830221D01*
X125878752Y-97727909D01*
X125863634Y-97625716D01*
X125847860Y-97523645D01*
X125831431Y-97421699D01*
X125814350Y-97319882D01*
X125796618Y-97218197D01*
X125778235Y-97116647D01*
X125759203Y-97015235D01*
X125739524Y-96913966D01*
X125719199Y-96812842D01*
X125698229Y-96711867D01*
X125676616Y-96611044D01*
X125654361Y-96510377D01*
X125631466Y-96409868D01*
X125607931Y-96309522D01*
X125583759Y-96209341D01*
X125558950Y-96109329D01*
X125533507Y-96009489D01*
X125507430Y-95909825D01*
X125480720Y-95810340D01*
X125453380Y-95711038D01*
X125425411Y-95611921D01*
X125396813Y-95512993D01*
X125367589Y-95414258D01*
X125337739Y-95315719D01*
X125307265Y-95217379D01*
X125276169Y-95119241D01*
X125244452Y-95021310D01*
X125212115Y-94923587D01*
X125179159Y-94826078D01*
X125145587Y-94728784D01*
X125111399Y-94631710D01*
X125076596Y-94534858D01*
X125041181Y-94438232D01*
X125005155Y-94341836D01*
X124968518Y-94245673D01*
X124931272Y-94149746D01*
X124893419Y-94054059D01*
X124854960Y-93958614D01*
X124815897Y-93863416D01*
X124776230Y-93768467D01*
X124735962Y-93673772D01*
X124695093Y-93579333D01*
X124653625Y-93485153D01*
X124611560Y-93391237D01*
X124568898Y-93297587D01*
X124525641Y-93204206D01*
X124481791Y-93111099D01*
X124437348Y-93018269D01*
X124392315Y-92925718D01*
X124346692Y-92833451D01*
X124300482Y-92741470D01*
X124253684Y-92649780D01*
X124206302Y-92558382D01*
X124158335Y-92467282D01*
X124109787Y-92376481D01*
X124060657Y-92285984D01*
X124010947Y-92195794D01*
X123960659Y-92105914D01*
X123909794Y-92016347D01*
X123858354Y-91927097D01*
X123806339Y-91838168D01*
X123753751Y-91749562D01*
X123700593Y-91661283D01*
X123646864Y-91573334D01*
X123592566Y-91485720D01*
X123537701Y-91398442D01*
X123482270Y-91311504D01*
X123426275Y-91224911D01*
X123369716Y-91138664D01*
X123312596Y-91052768D01*
X123254916Y-90967226D01*
X123196676Y-90882041D01*
X123137879Y-90797217D01*
X123078525Y-90712757D01*
X123018617Y-90628664D01*
X122958155Y-90544942D01*
X122897142Y-90461594D01*
X122835577Y-90378623D01*
X122773463Y-90296033D01*
X122710801Y-90213827D01*
X122647593Y-90132008D01*
X122583840Y-90050581D01*
X122519542Y-89969548D01*
X122454702Y-89888912D01*
X122389322Y-89808677D01*
X122323401Y-89728847D01*
X122256943Y-89649424D01*
X122189947Y-89570412D01*
X122122416Y-89491815D01*
X122054351Y-89413635D01*
X121985753Y-89335877D01*
X121916623Y-89258543D01*
X121846964Y-89181637D01*
X121776776Y-89105162D01*
X121706061Y-89029121D01*
X121634820Y-88953519D01*
X121563054Y-88878358D01*
X121490766Y-88803641D01*
X121417956Y-88729373D01*
X121344625Y-88655556D01*
X121269547Y-88581121D01*
X121193916Y-88507409D01*
X121117739Y-88434412D01*
X121041024Y-88362121D01*
X120963781Y-88290529D01*
X120886017Y-88219628D01*
X120807740Y-88149409D01*
X120728957Y-88079864D01*
X120649679Y-88010986D01*
X120569912Y-87942767D01*
X120489664Y-87875198D01*
X120408944Y-87808271D01*
X120327760Y-87741979D01*
X120246120Y-87676313D01*
X120164031Y-87611266D01*
X120081504Y-87546829D01*
X119998544Y-87482994D01*
X119915161Y-87419754D01*
X119831362Y-87357100D01*
X119747156Y-87295024D01*
X119662551Y-87233518D01*
X119577554Y-87172575D01*
X119492175Y-87112186D01*
X119406421Y-87052343D01*
X119320300Y-86993038D01*
X119233821Y-86934264D01*
X119146991Y-86876012D01*
X119059818Y-86818273D01*
X118972311Y-86761041D01*
X118884479Y-86704307D01*
X118796328Y-86648063D01*
X118707867Y-86592301D01*
X118619105Y-86537013D01*
X118530049Y-86482192D01*
X118440707Y-86427828D01*
X118351088Y-86373914D01*
X118261200Y-86320442D01*
X118171050Y-86267404D01*
X118080648Y-86214792D01*
X117990000Y-86162598D01*
X133727166Y-58904556D01*
X133775337Y-58817172D01*
X133819671Y-58728758D01*
X133860199Y-58639410D01*
X133896948Y-58549226D01*
X133929948Y-58458303D01*
X133959228Y-58366738D01*
X133984816Y-58274629D01*
X134006741Y-58182072D01*
X134025033Y-58089166D01*
X134039720Y-57996007D01*
X134050831Y-57902692D01*
X134058395Y-57809320D01*
X134062440Y-57715987D01*
X134062997Y-57622790D01*
X134060093Y-57529827D01*
X134053758Y-57437195D01*
X134044020Y-57344992D01*
X134030909Y-57253314D01*
X134014453Y-57162259D01*
X133994681Y-57071925D01*
X133971622Y-56982408D01*
X133945305Y-56893806D01*
X133915759Y-56806215D01*
X133883012Y-56719735D01*
X133847094Y-56634460D01*
X133808034Y-56550490D01*
X133765860Y-56467921D01*
X133720602Y-56386850D01*
X133672287Y-56307376D01*
X133620946Y-56229594D01*
X133566607Y-56153603D01*
X133509298Y-56079499D01*
X133449050Y-56007380D01*
X133385890Y-55937343D01*
X133319847Y-55869486D01*
X133250951Y-55803906D01*
X133179231Y-55740699D01*
X133104714Y-55679964D01*
X133027431Y-55621798D01*
X132947410Y-55566297D01*
X132864680Y-55513560D01*
X132779270Y-55463683D01*
X132691208Y-55416764D01*
X132597626Y-55369360D01*
X132503949Y-55322143D01*
X132410177Y-55275114D01*
X132316310Y-55228273D01*
X132222350Y-55181620D01*
X132128295Y-55135156D01*
X132034148Y-55088880D01*
X131939907Y-55042792D01*
X131845574Y-54996894D01*
X131751149Y-54951185D01*
X131656632Y-54905666D01*
X131562023Y-54860336D01*
X131467324Y-54815196D01*
X131372533Y-54770245D01*
X131277653Y-54725486D01*
X131182683Y-54680916D01*
X131087623Y-54636537D01*
X130992474Y-54592350D01*
X130897236Y-54548353D01*
X130801910Y-54504547D01*
X130706496Y-54460933D01*
X130610994Y-54417511D01*
X130515405Y-54374281D01*
X130419730Y-54331242D01*
X130323968Y-54288396D01*
X130228119Y-54245743D01*
X130132185Y-54203282D01*
X130036166Y-54161015D01*
X129940062Y-54118940D01*
X129843873Y-54077059D01*
X129747600Y-54035372D01*
X129651243Y-53993878D01*
X129554803Y-53952578D01*
X129458280Y-53911473D01*
X129361674Y-53870562D01*
X129264986Y-53829846D01*
X129168216Y-53789324D01*
X129071364Y-53748998D01*
X128974431Y-53708866D01*
X128877418Y-53668931D01*
X128780324Y-53629191D01*
X128683150Y-53589647D01*
X128585897Y-53550299D01*
X128488564Y-53511147D01*
X128391153Y-53472192D01*
X128293663Y-53433433D01*
X128196094Y-53394872D01*
X128098449Y-53356508D01*
X128000725Y-53318341D01*
X127902925Y-53280371D01*
X127805049Y-53242600D01*
X127707096Y-53205026D01*
X127609067Y-53167651D01*
X127510963Y-53130474D01*
X127412784Y-53093495D01*
X127314530Y-53056716D01*
X127216202Y-53020135D01*
X127117800Y-52983754D01*
X127019324Y-52947572D01*
X126920776Y-52911590D01*
X126822154Y-52875808D01*
X126723460Y-52840226D01*
X126624695Y-52804844D01*
X126525857Y-52769662D01*
X126426948Y-52734682D01*
X126327969Y-52699902D01*
X126228919Y-52665323D01*
X126129799Y-52630946D01*
X126030609Y-52596771D01*
X125931349Y-52562797D01*
X125832021Y-52529025D01*
X125732625Y-52495455D01*
X125633160Y-52462088D01*
X125533627Y-52428923D01*
X125434027Y-52395961D01*
X125334359Y-52363202D01*
X125234625Y-52330646D01*
X125134825Y-52298294D01*
X125034959Y-52266145D01*
X124935027Y-52234201D01*
X124835030Y-52202460D01*
X124734969Y-52170923D01*
X124634843Y-52139592D01*
X124534653Y-52108464D01*
X124434399Y-52077542D01*
X124334082Y-52046825D01*
X124233702Y-52016313D01*
X124133260Y-51986007D01*
X124032755Y-51955906D01*
X123932189Y-51926011D01*
X123831562Y-51896323D01*
X123730873Y-51866841D01*
X123630124Y-51837565D01*
X123529315Y-51808496D01*
X123428446Y-51779635D01*
X123327517Y-51750980D01*
X123226530Y-51722533D01*
X123125483Y-51694293D01*
X123024379Y-51666262D01*
X122923216Y-51638438D01*
X122821996Y-51610823D01*
X122720719Y-51583416D01*
X122619385Y-51556218D01*
X122517994Y-51529228D01*
X122416548Y-51502448D01*
X122315046Y-51475877D01*
X122213488Y-51449516D01*
X122111876Y-51423364D01*
X122010209Y-51397422D01*
X121908488Y-51371691D01*
X121806714Y-51346169D01*
X121704886Y-51320859D01*
X121603005Y-51295759D01*
X121501071Y-51270870D01*
X121399085Y-51246192D01*
X121297048Y-51221726D01*
X121194958Y-51197471D01*
X121092818Y-51173428D01*
X120990627Y-51149597D01*
X120888386Y-51125978D01*
X120786095Y-51102572D01*
X120683754Y-51079379D01*
X120581365Y-51056398D01*
X120478926Y-51033630D01*
X120376439Y-51011076D01*
X120273904Y-50988735D01*
X120171321Y-50966608D01*
X120068691Y-50944695D01*
X119966014Y-50922996D01*
X119863290Y-50901511D01*
X119760521Y-50880240D01*
X119657706Y-50859185D01*
X119554845Y-50838344D01*
X119451939Y-50817719D01*
X119348989Y-50797309D01*
X119245994Y-50777115D01*
X119142956Y-50757136D01*
X119039874Y-50737373D01*
X118936749Y-50717827D01*
X118833581Y-50698497D01*
X118730371Y-50679384D01*
X118627120Y-50660487D01*
X118523826Y-50641808D01*
X118420491Y-50623346D01*
X118317116Y-50605101D01*
X118213700Y-50587074D01*
X118110244Y-50569265D01*
X118006748Y-50551674D01*
X117903213Y-50534301D01*
X117799640Y-50517147D01*
X117696027Y-50500211D01*
X117592377Y-50483495D01*
X117488689Y-50466998D01*
X117384963Y-50450720D01*
X117281200Y-50434661D01*
X117177401Y-50418822D01*
X117073566Y-50403204D01*
X116969694Y-50387805D01*
X116865787Y-50372627D01*
X116761846Y-50357670D01*
X116657869Y-50342933D01*
X116553858Y-50328417D01*
X116449813Y-50314123D01*
X116345735Y-50300050D01*
X116241623Y-50286199D01*
X116137478Y-50272569D01*
X116033301Y-50259162D01*
X115929092Y-50245977D01*
X115824852Y-50233015D01*
X115720580Y-50220275D01*
X115616277Y-50207758D01*
X115511943Y-50195464D01*
X115407580Y-50183394D01*
X115303186Y-50171547D01*
X115198764Y-50159924D01*
X115094312Y-50148525D01*
X114989832Y-50137350D01*
X114885323Y-50126399D01*
X114780786Y-50115673D01*
X114676222Y-50105172D01*
X114571631Y-50094896D01*
X114467013Y-50084845D01*
X114362369Y-50075019D01*
X114257699Y-50065419D01*
X114153003Y-50056045D01*
X114048282Y-50046897D01*
X113943537Y-50037976D01*
X113838766Y-50029280D01*
X113733972Y-50020812D01*
X113629154Y-50012570D01*
X113524313Y-50004556D01*
X113419449Y-49996769D01*
X113314562Y-49989209D01*
X113209653Y-49981877D01*
X113104722Y-49974773D01*
X112999770Y-49967897D01*
X112894797Y-49961250D01*
X112789804Y-49954831D01*
X112684789Y-49948641D01*
X112579756Y-49942679D01*
X112474702Y-49936947D01*
X112369630Y-49931445D01*
X112264538Y-49926172D01*
X112159429Y-49921129D01*
X112054301Y-49916316D01*
X111949156Y-49911733D01*
X111843994Y-49907381D01*
X111738815Y-49903259D01*
X111633619Y-49899368D01*
X111528407Y-49895709D01*
X111423180Y-49892280D01*
X111317937Y-49889083D01*
X111212679Y-49886118D01*
X111107407Y-49883385D01*
X111002121Y-49880884D01*
X110896820Y-49878615D01*
X110791507Y-49876579D01*
X110686180Y-49874776D01*
X110580841Y-49873205D01*
X110475489Y-49871868D01*
X110370126Y-49870764D01*
X110370126Y-49870764D01*
G37*
X110370126Y-49870764D02*
X110267021Y-49869895D01*
X110163862Y-49869222D01*
X110060646Y-49868750D01*
X109957372Y-49868485D01*
X109854039Y-49868430D01*
X109750646Y-49868591D01*
X109647192Y-49868973D01*
X109543674Y-49869581D01*
X109440091Y-49870419D01*
X109336443Y-49871492D01*
X109232728Y-49872805D01*
X109128944Y-49874363D01*
X109025090Y-49876171D01*
X108921164Y-49878233D01*
X108817166Y-49880556D01*
X108711568Y-49883169D01*
X108605987Y-49886019D01*
X108500423Y-49889106D01*
X108394877Y-49892429D01*
X108289350Y-49895988D01*
X108183841Y-49899783D01*
X108078350Y-49903813D01*
X107972879Y-49908078D01*
X107867428Y-49912579D01*
X107761996Y-49917314D01*
X107656586Y-49922284D01*
X107551195Y-49927488D01*
X107445826Y-49932926D01*
X107340479Y-49938598D01*
X107235153Y-49944503D01*
X107129850Y-49950642D01*
X107024569Y-49957014D01*
X106919311Y-49963619D01*
X106814077Y-49970457D01*
X106708867Y-49977527D01*
X106603680Y-49984829D01*
X106498518Y-49992363D01*
X106393381Y-50000129D01*
X106288269Y-50008126D01*
X106183183Y-50016354D01*
X106078123Y-50024813D01*
X105973089Y-50033504D01*
X105868082Y-50042424D01*
X105763102Y-50051575D01*
X105658149Y-50060956D01*
X105553224Y-50070567D01*
X105448328Y-50080407D01*
X105343460Y-50090476D01*
X105238621Y-50100775D01*
X105133811Y-50111302D01*
X105029031Y-50122058D01*
X104924281Y-50133043D01*
X104819562Y-50144255D01*
X104714874Y-50155695D01*
X104610216Y-50167363D01*
X104505590Y-50179259D01*
X104400997Y-50191381D01*
X104296435Y-50203731D01*
X104191906Y-50216307D01*
X104087410Y-50229109D01*
X103982948Y-50242138D01*
X103878519Y-50255393D01*
X103774125Y-50268874D01*
X103669765Y-50282580D01*
X103565440Y-50296511D01*
X103461151Y-50310667D01*
X103356897Y-50325048D01*
X103252679Y-50339654D01*
X103148497Y-50354484D01*
X103044353Y-50369538D01*
X102940245Y-50384816D01*
X102836175Y-50400317D01*
X102732143Y-50416042D01*
X102628149Y-50431990D01*
X102524194Y-50448161D01*
X102420278Y-50464554D01*
X102316401Y-50481170D01*
X102212564Y-50498008D01*
X102108767Y-50515068D01*
X102005011Y-50532349D01*
X101901295Y-50549852D01*
X101797621Y-50567576D01*
X101693988Y-50585522D01*
X101590398Y-50603688D01*
X101486849Y-50622074D01*
X101383344Y-50640681D01*
X101279881Y-50659507D01*
X101176462Y-50678554D01*
X101073087Y-50697820D01*
X100969756Y-50717305D01*
X100866470Y-50737010D01*
X100763229Y-50756933D01*
X100660033Y-50777075D01*
X100556883Y-50797435D01*
X100453779Y-50818013D01*
X100350721Y-50838809D01*
X100247710Y-50859823D01*
X100144747Y-50881054D01*
X100041831Y-50902503D01*
X99938963Y-50924168D01*
X99836143Y-50946050D01*
X99733372Y-50968148D01*
X99630650Y-50990463D01*
X99527977Y-51012994D01*
X99425354Y-51035740D01*
X99322782Y-51058702D01*
X99220260Y-51081879D01*
X99117789Y-51105271D01*
X99015369Y-51128878D01*
X98913001Y-51152699D01*
X98810685Y-51176735D01*
X98708422Y-51200985D01*
X98606211Y-51225449D01*
X98504053Y-51250126D01*
X98401949Y-51275016D01*
X98299899Y-51300120D01*
X98197903Y-51325437D01*
X98095962Y-51350966D01*
X97994075Y-51376707D01*
X97892245Y-51402661D01*
X97790470Y-51428827D01*
X97688751Y-51455204D01*
X97587088Y-51481793D01*
X97485483Y-51508593D01*
X97383935Y-51535604D01*
X97282444Y-51562826D01*
X97181011Y-51590258D01*
X97079637Y-51617901D01*
X96978322Y-51645753D01*
X96877065Y-51673815D01*
X96775869Y-51702087D01*
X96674732Y-51730568D01*
X96573655Y-51759258D01*
X96472639Y-51788157D01*
X96371684Y-51817265D01*
X96270790Y-51846581D01*
X96169958Y-51876105D01*
X96069188Y-51905837D01*
X95968480Y-51935777D01*
X95867836Y-51965924D01*
X95767254Y-51996278D01*
X95666736Y-52026839D01*
X95566283Y-52057607D01*
X95465893Y-52088581D01*
X95365568Y-52119761D01*
X95265309Y-52151148D01*
X95165114Y-52182740D01*
X95064986Y-52214537D01*
X94964924Y-52246540D01*
X94864928Y-52278748D01*
X94764999Y-52311161D01*
X94665138Y-52343778D01*
X94565344Y-52376599D01*
X94465618Y-52409625D01*
X94365961Y-52442854D01*
X94266373Y-52476287D01*
X94166853Y-52509923D01*
X94067404Y-52543763D01*
X93968024Y-52577805D01*
X93868714Y-52612050D01*
X93769476Y-52646498D01*
X93670308Y-52681147D01*
X93571211Y-52715998D01*
X93472187Y-52751052D01*
X93373234Y-52786306D01*
X93274354Y-52821762D01*
X93175547Y-52857419D01*
X93076814Y-52893276D01*
X92978153Y-52929334D01*
X92879567Y-52965592D01*
X92781056Y-53002050D01*
X92682619Y-53038708D01*
X92584257Y-53075566D01*
X92485971Y-53112623D01*
X92387760Y-53149879D01*
X92289626Y-53187334D01*
X92191569Y-53224987D01*
X92093588Y-53262839D01*
X91995685Y-53300888D01*
X91897859Y-53339136D01*
X91800112Y-53377581D01*
X91702443Y-53416224D01*
X91604853Y-53455064D01*
X91507342Y-53494101D01*
X91409911Y-53533334D01*
X91312560Y-53572764D01*
X91215289Y-53612390D01*
X91118099Y-53652212D01*
X91020990Y-53692230D01*
X90923963Y-53732443D01*
X90827017Y-53772852D01*
X90730153Y-53813455D01*
X90633372Y-53854254D01*
X90536674Y-53895247D01*
X90440060Y-53936434D01*
X90343529Y-53977815D01*
X90247082Y-54019390D01*
X90150719Y-54061159D01*
X90054442Y-54103121D01*
X89958249Y-54145276D01*
X89862143Y-54187624D01*
X89766122Y-54230165D01*
X89670187Y-54272898D01*
X89574339Y-54315823D01*
X89478578Y-54358940D01*
X89382904Y-54402249D01*
X89287319Y-54445749D01*
X89191821Y-54489440D01*
X89096412Y-54533323D01*
X89001092Y-54577396D01*
X88905861Y-54621659D01*
X88810720Y-54666113D01*
X88715669Y-54710757D01*
X88620708Y-54755591D01*
X88525838Y-54800614D01*
X88431060Y-54845827D01*
X88336372Y-54891228D01*
X88241777Y-54936819D01*
X88147274Y-54982598D01*
X88052863Y-55028565D01*
X87958546Y-55074720D01*
X87864321Y-55121064D01*
X87770191Y-55167595D01*
X87676155Y-55214313D01*
X87582213Y-55261219D01*
X87488366Y-55308311D01*
X87394615Y-55355590D01*
X87300958Y-55403056D01*
X87212897Y-55449975D01*
X87127487Y-55499852D01*
X87044757Y-55552589D01*
X86964735Y-55608090D01*
X86887452Y-55666256D01*
X86812936Y-55726991D01*
X86741215Y-55790197D01*
X86672320Y-55855778D01*
X86606277Y-55923635D01*
X86543117Y-55993672D01*
X86482869Y-56065791D01*
X86425560Y-56139894D01*
X86371221Y-56215886D01*
X86319880Y-56293667D01*
X86271565Y-56373142D01*
X86226306Y-56454213D01*
X86184133Y-56536782D01*
X86145072Y-56620752D01*
X86109154Y-56706026D01*
X86076408Y-56792507D01*
X86046862Y-56880097D01*
X86020545Y-56968700D01*
X85997486Y-57058217D01*
X85977714Y-57148551D01*
X85961258Y-57239606D01*
X85948146Y-57331284D01*
X85938409Y-57423487D01*
X85932073Y-57516119D01*
X85929170Y-57609082D01*
X85929726Y-57702278D01*
X85933772Y-57795611D01*
X85941336Y-57888984D01*
X85952447Y-57982298D01*
X85967134Y-58075457D01*
X85985426Y-58168364D01*
X86007351Y-58260920D01*
X86032939Y-58353030D01*
X86062219Y-58444595D01*
X86095219Y-58535518D01*
X86131968Y-58625702D01*
X86172495Y-58715050D01*
X86216830Y-58803464D01*
X86265000Y-58890847D01*
X102010000Y-86162598D01*
X101919353Y-86214792D01*
X101828950Y-86267404D01*
X101738801Y-86320442D01*
X101648912Y-86373914D01*
X101559293Y-86427828D01*
X101469952Y-86482192D01*
X101380896Y-86537014D01*
X101292133Y-86592301D01*
X101203673Y-86648063D01*
X101115522Y-86704307D01*
X101027689Y-86761041D01*
X100940182Y-86818274D01*
X100853010Y-86876012D01*
X100766180Y-86934264D01*
X100679701Y-86993039D01*
X100593580Y-87052343D01*
X100507825Y-87112186D01*
X100422446Y-87172575D01*
X100337450Y-87233519D01*
X100252845Y-87295024D01*
X100168639Y-87357100D01*
X100084840Y-87419754D01*
X100001457Y-87482994D01*
X99918497Y-87546829D01*
X99835969Y-87611266D01*
X99753881Y-87676314D01*
X99672241Y-87741979D01*
X99591057Y-87808272D01*
X99510337Y-87875198D01*
X99430089Y-87942767D01*
X99350322Y-88010987D01*
X99271043Y-88079865D01*
X99192261Y-88149409D01*
X99113984Y-88219628D01*
X99036219Y-88290530D01*
X98958976Y-88362122D01*
X98882262Y-88434412D01*
X98806085Y-88507409D01*
X98730453Y-88581121D01*
X98655375Y-88655556D01*
X98582045Y-88729373D01*
X98509235Y-88803641D01*
X98436946Y-88878358D01*
X98365181Y-88953519D01*
X98293939Y-89029121D01*
X98223224Y-89105162D01*
X98153036Y-89181637D01*
X98083377Y-89258543D01*
X98014248Y-89335877D01*
X97945650Y-89413635D01*
X97877584Y-89491815D01*
X97810053Y-89570412D01*
X97743058Y-89649424D01*
X97676599Y-89728847D01*
X97610678Y-89808677D01*
X97545297Y-89888912D01*
X97480458Y-89969548D01*
X97416160Y-90050581D01*
X97352407Y-90132009D01*
X97289198Y-90213827D01*
X97226537Y-90296033D01*
X97164423Y-90378623D01*
X97102858Y-90461594D01*
X97041844Y-90544942D01*
X96981383Y-90628664D01*
X96921474Y-90712757D01*
X96862121Y-90797218D01*
X96803324Y-90882042D01*
X96745084Y-90967227D01*
X96687403Y-91052769D01*
X96630283Y-91138665D01*
X96573725Y-91224911D01*
X96517729Y-91311505D01*
X96462299Y-91398442D01*
X96407434Y-91485720D01*
X96353136Y-91573335D01*
X96299407Y-91661283D01*
X96246248Y-91749562D01*
X96193661Y-91838168D01*
X96141646Y-91927098D01*
X96090206Y-92016347D01*
X96039341Y-92105914D01*
X95989053Y-92195794D01*
X95939343Y-92285985D01*
X95890213Y-92376482D01*
X95841664Y-92467282D01*
X95793698Y-92558383D01*
X95746315Y-92649780D01*
X95699518Y-92741471D01*
X95653308Y-92833452D01*
X95607685Y-92925719D01*
X95562652Y-93018269D01*
X95518209Y-93111100D01*
X95474359Y-93204207D01*
X95431102Y-93297587D01*
X95388440Y-93391237D01*
X95346375Y-93485153D01*
X95304907Y-93579333D01*
X95264038Y-93673772D01*
X95223769Y-93768468D01*
X95184103Y-93863416D01*
X95145039Y-93958615D01*
X95106581Y-94054059D01*
X95068728Y-94149747D01*
X95031482Y-94245674D01*
X94994845Y-94341837D01*
X94958819Y-94438233D01*
X94923403Y-94534858D01*
X94888601Y-94631710D01*
X94854413Y-94728784D01*
X94820841Y-94826078D01*
X94787885Y-94923588D01*
X94755548Y-95021310D01*
X94723831Y-95119242D01*
X94692735Y-95217379D01*
X94662261Y-95315719D01*
X94632411Y-95414259D01*
X94603187Y-95512994D01*
X94574589Y-95611921D01*
X94546620Y-95711038D01*
X94519280Y-95810341D01*
X94492570Y-95909826D01*
X94466493Y-96009489D01*
X94441050Y-96109329D01*
X94416241Y-96209341D01*
X94392069Y-96309522D01*
X94368534Y-96409868D01*
X94345639Y-96510377D01*
X94323384Y-96611044D01*
X94301771Y-96711867D01*
X94280801Y-96812842D01*
X94260476Y-96913966D01*
X94240797Y-97015236D01*
X94221766Y-97116647D01*
X94203383Y-97218197D01*
X94185650Y-97319882D01*
X94168569Y-97421699D01*
X94152141Y-97523645D01*
X94136367Y-97625716D01*
X94121249Y-97727909D01*
X94106787Y-97830221D01*
X94092985Y-97932647D01*
X94079842Y-98035186D01*
X94067360Y-98137832D01*
X94055541Y-98240584D01*
X94044386Y-98343438D01*
X94033896Y-98446390D01*
X94024073Y-98549437D01*
X94014919Y-98652575D01*
X94006433Y-98755802D01*
X93998619Y-98859113D01*
X93991477Y-98962506D01*
X93985008Y-99065977D01*
X93979215Y-99169523D01*
X93974098Y-99273141D01*
X93969658Y-99376826D01*
X93965898Y-99480577D01*
X93962819Y-99584388D01*
X93960421Y-99688258D01*
X93958707Y-99792182D01*
X93957677Y-99896157D01*
X93957334Y-100000181D01*
X62539792Y-100000181D01*
X62440004Y-100002146D01*
X62341241Y-100007952D01*
X62243574Y-100017523D01*
X62147072Y-100030786D01*
X62051805Y-100047668D01*
X61957844Y-100068094D01*
X61865257Y-100091992D01*
X61774116Y-100119286D01*
X61684488Y-100149904D01*
X61596445Y-100183772D01*
X61510057Y-100220815D01*
X61425392Y-100260961D01*
X61342522Y-100304136D01*
X61261515Y-100350265D01*
X61182442Y-100399276D01*
X61105373Y-100451094D01*
X61030377Y-100505645D01*
X60957524Y-100562857D01*
X60886884Y-100622654D01*
X60818527Y-100684964D01*
X60752523Y-100749713D01*
X60688941Y-100816827D01*
X60627852Y-100886232D01*
X60569325Y-100957855D01*
X60513430Y-101031622D01*
X60460238Y-101107459D01*
X60409817Y-101185292D01*
X60362237Y-101265048D01*
X60317570Y-101346653D01*
X60275883Y-101430033D01*
X60237248Y-101515114D01*
X60201734Y-101601824D01*
X60169410Y-101690087D01*
X60140348Y-101779830D01*
X60114616Y-101870981D01*
X60092284Y-101963464D01*
X60073423Y-102057206D01*
X60058102Y-102152134D01*
X60046390Y-102248173D01*
X60038359Y-102345250D01*
X60034077Y-102443292D01*
X60033615Y-102542224D01*
X60037042Y-102641973D01*
X60042757Y-102746461D01*
X60048680Y-102850939D01*
X60054811Y-102955406D01*
X60061150Y-103059861D01*
X60067698Y-103164304D01*
X60074453Y-103268734D01*
X60081416Y-103373151D01*
X60088587Y-103477555D01*
X60095966Y-103581945D01*
X60103554Y-103686321D01*
X60111349Y-103790682D01*
X60119353Y-103895028D01*
X60127564Y-103999358D01*
X60135984Y-104103672D01*
X60144612Y-104207970D01*
X60153448Y-104312251D01*
X60162492Y-104416514D01*
X60171744Y-104520760D01*
X60181205Y-104624987D01*
X60190873Y-104729196D01*
X60200750Y-104833386D01*
X60210835Y-104937556D01*
X60221128Y-105041707D01*
X60231629Y-105145837D01*
X60242339Y-105249946D01*
X60253256Y-105354034D01*
X60264382Y-105458100D01*
X60275716Y-105562144D01*
X60287259Y-105666166D01*
X60299009Y-105770165D01*
X60310968Y-105874140D01*
X60323136Y-105978092D01*
X60335511Y-106082019D01*
X60348095Y-106185921D01*
X60360887Y-106289799D01*
X60373887Y-106393650D01*
X60387096Y-106497476D01*
X60400513Y-106601276D01*
X60414138Y-106705048D01*
X60427972Y-106808793D01*
X60442014Y-106912511D01*
X60456264Y-107016200D01*
X60470723Y-107119861D01*
X60485390Y-107223492D01*
X60500266Y-107327094D01*
X60515350Y-107430667D01*
X60530642Y-107534208D01*
X60546143Y-107637720D01*
X60561852Y-107741200D01*
X60577770Y-107844648D01*
X60593896Y-107948064D01*
X60610230Y-108051448D01*
X60626773Y-108154798D01*
X60643525Y-108258116D01*
X60660485Y-108361399D01*
X60677653Y-108464649D01*
X60695030Y-108567863D01*
X60712616Y-108671043D01*
X60730410Y-108774187D01*
X60748412Y-108877295D01*
X60766623Y-108980367D01*
X60785043Y-109083401D01*
X60803671Y-109186399D01*
X60822508Y-109289359D01*
X60841553Y-109392280D01*
X60860807Y-109495163D01*
X60880270Y-109598007D01*
X60899941Y-109700812D01*
X60919821Y-109803577D01*
X60939909Y-109906301D01*
X60960206Y-110008985D01*
X60980712Y-110111627D01*
X61001426Y-110214228D01*
X61022349Y-110316787D01*
X61043481Y-110419303D01*
X61064821Y-110521777D01*
X61086370Y-110624207D01*
X61108128Y-110726593D01*
X61130094Y-110828935D01*
X61152269Y-110931233D01*
X61174653Y-111033485D01*
X61197246Y-111135692D01*
X61220047Y-111237853D01*
X61243057Y-111339967D01*
X61266276Y-111442035D01*
X61289704Y-111544055D01*
X61313340Y-111646028D01*
X61337186Y-111747953D01*
X61361240Y-111849829D01*
X61385502Y-111951656D01*
X61409974Y-112053433D01*
X61434655Y-112155161D01*
X61459544Y-112256839D01*
X61484642Y-112358466D01*
X61509949Y-112460041D01*
X61535465Y-112561565D01*
X61561190Y-112663037D01*
X61587124Y-112764457D01*
X61613266Y-112865824D01*
X61639618Y-112967137D01*
X61666178Y-113068397D01*
X61692947Y-113169602D01*
X61719926Y-113270753D01*
X61747113Y-113371849D01*
X61774509Y-113472889D01*
X61802114Y-113573873D01*
X61829928Y-113674801D01*
X61857951Y-113775672D01*
X61886183Y-113876486D01*
X61914624Y-113977243D01*
X61943274Y-114077941D01*
X61972133Y-114178581D01*
X62001201Y-114279161D01*
X62030479Y-114379683D01*
X62059965Y-114480144D01*
X62089660Y-114580546D01*
X62119564Y-114680886D01*
X62149678Y-114781166D01*
X62180000Y-114881384D01*
X62210532Y-114981539D01*
X62241272Y-115081633D01*
X62272222Y-115181664D01*
X62303381Y-115281631D01*
X62334749Y-115381534D01*
X62366326Y-115481374D01*
X62398112Y-115581149D01*
X62430108Y-115680858D01*
X62462312Y-115780503D01*
X62494726Y-115880081D01*
X62527349Y-115979593D01*
X62560181Y-116079039D01*
X62593223Y-116178417D01*
X62626473Y-116277727D01*
X62659933Y-116376970D01*
X62693602Y-116476144D01*
X62727480Y-116575249D01*
X62761568Y-116674284D01*
X62795865Y-116773250D01*
X62830371Y-116872146D01*
X62865086Y-116970971D01*
X62900011Y-117069725D01*
X62935145Y-117168407D01*
X62970488Y-117267017D01*
X63006041Y-117365555D01*
X63041802Y-117464021D01*
X63077774Y-117562412D01*
X63113954Y-117660731D01*
X63150344Y-117758975D01*
X63186943Y-117857144D01*
X63223752Y-117955239D01*
X63260770Y-118053258D01*
X63297997Y-118151201D01*
X63335434Y-118249068D01*
X63373080Y-118346858D01*
X63410936Y-118444571D01*
X63449001Y-118542206D01*
X63487276Y-118639763D01*
X63525760Y-118737242D01*
X63564453Y-118834642D01*
X63603356Y-118931963D01*
X63642468Y-119029203D01*
X63681790Y-119126364D01*
X63721321Y-119223444D01*
X63761062Y-119320443D01*
X63801013Y-119417360D01*
X63841172Y-119514196D01*
X63881542Y-119610949D01*
X63922121Y-119707619D01*
X63962909Y-119804206D01*
X64003907Y-119900709D01*
X64045115Y-119997129D01*
X64086532Y-120093463D01*
X64128159Y-120189713D01*
X64169995Y-120285877D01*
X64212041Y-120381956D01*
X64254297Y-120477948D01*
X64296762Y-120573853D01*
X64339437Y-120669672D01*
X64382321Y-120765403D01*
X64425415Y-120861045D01*
X64468719Y-120956600D01*
X64512233Y-121052065D01*
X64555956Y-121147441D01*
X64599889Y-121242728D01*
X64644031Y-121337924D01*
X64688383Y-121433029D01*
X64732945Y-121528044D01*
X64777717Y-121622967D01*
X64822698Y-121717798D01*
X64867890Y-121812537D01*
X64913290Y-121907183D01*
X64958901Y-122001736D01*
X65004722Y-122096195D01*
X65050752Y-122190560D01*
X65096992Y-122284831D01*
X65143442Y-122379006D01*
X65190101Y-122473086D01*
X65236971Y-122567071D01*
X65284050Y-122660959D01*
X65331339Y-122754750D01*
X65378838Y-122848445D01*
X65426547Y-122942042D01*
X65474466Y-123035540D01*
X65522594Y-123128941D01*
X65570933Y-123222242D01*
X65619481Y-123315445D01*
X65668239Y-123408547D01*
X65717207Y-123501550D01*
X65766386Y-123594452D01*
X65815774Y-123687252D01*
X65865371Y-123779952D01*
X65915179Y-123872549D01*
X65965197Y-123965044D01*
X66015425Y-124057437D01*
X66065863Y-124149726D01*
X66116511Y-124241911D01*
X66167369Y-124333993D01*
X66218436Y-124425970D01*
X66269714Y-124517842D01*
X66321202Y-124609609D01*
X66372900Y-124701270D01*
X66424808Y-124792825D01*
X66476926Y-124884273D01*
X66529254Y-124975614D01*
X66581792Y-125066847D01*
X66634534Y-125157963D01*
X66687475Y-125248950D01*
X66740613Y-125339809D01*
X66793949Y-125430540D01*
X66847482Y-125521142D01*
X66901211Y-125611615D01*
X66955137Y-125701959D01*
X67009259Y-125792173D01*
X67063577Y-125882258D01*
X67118090Y-125972213D01*
X67172797Y-126062039D01*
X67227699Y-126151734D01*
X67282795Y-126241299D01*
X67338085Y-126330733D01*
X67393568Y-126420036D01*
X67449243Y-126509209D01*
X67505112Y-126598250D01*
X67561172Y-126687160D01*
X67617424Y-126775938D01*
X67673868Y-126864584D01*
X67730503Y-126953099D01*
X67787328Y-127041481D01*
X67844343Y-127129730D01*
X67901549Y-127217847D01*
X67958943Y-127305831D01*
X68016527Y-127393682D01*
X68074300Y-127481400D01*
X68132261Y-127568984D01*
X68190410Y-127656434D01*
X68248746Y-127743750D01*
X68307270Y-127830933D01*
X68365980Y-127917981D01*
X68424877Y-128004894D01*
X68483960Y-128091672D01*
X68543228Y-128178316D01*
X68602682Y-128264824D01*
X68662321Y-128351197D01*
X68722144Y-128437435D01*
X68782151Y-128523536D01*
X68842342Y-128609502D01*
X68902717Y-128695331D01*
X68963274Y-128781024D01*
X69024014Y-128866580D01*
X69084937Y-128951999D01*
X69146041Y-129037281D01*
X69207326Y-129122426D01*
X69268793Y-129207434D01*
X69330440Y-129292303D01*
X69392268Y-129377035D01*
X69454276Y-129461629D01*
X69516463Y-129546084D01*
X69578829Y-129630401D01*
X69641374Y-129714579D01*
X69704098Y-129798618D01*
X69766999Y-129882517D01*
X69830079Y-129966278D01*
X69893335Y-130049899D01*
X69956768Y-130133380D01*
X70020378Y-130216721D01*
X70084164Y-130299921D01*
X70148126Y-130382982D01*
X70212263Y-130465901D01*
X70276575Y-130548680D01*
X70341062Y-130631318D01*
X70405723Y-130713814D01*
X70470558Y-130796169D01*
X70535566Y-130878383D01*
X70600747Y-130960454D01*
X70666101Y-131042383D01*
X70731628Y-131124170D01*
X70797326Y-131205815D01*
X70863196Y-131287316D01*
X70929237Y-131368675D01*
X70995448Y-131449890D01*
X71061830Y-131530963D01*
X71128383Y-131611891D01*
X71195104Y-131692676D01*
X71261996Y-131773317D01*
X71329055Y-131853813D01*
X71396284Y-131934165D01*
X71463680Y-132014373D01*
X71531245Y-132094435D01*
X71598976Y-132174353D01*
X71666875Y-132254125D01*
X71734940Y-132333752D01*
X71803172Y-132413233D01*
X71871569Y-132492568D01*
X71940132Y-132571758D01*
X72008860Y-132650800D01*
X72077752Y-132729697D01*
X72146809Y-132808446D01*
X72216029Y-132887049D01*
X72285414Y-132965504D01*
X72354961Y-133043813D01*
X72424671Y-133121973D01*
X72494544Y-133199986D01*
X72564578Y-133277851D01*
X72634775Y-133355567D01*
X72705132Y-133433135D01*
X72775651Y-133510555D01*
X72846329Y-133587826D01*
X72917168Y-133664947D01*
X72988167Y-133741920D01*
X73059325Y-133818743D01*
X73130642Y-133895416D01*
X73202118Y-133971939D01*
X73273751Y-134048313D01*
X73345543Y-134124536D01*
X73417492Y-134200608D01*
X73489598Y-134276530D01*
X73561861Y-134352301D01*
X73634280Y-134427921D01*
X73706855Y-134503389D01*
X73779586Y-134578706D01*
X73852471Y-134653871D01*
X73925512Y-134728884D01*
X73998707Y-134803745D01*
X74072056Y-134878454D01*
X74145558Y-134953009D01*
X74219214Y-135027413D01*
X74293023Y-135101663D01*
X74366984Y-135175759D01*
X74441097Y-135249703D01*
X74515362Y-135323493D01*
X74589778Y-135397128D01*
X74664345Y-135470610D01*
X74739063Y-135543938D01*
X74813931Y-135617111D01*
X74888949Y-135690129D01*
X74964116Y-135762992D01*
X75039432Y-135835701D01*
X75114897Y-135908254D01*
X75190511Y-135980651D01*
X75266272Y-136052893D01*
X75342181Y-136124978D01*
X75418236Y-136196908D01*
X75494439Y-136268681D01*
X75570788Y-136340297D01*
X75647283Y-136411757D01*
X75723924Y-136483060D01*
X75800710Y-136554205D01*
X75877640Y-136625193D01*
X75954716Y-136696024D01*
X76031935Y-136766696D01*
X76109298Y-136837211D01*
X76186804Y-136907567D01*
X76264453Y-136977765D01*
X76342245Y-137047804D01*
X76420179Y-137117684D01*
X76498255Y-137187405D01*
X76576473Y-137256967D01*
X76654831Y-137326369D01*
X76733330Y-137395612D01*
X76811969Y-137464694D01*
X76890748Y-137533617D01*
X76969667Y-137602379D01*
X77048725Y-137670980D01*
X77127922Y-137739421D01*
X77207257Y-137807700D01*
X77286730Y-137875819D01*
X77366340Y-137943776D01*
X77446088Y-138011571D01*
X77525973Y-138079205D01*
X77605994Y-138146676D01*
X77686151Y-138213986D01*
X77766444Y-138281132D01*
X77846872Y-138348117D01*
X77927436Y-138414938D01*
X78008133Y-138481596D01*
X78088965Y-138548091D01*
X78169931Y-138614422D01*
X78251030Y-138680590D01*
X78332262Y-138746593D01*
X78413627Y-138812433D01*
X78495125Y-138878108D01*
X78576754Y-138943619D01*
X78658514Y-139008965D01*
X78740406Y-139074145D01*
X78822428Y-139139161D01*
X78904581Y-139204011D01*
X78986864Y-139268696D01*
X79069276Y-139333215D01*
X79151818Y-139397568D01*
X79234489Y-139461754D01*
X79317287Y-139525774D01*
X79400215Y-139589628D01*
X79483269Y-139653314D01*
X79566451Y-139716834D01*
X79649760Y-139780186D01*
X79733196Y-139843371D01*
X79816758Y-139906388D01*
X79900445Y-139969237D01*
X79984258Y-140031918D01*
X80068196Y-140094430D01*
X80152259Y-140156774D01*
X80236445Y-140218950D01*
X80320756Y-140280956D01*
X80405191Y-140342793D01*
X80489748Y-140404461D01*
X80574428Y-140465959D01*
X80659231Y-140527288D01*
X80744155Y-140588446D01*
X80829201Y-140649434D01*
X80914368Y-140710252D01*
X80999657Y-140770899D01*
X81085065Y-140831375D01*
X81170594Y-140891680D01*
X81256242Y-140951814D01*
X81342010Y-141011776D01*
X81427897Y-141071567D01*
X81513902Y-141131186D01*
X81600025Y-141190632D01*
X81686266Y-141249907D01*
X81772625Y-141309009D01*
X81859100Y-141367938D01*
X81945692Y-141426694D01*
X82032401Y-141485277D01*
X82119225Y-141543686D01*
X82206165Y-141601922D01*
X82293220Y-141659984D01*
X82380390Y-141717873D01*
X82467674Y-141775587D01*
X82555072Y-141833126D01*
X82642583Y-141890491D01*
X82730208Y-141947681D01*
X82814927Y-142000577D01*
X82900884Y-142049690D01*
X82987982Y-142095046D01*
X83076121Y-142136667D01*
X83165202Y-142174578D01*
X83255126Y-142208802D01*
X83345795Y-142239362D01*
X83437109Y-142266283D01*
X83528970Y-142289588D01*
X83621278Y-142309301D01*
X83713934Y-142325446D01*
X83806841Y-142338045D01*
X83899897Y-142347124D01*
X83993006Y-142352705D01*
X84086067Y-142354813D01*
X84178982Y-142353470D01*
X84271652Y-142348701D01*
X84363978Y-142340530D01*
X84455861Y-142328980D01*
X84547202Y-142314075D01*
X84637902Y-142295838D01*
X84727862Y-142274293D01*
X84816983Y-142249464D01*
X84905167Y-142221375D01*
X84992313Y-142190049D01*
X85078324Y-142155511D01*
X85163101Y-142117782D01*
X85246544Y-142076889D01*
X85328554Y-142032853D01*
X85409033Y-141985699D01*
X85487881Y-141935450D01*
X85565001Y-141882131D01*
X85640291Y-141825765D01*
X85713655Y-141766375D01*
X85784992Y-141703985D01*
X85854205Y-141638620D01*
X85921193Y-141570302D01*
X85985858Y-141499055D01*
X86048101Y-141424904D01*
X86107823Y-141347871D01*
X86164926Y-141267980D01*
X86219309Y-141185256D01*
X86270875Y-141099722D01*
X102107917Y-113669347D01*
X102198797Y-113721410D01*
X102289890Y-113773079D01*
X102381195Y-113824347D01*
X102472712Y-113875207D01*
X102564440Y-113925653D01*
X102656378Y-113975678D01*
X102748526Y-114025276D01*
X102840883Y-114074439D01*
X102933448Y-114123162D01*
X103026221Y-114171436D01*
X103119202Y-114219257D01*
X103212389Y-114266617D01*
X103305782Y-114313510D01*
X103399381Y-114359928D01*
X103493184Y-114405866D01*
X103587191Y-114451317D01*
X103681402Y-114496273D01*
X103775816Y-114540729D01*
X103870432Y-114584678D01*
X103965250Y-114628113D01*
X104060269Y-114671028D01*
X104155488Y-114713415D01*
X104250907Y-114755268D01*
X104346525Y-114796582D01*
X104442342Y-114837348D01*
X104538357Y-114877560D01*
X104634569Y-114917212D01*
X104730978Y-114956297D01*
X104827583Y-114994809D01*
X104924384Y-115032740D01*
X105021379Y-115070085D01*
X105118569Y-115106836D01*
X105215952Y-115142987D01*
X105313528Y-115178531D01*
X105411297Y-115213461D01*
X105509257Y-115247772D01*
X105607409Y-115281456D01*
X105705751Y-115314506D01*
X105804283Y-115346917D01*
X105903005Y-115378681D01*
X106001915Y-115409792D01*
X106101013Y-115440243D01*
X106200299Y-115470027D01*
X106299771Y-115499139D01*
X106399430Y-115527570D01*
X106499274Y-115555315D01*
X106599303Y-115582367D01*
X106699517Y-115608720D01*
X106799914Y-115634366D01*
X106900495Y-115659299D01*
X107001258Y-115683512D01*
X107102203Y-115706999D01*
X107203329Y-115729754D01*
X107304636Y-115751769D01*
X107406123Y-115773038D01*
X107507789Y-115793553D01*
X107609634Y-115813310D01*
X107711658Y-115832301D01*
X107813859Y-115850518D01*
X107916236Y-115867957D01*
X108018791Y-115884609D01*
X108121520Y-115900469D01*
X108224425Y-115915530D01*
X108327505Y-115929785D01*
X108430758Y-115943227D01*
X108534185Y-115955850D01*
X108637784Y-115967648D01*
X108741555Y-115978612D01*
X108845498Y-115988738D01*
X108949611Y-115998019D01*
X109053894Y-116006446D01*
X109158347Y-116014015D01*
X109262969Y-116020719D01*
X109367759Y-116026550D01*
X109472717Y-116031502D01*
X109577842Y-116035568D01*
X109683134Y-116038743D01*
X109788591Y-116041019D01*
X109894213Y-116042389D01*
X110000000Y-116042847D01*
X110105787Y-116042389D01*
X110211409Y-116041019D01*
X110316866Y-116038743D01*
X110422157Y-116035568D01*
X110527282Y-116031502D01*
X110632240Y-116026549D01*
X110737030Y-116020718D01*
X110841651Y-116014015D01*
X110946104Y-116006446D01*
X111050388Y-115998018D01*
X111154501Y-115988738D01*
X111258443Y-115978611D01*
X111362214Y-115967646D01*
X111465814Y-115955849D01*
X111569240Y-115943226D01*
X111672493Y-115929783D01*
X111775573Y-115915528D01*
X111878478Y-115900467D01*
X111981208Y-115884607D01*
X112083762Y-115867954D01*
X112186140Y-115850516D01*
X112288341Y-115832298D01*
X112390364Y-115813307D01*
X112492209Y-115793550D01*
X112593875Y-115773034D01*
X112695362Y-115751765D01*
X112796669Y-115729750D01*
X112897796Y-115706995D01*
X112998741Y-115683508D01*
X113099504Y-115659294D01*
X113200085Y-115634361D01*
X113300482Y-115608715D01*
X113400696Y-115582362D01*
X113500725Y-115555310D01*
X113600570Y-115527565D01*
X113700229Y-115499133D01*
X113799701Y-115470021D01*
X113898987Y-115440237D01*
X113998085Y-115409786D01*
X114096996Y-115378675D01*
X114195717Y-115346910D01*
X114294249Y-115314500D01*
X114392592Y-115281449D01*
X114490743Y-115247765D01*
X114588704Y-115213454D01*
X114686473Y-115178523D01*
X114784049Y-115142979D01*
X114881433Y-115106828D01*
X114978622Y-115070077D01*
X115075618Y-115032733D01*
X115172419Y-114994801D01*
X115269024Y-114956290D01*
X115365433Y-114917205D01*
X115461645Y-114877553D01*
X115557660Y-114837340D01*
X115653477Y-114796574D01*
X115749095Y-114755261D01*
X115844514Y-114713408D01*
X115939734Y-114671020D01*
X116034753Y-114628106D01*
X116129570Y-114584671D01*
X116224187Y-114540723D01*
X116318600Y-114496267D01*
X116412811Y-114451310D01*
X116506819Y-114405860D01*
X116600622Y-114359922D01*
X116694220Y-114313504D01*
X116787613Y-114266612D01*
X116880800Y-114219252D01*
X116973781Y-114171432D01*
X117066554Y-114123157D01*
X117159119Y-114074435D01*
X117251476Y-114025272D01*
X117343624Y-113975675D01*
X117435562Y-113925651D01*
X117527289Y-113875205D01*
X117618806Y-113824345D01*
X117710111Y-113773078D01*
X117801204Y-113721410D01*
X117892084Y-113669347D01*
X133729126Y-141099722D01*
X133780691Y-141185256D01*
X133835075Y-141267980D01*
X133892177Y-141347871D01*
X133951899Y-141424904D01*
X134014143Y-141499055D01*
X134078808Y-141570302D01*
X134145796Y-141638620D01*
X134215008Y-141703985D01*
X134286345Y-141766375D01*
X134359709Y-141825765D01*
X134435000Y-141882131D01*
X134512119Y-141935450D01*
X134590968Y-141985699D01*
X134671447Y-142032853D01*
X134753457Y-142076889D01*
X134836900Y-142117782D01*
X134921676Y-142155511D01*
X135007687Y-142190049D01*
X135094834Y-142221375D01*
X135183017Y-142249464D01*
X135272139Y-142274293D01*
X135362099Y-142295838D01*
X135452799Y-142314075D01*
X135544140Y-142328980D01*
X135636022Y-142340530D01*
X135728348Y-142348701D01*
X135821018Y-142353470D01*
X135913933Y-142354813D01*
X136006995Y-142352705D01*
X136100103Y-142347124D01*
X136193160Y-142338045D01*
X136286066Y-142325446D01*
X136378723Y-142309301D01*
X136471031Y-142289588D01*
X136562891Y-142266283D01*
X136654205Y-142239362D01*
X136744874Y-142208802D01*
X136834799Y-142174578D01*
X136923880Y-142136667D01*
X137012019Y-142095046D01*
X137099116Y-142049690D01*
X137185074Y-142000577D01*
X137269792Y-141947681D01*
X137357417Y-141890491D01*
X137444929Y-141833126D01*
X137532327Y-141775587D01*
X137619611Y-141717873D01*
X137706780Y-141659984D01*
X137793835Y-141601922D01*
X137880775Y-141543686D01*
X137967599Y-141485277D01*
X138054308Y-141426694D01*
X138140900Y-141367938D01*
X138227376Y-141309009D01*
X138313734Y-141249907D01*
X138399975Y-141190632D01*
X138486098Y-141131186D01*
X138572104Y-141071567D01*
X138657990Y-141011776D01*
X138743758Y-140951814D01*
X138829406Y-140891680D01*
X138914935Y-140831375D01*
X139000344Y-140770899D01*
X139085632Y-140710252D01*
X139170799Y-140649434D01*
X139255845Y-140588446D01*
X139340769Y-140527288D01*
X139425572Y-140465959D01*
X139510252Y-140404461D01*
X139594810Y-140342793D01*
X139679244Y-140280956D01*
X139763555Y-140218950D01*
X139847741Y-140156775D01*
X139931804Y-140094430D01*
X140015742Y-140031918D01*
X140099555Y-139969237D01*
X140183242Y-139906388D01*
X140266804Y-139843371D01*
X140350240Y-139780186D01*
X140433549Y-139716834D01*
X140516731Y-139653314D01*
X140599785Y-139589628D01*
X140682712Y-139525774D01*
X140765511Y-139461754D01*
X140848182Y-139397568D01*
X140930724Y-139333215D01*
X141013136Y-139268696D01*
X141095419Y-139204011D01*
X141177572Y-139139161D01*
X141259594Y-139074146D01*
X141341486Y-139008965D01*
X141423246Y-138943619D01*
X141504875Y-138878108D01*
X141586372Y-138812433D01*
X141667737Y-138746594D01*
X141748970Y-138680590D01*
X141830069Y-138614422D01*
X141911035Y-138548091D01*
X141991867Y-138481596D01*
X142072564Y-138414938D01*
X142153128Y-138348117D01*
X142233556Y-138281133D01*
X142313849Y-138213986D01*
X142394006Y-138146677D01*
X142474027Y-138079205D01*
X142553912Y-138011571D01*
X142633660Y-137943776D01*
X142713270Y-137875819D01*
X142792743Y-137807701D01*
X142872078Y-137739421D01*
X142951275Y-137670980D01*
X143030333Y-137602379D01*
X143109251Y-137533617D01*
X143188031Y-137464695D01*
X143266670Y-137395612D01*
X143345169Y-137326369D01*
X143423527Y-137256967D01*
X143501745Y-137187406D01*
X143579820Y-137117684D01*
X143657755Y-137047804D01*
X143735546Y-136977765D01*
X143813196Y-136907567D01*
X143890702Y-136837211D01*
X143968065Y-136766697D01*
X144045284Y-136696024D01*
X144122360Y-136625194D01*
X144199290Y-136554206D01*
X144276076Y-136483060D01*
X144352717Y-136411757D01*
X144429212Y-136340298D01*
X144505561Y-136268681D01*
X144581763Y-136196908D01*
X144657819Y-136124979D01*
X144733728Y-136052893D01*
X144809489Y-135980651D01*
X144885103Y-135908254D01*
X144960568Y-135835701D01*
X145035884Y-135762993D01*
X145111051Y-135690129D01*
X145186069Y-135617111D01*
X145260937Y-135543938D01*
X145335655Y-135470611D01*
X145410222Y-135397129D01*
X145484638Y-135323493D01*
X145558903Y-135249703D01*
X145633016Y-135175760D01*
X145706978Y-135101663D01*
X145780786Y-135027413D01*
X145854442Y-134953010D01*
X145927944Y-134878454D01*
X146001293Y-134803745D01*
X146074488Y-134728885D01*
X146147529Y-134653871D01*
X146220414Y-134578706D01*
X146293145Y-134503390D01*
X146365720Y-134427921D01*
X146438139Y-134352301D01*
X146510402Y-134276531D01*
X146582508Y-134200609D01*
X146654457Y-134124536D01*
X146726249Y-134048313D01*
X146797883Y-133971940D01*
X146869358Y-133895416D01*
X146940675Y-133818743D01*
X147011833Y-133741920D01*
X147082832Y-133664948D01*
X147153671Y-133587826D01*
X147224350Y-133510555D01*
X147294868Y-133433136D01*
X147365226Y-133355568D01*
X147435422Y-133277851D01*
X147505456Y-133199986D01*
X147575329Y-133121974D01*
X147645039Y-133043813D01*
X147714587Y-132965505D01*
X147783971Y-132887049D01*
X147853192Y-132808447D01*
X147922248Y-132729697D01*
X147991141Y-132650801D01*
X148059869Y-132571758D01*
X148128431Y-132492569D01*
X148196829Y-132413234D01*
X148265060Y-132333752D01*
X148333125Y-132254126D01*
X148401024Y-132174353D01*
X148468756Y-132094436D01*
X148536320Y-132014373D01*
X148603717Y-131934166D01*
X148670945Y-131853814D01*
X148738005Y-131773317D01*
X148804896Y-131692676D01*
X148871618Y-131611892D01*
X148938170Y-131530963D01*
X149004552Y-131449891D01*
X149070764Y-131368675D01*
X149136805Y-131287317D01*
X149202675Y-131205815D01*
X149268373Y-131124171D01*
X149333899Y-131042384D01*
X149399253Y-130960454D01*
X149464434Y-130878383D01*
X149529443Y-130796170D01*
X149594277Y-130713815D01*
X149658938Y-130631318D01*
X149723425Y-130548681D01*
X149787737Y-130465902D01*
X149851874Y-130382982D01*
X149915836Y-130299922D01*
X149979622Y-130216721D01*
X150043232Y-130133380D01*
X150106665Y-130049899D01*
X150169922Y-129966278D01*
X150233001Y-129882518D01*
X150295903Y-129798618D01*
X150358626Y-129714579D01*
X150421172Y-129630401D01*
X150483538Y-129546084D01*
X150545725Y-129461629D01*
X150607733Y-129377036D01*
X150669560Y-129292304D01*
X150731208Y-129207434D01*
X150792674Y-129122427D01*
X150853960Y-129037282D01*
X150915064Y-128952000D01*
X150975986Y-128866580D01*
X151036726Y-128781024D01*
X151097284Y-128695331D01*
X151157658Y-128609502D01*
X151217849Y-128523537D01*
X151277857Y-128437435D01*
X151337680Y-128351198D01*
X151397319Y-128264825D01*
X151456772Y-128178316D01*
X151516041Y-128091673D01*
X151575124Y-128004894D01*
X151634020Y-127917981D01*
X151692731Y-127830933D01*
X151751254Y-127743751D01*
X151809591Y-127656434D01*
X151867740Y-127568984D01*
X151925701Y-127481400D01*
X151983473Y-127393682D01*
X152041057Y-127305831D01*
X152098452Y-127217847D01*
X152155657Y-127129730D01*
X152212673Y-127041481D01*
X152269498Y-126953099D01*
X152326132Y-126864585D01*
X152382576Y-126775938D01*
X152438828Y-126687160D01*
X152494889Y-126598250D01*
X152550757Y-126509209D01*
X152606433Y-126420037D01*
X152661916Y-126330733D01*
X152717205Y-126241299D01*
X152772301Y-126151734D01*
X152827203Y-126062039D01*
X152881911Y-125972214D01*
X152936423Y-125882258D01*
X152990741Y-125792173D01*
X153044863Y-125701959D01*
X153098789Y-125611615D01*
X153152518Y-125521142D01*
X153206051Y-125430540D01*
X153259387Y-125339809D01*
X153312526Y-125248950D01*
X153365466Y-125157963D01*
X153418208Y-125066847D01*
X153470746Y-124975614D01*
X153523074Y-124884273D01*
X153575192Y-124792825D01*
X153627100Y-124701270D01*
X153678798Y-124609609D01*
X153730286Y-124517842D01*
X153781564Y-124425970D01*
X153832632Y-124333993D01*
X153883490Y-124241911D01*
X153934138Y-124149726D01*
X153984575Y-124057437D01*
X154034803Y-123965044D01*
X154084821Y-123872549D01*
X154134629Y-123779952D01*
X154184227Y-123687252D01*
X154233615Y-123594452D01*
X154282793Y-123501550D01*
X154331761Y-123408547D01*
X154380520Y-123315445D01*
X154429068Y-123222242D01*
X154477407Y-123128941D01*
X154525535Y-123035540D01*
X154573454Y-122942042D01*
X154621163Y-122848445D01*
X154668662Y-122754750D01*
X154715951Y-122660959D01*
X154763030Y-122567071D01*
X154809900Y-122473086D01*
X154856559Y-122379006D01*
X154903009Y-122284831D01*
X154949249Y-122190560D01*
X154995279Y-122096195D01*
X155041100Y-122001736D01*
X155086711Y-121907183D01*
X155132111Y-121812537D01*
X155177303Y-121717798D01*
X155222284Y-121622967D01*
X155267056Y-121528044D01*
X155311618Y-121433029D01*
X155355970Y-121337924D01*
X155400113Y-121242728D01*
X155444045Y-121147441D01*
X155487769Y-121052065D01*
X155531282Y-120956600D01*
X155574586Y-120861045D01*
X155617680Y-120765403D01*
X155660564Y-120669672D01*
X155703239Y-120573853D01*
X155745705Y-120477948D01*
X155787960Y-120381956D01*
X155830006Y-120285877D01*
X155871842Y-120189713D01*
X155913469Y-120093463D01*
X155954886Y-119997129D01*
X155996094Y-119900709D01*
X156037092Y-119804206D01*
X156077881Y-119707619D01*
X156118459Y-119610949D01*
X156158829Y-119514196D01*
X156198989Y-119417360D01*
X156238939Y-119320443D01*
X156278680Y-119223444D01*
X156318211Y-119126364D01*
X156357533Y-119029203D01*
X156396645Y-118931963D01*
X156435548Y-118834642D01*
X156474242Y-118737242D01*
X156512726Y-118639763D01*
X156551000Y-118542206D01*
X156589065Y-118444571D01*
X156626921Y-118346858D01*
X156664567Y-118249068D01*
X156702004Y-118151201D01*
X156739231Y-118053258D01*
X156776249Y-117955239D01*
X156813058Y-117857144D01*
X156849657Y-117758975D01*
X156886047Y-117660731D01*
X156922228Y-117562412D01*
X156958199Y-117464021D01*
X156993961Y-117365555D01*
X157029513Y-117267017D01*
X157064857Y-117168407D01*
X157099991Y-117069725D01*
X157134915Y-116970971D01*
X157169630Y-116872146D01*
X157204137Y-116773250D01*
X157238433Y-116674284D01*
X157272521Y-116575249D01*
X157306399Y-116476144D01*
X157340068Y-116376970D01*
X157373528Y-116277727D01*
X157406779Y-116178417D01*
X157439820Y-116079039D01*
X157472652Y-115979593D01*
X157505275Y-115880081D01*
X157537689Y-115780503D01*
X157569894Y-115680858D01*
X157601889Y-115581149D01*
X157633675Y-115481374D01*
X157665252Y-115381534D01*
X157696620Y-115281631D01*
X157727779Y-115181664D01*
X157758729Y-115081633D01*
X157789470Y-114981539D01*
X157820001Y-114881384D01*
X157850324Y-114781166D01*
X157880437Y-114680886D01*
X157910341Y-114580546D01*
X157940037Y-114480144D01*
X157969523Y-114379683D01*
X157998800Y-114279161D01*
X158027868Y-114178581D01*
X158056727Y-114077941D01*
X158085377Y-113977243D01*
X158113818Y-113876486D01*
X158142050Y-113775672D01*
X158170073Y-113674801D01*
X158197887Y-113573873D01*
X158225492Y-113472889D01*
X158252888Y-113371849D01*
X158280076Y-113270753D01*
X158307054Y-113169602D01*
X158333823Y-113068397D01*
X158360384Y-112967137D01*
X158386735Y-112865824D01*
X158412878Y-112764457D01*
X158438811Y-112663037D01*
X158464536Y-112561565D01*
X158490052Y-112460041D01*
X158515359Y-112358466D01*
X158540457Y-112256839D01*
X158565347Y-112155161D01*
X158590027Y-112053433D01*
X158614499Y-111951656D01*
X158638762Y-111849829D01*
X158662816Y-111747953D01*
X158686661Y-111646028D01*
X158710297Y-111544055D01*
X158733725Y-111442035D01*
X158756944Y-111339967D01*
X158779954Y-111237853D01*
X158802755Y-111135692D01*
X158825348Y-111033485D01*
X158847732Y-110931233D01*
X158869907Y-110828935D01*
X158891873Y-110726593D01*
X158913631Y-110624207D01*
X158935180Y-110521777D01*
X158956520Y-110419303D01*
X158977652Y-110316787D01*
X158998575Y-110214228D01*
X159019289Y-110111627D01*
X159039795Y-110008985D01*
X159060092Y-109906301D01*
X159080180Y-109803577D01*
X159100060Y-109700812D01*
X159119731Y-109598007D01*
X159139194Y-109495163D01*
X159158448Y-109392280D01*
X159177493Y-109289359D01*
X159196330Y-109186399D01*
X159214958Y-109083401D01*
X159233377Y-108980367D01*
X159251589Y-108877295D01*
X159269591Y-108774187D01*
X159287385Y-108671043D01*
X159304971Y-108567863D01*
X159322348Y-108464649D01*
X159339516Y-108361399D01*
X159356476Y-108258116D01*
X159373227Y-108154798D01*
X159389771Y-108051448D01*
X159406105Y-107948064D01*
X159422231Y-107844648D01*
X159438149Y-107741200D01*
X159453858Y-107637720D01*
X159469359Y-107534208D01*
X159484651Y-107430667D01*
X159499735Y-107327094D01*
X159514611Y-107223492D01*
X159529278Y-107119861D01*
X159543736Y-107016200D01*
X159557987Y-106912511D01*
X159572029Y-106808793D01*
X159585863Y-106705048D01*
X159599488Y-106601276D01*
X159612905Y-106497476D01*
X159626114Y-106393650D01*
X159639114Y-106289799D01*
X159651906Y-106185921D01*
X159664490Y-106082019D01*
X159676865Y-105978092D01*
X159689032Y-105874140D01*
X159700991Y-105770165D01*
X159712742Y-105666166D01*
X159724284Y-105562144D01*
X159735618Y-105458100D01*
X159746744Y-105354034D01*
X159757662Y-105249946D01*
X159768371Y-105145837D01*
X159778873Y-105041707D01*
X159789166Y-104937556D01*
X159799251Y-104833386D01*
X159809127Y-104729196D01*
X159818796Y-104624987D01*
X159828256Y-104520760D01*
X159837508Y-104416514D01*
X159846553Y-104312251D01*
X159855388Y-104207970D01*
X159864016Y-104103672D01*
X159872436Y-103999358D01*
X159880648Y-103895028D01*
X159888651Y-103790682D01*
X159896447Y-103686321D01*
X159904034Y-103581945D01*
X159911413Y-103477555D01*
X159918585Y-103373151D01*
X159925548Y-103268734D01*
X159932303Y-103164304D01*
X159938850Y-103059861D01*
X159945189Y-102955406D01*
X159951320Y-102850939D01*
X159957243Y-102746461D01*
X159962958Y-102641973D01*
X159966386Y-102542224D01*
X159965923Y-102443292D01*
X159961642Y-102345250D01*
X159953610Y-102248173D01*
X159941899Y-102152133D01*
X159926578Y-102057206D01*
X159907716Y-101963463D01*
X159885385Y-101870980D01*
X159859653Y-101779830D01*
X159830590Y-101690086D01*
X159798267Y-101601823D01*
X159762753Y-101515114D01*
X159724117Y-101430032D01*
X159682431Y-101346652D01*
X159637763Y-101265047D01*
X159590184Y-101185292D01*
X159539763Y-101107458D01*
X159486570Y-101031622D01*
X159430675Y-100957855D01*
X159372148Y-100886232D01*
X159311059Y-100816827D01*
X159247477Y-100749713D01*
X159181473Y-100684964D01*
X159113116Y-100622654D01*
X159042476Y-100562856D01*
X158969624Y-100505645D01*
X158894627Y-100451093D01*
X158817558Y-100399275D01*
X158738485Y-100350265D01*
X158657478Y-100304136D01*
X158574608Y-100260961D01*
X158489944Y-100220815D01*
X158403555Y-100183772D01*
X158315512Y-100149904D01*
X158225885Y-100119286D01*
X158134743Y-100091992D01*
X158042156Y-100068094D01*
X157948195Y-100047668D01*
X157852928Y-100030786D01*
X157756426Y-100017523D01*
X157658759Y-100007952D01*
X157559997Y-100002146D01*
X157460208Y-100000181D01*
X126042667Y-100000181D01*
X126042323Y-99896157D01*
X126041294Y-99792182D01*
X126039580Y-99688258D01*
X126037182Y-99584388D01*
X126034102Y-99480577D01*
X126030342Y-99376826D01*
X126025903Y-99273141D01*
X126020786Y-99169523D01*
X126014992Y-99065977D01*
X126008524Y-98962506D01*
X126001382Y-98859113D01*
X125993567Y-98755802D01*
X125985082Y-98652575D01*
X125975927Y-98549436D01*
X125966104Y-98446390D01*
X125955614Y-98343438D01*
X125944459Y-98240584D01*
X125932640Y-98137832D01*
X125920159Y-98035186D01*
X125907016Y-97932647D01*
X125893213Y-97830221D01*
X125878752Y-97727909D01*
X125863634Y-97625716D01*
X125847860Y-97523645D01*
X125831431Y-97421699D01*
X125814350Y-97319882D01*
X125796618Y-97218197D01*
X125778235Y-97116647D01*
X125759203Y-97015235D01*
X125739524Y-96913966D01*
X125719199Y-96812842D01*
X125698229Y-96711867D01*
X125676616Y-96611044D01*
X125654361Y-96510377D01*
X125631466Y-96409868D01*
X125607931Y-96309522D01*
X125583759Y-96209341D01*
X125558950Y-96109329D01*
X125533507Y-96009489D01*
X125507430Y-95909825D01*
X125480720Y-95810340D01*
X125453380Y-95711038D01*
X125425411Y-95611921D01*
X125396813Y-95512993D01*
X125367589Y-95414258D01*
X125337739Y-95315719D01*
X125307265Y-95217379D01*
X125276169Y-95119241D01*
X125244452Y-95021310D01*
X125212115Y-94923587D01*
X125179159Y-94826078D01*
X125145587Y-94728784D01*
X125111399Y-94631710D01*
X125076596Y-94534858D01*
X125041181Y-94438232D01*
X125005155Y-94341836D01*
X124968518Y-94245673D01*
X124931272Y-94149746D01*
X124893419Y-94054059D01*
X124854960Y-93958614D01*
X124815897Y-93863416D01*
X124776230Y-93768467D01*
X124735962Y-93673772D01*
X124695093Y-93579333D01*
X124653625Y-93485153D01*
X124611560Y-93391237D01*
X124568898Y-93297587D01*
X124525641Y-93204206D01*
X124481791Y-93111099D01*
X124437348Y-93018269D01*
X124392315Y-92925718D01*
X124346692Y-92833451D01*
X124300482Y-92741470D01*
X124253684Y-92649780D01*
X124206302Y-92558382D01*
X124158335Y-92467282D01*
X124109787Y-92376481D01*
X124060657Y-92285984D01*
X124010947Y-92195794D01*
X123960659Y-92105914D01*
X123909794Y-92016347D01*
X123858354Y-91927097D01*
X123806339Y-91838168D01*
X123753751Y-91749562D01*
X123700593Y-91661283D01*
X123646864Y-91573334D01*
X123592566Y-91485720D01*
X123537701Y-91398442D01*
X123482270Y-91311504D01*
X123426275Y-91224911D01*
X123369716Y-91138664D01*
X123312596Y-91052768D01*
X123254916Y-90967226D01*
X123196676Y-90882041D01*
X123137879Y-90797217D01*
X123078525Y-90712757D01*
X123018617Y-90628664D01*
X122958155Y-90544942D01*
X122897142Y-90461594D01*
X122835577Y-90378623D01*
X122773463Y-90296033D01*
X122710801Y-90213827D01*
X122647593Y-90132008D01*
X122583840Y-90050581D01*
X122519542Y-89969548D01*
X122454702Y-89888912D01*
X122389322Y-89808677D01*
X122323401Y-89728847D01*
X122256943Y-89649424D01*
X122189947Y-89570412D01*
X122122416Y-89491815D01*
X122054351Y-89413635D01*
X121985753Y-89335877D01*
X121916623Y-89258543D01*
X121846964Y-89181637D01*
X121776776Y-89105162D01*
X121706061Y-89029121D01*
X121634820Y-88953519D01*
X121563054Y-88878358D01*
X121490766Y-88803641D01*
X121417956Y-88729373D01*
X121344625Y-88655556D01*
X121269547Y-88581121D01*
X121193916Y-88507409D01*
X121117739Y-88434412D01*
X121041024Y-88362121D01*
X120963781Y-88290529D01*
X120886017Y-88219628D01*
X120807740Y-88149409D01*
X120728957Y-88079864D01*
X120649679Y-88010986D01*
X120569912Y-87942767D01*
X120489664Y-87875198D01*
X120408944Y-87808271D01*
X120327760Y-87741979D01*
X120246120Y-87676313D01*
X120164031Y-87611266D01*
X120081504Y-87546829D01*
X119998544Y-87482994D01*
X119915161Y-87419754D01*
X119831362Y-87357100D01*
X119747156Y-87295024D01*
X119662551Y-87233518D01*
X119577554Y-87172575D01*
X119492175Y-87112186D01*
X119406421Y-87052343D01*
X119320300Y-86993038D01*
X119233821Y-86934264D01*
X119146991Y-86876012D01*
X119059818Y-86818273D01*
X118972311Y-86761041D01*
X118884479Y-86704307D01*
X118796328Y-86648063D01*
X118707867Y-86592301D01*
X118619105Y-86537013D01*
X118530049Y-86482192D01*
X118440707Y-86427828D01*
X118351088Y-86373914D01*
X118261200Y-86320442D01*
X118171050Y-86267404D01*
X118080648Y-86214792D01*
X117990000Y-86162598D01*
X133727166Y-58904556D01*
X133775337Y-58817172D01*
X133819671Y-58728758D01*
X133860199Y-58639410D01*
X133896948Y-58549226D01*
X133929948Y-58458303D01*
X133959228Y-58366738D01*
X133984816Y-58274629D01*
X134006741Y-58182072D01*
X134025033Y-58089166D01*
X134039720Y-57996007D01*
X134050831Y-57902692D01*
X134058395Y-57809320D01*
X134062440Y-57715987D01*
X134062997Y-57622790D01*
X134060093Y-57529827D01*
X134053758Y-57437195D01*
X134044020Y-57344992D01*
X134030909Y-57253314D01*
X134014453Y-57162259D01*
X133994681Y-57071925D01*
X133971622Y-56982408D01*
X133945305Y-56893806D01*
X133915759Y-56806215D01*
X133883012Y-56719735D01*
X133847094Y-56634460D01*
X133808034Y-56550490D01*
X133765860Y-56467921D01*
X133720602Y-56386850D01*
X133672287Y-56307376D01*
X133620946Y-56229594D01*
X133566607Y-56153603D01*
X133509298Y-56079499D01*
X133449050Y-56007380D01*
X133385890Y-55937343D01*
X133319847Y-55869486D01*
X133250951Y-55803906D01*
X133179231Y-55740699D01*
X133104714Y-55679964D01*
X133027431Y-55621798D01*
X132947410Y-55566297D01*
X132864680Y-55513560D01*
X132779270Y-55463683D01*
X132691208Y-55416764D01*
X132597626Y-55369360D01*
X132503949Y-55322143D01*
X132410177Y-55275114D01*
X132316310Y-55228273D01*
X132222350Y-55181620D01*
X132128295Y-55135156D01*
X132034148Y-55088880D01*
X131939907Y-55042792D01*
X131845574Y-54996894D01*
X131751149Y-54951185D01*
X131656632Y-54905666D01*
X131562023Y-54860336D01*
X131467324Y-54815196D01*
X131372533Y-54770245D01*
X131277653Y-54725486D01*
X131182683Y-54680916D01*
X131087623Y-54636537D01*
X130992474Y-54592350D01*
X130897236Y-54548353D01*
X130801910Y-54504547D01*
X130706496Y-54460933D01*
X130610994Y-54417511D01*
X130515405Y-54374281D01*
X130419730Y-54331242D01*
X130323968Y-54288396D01*
X130228119Y-54245743D01*
X130132185Y-54203282D01*
X130036166Y-54161015D01*
X129940062Y-54118940D01*
X129843873Y-54077059D01*
X129747600Y-54035372D01*
X129651243Y-53993878D01*
X129554803Y-53952578D01*
X129458280Y-53911473D01*
X129361674Y-53870562D01*
X129264986Y-53829846D01*
X129168216Y-53789324D01*
X129071364Y-53748998D01*
X128974431Y-53708866D01*
X128877418Y-53668931D01*
X128780324Y-53629191D01*
X128683150Y-53589647D01*
X128585897Y-53550299D01*
X128488564Y-53511147D01*
X128391153Y-53472192D01*
X128293663Y-53433433D01*
X128196094Y-53394872D01*
X128098449Y-53356508D01*
X128000725Y-53318341D01*
X127902925Y-53280371D01*
X127805049Y-53242600D01*
X127707096Y-53205026D01*
X127609067Y-53167651D01*
X127510963Y-53130474D01*
X127412784Y-53093495D01*
X127314530Y-53056716D01*
X127216202Y-53020135D01*
X127117800Y-52983754D01*
X127019324Y-52947572D01*
X126920776Y-52911590D01*
X126822154Y-52875808D01*
X126723460Y-52840226D01*
X126624695Y-52804844D01*
X126525857Y-52769662D01*
X126426948Y-52734682D01*
X126327969Y-52699902D01*
X126228919Y-52665323D01*
X126129799Y-52630946D01*
X126030609Y-52596771D01*
X125931349Y-52562797D01*
X125832021Y-52529025D01*
X125732625Y-52495455D01*
X125633160Y-52462088D01*
X125533627Y-52428923D01*
X125434027Y-52395961D01*
X125334359Y-52363202D01*
X125234625Y-52330646D01*
X125134825Y-52298294D01*
X125034959Y-52266145D01*
X124935027Y-52234201D01*
X124835030Y-52202460D01*
X124734969Y-52170923D01*
X124634843Y-52139592D01*
X124534653Y-52108464D01*
X124434399Y-52077542D01*
X124334082Y-52046825D01*
X124233702Y-52016313D01*
X124133260Y-51986007D01*
X124032755Y-51955906D01*
X123932189Y-51926011D01*
X123831562Y-51896323D01*
X123730873Y-51866841D01*
X123630124Y-51837565D01*
X123529315Y-51808496D01*
X123428446Y-51779635D01*
X123327517Y-51750980D01*
X123226530Y-51722533D01*
X123125483Y-51694293D01*
X123024379Y-51666262D01*
X122923216Y-51638438D01*
X122821996Y-51610823D01*
X122720719Y-51583416D01*
X122619385Y-51556218D01*
X122517994Y-51529228D01*
X122416548Y-51502448D01*
X122315046Y-51475877D01*
X122213488Y-51449516D01*
X122111876Y-51423364D01*
X122010209Y-51397422D01*
X121908488Y-51371691D01*
X121806714Y-51346169D01*
X121704886Y-51320859D01*
X121603005Y-51295759D01*
X121501071Y-51270870D01*
X121399085Y-51246192D01*
X121297048Y-51221726D01*
X121194958Y-51197471D01*
X121092818Y-51173428D01*
X120990627Y-51149597D01*
X120888386Y-51125978D01*
X120786095Y-51102572D01*
X120683754Y-51079379D01*
X120581365Y-51056398D01*
X120478926Y-51033630D01*
X120376439Y-51011076D01*
X120273904Y-50988735D01*
X120171321Y-50966608D01*
X120068691Y-50944695D01*
X119966014Y-50922996D01*
X119863290Y-50901511D01*
X119760521Y-50880240D01*
X119657706Y-50859185D01*
X119554845Y-50838344D01*
X119451939Y-50817719D01*
X119348989Y-50797309D01*
X119245994Y-50777115D01*
X119142956Y-50757136D01*
X119039874Y-50737373D01*
X118936749Y-50717827D01*
X118833581Y-50698497D01*
X118730371Y-50679384D01*
X118627120Y-50660487D01*
X118523826Y-50641808D01*
X118420491Y-50623346D01*
X118317116Y-50605101D01*
X118213700Y-50587074D01*
X118110244Y-50569265D01*
X118006748Y-50551674D01*
X117903213Y-50534301D01*
X117799640Y-50517147D01*
X117696027Y-50500211D01*
X117592377Y-50483495D01*
X117488689Y-50466998D01*
X117384963Y-50450720D01*
X117281200Y-50434661D01*
X117177401Y-50418822D01*
X117073566Y-50403204D01*
X116969694Y-50387805D01*
X116865787Y-50372627D01*
X116761846Y-50357670D01*
X116657869Y-50342933D01*
X116553858Y-50328417D01*
X116449813Y-50314123D01*
X116345735Y-50300050D01*
X116241623Y-50286199D01*
X116137478Y-50272569D01*
X116033301Y-50259162D01*
X115929092Y-50245977D01*
X115824852Y-50233015D01*
X115720580Y-50220275D01*
X115616277Y-50207758D01*
X115511943Y-50195464D01*
X115407580Y-50183394D01*
X115303186Y-50171547D01*
X115198764Y-50159924D01*
X115094312Y-50148525D01*
X114989832Y-50137350D01*
X114885323Y-50126399D01*
X114780786Y-50115673D01*
X114676222Y-50105172D01*
X114571631Y-50094896D01*
X114467013Y-50084845D01*
X114362369Y-50075019D01*
X114257699Y-50065419D01*
X114153003Y-50056045D01*
X114048282Y-50046897D01*
X113943537Y-50037976D01*
X113838766Y-50029280D01*
X113733972Y-50020812D01*
X113629154Y-50012570D01*
X113524313Y-50004556D01*
X113419449Y-49996769D01*
X113314562Y-49989209D01*
X113209653Y-49981877D01*
X113104722Y-49974773D01*
X112999770Y-49967897D01*
X112894797Y-49961250D01*
X112789804Y-49954831D01*
X112684789Y-49948641D01*
X112579756Y-49942679D01*
X112474702Y-49936947D01*
X112369630Y-49931445D01*
X112264538Y-49926172D01*
X112159429Y-49921129D01*
X112054301Y-49916316D01*
X111949156Y-49911733D01*
X111843994Y-49907381D01*
X111738815Y-49903259D01*
X111633619Y-49899368D01*
X111528407Y-49895709D01*
X111423180Y-49892280D01*
X111317937Y-49889083D01*
X111212679Y-49886118D01*
X111107407Y-49883385D01*
X111002121Y-49880884D01*
X110896820Y-49878615D01*
X110791507Y-49876579D01*
X110686180Y-49874776D01*
X110580841Y-49873205D01*
X110475489Y-49871868D01*
X110370126Y-49870764D01*
D12*
X101040000Y-94825000D03*
X101040000Y-105175000D03*
X118960000Y-94825000D03*
X118960000Y-105175000D03*
X110000000Y-89650000D03*
X110000000Y-110350000D03*
D13*
X110000000Y-100000000D03*
M02*
