G04 #@! TF.GenerationSoftware,KiCad,Pcbnew,(2017-12-21 revision 7586afd53)-makepkg*
G04 #@! TF.CreationDate,2018-01-22T17:38:36-08:00*
G04 #@! TF.ProjectId,fieldmill,6669656C646D696C6C2E6B696361645F,A*
G04 #@! TF.SameCoordinates,Original*
G04 #@! TF.FileFunction,Copper,L1,Top,Signal*
G04 #@! TF.FilePolarity,Positive*
%FSLAX46Y46*%
G04 Gerber Fmt 4.6, Leading zero omitted, Abs format (unit mm)*
G04 Created by KiCad (PCBNEW (2017-12-21 revision 7586afd53)-makepkg) date 01/22/18 17:38:36*
%MOMM*%
%LPD*%
G01*
G04 APERTURE LIST*
%ADD10R,1.000000X1.000000*%
%ADD11C,0.600000*%
%ADD12C,0.550000*%
%ADD13C,0.200000*%
%ADD14C,0.180000*%
G04 APERTURE END LIST*
D10*
X117600000Y-95200000D03*
X112800000Y-87000000D03*
X104600000Y-82400000D03*
X95400000Y-82800000D03*
X87200000Y-87400000D03*
X82600000Y-95400000D03*
X82600000Y-104600000D03*
X87200000Y-112600000D03*
X95400000Y-117400000D03*
X105000000Y-117200000D03*
X113000000Y-112600000D03*
X117600000Y-104600000D03*
D11*
X143800000Y-96000000D03*
X140200000Y-91600000D03*
X143500000Y-100000000D03*
X74625000Y-85350000D03*
X128700000Y-122500000D03*
X126800000Y-122700000D03*
X146650000Y-93900000D03*
X118275000Y-89450000D03*
D12*
X80950000Y-100000000D03*
X74650000Y-75800000D03*
X80850000Y-88850000D03*
D11*
X88280000Y-107670000D03*
X147400000Y-100000000D03*
X86760000Y-91380000D03*
X115725000Y-98525000D03*
X111150000Y-88870000D03*
X111160000Y-111130000D03*
X88850000Y-111140000D03*
X88870000Y-88850000D03*
X115760000Y-100000000D03*
X84250000Y-100000000D03*
X100000000Y-115760000D03*
X100000000Y-84250000D03*
X96000000Y-115281675D03*
X85379536Y-95850000D03*
X104150000Y-114620464D03*
X112140000Y-90860000D03*
X111880000Y-108490000D03*
X85850000Y-103588125D03*
X103650000Y-85866579D03*
X96550000Y-86434008D03*
X113552595Y-103500000D03*
D13*
X88280000Y-107670000D02*
X87600000Y-110230000D01*
X87600000Y-110230000D02*
X87200000Y-112600000D01*
X86760000Y-90550000D02*
X87200000Y-87400000D01*
X86760000Y-91380000D02*
X86760000Y-90550000D01*
X116900000Y-98400000D02*
X117600000Y-95200000D01*
X115725000Y-98525000D02*
X116900000Y-98400000D01*
X96000000Y-115281675D02*
X95400000Y-117400000D01*
X113590000Y-89730000D02*
X112800000Y-87000000D01*
X112140000Y-90860000D02*
X113590000Y-89730000D01*
X85379536Y-95850000D02*
X82600000Y-95400000D01*
X104150000Y-114620464D02*
X105000000Y-117200000D01*
X113560000Y-109840000D02*
X113000000Y-112600000D01*
X111880000Y-108490000D02*
X113560000Y-109840000D01*
X85850000Y-103588125D02*
X82600000Y-104600000D01*
X103650000Y-85866579D02*
X104600000Y-82400000D01*
X113552595Y-103500000D02*
X117600000Y-104600000D01*
X96550000Y-86434008D02*
X95400000Y-82800000D01*
D14*
G36*
X146832879Y-80696880D02*
X149690283Y-90161059D01*
X150626565Y-99710000D01*
X147891692Y-99710000D01*
X147843856Y-99638000D01*
X147765090Y-99558682D01*
X147672418Y-99496174D01*
X147569369Y-99452857D01*
X147459870Y-99430380D01*
X147348089Y-99429599D01*
X147238287Y-99450545D01*
X147134643Y-99492420D01*
X147041108Y-99553628D01*
X146961242Y-99631838D01*
X146907723Y-99710000D01*
X143991692Y-99710000D01*
X143943856Y-99638000D01*
X143865090Y-99558682D01*
X143772418Y-99496174D01*
X143669369Y-99452857D01*
X143559870Y-99430380D01*
X143448089Y-99429599D01*
X143338287Y-99450545D01*
X143234643Y-99492420D01*
X143141108Y-99553628D01*
X143061242Y-99631838D01*
X143007723Y-99710000D01*
X116251692Y-99710000D01*
X116203856Y-99638000D01*
X116125090Y-99558682D01*
X116032418Y-99496174D01*
X115929369Y-99452857D01*
X115819870Y-99430380D01*
X115708089Y-99429599D01*
X115598287Y-99450545D01*
X115494643Y-99492420D01*
X115401108Y-99553628D01*
X115321242Y-99631838D01*
X115267723Y-99710000D01*
X112840951Y-99710000D01*
X112839992Y-99641347D01*
X112525793Y-97154210D01*
X112157782Y-96047927D01*
X143229251Y-96047927D01*
X143249430Y-96157874D01*
X143290580Y-96261806D01*
X143351133Y-96355767D01*
X143428784Y-96436177D01*
X143520574Y-96499973D01*
X143623008Y-96544725D01*
X143732183Y-96568729D01*
X143843941Y-96571070D01*
X143954026Y-96551659D01*
X144058244Y-96511236D01*
X144152625Y-96451339D01*
X144233575Y-96374252D01*
X144298010Y-96282909D01*
X144343476Y-96180791D01*
X144368242Y-96071786D01*
X144370024Y-95944109D01*
X144348312Y-95834455D01*
X144305715Y-95731106D01*
X144243856Y-95638000D01*
X144165090Y-95558682D01*
X144072418Y-95496174D01*
X143969369Y-95452857D01*
X143859870Y-95430380D01*
X143748089Y-95429599D01*
X143638287Y-95450545D01*
X143534643Y-95492420D01*
X143441108Y-95553628D01*
X143361242Y-95631838D01*
X143298088Y-95724072D01*
X143254052Y-95826815D01*
X143230811Y-95936155D01*
X143229251Y-96047927D01*
X112157782Y-96047927D01*
X111734491Y-94775468D01*
X111264383Y-93947927D01*
X146079251Y-93947927D01*
X146099430Y-94057874D01*
X146140580Y-94161806D01*
X146201133Y-94255767D01*
X146278784Y-94336177D01*
X146370574Y-94399973D01*
X146473008Y-94444725D01*
X146582183Y-94468729D01*
X146693941Y-94471070D01*
X146804026Y-94451659D01*
X146908244Y-94411236D01*
X147002625Y-94351339D01*
X147083575Y-94274252D01*
X147148010Y-94182909D01*
X147193476Y-94080791D01*
X147218242Y-93971786D01*
X147220024Y-93844109D01*
X147198312Y-93734455D01*
X147155715Y-93631106D01*
X147093856Y-93538000D01*
X147015090Y-93458682D01*
X146922418Y-93396174D01*
X146819369Y-93352857D01*
X146709870Y-93330380D01*
X146598089Y-93329599D01*
X146488287Y-93350545D01*
X146384643Y-93392420D01*
X146291108Y-93453628D01*
X146211242Y-93531838D01*
X146148088Y-93624072D01*
X146104052Y-93726815D01*
X146080811Y-93836155D01*
X146079251Y-93947927D01*
X111264383Y-93947927D01*
X111214530Y-93860170D01*
X115046240Y-91647927D01*
X139629251Y-91647927D01*
X139649430Y-91757874D01*
X139690580Y-91861806D01*
X139751133Y-91955767D01*
X139828784Y-92036177D01*
X139920574Y-92099973D01*
X140023008Y-92144725D01*
X140132183Y-92168729D01*
X140243941Y-92171070D01*
X140354026Y-92151659D01*
X140458244Y-92111236D01*
X140552625Y-92051339D01*
X140633575Y-91974252D01*
X140698010Y-91882909D01*
X140743476Y-91780791D01*
X140768242Y-91671786D01*
X140770024Y-91544109D01*
X140748312Y-91434455D01*
X140705715Y-91331106D01*
X140643856Y-91238000D01*
X140565090Y-91158682D01*
X140472418Y-91096174D01*
X140369369Y-91052857D01*
X140259870Y-91030380D01*
X140148089Y-91029599D01*
X140038287Y-91050545D01*
X139934643Y-91092420D01*
X139841108Y-91153628D01*
X139761242Y-91231838D01*
X139698088Y-91324072D01*
X139654052Y-91426815D01*
X139630811Y-91536155D01*
X139629251Y-91647927D01*
X115046240Y-91647927D01*
X117991765Y-89947325D01*
X117995574Y-89949973D01*
X118098008Y-89994725D01*
X118207183Y-90018729D01*
X118318941Y-90021070D01*
X118429026Y-90001659D01*
X118533244Y-89961236D01*
X118627625Y-89901339D01*
X118708575Y-89824252D01*
X118773010Y-89732909D01*
X118818476Y-89630791D01*
X118843242Y-89521786D01*
X118844172Y-89455187D01*
X143821987Y-75034216D01*
X146832879Y-80696880D01*
X146832879Y-80696880D01*
G37*
X146832879Y-80696880D02*
X149690283Y-90161059D01*
X150626565Y-99710000D01*
X147891692Y-99710000D01*
X147843856Y-99638000D01*
X147765090Y-99558682D01*
X147672418Y-99496174D01*
X147569369Y-99452857D01*
X147459870Y-99430380D01*
X147348089Y-99429599D01*
X147238287Y-99450545D01*
X147134643Y-99492420D01*
X147041108Y-99553628D01*
X146961242Y-99631838D01*
X146907723Y-99710000D01*
X143991692Y-99710000D01*
X143943856Y-99638000D01*
X143865090Y-99558682D01*
X143772418Y-99496174D01*
X143669369Y-99452857D01*
X143559870Y-99430380D01*
X143448089Y-99429599D01*
X143338287Y-99450545D01*
X143234643Y-99492420D01*
X143141108Y-99553628D01*
X143061242Y-99631838D01*
X143007723Y-99710000D01*
X116251692Y-99710000D01*
X116203856Y-99638000D01*
X116125090Y-99558682D01*
X116032418Y-99496174D01*
X115929369Y-99452857D01*
X115819870Y-99430380D01*
X115708089Y-99429599D01*
X115598287Y-99450545D01*
X115494643Y-99492420D01*
X115401108Y-99553628D01*
X115321242Y-99631838D01*
X115267723Y-99710000D01*
X112840951Y-99710000D01*
X112839992Y-99641347D01*
X112525793Y-97154210D01*
X112157782Y-96047927D01*
X143229251Y-96047927D01*
X143249430Y-96157874D01*
X143290580Y-96261806D01*
X143351133Y-96355767D01*
X143428784Y-96436177D01*
X143520574Y-96499973D01*
X143623008Y-96544725D01*
X143732183Y-96568729D01*
X143843941Y-96571070D01*
X143954026Y-96551659D01*
X144058244Y-96511236D01*
X144152625Y-96451339D01*
X144233575Y-96374252D01*
X144298010Y-96282909D01*
X144343476Y-96180791D01*
X144368242Y-96071786D01*
X144370024Y-95944109D01*
X144348312Y-95834455D01*
X144305715Y-95731106D01*
X144243856Y-95638000D01*
X144165090Y-95558682D01*
X144072418Y-95496174D01*
X143969369Y-95452857D01*
X143859870Y-95430380D01*
X143748089Y-95429599D01*
X143638287Y-95450545D01*
X143534643Y-95492420D01*
X143441108Y-95553628D01*
X143361242Y-95631838D01*
X143298088Y-95724072D01*
X143254052Y-95826815D01*
X143230811Y-95936155D01*
X143229251Y-96047927D01*
X112157782Y-96047927D01*
X111734491Y-94775468D01*
X111264383Y-93947927D01*
X146079251Y-93947927D01*
X146099430Y-94057874D01*
X146140580Y-94161806D01*
X146201133Y-94255767D01*
X146278784Y-94336177D01*
X146370574Y-94399973D01*
X146473008Y-94444725D01*
X146582183Y-94468729D01*
X146693941Y-94471070D01*
X146804026Y-94451659D01*
X146908244Y-94411236D01*
X147002625Y-94351339D01*
X147083575Y-94274252D01*
X147148010Y-94182909D01*
X147193476Y-94080791D01*
X147218242Y-93971786D01*
X147220024Y-93844109D01*
X147198312Y-93734455D01*
X147155715Y-93631106D01*
X147093856Y-93538000D01*
X147015090Y-93458682D01*
X146922418Y-93396174D01*
X146819369Y-93352857D01*
X146709870Y-93330380D01*
X146598089Y-93329599D01*
X146488287Y-93350545D01*
X146384643Y-93392420D01*
X146291108Y-93453628D01*
X146211242Y-93531838D01*
X146148088Y-93624072D01*
X146104052Y-93726815D01*
X146080811Y-93836155D01*
X146079251Y-93947927D01*
X111264383Y-93947927D01*
X111214530Y-93860170D01*
X115046240Y-91647927D01*
X139629251Y-91647927D01*
X139649430Y-91757874D01*
X139690580Y-91861806D01*
X139751133Y-91955767D01*
X139828784Y-92036177D01*
X139920574Y-92099973D01*
X140023008Y-92144725D01*
X140132183Y-92168729D01*
X140243941Y-92171070D01*
X140354026Y-92151659D01*
X140458244Y-92111236D01*
X140552625Y-92051339D01*
X140633575Y-91974252D01*
X140698010Y-91882909D01*
X140743476Y-91780791D01*
X140768242Y-91671786D01*
X140770024Y-91544109D01*
X140748312Y-91434455D01*
X140705715Y-91331106D01*
X140643856Y-91238000D01*
X140565090Y-91158682D01*
X140472418Y-91096174D01*
X140369369Y-91052857D01*
X140259870Y-91030380D01*
X140148089Y-91029599D01*
X140038287Y-91050545D01*
X139934643Y-91092420D01*
X139841108Y-91153628D01*
X139761242Y-91231838D01*
X139698088Y-91324072D01*
X139654052Y-91426815D01*
X139630811Y-91536155D01*
X139629251Y-91647927D01*
X115046240Y-91647927D01*
X117991765Y-89947325D01*
X117995574Y-89949973D01*
X118098008Y-89994725D01*
X118207183Y-90018729D01*
X118318941Y-90021070D01*
X118429026Y-90001659D01*
X118533244Y-89961236D01*
X118627625Y-89901339D01*
X118708575Y-89824252D01*
X118773010Y-89732909D01*
X118818476Y-89630791D01*
X118843242Y-89521786D01*
X118844172Y-89455187D01*
X143821987Y-75034216D01*
X146832879Y-80696880D01*
G36*
X128325917Y-58005102D02*
X135943306Y-64306754D01*
X142191625Y-71967951D01*
X143549532Y-74521802D01*
X118555908Y-88951901D01*
X118547418Y-88946174D01*
X118444369Y-88902857D01*
X118334870Y-88880380D01*
X118223089Y-88879599D01*
X118113287Y-88900545D01*
X118009643Y-88942420D01*
X117916108Y-89003628D01*
X117836242Y-89081838D01*
X117773088Y-89174072D01*
X117729052Y-89276815D01*
X117705811Y-89386155D01*
X117705015Y-89443165D01*
X110928041Y-93355859D01*
X110496226Y-92595727D01*
X108858163Y-90698012D01*
X106882695Y-89154608D01*
X106661061Y-89042653D01*
X106733071Y-88917927D01*
X110579251Y-88917927D01*
X110599430Y-89027874D01*
X110640580Y-89131806D01*
X110701133Y-89225767D01*
X110778784Y-89306177D01*
X110870574Y-89369973D01*
X110973008Y-89414725D01*
X111082183Y-89438729D01*
X111193941Y-89441070D01*
X111304026Y-89421659D01*
X111408244Y-89381236D01*
X111502625Y-89321339D01*
X111583575Y-89244252D01*
X111648010Y-89152909D01*
X111693476Y-89050791D01*
X111718242Y-88941786D01*
X111720024Y-88814109D01*
X111698312Y-88704455D01*
X111655715Y-88601106D01*
X111593856Y-88508000D01*
X111515090Y-88428682D01*
X111422418Y-88366174D01*
X111319369Y-88322857D01*
X111209870Y-88300380D01*
X111098089Y-88299599D01*
X110988287Y-88320545D01*
X110884643Y-88362420D01*
X110791108Y-88423628D01*
X110711242Y-88501838D01*
X110648088Y-88594072D01*
X110604052Y-88696815D01*
X110580811Y-88806155D01*
X110579251Y-88917927D01*
X106733071Y-88917927D01*
X125471652Y-56461807D01*
X128325917Y-58005102D01*
X128325917Y-58005102D01*
G37*
X128325917Y-58005102D02*
X135943306Y-64306754D01*
X142191625Y-71967951D01*
X143549532Y-74521802D01*
X118555908Y-88951901D01*
X118547418Y-88946174D01*
X118444369Y-88902857D01*
X118334870Y-88880380D01*
X118223089Y-88879599D01*
X118113287Y-88900545D01*
X118009643Y-88942420D01*
X117916108Y-89003628D01*
X117836242Y-89081838D01*
X117773088Y-89174072D01*
X117729052Y-89276815D01*
X117705811Y-89386155D01*
X117705015Y-89443165D01*
X110928041Y-93355859D01*
X110496226Y-92595727D01*
X108858163Y-90698012D01*
X106882695Y-89154608D01*
X106661061Y-89042653D01*
X106733071Y-88917927D01*
X110579251Y-88917927D01*
X110599430Y-89027874D01*
X110640580Y-89131806D01*
X110701133Y-89225767D01*
X110778784Y-89306177D01*
X110870574Y-89369973D01*
X110973008Y-89414725D01*
X111082183Y-89438729D01*
X111193941Y-89441070D01*
X111304026Y-89421659D01*
X111408244Y-89381236D01*
X111502625Y-89321339D01*
X111583575Y-89244252D01*
X111648010Y-89152909D01*
X111693476Y-89050791D01*
X111718242Y-88941786D01*
X111720024Y-88814109D01*
X111698312Y-88704455D01*
X111655715Y-88601106D01*
X111593856Y-88508000D01*
X111515090Y-88428682D01*
X111422418Y-88366174D01*
X111319369Y-88322857D01*
X111209870Y-88300380D01*
X111098089Y-88299599D01*
X110988287Y-88320545D01*
X110884643Y-88362420D01*
X110791108Y-88423628D01*
X110711242Y-88501838D01*
X110648088Y-88594072D01*
X110604052Y-88696815D01*
X110580811Y-88806155D01*
X110579251Y-88917927D01*
X106733071Y-88917927D01*
X125471652Y-56461807D01*
X128325917Y-58005102D01*
G36*
X110185602Y-50379616D02*
X119629602Y-53303022D01*
X124961265Y-56185841D01*
X106142561Y-88780739D01*
X104645068Y-88024301D01*
X102230511Y-87350144D01*
X100290000Y-87200830D01*
X100290000Y-84741083D01*
X100352625Y-84701339D01*
X100433575Y-84624252D01*
X100498010Y-84532909D01*
X100543476Y-84430791D01*
X100568242Y-84321786D01*
X100570024Y-84194109D01*
X100548312Y-84084455D01*
X100505715Y-83981106D01*
X100443856Y-83888000D01*
X100365090Y-83808682D01*
X100290000Y-83758033D01*
X100290000Y-49352025D01*
X100353636Y-49346234D01*
X110185602Y-50379616D01*
X110185602Y-50379616D01*
G37*
X110185602Y-50379616D02*
X119629602Y-53303022D01*
X124961265Y-56185841D01*
X106142561Y-88780739D01*
X104645068Y-88024301D01*
X102230511Y-87350144D01*
X100290000Y-87200830D01*
X100290000Y-84741083D01*
X100352625Y-84701339D01*
X100433575Y-84624252D01*
X100498010Y-84532909D01*
X100543476Y-84430791D01*
X100568242Y-84321786D01*
X100570024Y-84194109D01*
X100548312Y-84084455D01*
X100505715Y-83981106D01*
X100443856Y-83888000D01*
X100365090Y-83808682D01*
X100290000Y-83758033D01*
X100290000Y-49352025D01*
X100353636Y-49346234D01*
X110185602Y-50379616D01*
G36*
X99710000Y-83758546D02*
X99641108Y-83803628D01*
X99561242Y-83881838D01*
X99498088Y-83974072D01*
X99454052Y-84076815D01*
X99430811Y-84186155D01*
X99429251Y-84297927D01*
X99449430Y-84407874D01*
X99490580Y-84511806D01*
X99551133Y-84605767D01*
X99628784Y-84686177D01*
X99710000Y-84742624D01*
X99710000Y-87160321D01*
X97241725Y-87454645D01*
X94857517Y-88229321D01*
X93860715Y-88786414D01*
X75028464Y-56168051D01*
X81024303Y-53033502D01*
X90508200Y-50242239D01*
X99710000Y-49404809D01*
X99710000Y-83758546D01*
X99710000Y-83758546D01*
G37*
X99710000Y-83758546D02*
X99641108Y-83803628D01*
X99561242Y-83881838D01*
X99498088Y-83974072D01*
X99454052Y-84076815D01*
X99430811Y-84186155D01*
X99429251Y-84297927D01*
X99449430Y-84407874D01*
X99490580Y-84511806D01*
X99551133Y-84605767D01*
X99628784Y-84686177D01*
X99710000Y-84742624D01*
X99710000Y-87160321D01*
X97241725Y-87454645D01*
X94857517Y-88229321D01*
X93860715Y-88786414D01*
X75028464Y-56168051D01*
X81024303Y-53033502D01*
X90508200Y-50242239D01*
X99710000Y-49404809D01*
X99710000Y-83758546D01*
G36*
X93354379Y-89069396D02*
X92669184Y-89452338D01*
X90760080Y-91077113D01*
X89202922Y-93041758D01*
X89048480Y-93342270D01*
X81392553Y-88922010D01*
X81393319Y-88918637D01*
X81393608Y-88897927D01*
X88299251Y-88897927D01*
X88319430Y-89007874D01*
X88360580Y-89111806D01*
X88421133Y-89205767D01*
X88498784Y-89286177D01*
X88590574Y-89349973D01*
X88693008Y-89394725D01*
X88802183Y-89418729D01*
X88913941Y-89421070D01*
X89024026Y-89401659D01*
X89128244Y-89361236D01*
X89222625Y-89301339D01*
X89303575Y-89224252D01*
X89368010Y-89132909D01*
X89413476Y-89030791D01*
X89438242Y-88921786D01*
X89440024Y-88794109D01*
X89418312Y-88684455D01*
X89375715Y-88581106D01*
X89313856Y-88488000D01*
X89235090Y-88408682D01*
X89142418Y-88346174D01*
X89039369Y-88302857D01*
X88929870Y-88280380D01*
X88818089Y-88279599D01*
X88708287Y-88300545D01*
X88604643Y-88342420D01*
X88511108Y-88403628D01*
X88431242Y-88481838D01*
X88368088Y-88574072D01*
X88324052Y-88676815D01*
X88300811Y-88786155D01*
X88299251Y-88897927D01*
X81393608Y-88897927D01*
X81395023Y-88796560D01*
X81374264Y-88691715D01*
X81333535Y-88592900D01*
X81274388Y-88503877D01*
X81199077Y-88428038D01*
X81110469Y-88368272D01*
X81011941Y-88326854D01*
X80907244Y-88305363D01*
X80800366Y-88304617D01*
X80695379Y-88324644D01*
X80596282Y-88364682D01*
X80517054Y-88416528D01*
X75194336Y-85343379D01*
X75195024Y-85294109D01*
X75173312Y-85184455D01*
X75130715Y-85081106D01*
X75068856Y-84988000D01*
X74990090Y-84908682D01*
X74897418Y-84846174D01*
X74794369Y-84802857D01*
X74684870Y-84780380D01*
X74573089Y-84779599D01*
X74463287Y-84800545D01*
X74359643Y-84842420D01*
X74344188Y-84852534D01*
X58744497Y-75845825D01*
X74104284Y-75845825D01*
X74123578Y-75950949D01*
X74162923Y-76050324D01*
X74220820Y-76140164D01*
X74295066Y-76217047D01*
X74382830Y-76278044D01*
X74480771Y-76320834D01*
X74585158Y-76343785D01*
X74692014Y-76346023D01*
X74797270Y-76327463D01*
X74896917Y-76288813D01*
X74987159Y-76231544D01*
X75064559Y-76157837D01*
X75126168Y-76070501D01*
X75169640Y-75972861D01*
X75193319Y-75868637D01*
X75195023Y-75746560D01*
X75174264Y-75641715D01*
X75133535Y-75542900D01*
X75074388Y-75453877D01*
X74999077Y-75378038D01*
X74910469Y-75318272D01*
X74811941Y-75276854D01*
X74707244Y-75255363D01*
X74600366Y-75254617D01*
X74495379Y-75274644D01*
X74396282Y-75314682D01*
X74306849Y-75373206D01*
X74230486Y-75447986D01*
X74170102Y-75536174D01*
X74127998Y-75634411D01*
X74105776Y-75738955D01*
X74104284Y-75845825D01*
X58744497Y-75845825D01*
X56471207Y-74533308D01*
X58203876Y-71381596D01*
X64558553Y-63808386D01*
X72263185Y-57613704D01*
X74514023Y-56436994D01*
X93354379Y-89069396D01*
X93354379Y-89069396D01*
G37*
X93354379Y-89069396D02*
X92669184Y-89452338D01*
X90760080Y-91077113D01*
X89202922Y-93041758D01*
X89048480Y-93342270D01*
X81392553Y-88922010D01*
X81393319Y-88918637D01*
X81393608Y-88897927D01*
X88299251Y-88897927D01*
X88319430Y-89007874D01*
X88360580Y-89111806D01*
X88421133Y-89205767D01*
X88498784Y-89286177D01*
X88590574Y-89349973D01*
X88693008Y-89394725D01*
X88802183Y-89418729D01*
X88913941Y-89421070D01*
X89024026Y-89401659D01*
X89128244Y-89361236D01*
X89222625Y-89301339D01*
X89303575Y-89224252D01*
X89368010Y-89132909D01*
X89413476Y-89030791D01*
X89438242Y-88921786D01*
X89440024Y-88794109D01*
X89418312Y-88684455D01*
X89375715Y-88581106D01*
X89313856Y-88488000D01*
X89235090Y-88408682D01*
X89142418Y-88346174D01*
X89039369Y-88302857D01*
X88929870Y-88280380D01*
X88818089Y-88279599D01*
X88708287Y-88300545D01*
X88604643Y-88342420D01*
X88511108Y-88403628D01*
X88431242Y-88481838D01*
X88368088Y-88574072D01*
X88324052Y-88676815D01*
X88300811Y-88786155D01*
X88299251Y-88897927D01*
X81393608Y-88897927D01*
X81395023Y-88796560D01*
X81374264Y-88691715D01*
X81333535Y-88592900D01*
X81274388Y-88503877D01*
X81199077Y-88428038D01*
X81110469Y-88368272D01*
X81011941Y-88326854D01*
X80907244Y-88305363D01*
X80800366Y-88304617D01*
X80695379Y-88324644D01*
X80596282Y-88364682D01*
X80517054Y-88416528D01*
X75194336Y-85343379D01*
X75195024Y-85294109D01*
X75173312Y-85184455D01*
X75130715Y-85081106D01*
X75068856Y-84988000D01*
X74990090Y-84908682D01*
X74897418Y-84846174D01*
X74794369Y-84802857D01*
X74684870Y-84780380D01*
X74573089Y-84779599D01*
X74463287Y-84800545D01*
X74359643Y-84842420D01*
X74344188Y-84852534D01*
X58744497Y-75845825D01*
X74104284Y-75845825D01*
X74123578Y-75950949D01*
X74162923Y-76050324D01*
X74220820Y-76140164D01*
X74295066Y-76217047D01*
X74382830Y-76278044D01*
X74480771Y-76320834D01*
X74585158Y-76343785D01*
X74692014Y-76346023D01*
X74797270Y-76327463D01*
X74896917Y-76288813D01*
X74987159Y-76231544D01*
X75064559Y-76157837D01*
X75126168Y-76070501D01*
X75169640Y-75972861D01*
X75193319Y-75868637D01*
X75195023Y-75746560D01*
X75174264Y-75641715D01*
X75133535Y-75542900D01*
X75074388Y-75453877D01*
X74999077Y-75378038D01*
X74910469Y-75318272D01*
X74811941Y-75276854D01*
X74707244Y-75255363D01*
X74600366Y-75254617D01*
X74495379Y-75274644D01*
X74396282Y-75314682D01*
X74306849Y-75373206D01*
X74230486Y-75447986D01*
X74170102Y-75536174D01*
X74127998Y-75634411D01*
X74105776Y-75738955D01*
X74104284Y-75845825D01*
X58744497Y-75845825D01*
X56471207Y-74533308D01*
X58203876Y-71381596D01*
X64558553Y-63808386D01*
X72263185Y-57613704D01*
X74514023Y-56436994D01*
X93354379Y-89069396D01*
G36*
X74054844Y-85355425D02*
X74054251Y-85397927D01*
X74074430Y-85507874D01*
X74115580Y-85611806D01*
X74176133Y-85705767D01*
X74253784Y-85786177D01*
X74345574Y-85849973D01*
X74448008Y-85894725D01*
X74557183Y-85918729D01*
X74668941Y-85921070D01*
X74779026Y-85901659D01*
X74883244Y-85861236D01*
X74905961Y-85846819D01*
X80318187Y-88971574D01*
X80323578Y-89000949D01*
X80362923Y-89100324D01*
X80420820Y-89190164D01*
X80495066Y-89267047D01*
X80582830Y-89328044D01*
X80680771Y-89370834D01*
X80785158Y-89393785D01*
X80892014Y-89396023D01*
X80997270Y-89377463D01*
X81011588Y-89371910D01*
X88783037Y-93858765D01*
X88057021Y-95271440D01*
X87366024Y-97681232D01*
X87195664Y-99710000D01*
X84741692Y-99710000D01*
X84693856Y-99638000D01*
X84615090Y-99558682D01*
X84522418Y-99496174D01*
X84419369Y-99452857D01*
X84309870Y-99430380D01*
X84198089Y-99429599D01*
X84088287Y-99450545D01*
X83984643Y-99492420D01*
X83891108Y-99553628D01*
X83811242Y-99631838D01*
X83757723Y-99710000D01*
X81411676Y-99710000D01*
X81374388Y-99653877D01*
X81299077Y-99578038D01*
X81210469Y-99518272D01*
X81111941Y-99476854D01*
X81007244Y-99455363D01*
X80900366Y-99454617D01*
X80795379Y-99474644D01*
X80696282Y-99514682D01*
X80606849Y-99573206D01*
X80530486Y-99647986D01*
X80488024Y-99710000D01*
X49384976Y-99710000D01*
X49349938Y-99292746D01*
X50451933Y-89468233D01*
X53441199Y-80044873D01*
X56191538Y-75042024D01*
X74054844Y-85355425D01*
X74054844Y-85355425D01*
G37*
X74054844Y-85355425D02*
X74054251Y-85397927D01*
X74074430Y-85507874D01*
X74115580Y-85611806D01*
X74176133Y-85705767D01*
X74253784Y-85786177D01*
X74345574Y-85849973D01*
X74448008Y-85894725D01*
X74557183Y-85918729D01*
X74668941Y-85921070D01*
X74779026Y-85901659D01*
X74883244Y-85861236D01*
X74905961Y-85846819D01*
X80318187Y-88971574D01*
X80323578Y-89000949D01*
X80362923Y-89100324D01*
X80420820Y-89190164D01*
X80495066Y-89267047D01*
X80582830Y-89328044D01*
X80680771Y-89370834D01*
X80785158Y-89393785D01*
X80892014Y-89396023D01*
X80997270Y-89377463D01*
X81011588Y-89371910D01*
X88783037Y-93858765D01*
X88057021Y-95271440D01*
X87366024Y-97681232D01*
X87195664Y-99710000D01*
X84741692Y-99710000D01*
X84693856Y-99638000D01*
X84615090Y-99558682D01*
X84522418Y-99496174D01*
X84419369Y-99452857D01*
X84309870Y-99430380D01*
X84198089Y-99429599D01*
X84088287Y-99450545D01*
X83984643Y-99492420D01*
X83891108Y-99553628D01*
X83811242Y-99631838D01*
X83757723Y-99710000D01*
X81411676Y-99710000D01*
X81374388Y-99653877D01*
X81299077Y-99578038D01*
X81210469Y-99518272D01*
X81111941Y-99476854D01*
X81007244Y-99455363D01*
X80900366Y-99454617D01*
X80795379Y-99474644D01*
X80696282Y-99514682D01*
X80606849Y-99573206D01*
X80530486Y-99647986D01*
X80488024Y-99710000D01*
X49384976Y-99710000D01*
X49349938Y-99292746D01*
X50451933Y-89468233D01*
X53441199Y-80044873D01*
X56191538Y-75042024D01*
X74054844Y-85355425D01*
G36*
X80520820Y-100340164D02*
X80595066Y-100417047D01*
X80682830Y-100478044D01*
X80780771Y-100520834D01*
X80885158Y-100543785D01*
X80992014Y-100546023D01*
X81097270Y-100527463D01*
X81196917Y-100488813D01*
X81287159Y-100431544D01*
X81364559Y-100357837D01*
X81412413Y-100290000D01*
X83758750Y-100290000D01*
X83801133Y-100355767D01*
X83878784Y-100436177D01*
X83970574Y-100499973D01*
X84073008Y-100544725D01*
X84182183Y-100568729D01*
X84293941Y-100571070D01*
X84404026Y-100551659D01*
X84508244Y-100511236D01*
X84602625Y-100451339D01*
X84683575Y-100374252D01*
X84743008Y-100290000D01*
X87168664Y-100290000D01*
X87435694Y-102670626D01*
X88193707Y-105060184D01*
X88786819Y-106139051D01*
X56155953Y-124978521D01*
X52902172Y-118647349D01*
X50177187Y-109144197D01*
X49433680Y-100290000D01*
X80488492Y-100290000D01*
X80520820Y-100340164D01*
X80520820Y-100340164D01*
G37*
X80520820Y-100340164D02*
X80595066Y-100417047D01*
X80682830Y-100478044D01*
X80780771Y-100520834D01*
X80885158Y-100543785D01*
X80992014Y-100546023D01*
X81097270Y-100527463D01*
X81196917Y-100488813D01*
X81287159Y-100431544D01*
X81364559Y-100357837D01*
X81412413Y-100290000D01*
X83758750Y-100290000D01*
X83801133Y-100355767D01*
X83878784Y-100436177D01*
X83970574Y-100499973D01*
X84073008Y-100544725D01*
X84182183Y-100568729D01*
X84293941Y-100571070D01*
X84404026Y-100551659D01*
X84508244Y-100511236D01*
X84602625Y-100451339D01*
X84683575Y-100374252D01*
X84743008Y-100290000D01*
X87168664Y-100290000D01*
X87435694Y-102670626D01*
X88193707Y-105060184D01*
X88786819Y-106139051D01*
X56155953Y-124978521D01*
X52902172Y-118647349D01*
X50177187Y-109144197D01*
X49433680Y-100290000D01*
X80488492Y-100290000D01*
X80520820Y-100340164D01*
G36*
X89401417Y-107257001D02*
X91012824Y-109177402D01*
X92966550Y-110748238D01*
X93345338Y-110946264D01*
X74537748Y-143521912D01*
X71090504Y-141595313D01*
X63561842Y-135187920D01*
X57421099Y-127440229D01*
X56421382Y-125494991D01*
X81201903Y-111187927D01*
X88279251Y-111187927D01*
X88299430Y-111297874D01*
X88340580Y-111401806D01*
X88401133Y-111495767D01*
X88478784Y-111576177D01*
X88570574Y-111639973D01*
X88673008Y-111684725D01*
X88782183Y-111708729D01*
X88893941Y-111711070D01*
X89004026Y-111691659D01*
X89108244Y-111651236D01*
X89202625Y-111591339D01*
X89283575Y-111514252D01*
X89348010Y-111422909D01*
X89393476Y-111320791D01*
X89418242Y-111211786D01*
X89420024Y-111084109D01*
X89398312Y-110974455D01*
X89355715Y-110871106D01*
X89293856Y-110778000D01*
X89215090Y-110698682D01*
X89122418Y-110636174D01*
X89019369Y-110592857D01*
X88909870Y-110570380D01*
X88798089Y-110569599D01*
X88688287Y-110590545D01*
X88584643Y-110632420D01*
X88491108Y-110693628D01*
X88411242Y-110771838D01*
X88348088Y-110864072D01*
X88304052Y-110966815D01*
X88280811Y-111076155D01*
X88279251Y-111187927D01*
X81201903Y-111187927D01*
X89066293Y-106647412D01*
X89401417Y-107257001D01*
X89401417Y-107257001D01*
G37*
X89401417Y-107257001D02*
X91012824Y-109177402D01*
X92966550Y-110748238D01*
X93345338Y-110946264D01*
X74537748Y-143521912D01*
X71090504Y-141595313D01*
X63561842Y-135187920D01*
X57421099Y-127440229D01*
X56421382Y-125494991D01*
X81201903Y-111187927D01*
X88279251Y-111187927D01*
X88299430Y-111297874D01*
X88340580Y-111401806D01*
X88401133Y-111495767D01*
X88478784Y-111576177D01*
X88570574Y-111639973D01*
X88673008Y-111684725D01*
X88782183Y-111708729D01*
X88893941Y-111711070D01*
X89004026Y-111691659D01*
X89108244Y-111651236D01*
X89202625Y-111591339D01*
X89283575Y-111514252D01*
X89348010Y-111422909D01*
X89393476Y-111320791D01*
X89418242Y-111211786D01*
X89420024Y-111084109D01*
X89398312Y-110974455D01*
X89355715Y-110871106D01*
X89293856Y-110778000D01*
X89215090Y-110698682D01*
X89122418Y-110636174D01*
X89019369Y-110592857D01*
X88909870Y-110570380D01*
X88798089Y-110569599D01*
X88688287Y-110590545D01*
X88584643Y-110632420D01*
X88491108Y-110693628D01*
X88411242Y-110771838D01*
X88348088Y-110864072D01*
X88304052Y-110966815D01*
X88280811Y-111076155D01*
X88279251Y-111187927D01*
X81201903Y-111187927D01*
X89066293Y-106647412D01*
X89401417Y-107257001D01*
G36*
X95188178Y-111909677D02*
X97593087Y-112617480D01*
X99710000Y-112810134D01*
X99710000Y-115268546D01*
X99641108Y-115313628D01*
X99561242Y-115391838D01*
X99498088Y-115484072D01*
X99454052Y-115586815D01*
X99430811Y-115696155D01*
X99429251Y-115807927D01*
X99449430Y-115917874D01*
X99490580Y-116021806D01*
X99551133Y-116115767D01*
X99628784Y-116196177D01*
X99710000Y-116252624D01*
X99710000Y-150584578D01*
X98939162Y-150643891D01*
X89122582Y-149473334D01*
X79720320Y-146418354D01*
X75044084Y-143804894D01*
X93859779Y-111215207D01*
X95188178Y-111909677D01*
X95188178Y-111909677D01*
G37*
X95188178Y-111909677D02*
X97593087Y-112617480D01*
X99710000Y-112810134D01*
X99710000Y-115268546D01*
X99641108Y-115313628D01*
X99561242Y-115391838D01*
X99498088Y-115484072D01*
X99454052Y-115586815D01*
X99430811Y-115696155D01*
X99429251Y-115807927D01*
X99449430Y-115917874D01*
X99490580Y-116021806D01*
X99551133Y-116115767D01*
X99628784Y-116196177D01*
X99710000Y-116252624D01*
X99710000Y-150584578D01*
X98939162Y-150643891D01*
X89122582Y-149473334D01*
X79720320Y-146418354D01*
X75044084Y-143804894D01*
X93859779Y-111215207D01*
X95188178Y-111909677D01*
G36*
X124986741Y-143858285D02*
X118318093Y-147226862D01*
X108796148Y-149885437D01*
X100290000Y-150539950D01*
X100290000Y-116251083D01*
X100352625Y-116211339D01*
X100433575Y-116134252D01*
X100498010Y-116042909D01*
X100543476Y-115940791D01*
X100568242Y-115831786D01*
X100570024Y-115704109D01*
X100548312Y-115594455D01*
X100505715Y-115491106D01*
X100443856Y-115398000D01*
X100365090Y-115318682D01*
X100290000Y-115268033D01*
X100290000Y-112823632D01*
X102582846Y-112582644D01*
X104977638Y-111841332D01*
X106139129Y-111213316D01*
X124986741Y-143858285D01*
X124986741Y-143858285D01*
G37*
X124986741Y-143858285D02*
X118318093Y-147226862D01*
X108796148Y-149885437D01*
X100290000Y-150539950D01*
X100290000Y-116251083D01*
X100352625Y-116211339D01*
X100433575Y-116134252D01*
X100498010Y-116042909D01*
X100543476Y-115940791D01*
X100568242Y-115831786D01*
X100570024Y-115704109D01*
X100548312Y-115594455D01*
X100505715Y-115491106D01*
X100443856Y-115398000D01*
X100365090Y-115318682D01*
X100290000Y-115268033D01*
X100290000Y-112823632D01*
X102582846Y-112582644D01*
X104977638Y-111841332D01*
X106139129Y-111213316D01*
X124986741Y-143858285D01*
G36*
X143516767Y-125459748D02*
X141392475Y-129199179D01*
X134932678Y-136682926D01*
X127142306Y-142769431D01*
X125505604Y-143596189D01*
X113468557Y-122747927D01*
X126229251Y-122747927D01*
X126249430Y-122857874D01*
X126290580Y-122961806D01*
X126351133Y-123055767D01*
X126428784Y-123136177D01*
X126520574Y-123199973D01*
X126623008Y-123244725D01*
X126732183Y-123268729D01*
X126843941Y-123271070D01*
X126954026Y-123251659D01*
X127058244Y-123211236D01*
X127152625Y-123151339D01*
X127233575Y-123074252D01*
X127298010Y-122982909D01*
X127343476Y-122880791D01*
X127368242Y-122771786D01*
X127370024Y-122644109D01*
X127350980Y-122547927D01*
X128129251Y-122547927D01*
X128149430Y-122657874D01*
X128190580Y-122761806D01*
X128251133Y-122855767D01*
X128328784Y-122936177D01*
X128420574Y-122999973D01*
X128523008Y-123044725D01*
X128632183Y-123068729D01*
X128743941Y-123071070D01*
X128854026Y-123051659D01*
X128958244Y-123011236D01*
X129052625Y-122951339D01*
X129133575Y-122874252D01*
X129198010Y-122782909D01*
X129243476Y-122680791D01*
X129268242Y-122571786D01*
X129270024Y-122444109D01*
X129248312Y-122334455D01*
X129205715Y-122231106D01*
X129143856Y-122138000D01*
X129065090Y-122058682D01*
X128972418Y-121996174D01*
X128869369Y-121952857D01*
X128759870Y-121930380D01*
X128648089Y-121929599D01*
X128538287Y-121950545D01*
X128434643Y-121992420D01*
X128341108Y-122053628D01*
X128261242Y-122131838D01*
X128198088Y-122224072D01*
X128154052Y-122326815D01*
X128130811Y-122436155D01*
X128129251Y-122547927D01*
X127350980Y-122547927D01*
X127348312Y-122534455D01*
X127305715Y-122431106D01*
X127243856Y-122338000D01*
X127165090Y-122258682D01*
X127072418Y-122196174D01*
X126969369Y-122152857D01*
X126859870Y-122130380D01*
X126748089Y-122129599D01*
X126638287Y-122150545D01*
X126534643Y-122192420D01*
X126441108Y-122253628D01*
X126361242Y-122331838D01*
X126298088Y-122424072D01*
X126254052Y-122526815D01*
X126230811Y-122636155D01*
X126229251Y-122747927D01*
X113468557Y-122747927D01*
X106788449Y-111177927D01*
X110589251Y-111177927D01*
X110609430Y-111287874D01*
X110650580Y-111391806D01*
X110711133Y-111485767D01*
X110788784Y-111566177D01*
X110880574Y-111629973D01*
X110983008Y-111674725D01*
X111092183Y-111698729D01*
X111203941Y-111701070D01*
X111314026Y-111681659D01*
X111418244Y-111641236D01*
X111512625Y-111581339D01*
X111593575Y-111504252D01*
X111658010Y-111412909D01*
X111703476Y-111310791D01*
X111728242Y-111201786D01*
X111730024Y-111074109D01*
X111708312Y-110964455D01*
X111665715Y-110861106D01*
X111603856Y-110768000D01*
X111525090Y-110688682D01*
X111432418Y-110626174D01*
X111329369Y-110582857D01*
X111219870Y-110560380D01*
X111108089Y-110559599D01*
X110998287Y-110580545D01*
X110894643Y-110622420D01*
X110801108Y-110683628D01*
X110721242Y-110761838D01*
X110658088Y-110854072D01*
X110614052Y-110956815D01*
X110590811Y-111066155D01*
X110589251Y-111177927D01*
X106788449Y-111177927D01*
X106649541Y-110937338D01*
X107182833Y-110648988D01*
X109114436Y-109051026D01*
X110698873Y-107108314D01*
X110941522Y-106651957D01*
X143516767Y-125459748D01*
X143516767Y-125459748D01*
G37*
X143516767Y-125459748D02*
X141392475Y-129199179D01*
X134932678Y-136682926D01*
X127142306Y-142769431D01*
X125505604Y-143596189D01*
X113468557Y-122747927D01*
X126229251Y-122747927D01*
X126249430Y-122857874D01*
X126290580Y-122961806D01*
X126351133Y-123055767D01*
X126428784Y-123136177D01*
X126520574Y-123199973D01*
X126623008Y-123244725D01*
X126732183Y-123268729D01*
X126843941Y-123271070D01*
X126954026Y-123251659D01*
X127058244Y-123211236D01*
X127152625Y-123151339D01*
X127233575Y-123074252D01*
X127298010Y-122982909D01*
X127343476Y-122880791D01*
X127368242Y-122771786D01*
X127370024Y-122644109D01*
X127350980Y-122547927D01*
X128129251Y-122547927D01*
X128149430Y-122657874D01*
X128190580Y-122761806D01*
X128251133Y-122855767D01*
X128328784Y-122936177D01*
X128420574Y-122999973D01*
X128523008Y-123044725D01*
X128632183Y-123068729D01*
X128743941Y-123071070D01*
X128854026Y-123051659D01*
X128958244Y-123011236D01*
X129052625Y-122951339D01*
X129133575Y-122874252D01*
X129198010Y-122782909D01*
X129243476Y-122680791D01*
X129268242Y-122571786D01*
X129270024Y-122444109D01*
X129248312Y-122334455D01*
X129205715Y-122231106D01*
X129143856Y-122138000D01*
X129065090Y-122058682D01*
X128972418Y-121996174D01*
X128869369Y-121952857D01*
X128759870Y-121930380D01*
X128648089Y-121929599D01*
X128538287Y-121950545D01*
X128434643Y-121992420D01*
X128341108Y-122053628D01*
X128261242Y-122131838D01*
X128198088Y-122224072D01*
X128154052Y-122326815D01*
X128130811Y-122436155D01*
X128129251Y-122547927D01*
X127350980Y-122547927D01*
X127348312Y-122534455D01*
X127305715Y-122431106D01*
X127243856Y-122338000D01*
X127165090Y-122258682D01*
X127072418Y-122196174D01*
X126969369Y-122152857D01*
X126859870Y-122130380D01*
X126748089Y-122129599D01*
X126638287Y-122150545D01*
X126534643Y-122192420D01*
X126441108Y-122253628D01*
X126361242Y-122331838D01*
X126298088Y-122424072D01*
X126254052Y-122526815D01*
X126230811Y-122636155D01*
X126229251Y-122747927D01*
X113468557Y-122747927D01*
X106788449Y-111177927D01*
X110589251Y-111177927D01*
X110609430Y-111287874D01*
X110650580Y-111391806D01*
X110711133Y-111485767D01*
X110788784Y-111566177D01*
X110880574Y-111629973D01*
X110983008Y-111674725D01*
X111092183Y-111698729D01*
X111203941Y-111701070D01*
X111314026Y-111681659D01*
X111418244Y-111641236D01*
X111512625Y-111581339D01*
X111593575Y-111504252D01*
X111658010Y-111412909D01*
X111703476Y-111310791D01*
X111728242Y-111201786D01*
X111730024Y-111074109D01*
X111708312Y-110964455D01*
X111665715Y-110861106D01*
X111603856Y-110768000D01*
X111525090Y-110688682D01*
X111432418Y-110626174D01*
X111329369Y-110582857D01*
X111219870Y-110560380D01*
X111108089Y-110559599D01*
X110998287Y-110580545D01*
X110894643Y-110622420D01*
X110801108Y-110683628D01*
X110721242Y-110761838D01*
X110658088Y-110854072D01*
X110614052Y-110956815D01*
X110590811Y-111066155D01*
X110589251Y-111177927D01*
X106788449Y-111177927D01*
X106649541Y-110937338D01*
X107182833Y-110648988D01*
X109114436Y-109051026D01*
X110698873Y-107108314D01*
X110941522Y-106651957D01*
X143516767Y-125459748D01*
G36*
X115311133Y-100355767D02*
X115388784Y-100436177D01*
X115480574Y-100499973D01*
X115583008Y-100544725D01*
X115692183Y-100568729D01*
X115803941Y-100571070D01*
X115914026Y-100551659D01*
X116018244Y-100511236D01*
X116112625Y-100451339D01*
X116193575Y-100374252D01*
X116253008Y-100290000D01*
X143008750Y-100290000D01*
X143051133Y-100355767D01*
X143128784Y-100436177D01*
X143220574Y-100499973D01*
X143323008Y-100544725D01*
X143432183Y-100568729D01*
X143543941Y-100571070D01*
X143654026Y-100551659D01*
X143758244Y-100511236D01*
X143852625Y-100451339D01*
X143933575Y-100374252D01*
X143993008Y-100290000D01*
X146908750Y-100290000D01*
X146951133Y-100355767D01*
X147028784Y-100436177D01*
X147120574Y-100499973D01*
X147223008Y-100544725D01*
X147332183Y-100568729D01*
X147443941Y-100571070D01*
X147554026Y-100551659D01*
X147658244Y-100511236D01*
X147752625Y-100451339D01*
X147833575Y-100374252D01*
X147893008Y-100290000D01*
X150650950Y-100290000D01*
X150635250Y-101414371D01*
X149396191Y-111222539D01*
X146275645Y-120603245D01*
X143803456Y-124955085D01*
X111213991Y-106139519D01*
X111875794Y-104894849D01*
X112600369Y-102494940D01*
X112816565Y-100290000D01*
X115268750Y-100290000D01*
X115311133Y-100355767D01*
X115311133Y-100355767D01*
G37*
X115311133Y-100355767D02*
X115388784Y-100436177D01*
X115480574Y-100499973D01*
X115583008Y-100544725D01*
X115692183Y-100568729D01*
X115803941Y-100571070D01*
X115914026Y-100551659D01*
X116018244Y-100511236D01*
X116112625Y-100451339D01*
X116193575Y-100374252D01*
X116253008Y-100290000D01*
X143008750Y-100290000D01*
X143051133Y-100355767D01*
X143128784Y-100436177D01*
X143220574Y-100499973D01*
X143323008Y-100544725D01*
X143432183Y-100568729D01*
X143543941Y-100571070D01*
X143654026Y-100551659D01*
X143758244Y-100511236D01*
X143852625Y-100451339D01*
X143933575Y-100374252D01*
X143993008Y-100290000D01*
X146908750Y-100290000D01*
X146951133Y-100355767D01*
X147028784Y-100436177D01*
X147120574Y-100499973D01*
X147223008Y-100544725D01*
X147332183Y-100568729D01*
X147443941Y-100571070D01*
X147554026Y-100551659D01*
X147658244Y-100511236D01*
X147752625Y-100451339D01*
X147833575Y-100374252D01*
X147893008Y-100290000D01*
X150650950Y-100290000D01*
X150635250Y-101414371D01*
X149396191Y-111222539D01*
X146275645Y-120603245D01*
X143803456Y-124955085D01*
X111213991Y-106139519D01*
X111875794Y-104894849D01*
X112600369Y-102494940D01*
X112816565Y-100290000D01*
X115268750Y-100290000D01*
X115311133Y-100355767D01*
M02*
