G04 #@! TF.GenerationSoftware,KiCad,Pcbnew,(2017-12-21 revision 7586afd53)-makepkg*
G04 #@! TF.CreationDate,2018-01-22T18:21:21-08:00*
G04 #@! TF.ProjectId,fieldmill,6669656C646D696C6C2E6B696361645F,A*
G04 #@! TF.SameCoordinates,Original*
G04 #@! TF.FileFunction,Copper,L2,Inr,Signal*
G04 #@! TF.FilePolarity,Positive*
%FSLAX46Y46*%
G04 Gerber Fmt 4.6, Leading zero omitted, Abs format (unit mm)*
G04 Created by KiCad (PCBNEW (2017-12-21 revision 7586afd53)-makepkg) date 01/22/18 18:21:21*
%MOMM*%
%LPD*%
G01*
G04 APERTURE LIST*
%ADD10C,0.600000*%
%ADD11C,0.550000*%
%ADD12C,0.200000*%
G04 APERTURE END LIST*
D10*
X143800000Y-96000000D03*
X140200000Y-91600000D03*
X143500000Y-100000000D03*
X74625000Y-85350000D03*
X128700000Y-122500000D03*
X126800000Y-122700000D03*
X146650000Y-93900000D03*
X118275000Y-89450000D03*
D11*
X80950000Y-100000000D03*
X74650000Y-75800000D03*
X80850000Y-88850000D03*
D10*
X88280000Y-107670000D03*
X147400000Y-100000000D03*
X86760000Y-91380000D03*
X115725000Y-98525000D03*
X111150000Y-88870000D03*
X111160000Y-111130000D03*
X88850000Y-111140000D03*
X88870000Y-88850000D03*
X115760000Y-100000000D03*
X84250000Y-100000000D03*
X100000000Y-115760000D03*
X100000000Y-84250000D03*
X96000000Y-115281675D03*
X85379536Y-95850000D03*
X104150000Y-114620464D03*
X112140000Y-90860000D03*
X111880000Y-108490000D03*
X85850000Y-103588125D03*
X103650000Y-85866579D03*
X96550000Y-86434008D03*
X113552595Y-103500000D03*
D12*
X105074133Y-113048110D02*
X105638454Y-112814361D01*
X104500153Y-113257022D02*
X105074133Y-113048110D01*
X103917606Y-113440698D02*
X104500153Y-113257022D01*
X102129727Y-113837061D02*
X102731265Y-113730994D01*
X100915644Y-113970025D02*
X101524136Y-113916789D01*
X100305408Y-113996668D02*
X100915644Y-113970025D01*
X99084356Y-113970025D02*
X99694592Y-113996668D01*
X98475864Y-113916789D02*
X99084356Y-113970025D01*
X97870273Y-113837061D02*
X98475864Y-113916789D01*
X97268735Y-113730994D02*
X97870273Y-113837061D01*
X96082394Y-113440698D02*
X96672398Y-113598789D01*
X92222017Y-111640575D02*
X92737174Y-111968766D01*
X90769159Y-110525757D02*
X91237071Y-110918383D01*
X90318817Y-110113095D02*
X90769159Y-110525757D01*
X89886905Y-109681183D02*
X90318817Y-110113095D01*
X89081617Y-108762929D02*
X89474243Y-109230841D01*
X88709776Y-108278335D02*
X89081617Y-108762929D01*
X88359425Y-107777983D02*
X88709776Y-108278335D01*
X88031234Y-107262826D02*
X88359425Y-107777983D01*
X88280000Y-107670000D02*
X88031234Y-107262826D01*
X96082394Y-86559302D02*
X96550000Y-86434008D01*
X95499847Y-86742978D02*
X96082394Y-86559302D01*
X94925867Y-86951890D02*
X95499847Y-86742978D01*
X94361546Y-87185639D02*
X94925867Y-86951890D01*
X93807958Y-87443782D02*
X94361546Y-87185639D01*
X93266157Y-87725825D02*
X93807958Y-87443782D01*
X94361546Y-112814361D02*
X94925867Y-113048110D01*
X92737174Y-88031234D02*
X93266157Y-87725825D01*
X92222017Y-88359425D02*
X92737174Y-88031234D01*
X86029975Y-99084356D02*
X86083211Y-98475864D01*
X86003332Y-100305408D02*
X86003332Y-99694592D01*
X91721665Y-111290224D02*
X92222017Y-111640575D01*
X86029975Y-100915644D02*
X86003332Y-100305408D01*
X87725825Y-93266157D02*
X88031234Y-92737174D01*
X86083211Y-101524136D02*
X86029975Y-100915644D01*
X86742978Y-104500153D02*
X86559302Y-103917606D01*
X93266157Y-112274175D02*
X93807958Y-112556218D01*
X86401211Y-103327602D02*
X86269006Y-102731265D01*
X102731265Y-113730994D02*
X103327602Y-113598789D01*
X86559302Y-103917606D02*
X86401211Y-103327602D01*
X86162939Y-102129727D02*
X86083211Y-101524136D01*
X87725825Y-106733843D02*
X87443782Y-106192042D01*
X86269006Y-102731265D02*
X86162939Y-102129727D01*
X88280000Y-107670000D02*
X87725825Y-106733843D01*
X87443782Y-106192042D02*
X87185639Y-105638454D01*
X95499847Y-113257022D02*
X96082394Y-113440698D01*
X86742978Y-95499847D02*
X86951890Y-94925867D01*
X87185639Y-105638454D02*
X86951890Y-105074133D01*
X86003332Y-99694592D02*
X86029975Y-99084356D01*
X86269006Y-97268735D02*
X86401211Y-96672398D01*
X86951890Y-105074133D02*
X86742978Y-104500153D01*
X91237071Y-110918383D02*
X91721665Y-111290224D01*
X86083211Y-98475864D02*
X86162939Y-97870273D01*
X92737174Y-111968766D02*
X93266157Y-112274175D01*
X86162939Y-97870273D02*
X86269006Y-97268735D01*
X94925867Y-113048110D02*
X95499847Y-113257022D01*
X90318817Y-89886905D02*
X90769159Y-89474243D01*
X89474243Y-109230841D02*
X89886905Y-109681183D01*
X86401211Y-96672398D02*
X86559302Y-96082394D01*
X91237071Y-89081617D02*
X91721665Y-88709776D01*
X86559302Y-96082394D02*
X86742978Y-95499847D01*
X86951890Y-94925867D02*
X87185639Y-94361546D01*
X87185639Y-94361546D02*
X87443782Y-93807958D01*
X93807958Y-112556218D02*
X94361546Y-112814361D01*
X87443782Y-93807958D02*
X87725825Y-93266157D01*
X96672398Y-113598789D02*
X97268735Y-113730994D01*
X88031234Y-92737174D02*
X88359425Y-92222017D01*
X88359425Y-92222017D02*
X88709776Y-91721665D01*
X88709776Y-91721665D02*
X89081617Y-91237071D01*
X89081617Y-91237071D02*
X89474243Y-90769159D01*
X99694592Y-113996668D02*
X100305408Y-113996668D01*
X89474243Y-90769159D02*
X89886905Y-90318817D01*
X101524136Y-113916789D02*
X102129727Y-113837061D01*
X89886905Y-90318817D02*
X90318817Y-89886905D01*
X91721665Y-88709776D02*
X92222017Y-88359425D01*
X103327602Y-113598789D02*
X103917606Y-113440698D01*
X90769159Y-89474243D02*
X91237071Y-89081617D01*
X105638454Y-112814361D02*
X106192042Y-112556218D01*
X106192042Y-112556218D02*
X106733843Y-112274175D01*
X106733843Y-112274175D02*
X107262826Y-111968766D01*
X107262826Y-111968766D02*
X107777983Y-111640575D01*
X107777983Y-111640575D02*
X108278335Y-111290224D01*
X108278335Y-111290224D02*
X108762929Y-110918383D01*
X108762929Y-110918383D02*
X109230841Y-110525757D01*
X109230841Y-110525757D02*
X109681183Y-110113095D01*
X109681183Y-110113095D02*
X110113095Y-109681183D01*
X110113095Y-109681183D02*
X110525757Y-109230841D01*
X110525757Y-109230841D02*
X110918383Y-108762929D01*
X110918383Y-108762929D02*
X111290224Y-108278335D01*
X111290224Y-108278335D02*
X111640575Y-107777983D01*
X111640575Y-107777983D02*
X111968766Y-107262826D01*
X111968766Y-107262826D02*
X112274175Y-106733843D01*
X112274175Y-106733843D02*
X112556218Y-106192042D01*
X112556218Y-106192042D02*
X112814361Y-105638454D01*
X112814361Y-105638454D02*
X113048110Y-105074133D01*
X113048110Y-105074133D02*
X113257022Y-104500153D01*
X113257022Y-104500153D02*
X113440698Y-103917606D01*
X113440698Y-103917606D02*
X113552595Y-103500000D01*
X113507608Y-108196617D02*
X113137220Y-108778010D01*
X84383888Y-102403550D02*
X84503593Y-103082427D01*
X113852283Y-107599623D02*
X113507608Y-108196617D01*
X85829411Y-93011839D02*
X85538079Y-93636602D01*
X114170589Y-106988161D02*
X113852283Y-107599623D01*
X114461921Y-106363398D02*
X114170589Y-106988161D01*
X96244563Y-115347205D02*
X96000000Y-115281675D01*
X91221990Y-113137220D02*
X91803383Y-113507608D01*
X114725724Y-105726521D02*
X114461921Y-106363398D01*
X98279903Y-115706090D02*
X97596450Y-115616112D01*
X114961496Y-105078744D02*
X114725724Y-105726521D01*
X90110409Y-112322175D02*
X90657308Y-112741825D01*
X115168788Y-104421298D02*
X114961496Y-105078744D01*
X97596450Y-115616112D02*
X96917573Y-115496407D01*
X85538079Y-93636602D02*
X85274276Y-94273479D01*
X115496407Y-103082427D02*
X115347205Y-103755437D01*
X85829411Y-106988161D02*
X86147717Y-107599623D01*
X115616112Y-102403550D02*
X115496407Y-103082427D01*
X115766171Y-98966631D02*
X115140000Y-99592802D01*
X96917573Y-115496407D02*
X96244563Y-115347205D01*
X88957664Y-110417664D02*
X89582336Y-111042336D01*
X115496407Y-96917573D02*
X115616112Y-97596450D01*
X109342692Y-112741825D02*
X108778010Y-113137220D01*
X115254879Y-95900000D02*
X115347205Y-96244563D01*
X98966631Y-115766171D02*
X98279903Y-115706090D01*
X114725724Y-94273479D02*
X114961496Y-94921256D01*
X112741825Y-90657308D02*
X113137220Y-91221990D01*
X89582336Y-111879069D02*
X90110409Y-112322175D01*
X112322175Y-90110409D02*
X112741825Y-90657308D01*
X108196617Y-113507608D02*
X107599623Y-113852283D01*
X84831212Y-95578702D02*
X84652795Y-96244563D01*
X114170589Y-93011839D02*
X114461921Y-93636602D01*
X94921256Y-114961496D02*
X95578702Y-115168788D01*
X111879069Y-89582336D02*
X112322175Y-90110409D01*
X111022336Y-89582336D02*
X111879069Y-89582336D01*
X114461921Y-93636602D02*
X114725724Y-94273479D01*
X110417664Y-88977664D02*
X111022336Y-89582336D01*
X113137220Y-91221990D02*
X113507608Y-91803383D01*
X110417664Y-88120931D02*
X110417664Y-88977664D01*
X109889591Y-87677825D02*
X110417664Y-88120931D01*
X109342692Y-87258175D02*
X109889591Y-87677825D01*
X115347205Y-96244563D02*
X115496407Y-96917573D01*
X108778010Y-86862780D02*
X109342692Y-87258175D01*
X108196617Y-86492392D02*
X108778010Y-86862780D01*
X115090000Y-95340000D02*
X115254879Y-95900000D01*
X107599623Y-86147717D02*
X108196617Y-86492392D01*
X106988161Y-85829411D02*
X107599623Y-86147717D01*
X91803383Y-86492392D02*
X92400377Y-86147717D01*
X106988161Y-114170589D02*
X106363398Y-114461921D01*
X85538079Y-106363398D02*
X85829411Y-106988161D01*
X112741825Y-109342692D02*
X112322175Y-109889591D01*
X84652795Y-103755437D02*
X84831212Y-104421298D01*
X91221990Y-86862780D02*
X91803383Y-86492392D01*
X92400377Y-86147717D02*
X93011839Y-85829411D01*
X90110409Y-87677825D02*
X90657308Y-87258175D01*
X93011839Y-85829411D02*
X93636602Y-85538079D01*
X87258175Y-109342692D02*
X87677825Y-109889591D01*
X88987664Y-89582336D02*
X89582336Y-88987664D01*
X89582336Y-88120931D02*
X90110409Y-87677825D01*
X89582336Y-88987664D02*
X89582336Y-88120931D01*
X88120931Y-89582336D02*
X88987664Y-89582336D01*
X98279903Y-84293910D02*
X98966631Y-84233829D01*
X115706090Y-98279903D02*
X115766171Y-98966631D01*
X90657308Y-87258175D02*
X91221990Y-86862780D01*
X113137220Y-108778010D02*
X112741825Y-109342692D01*
X87677825Y-90110409D02*
X88120931Y-89582336D01*
X86760000Y-91380000D02*
X86840000Y-91260000D01*
X84503593Y-96917573D02*
X84383888Y-97596450D01*
X86840000Y-91260000D02*
X87230000Y-90690000D01*
X113507608Y-91803383D02*
X113852283Y-92400377D01*
X87230000Y-90690000D02*
X87677825Y-90110409D01*
X115706090Y-101720097D02*
X115616112Y-102403550D01*
X93636602Y-85538079D02*
X94273479Y-85274276D01*
X115616112Y-97596450D02*
X115706090Y-98279903D01*
X94273479Y-85274276D02*
X94921256Y-85038504D01*
X113852283Y-92400377D02*
X114170589Y-93011839D01*
X94921256Y-85038504D02*
X95578702Y-84831212D01*
X95578702Y-84831212D02*
X96244563Y-84652795D01*
X96244563Y-84652795D02*
X96917573Y-84503593D01*
X90657308Y-112741825D02*
X91221990Y-113137220D01*
X96917573Y-84503593D02*
X97596450Y-84383888D01*
X103755437Y-84652795D02*
X104421298Y-84831212D01*
X86760000Y-91380000D02*
X86147717Y-92400377D01*
X115140000Y-99592802D02*
X115140000Y-100407198D01*
X97596450Y-84383888D02*
X98279903Y-84293910D01*
X98966631Y-84233829D02*
X99592802Y-84860000D01*
X115766171Y-101033369D02*
X115706090Y-101720097D01*
X99592802Y-84860000D02*
X100407198Y-84860000D01*
X100407198Y-84860000D02*
X101033369Y-84233829D01*
X101033369Y-84233829D02*
X101720097Y-84293910D01*
X110417664Y-111022336D02*
X110417664Y-111879069D01*
X101720097Y-84293910D02*
X102403550Y-84383888D01*
X111879069Y-110417664D02*
X111022336Y-110417664D01*
X85038504Y-94921256D02*
X84831212Y-95578702D01*
X115347205Y-103755437D02*
X115168788Y-104421298D01*
X102403550Y-84383888D02*
X103082427Y-84503593D01*
X105726521Y-85274276D02*
X106363398Y-85538079D01*
X103082427Y-84503593D02*
X103755437Y-84652795D01*
X104421298Y-84831212D02*
X105078744Y-85038504D01*
X110417664Y-111879069D02*
X109889591Y-112322175D01*
X84860000Y-100407198D02*
X84233829Y-101033369D01*
X115140000Y-100407198D02*
X115766171Y-101033369D01*
X105078744Y-85038504D02*
X105726521Y-85274276D01*
X114961496Y-94921256D02*
X115090000Y-95340000D01*
X106363398Y-85538079D02*
X106988161Y-85829411D01*
X112322175Y-109889591D02*
X111879069Y-110417664D01*
X84293910Y-101720097D02*
X84383888Y-102403550D01*
X111022336Y-110417664D02*
X110417664Y-111022336D01*
X109889591Y-112322175D02*
X109342692Y-112741825D01*
X84233829Y-101033369D02*
X84293910Y-101720097D01*
X108778010Y-113137220D02*
X108196617Y-113507608D01*
X84293910Y-98279903D02*
X84233829Y-98966631D01*
X107599623Y-113852283D02*
X106988161Y-114170589D01*
X86862780Y-108778010D02*
X87258175Y-109342692D01*
X106363398Y-114461921D02*
X105726521Y-114725724D01*
X84233829Y-98966631D02*
X84860000Y-99592802D01*
X105726521Y-114725724D02*
X105078744Y-114961496D01*
X105078744Y-114961496D02*
X104421298Y-115168788D01*
X84652795Y-96244563D02*
X84503593Y-96917573D01*
X104421298Y-115168788D02*
X103755437Y-115347205D01*
X103755437Y-115347205D02*
X103082427Y-115496407D01*
X103082427Y-115496407D02*
X102403550Y-115616112D01*
X91803383Y-113507608D02*
X92400377Y-113852283D01*
X102403550Y-115616112D02*
X101720097Y-115706090D01*
X101720097Y-115706090D02*
X101033369Y-115766171D01*
X101033369Y-115766171D02*
X100427198Y-115160000D01*
X100427198Y-115160000D02*
X99572802Y-115160000D01*
X87677825Y-109889591D02*
X88120931Y-110417664D01*
X99572802Y-115160000D02*
X98966631Y-115766171D01*
X88120931Y-110417664D02*
X88957664Y-110417664D01*
X86147717Y-92400377D02*
X85829411Y-93011839D01*
X85274276Y-94273479D02*
X85038504Y-94921256D01*
X84383888Y-97596450D02*
X84293910Y-98279903D01*
X84860000Y-99592802D02*
X84860000Y-100407198D01*
X84503593Y-103082427D02*
X84652795Y-103755437D01*
X84831212Y-104421298D02*
X85038504Y-105078744D01*
X85038504Y-105078744D02*
X85274276Y-105726521D01*
X85274276Y-105726521D02*
X85538079Y-106363398D01*
X86147717Y-107599623D02*
X86492392Y-108196617D01*
X86492392Y-108196617D02*
X86862780Y-108778010D01*
X89582336Y-111042336D02*
X89582336Y-111879069D01*
X92400377Y-113852283D02*
X93011839Y-114170589D01*
X93011839Y-114170589D02*
X93636602Y-114461921D01*
X93636602Y-114461921D02*
X94273479Y-114725724D01*
X94273479Y-114725724D02*
X94921256Y-114961496D01*
X95578702Y-115168788D02*
X96000000Y-115281675D01*
X96672398Y-86401211D02*
X96550000Y-86434008D01*
X97870273Y-86162939D02*
X97268735Y-86269006D01*
X98475864Y-86083211D02*
X97870273Y-86162939D01*
X99084356Y-86029975D02*
X98475864Y-86083211D01*
X99694592Y-86003332D02*
X99084356Y-86029975D01*
X100305408Y-86003332D02*
X99694592Y-86003332D01*
X101524136Y-86083211D02*
X100915644Y-86029975D01*
X102731265Y-86269006D02*
X102129727Y-86162939D01*
X103327602Y-86401211D02*
X102731265Y-86269006D01*
X103917606Y-86559302D02*
X103327602Y-86401211D01*
X113440698Y-96082394D02*
X113257022Y-95499847D01*
X113598789Y-96672398D02*
X113440698Y-96082394D01*
X113916789Y-98475864D02*
X113837061Y-97870273D01*
X113730994Y-97268735D02*
X113598789Y-96672398D01*
X113970025Y-99084356D02*
X113916789Y-98475864D01*
X113996668Y-99694592D02*
X113970025Y-99084356D01*
X113916789Y-101524136D02*
X113970025Y-100915644D01*
X113598789Y-103327602D02*
X113730994Y-102731265D01*
X113837061Y-97870273D02*
X113730994Y-97268735D01*
X105638454Y-87185639D02*
X105074133Y-86951890D01*
X113552595Y-103500000D02*
X113598789Y-103327602D01*
X113730994Y-102731265D02*
X113837061Y-102129727D01*
X113996668Y-100305408D02*
X113996668Y-99694592D01*
X108762929Y-89081617D02*
X108278335Y-88709776D01*
X113837061Y-102129727D02*
X113916789Y-101524136D01*
X113048110Y-94925867D02*
X112814361Y-94361546D01*
X100915644Y-86029975D02*
X100305408Y-86003332D01*
X113257022Y-95499847D02*
X113048110Y-94925867D01*
X106192042Y-87443782D02*
X105638454Y-87185639D01*
X113970025Y-100915644D02*
X113996668Y-100305408D01*
X102129727Y-86162939D02*
X101524136Y-86083211D01*
X112814361Y-94361546D02*
X112556218Y-93807958D01*
X112556218Y-93807958D02*
X112274175Y-93266157D01*
X112274175Y-93266157D02*
X111968766Y-92737174D01*
X111968766Y-92737174D02*
X111640575Y-92222017D01*
X110918383Y-91237071D02*
X110525757Y-90769159D01*
X97268735Y-86269006D02*
X96672398Y-86401211D01*
X111640575Y-92222017D02*
X111290224Y-91721665D01*
X111290224Y-91721665D02*
X110918383Y-91237071D01*
X110525757Y-90769159D02*
X110113095Y-90318817D01*
X110113095Y-90318817D02*
X109681183Y-89886905D01*
X109230841Y-89474243D02*
X108762929Y-89081617D01*
X109681183Y-89886905D02*
X109230841Y-89474243D01*
X108278335Y-88709776D02*
X107777983Y-88359425D01*
X107777983Y-88359425D02*
X107262826Y-88031234D01*
X107262826Y-88031234D02*
X106733843Y-87725825D01*
X106733843Y-87725825D02*
X106192042Y-87443782D01*
X105074133Y-86951890D02*
X104500153Y-86742978D01*
X104500153Y-86742978D02*
X103917606Y-86559302D01*
X114166520Y-105509058D02*
X113912734Y-106121750D01*
X86367534Y-93277212D02*
X86673753Y-92688971D01*
X114393338Y-104885880D02*
X114166520Y-105509058D01*
X114592758Y-104253401D02*
X114393338Y-104885880D01*
X114764399Y-103612826D02*
X114592758Y-104253401D01*
X114760000Y-99413328D02*
X114760000Y-100586672D01*
X115167456Y-99005872D02*
X114760000Y-99413328D01*
X94490942Y-85833480D02*
X95114120Y-85606662D01*
X114393338Y-95114120D02*
X114592758Y-95746599D01*
X97034627Y-85092064D02*
X97687725Y-84976905D01*
X114166520Y-94490942D02*
X114393338Y-95114120D01*
X113632466Y-93277212D02*
X113912734Y-93878250D01*
X113326247Y-92688971D02*
X113632466Y-93277212D01*
X112994660Y-92114646D02*
X113326247Y-92688971D01*
X111854244Y-90485963D02*
X112257958Y-91012093D01*
X111427965Y-89977944D02*
X111854244Y-90485963D01*
X110867944Y-89977944D02*
X111427965Y-89977944D01*
X115023095Y-97687725D02*
X115109656Y-98345224D01*
X110450000Y-89560000D02*
X110867944Y-89977944D01*
X110450000Y-89550000D02*
X110450000Y-89560000D01*
X110022056Y-89122056D02*
X110450000Y-89550000D01*
X108987907Y-87742042D02*
X109514037Y-88145756D01*
X109514037Y-88145756D02*
X110022056Y-88572035D01*
X108444668Y-87361662D02*
X108987907Y-87742042D01*
X106121750Y-86087266D02*
X106722788Y-86367534D01*
X104885880Y-85606662D02*
X105509058Y-85833480D01*
X114592758Y-95746599D02*
X114764399Y-96387174D01*
X103612826Y-85235601D02*
X104253401Y-85407242D01*
X90485963Y-88145756D02*
X91012093Y-87742042D01*
X110022056Y-88572035D02*
X110022056Y-89122056D01*
X98345224Y-84890344D02*
X99005872Y-84832544D01*
X106722788Y-86367534D02*
X107311029Y-86673753D01*
X89977944Y-88572035D02*
X90485963Y-88145756D01*
X113326247Y-107311029D02*
X112994660Y-107885354D01*
X85690000Y-94880000D02*
X85833480Y-94490942D01*
X89142056Y-89977944D02*
X89977944Y-89142056D01*
X108444668Y-112638338D02*
X107885354Y-112994660D01*
X112638338Y-91555332D02*
X112994660Y-92114646D01*
X86087266Y-93878250D02*
X86367534Y-93277212D01*
X87361662Y-91555332D02*
X87742042Y-91012093D01*
X93878250Y-86087266D02*
X94490942Y-85833480D01*
X115109656Y-101654776D02*
X115023095Y-102312275D01*
X107885354Y-87005340D02*
X108444668Y-87361662D01*
X88572035Y-89977944D02*
X89142056Y-89977944D01*
X102312275Y-84976905D02*
X102965373Y-85092064D01*
X87005340Y-92114646D02*
X87361662Y-91555332D01*
X113912734Y-93878250D02*
X114166520Y-94490942D01*
X85550000Y-95280000D02*
X85690000Y-94880000D01*
X89977944Y-89142056D02*
X89977944Y-88572035D01*
X105509058Y-85833480D02*
X106121750Y-86087266D01*
X86673753Y-92688971D02*
X87005340Y-92114646D01*
X91012093Y-87742042D02*
X91555332Y-87361662D01*
X113912734Y-106121750D02*
X113632466Y-106722788D01*
X99005872Y-84832544D02*
X99413328Y-85240000D01*
X115109656Y-98345224D02*
X115167456Y-99005872D01*
X88145756Y-90485963D02*
X88572035Y-89977944D01*
X95114120Y-85606662D02*
X95746599Y-85407242D01*
X114760000Y-100586672D02*
X115167456Y-100994128D01*
X85379536Y-95850000D02*
X85550000Y-95280000D01*
X85833480Y-94490942D02*
X86087266Y-93878250D01*
X113632466Y-106722788D02*
X113326247Y-107311029D01*
X87742042Y-91012093D02*
X88145756Y-90485963D01*
X100586672Y-85240000D02*
X100994128Y-84832544D01*
X114907936Y-97034627D02*
X115023095Y-97687725D01*
X114764399Y-96387174D02*
X114907936Y-97034627D01*
X112257958Y-91012093D02*
X112638338Y-91555332D01*
X91555332Y-87361662D02*
X92114646Y-87005340D01*
X112994660Y-107885354D02*
X112638338Y-108444668D01*
X92114646Y-87005340D02*
X92688971Y-86673753D01*
X92688971Y-86673753D02*
X93277212Y-86367534D01*
X112638338Y-108444668D02*
X112257958Y-108987907D01*
X115023095Y-102312275D02*
X114907936Y-102965373D01*
X107311029Y-86673753D02*
X107885354Y-87005340D01*
X93277212Y-86367534D02*
X93878250Y-86087266D01*
X112257958Y-108987907D02*
X111854244Y-109514037D01*
X95746599Y-85407242D02*
X96387174Y-85235601D01*
X102965373Y-85092064D02*
X103612826Y-85235601D01*
X114907936Y-102965373D02*
X114764399Y-103612826D01*
X96387174Y-85235601D02*
X97034627Y-85092064D01*
X104253401Y-85407242D02*
X104885880Y-85606662D01*
X97687725Y-84976905D02*
X98345224Y-84890344D01*
X99413328Y-85240000D02*
X100586672Y-85240000D01*
X100994128Y-84832544D02*
X101654776Y-84890344D01*
X115167456Y-100994128D02*
X115109656Y-101654776D01*
X101654776Y-84890344D02*
X102312275Y-84976905D01*
X111854244Y-109514037D02*
X111427965Y-110022056D01*
X111427965Y-110022056D02*
X110867944Y-110022056D01*
X110867944Y-110022056D02*
X110022056Y-110867944D01*
X110022056Y-110867944D02*
X110022056Y-111427965D01*
X110022056Y-111427965D02*
X109514037Y-111854244D01*
X109514037Y-111854244D02*
X108987907Y-112257958D01*
X108987907Y-112257958D02*
X108444668Y-112638338D01*
X107885354Y-112994660D02*
X107311029Y-113326247D01*
X107311029Y-113326247D02*
X106722788Y-113632466D01*
X106722788Y-113632466D02*
X106121750Y-113912734D01*
X106121750Y-113912734D02*
X105509058Y-114166520D01*
X105509058Y-114166520D02*
X104885880Y-114393338D01*
X104885880Y-114393338D02*
X104253401Y-114592758D01*
X104253401Y-114592758D02*
X104150000Y-114620464D01*
X95114120Y-114393338D02*
X95746599Y-114592758D01*
X85092064Y-102965373D02*
X85235601Y-103612826D01*
X93878250Y-113912734D02*
X94490942Y-114166520D01*
X84976905Y-102312275D02*
X85092064Y-102965373D01*
X93277212Y-113632466D02*
X93878250Y-113912734D01*
X84976905Y-97687725D02*
X84890344Y-98345224D01*
X94490942Y-114166520D02*
X95114120Y-114393338D01*
X89977944Y-111427965D02*
X90485963Y-111854244D01*
X89122056Y-110022056D02*
X89977944Y-110877944D01*
X88572035Y-110022056D02*
X89122056Y-110022056D01*
X88145756Y-109514037D02*
X88572035Y-110022056D01*
X85092064Y-97034627D02*
X84976905Y-97687725D01*
X87742042Y-108987907D02*
X88145756Y-109514037D01*
X92114646Y-112994660D02*
X92688971Y-113326247D01*
X87361662Y-108444668D02*
X87742042Y-108987907D01*
X86673753Y-107311029D02*
X87005340Y-107885354D01*
X90485963Y-111854244D02*
X91012093Y-112257958D01*
X86087266Y-106121750D02*
X86367534Y-106722788D01*
X91555332Y-112638338D02*
X92114646Y-112994660D01*
X84832544Y-99005872D02*
X85240000Y-99413328D01*
X86367534Y-106722788D02*
X86673753Y-107311029D01*
X84832544Y-100994128D02*
X84890344Y-101654776D01*
X85407242Y-104253401D02*
X85606662Y-104885880D01*
X85379536Y-95850000D02*
X85235601Y-96387174D01*
X92688971Y-113326247D02*
X93277212Y-113632466D01*
X85235601Y-96387174D02*
X85092064Y-97034627D01*
X96387174Y-114764399D02*
X97034627Y-114907936D01*
X85240000Y-99413328D02*
X85240000Y-100586672D01*
X85240000Y-100586672D02*
X84832544Y-100994128D01*
X89977944Y-110877944D02*
X89977944Y-111427965D01*
X84890344Y-98345224D02*
X84832544Y-99005872D01*
X87005340Y-107885354D02*
X87361662Y-108444668D01*
X84890344Y-101654776D02*
X84976905Y-102312275D01*
X91012093Y-112257958D02*
X91555332Y-112638338D01*
X85833480Y-105509058D02*
X86087266Y-106121750D01*
X85235601Y-103612826D02*
X85407242Y-104253401D01*
X85606662Y-104885880D02*
X85833480Y-105509058D01*
X95746599Y-114592758D02*
X96387174Y-114764399D01*
X97034627Y-114907936D02*
X97687725Y-115023095D01*
X97687725Y-115023095D02*
X98345224Y-115109656D01*
X98345224Y-115109656D02*
X99005872Y-115167456D01*
X99005872Y-115167456D02*
X99403328Y-114770000D01*
X99403328Y-114770000D02*
X100596672Y-114770000D01*
X100596672Y-114770000D02*
X100994128Y-115167456D01*
X100994128Y-115167456D02*
X101654776Y-115109656D01*
X101654776Y-115109656D02*
X102312275Y-115023095D01*
X102312275Y-115023095D02*
X102965373Y-114907936D01*
X102965373Y-114907936D02*
X103612826Y-114764399D01*
X103612826Y-114764399D02*
X104150000Y-114620464D01*
X113607315Y-94708405D02*
X113363548Y-94119898D01*
X113825180Y-95306984D02*
X113607315Y-94708405D01*
X114016728Y-95914496D02*
X113825180Y-95306984D01*
X114319465Y-97151681D02*
X114181594Y-96529786D01*
X114568740Y-99045114D02*
X114513223Y-98410544D01*
X114380000Y-100766146D02*
X114380000Y-99233854D01*
X114568740Y-100954886D02*
X114380000Y-100766146D01*
X114513223Y-101589456D02*
X114568740Y-100954886D01*
X114430078Y-102221001D02*
X114513223Y-101589456D01*
X114181594Y-103470214D02*
X114319465Y-102848319D01*
X114016728Y-104085504D02*
X114181594Y-103470214D01*
X113094342Y-106457415D02*
X113363548Y-105880102D01*
X112139456Y-108111325D02*
X112481713Y-107574090D01*
X111774091Y-108633121D02*
X112139456Y-108111325D01*
X111386313Y-109138483D02*
X111774091Y-108633121D01*
X110976861Y-109626449D02*
X111386313Y-109138483D01*
X110546514Y-109783486D02*
X110703551Y-109626449D01*
X110546514Y-109793486D02*
X110546514Y-109783486D01*
X109626449Y-110713551D02*
X110546514Y-109793486D01*
X109138483Y-111386313D02*
X109626449Y-110976861D01*
X108633121Y-111774091D02*
X109138483Y-111386313D01*
X108111325Y-112139456D02*
X108633121Y-111774091D01*
X107574090Y-112481713D02*
X108111325Y-112139456D01*
X107022436Y-112800211D02*
X107574090Y-112481713D01*
X105880102Y-113363548D02*
X106457415Y-113094342D01*
X105291595Y-113607315D02*
X105880102Y-113363548D01*
X104693016Y-113825180D02*
X105291595Y-113607315D01*
X104085504Y-114016728D02*
X104693016Y-113825180D01*
X103470214Y-114181594D02*
X104085504Y-114016728D01*
X113607315Y-105291595D02*
X113825180Y-104693016D01*
X90373551Y-110976861D02*
X90861517Y-111386313D01*
X106457415Y-113094342D02*
X107022436Y-112800211D01*
X89023139Y-109626449D02*
X89286449Y-109626449D01*
X95306984Y-113825180D02*
X95914496Y-114016728D01*
X88613687Y-109138483D02*
X89023139Y-109626449D01*
X99223854Y-114390000D02*
X100776146Y-114390000D01*
X114181594Y-96529786D02*
X114016728Y-95914496D01*
X88225909Y-108633121D02*
X88613687Y-109138483D01*
X91888675Y-112139456D02*
X92425910Y-112481713D01*
X112800211Y-107022436D02*
X113094342Y-106457415D01*
X87518287Y-107574090D02*
X87860544Y-108111325D01*
X114513223Y-98410544D02*
X114430078Y-97778999D01*
X87199789Y-107022436D02*
X87518287Y-107574090D01*
X99045114Y-114568740D02*
X99223854Y-114390000D01*
X110703551Y-109626449D02*
X110976861Y-109626449D01*
X90373551Y-110713551D02*
X90373551Y-110976861D01*
X100776146Y-114390000D02*
X100954886Y-114568740D01*
X85983272Y-104085504D02*
X86174820Y-104693016D01*
X102221001Y-114430078D02*
X102848319Y-114319465D01*
X113825180Y-104693016D02*
X114016728Y-104085504D01*
X85850000Y-103588125D02*
X85983272Y-104085504D01*
X109626449Y-110976861D02*
X109626449Y-110713551D01*
X87860544Y-108111325D02*
X88225909Y-108633121D01*
X92425910Y-112481713D02*
X92977564Y-112800211D01*
X113363548Y-105880102D02*
X113607315Y-105291595D01*
X86174820Y-104693016D02*
X86392685Y-105291595D01*
X112481713Y-107574090D02*
X112800211Y-107022436D01*
X90861517Y-111386313D02*
X91366879Y-111774091D01*
X89286449Y-109626449D02*
X90373551Y-110713551D01*
X98410544Y-114513223D02*
X99045114Y-114568740D01*
X114380000Y-99233854D02*
X114568740Y-99045114D01*
X86392685Y-105291595D02*
X86636452Y-105880102D01*
X114430078Y-97778999D02*
X114319465Y-97151681D01*
X86636452Y-105880102D02*
X86905658Y-106457415D01*
X114319465Y-102848319D02*
X114430078Y-102221001D01*
X86905658Y-106457415D02*
X87199789Y-107022436D01*
X94119898Y-113363548D02*
X94708405Y-113607315D01*
X91366879Y-111774091D02*
X91888675Y-112139456D01*
X92977564Y-112800211D02*
X93542585Y-113094342D01*
X93542585Y-113094342D02*
X94119898Y-113363548D01*
X94708405Y-113607315D02*
X95306984Y-113825180D01*
X95914496Y-114016728D02*
X96529786Y-114181594D01*
X96529786Y-114181594D02*
X97151681Y-114319465D01*
X97151681Y-114319465D02*
X97778999Y-114430078D01*
X97778999Y-114430078D02*
X98410544Y-114513223D01*
X100954886Y-114568740D02*
X101589456Y-114513223D01*
X101589456Y-114513223D02*
X102221001Y-114430078D01*
X102848319Y-114319465D02*
X103470214Y-114181594D01*
X113363548Y-94119898D02*
X113094342Y-93542585D01*
X113094342Y-93542585D02*
X112800211Y-92977564D01*
X112800211Y-92977564D02*
X112481713Y-92425910D01*
X112481713Y-92425910D02*
X112139456Y-91888675D01*
X112139456Y-91888675D02*
X111774091Y-91366879D01*
X111774091Y-91366879D02*
X111386313Y-90861517D01*
X111386313Y-90861517D02*
X110976861Y-90373551D01*
X110976861Y-90373551D02*
X110723551Y-90373551D01*
X110723551Y-90373551D02*
X109626449Y-89276449D01*
X109626449Y-89276449D02*
X109626449Y-89023139D01*
X109626449Y-89023139D02*
X109138483Y-88613687D01*
X109138483Y-88613687D02*
X108633121Y-88225909D01*
X108633121Y-88225909D02*
X108111325Y-87860544D01*
X108111325Y-87860544D02*
X107574090Y-87518287D01*
X107574090Y-87518287D02*
X107022436Y-87199789D01*
X107022436Y-87199789D02*
X106457415Y-86905658D01*
X106457415Y-86905658D02*
X105880102Y-86636452D01*
X105880102Y-86636452D02*
X105291595Y-86392685D01*
X105291595Y-86392685D02*
X104693016Y-86174820D01*
X104693016Y-86174820D02*
X104085504Y-85983272D01*
X104085504Y-85983272D02*
X103650000Y-85866579D01*
X86392685Y-94708405D02*
X86174820Y-95306984D01*
X86905658Y-93542585D02*
X86636452Y-94119898D01*
X86174820Y-95306984D02*
X85983272Y-95914496D01*
X98410544Y-85486777D02*
X97778999Y-85569922D01*
X87518287Y-92425910D02*
X87199789Y-92977564D01*
X86636452Y-94119898D02*
X86392685Y-94708405D01*
X87860544Y-91888675D02*
X87518287Y-92425910D01*
X99045114Y-85431260D02*
X98410544Y-85486777D01*
X88225909Y-91366879D02*
X87860544Y-91888675D01*
X89286449Y-90373551D02*
X89023139Y-90373551D01*
X90373551Y-89286449D02*
X89286449Y-90373551D01*
X90373551Y-89023139D02*
X90373551Y-89286449D01*
X91366879Y-88225909D02*
X90861517Y-88613687D01*
X91888675Y-87860544D02*
X91366879Y-88225909D01*
X99233854Y-85620000D02*
X99045114Y-85431260D01*
X94119898Y-86636452D02*
X93542585Y-86905658D01*
X92977564Y-87199789D02*
X92425910Y-87518287D01*
X101589456Y-85486777D02*
X100954886Y-85431260D01*
X102221001Y-85569922D02*
X101589456Y-85486777D01*
X85818406Y-103470214D02*
X85850000Y-103588125D01*
X97778999Y-85569922D02*
X97151681Y-85680535D01*
X90861517Y-88613687D02*
X90373551Y-89023139D01*
X102848319Y-85680535D02*
X102221001Y-85569922D01*
X85569922Y-102221001D02*
X85680535Y-102848319D01*
X103650000Y-85866579D02*
X103470214Y-85818406D01*
X95306984Y-86174820D02*
X94708405Y-86392685D01*
X89023139Y-90373551D02*
X88613687Y-90861517D01*
X100954886Y-85431260D02*
X100766146Y-85620000D01*
X93542585Y-86905658D02*
X92977564Y-87199789D01*
X100766146Y-85620000D02*
X99233854Y-85620000D01*
X92425910Y-87518287D02*
X91888675Y-87860544D01*
X97151681Y-85680535D02*
X96529786Y-85818406D01*
X87199789Y-92977564D02*
X86905658Y-93542585D01*
X88613687Y-90861517D02*
X88225909Y-91366879D01*
X96529786Y-85818406D02*
X95914496Y-85983272D01*
X95914496Y-85983272D02*
X95306984Y-86174820D01*
X103470214Y-85818406D02*
X102848319Y-85680535D01*
X85620000Y-100766146D02*
X85431260Y-100954886D01*
X94708405Y-86392685D02*
X94119898Y-86636452D01*
X85983272Y-95914496D02*
X85818406Y-96529786D01*
X85818406Y-96529786D02*
X85680535Y-97151681D01*
X85680535Y-97151681D02*
X85569922Y-97778999D01*
X85569922Y-97778999D02*
X85486777Y-98410544D01*
X85486777Y-98410544D02*
X85431260Y-99045114D01*
X85431260Y-99045114D02*
X85620000Y-99233854D01*
X85620000Y-99233854D02*
X85620000Y-100766146D01*
X85431260Y-100954886D02*
X85486777Y-101589456D01*
X85486777Y-101589456D02*
X85569922Y-102221001D01*
X85680535Y-102848319D02*
X85818406Y-103470214D01*
G36*
X110179570Y-50409003D02*
X119617977Y-53330678D01*
X128309141Y-58029973D01*
X135922019Y-64327893D01*
X142166638Y-71984553D01*
X146805143Y-80708312D01*
X149660855Y-90166886D01*
X150625000Y-100000000D01*
X150605262Y-101413533D01*
X149366936Y-111215893D01*
X146248239Y-120591043D01*
X141367960Y-129181886D01*
X134911989Y-136661200D01*
X127126231Y-142744101D01*
X118307244Y-147198892D01*
X108790939Y-149855892D01*
X98939790Y-150613897D01*
X89129024Y-149444034D01*
X79732330Y-146390863D01*
X71107626Y-141570679D01*
X63583423Y-135167080D01*
X57446316Y-127423978D01*
X53152200Y-119068532D01*
X88699208Y-119068532D01*
X88708156Y-119126394D01*
X88728172Y-119181416D01*
X88758494Y-119231502D01*
X88797968Y-119274745D01*
X88845088Y-119309497D01*
X88848701Y-119311617D01*
X88851215Y-119313069D01*
X88904531Y-119337265D01*
X88961532Y-119350644D01*
X89020045Y-119352696D01*
X89077844Y-119343345D01*
X89132724Y-119322945D01*
X89182598Y-119292274D01*
X89225565Y-119252500D01*
X89259987Y-119205138D01*
X89284553Y-119151992D01*
X89298330Y-119095086D01*
X89300792Y-119036588D01*
X89291844Y-118978726D01*
X89271827Y-118923704D01*
X89241506Y-118873617D01*
X89202032Y-118830375D01*
X89154912Y-118795623D01*
X89151299Y-118793503D01*
X89148785Y-118792051D01*
X89095469Y-118767855D01*
X89038468Y-118754476D01*
X88979954Y-118752423D01*
X88922156Y-118761775D01*
X88867276Y-118782175D01*
X88817402Y-118812845D01*
X88774435Y-118852620D01*
X88740013Y-118899982D01*
X88715446Y-118953128D01*
X88701669Y-119010034D01*
X88699208Y-119068532D01*
X53152200Y-119068532D01*
X52930065Y-118636305D01*
X50206694Y-109138782D01*
X49525947Y-101031973D01*
X83833831Y-101031973D01*
X83835279Y-101047289D01*
X83834903Y-101062664D01*
X83835351Y-101068231D01*
X83895432Y-101754959D01*
X83896528Y-101760814D01*
X83896642Y-101766765D01*
X83897332Y-101772307D01*
X83987310Y-102455760D01*
X83988660Y-102461562D01*
X83989034Y-102467503D01*
X83989965Y-102473010D01*
X84109670Y-103151887D01*
X84111272Y-103157623D01*
X84111904Y-103163541D01*
X84113075Y-103169002D01*
X84262276Y-103842012D01*
X84264127Y-103847675D01*
X84265017Y-103853560D01*
X84266425Y-103858965D01*
X84444842Y-104524826D01*
X84446936Y-104530398D01*
X84448083Y-104536242D01*
X84449725Y-104541580D01*
X84657017Y-105199026D01*
X84659352Y-105204501D01*
X84660753Y-105210291D01*
X84662627Y-105215552D01*
X84898399Y-105863329D01*
X84900971Y-105868698D01*
X84902623Y-105874420D01*
X84904724Y-105879594D01*
X85168527Y-106516472D01*
X85171333Y-106521727D01*
X85173231Y-106527367D01*
X85175556Y-106532445D01*
X85466888Y-107157209D01*
X85469919Y-107162334D01*
X85472062Y-107167888D01*
X85474606Y-107172860D01*
X85792913Y-107784322D01*
X85796162Y-107789307D01*
X85798548Y-107794767D01*
X85801307Y-107799623D01*
X86145982Y-108396617D01*
X86149447Y-108401457D01*
X86152067Y-108406805D01*
X86155035Y-108411537D01*
X86525423Y-108992930D01*
X86529100Y-108997619D01*
X86531948Y-109002843D01*
X86535119Y-109007441D01*
X86930514Y-109572123D01*
X86934391Y-109576647D01*
X86937465Y-109581742D01*
X86940834Y-109586196D01*
X87360484Y-110133096D01*
X87364551Y-110137442D01*
X87367847Y-110142403D01*
X87371407Y-110146706D01*
X87814513Y-110674779D01*
X87825505Y-110685544D01*
X87835142Y-110697529D01*
X87853324Y-110712785D01*
X87870289Y-110729399D01*
X87883162Y-110737823D01*
X87894944Y-110747709D01*
X87915750Y-110759147D01*
X87935613Y-110772145D01*
X87949871Y-110777905D01*
X87963354Y-110785318D01*
X87985991Y-110792499D01*
X88007995Y-110801389D01*
X88023098Y-110804270D01*
X88037766Y-110808923D01*
X88061368Y-110811570D01*
X88084678Y-110816017D01*
X88100053Y-110815910D01*
X88115346Y-110817625D01*
X88120931Y-110817664D01*
X88791978Y-110817664D01*
X89182336Y-111208021D01*
X89182336Y-111879069D01*
X89183837Y-111894379D01*
X89183515Y-111909756D01*
X89187637Y-111933134D01*
X89189954Y-111956763D01*
X89194400Y-111971489D01*
X89197071Y-111986636D01*
X89205656Y-112008770D01*
X89212518Y-112031497D01*
X89219739Y-112045078D01*
X89225302Y-112059420D01*
X89238024Y-112079467D01*
X89249168Y-112100426D01*
X89258888Y-112112344D01*
X89267131Y-112125333D01*
X89283504Y-112142526D01*
X89298508Y-112160923D01*
X89310361Y-112170729D01*
X89320968Y-112181867D01*
X89325221Y-112185487D01*
X89853294Y-112628592D01*
X89858201Y-112631952D01*
X89862497Y-112636086D01*
X89866905Y-112639516D01*
X90413804Y-113059167D01*
X90418862Y-113062315D01*
X90423325Y-113066250D01*
X90427877Y-113069486D01*
X90992560Y-113464881D01*
X90997747Y-113467804D01*
X91002381Y-113471543D01*
X91007070Y-113474577D01*
X91588463Y-113844965D01*
X91593775Y-113847660D01*
X91598566Y-113851192D01*
X91603383Y-113854018D01*
X92200376Y-114198693D01*
X92205801Y-114201154D01*
X92210742Y-114204474D01*
X92215678Y-114207088D01*
X92827140Y-114525394D01*
X92832667Y-114527616D01*
X92837746Y-114530716D01*
X92842792Y-114533112D01*
X93467555Y-114824444D01*
X93473169Y-114826421D01*
X93478384Y-114829300D01*
X93483529Y-114831473D01*
X94120406Y-115095276D01*
X94126104Y-115097007D01*
X94131436Y-115099654D01*
X94136671Y-115101601D01*
X94784448Y-115337373D01*
X94790216Y-115338854D01*
X94795659Y-115341266D01*
X94800974Y-115342983D01*
X95458419Y-115550275D01*
X95461237Y-115550869D01*
X95463768Y-115557261D01*
X95527509Y-115656167D01*
X95609247Y-115740809D01*
X95705868Y-115807962D01*
X95813693Y-115855070D01*
X95928614Y-115880337D01*
X96046254Y-115882801D01*
X96162133Y-115862369D01*
X96271835Y-115819818D01*
X96338231Y-115777682D01*
X96830997Y-115886925D01*
X96836905Y-115887640D01*
X96842620Y-115889322D01*
X96848113Y-115890330D01*
X97526990Y-116010035D01*
X97532929Y-116010492D01*
X97538708Y-116011922D01*
X97544240Y-116012690D01*
X98227692Y-116102668D01*
X98233645Y-116102865D01*
X98239480Y-116104042D01*
X98245041Y-116104568D01*
X98931768Y-116164649D01*
X98947150Y-116164488D01*
X98962442Y-116166149D01*
X98986093Y-116164080D01*
X99009831Y-116163831D01*
X99024887Y-116160686D01*
X99040211Y-116159345D01*
X99063008Y-116152722D01*
X99086247Y-116147867D01*
X99100408Y-116141856D01*
X99115178Y-116137565D01*
X99136252Y-116126641D01*
X99158108Y-116117364D01*
X99170833Y-116108716D01*
X99184486Y-116101639D01*
X99203037Y-116086830D01*
X99222675Y-116073484D01*
X99233476Y-116062531D01*
X99245497Y-116052935D01*
X99249474Y-116049014D01*
X99738488Y-115560000D01*
X100261512Y-115560000D01*
X100750526Y-116049014D01*
X100762415Y-116058780D01*
X100773059Y-116069879D01*
X100792502Y-116083494D01*
X100810851Y-116098565D01*
X100824409Y-116105834D01*
X100837007Y-116114656D01*
X100858728Y-116124236D01*
X100879651Y-116135455D01*
X100894358Y-116139951D01*
X100908435Y-116146160D01*
X100931610Y-116151340D01*
X100954307Y-116158279D01*
X100969607Y-116159833D01*
X100984621Y-116163189D01*
X101008359Y-116163769D01*
X101031973Y-116166168D01*
X101047283Y-116164721D01*
X101062664Y-116165097D01*
X101068231Y-116164649D01*
X101754959Y-116104568D01*
X101760814Y-116103472D01*
X101766765Y-116103358D01*
X101772307Y-116102668D01*
X102455760Y-116012690D01*
X102461562Y-116011340D01*
X102467503Y-116010966D01*
X102473010Y-116010035D01*
X103151887Y-115890330D01*
X103157623Y-115888728D01*
X103163541Y-115888096D01*
X103169002Y-115886925D01*
X103842012Y-115737724D01*
X103847675Y-115735873D01*
X103853560Y-115734983D01*
X103858965Y-115733575D01*
X104524826Y-115555158D01*
X104530398Y-115553064D01*
X104536242Y-115551917D01*
X104541580Y-115550275D01*
X105199026Y-115342983D01*
X105204501Y-115340648D01*
X105210291Y-115339247D01*
X105215552Y-115337373D01*
X105863329Y-115101601D01*
X105868698Y-115099029D01*
X105874420Y-115097377D01*
X105879594Y-115095276D01*
X106516472Y-114831473D01*
X106521727Y-114828667D01*
X106527367Y-114826769D01*
X106532445Y-114824444D01*
X107157209Y-114533112D01*
X107162334Y-114530081D01*
X107167888Y-114527938D01*
X107172860Y-114525394D01*
X107784322Y-114207087D01*
X107789307Y-114203838D01*
X107794767Y-114201452D01*
X107799623Y-114198693D01*
X108396617Y-113854018D01*
X108401457Y-113850553D01*
X108406805Y-113847933D01*
X108411537Y-113844965D01*
X108992930Y-113474577D01*
X108997619Y-113470900D01*
X109002843Y-113468052D01*
X109007441Y-113464881D01*
X109572123Y-113069486D01*
X109576647Y-113065609D01*
X109581742Y-113062535D01*
X109586196Y-113059166D01*
X110133096Y-112639516D01*
X110137442Y-112635449D01*
X110142403Y-112632153D01*
X110146706Y-112628593D01*
X110674779Y-112185487D01*
X110685544Y-112174495D01*
X110697529Y-112164858D01*
X110712785Y-112146676D01*
X110729399Y-112129711D01*
X110737823Y-112116838D01*
X110747709Y-112105056D01*
X110759147Y-112084250D01*
X110772145Y-112064387D01*
X110777905Y-112050129D01*
X110785318Y-112036646D01*
X110792500Y-112014007D01*
X110801389Y-111992005D01*
X110804270Y-111976902D01*
X110808923Y-111962234D01*
X110811570Y-111938632D01*
X110816017Y-111915322D01*
X110815910Y-111899947D01*
X110817625Y-111884654D01*
X110817664Y-111879069D01*
X110817664Y-111188022D01*
X111188021Y-110817664D01*
X111879069Y-110817664D01*
X111894379Y-110816163D01*
X111909756Y-110816485D01*
X111933134Y-110812363D01*
X111956763Y-110810046D01*
X111971489Y-110805600D01*
X111986636Y-110802929D01*
X112008770Y-110794344D01*
X112031497Y-110787482D01*
X112045078Y-110780261D01*
X112059420Y-110774698D01*
X112079467Y-110761976D01*
X112100426Y-110750832D01*
X112112344Y-110741112D01*
X112125333Y-110732869D01*
X112142526Y-110716496D01*
X112160923Y-110701492D01*
X112170729Y-110689639D01*
X112181867Y-110679032D01*
X112185487Y-110674779D01*
X112628592Y-110146706D01*
X112631952Y-110141799D01*
X112636086Y-110137503D01*
X112639516Y-110133095D01*
X113059167Y-109586196D01*
X113062315Y-109581138D01*
X113066250Y-109576675D01*
X113069486Y-109572123D01*
X113464881Y-109007440D01*
X113467804Y-109002253D01*
X113471543Y-108997619D01*
X113474577Y-108992930D01*
X113844965Y-108411537D01*
X113847660Y-108406225D01*
X113851192Y-108401434D01*
X113854018Y-108396617D01*
X114198693Y-107799624D01*
X114201154Y-107794199D01*
X114204474Y-107789258D01*
X114207088Y-107784322D01*
X114525394Y-107172860D01*
X114527616Y-107167333D01*
X114530716Y-107162254D01*
X114533112Y-107157208D01*
X114824444Y-106532445D01*
X114826421Y-106526831D01*
X114829300Y-106521616D01*
X114831473Y-106516471D01*
X115095276Y-105879594D01*
X115097007Y-105873896D01*
X115099654Y-105868564D01*
X115101601Y-105863329D01*
X115337373Y-105215552D01*
X115338854Y-105209784D01*
X115341266Y-105204341D01*
X115342983Y-105199026D01*
X115550275Y-104541581D01*
X115551504Y-104535751D01*
X115553675Y-104530210D01*
X115555158Y-104524826D01*
X115733575Y-103858965D01*
X115734547Y-103853094D01*
X115736477Y-103847457D01*
X115737723Y-103842012D01*
X115886925Y-103169003D01*
X115887640Y-103163095D01*
X115889322Y-103157380D01*
X115890330Y-103151887D01*
X116010035Y-102473010D01*
X116010492Y-102467071D01*
X116011922Y-102461292D01*
X116012690Y-102455760D01*
X116102668Y-101772308D01*
X116102865Y-101766355D01*
X116104042Y-101760520D01*
X116104568Y-101754959D01*
X116164649Y-101068232D01*
X116164488Y-101052850D01*
X116166149Y-101037558D01*
X116164080Y-101013907D01*
X116163831Y-100990169D01*
X116160686Y-100975113D01*
X116159345Y-100959789D01*
X116152721Y-100936988D01*
X116147867Y-100913753D01*
X116141859Y-100899598D01*
X116137566Y-100884822D01*
X116126637Y-100863738D01*
X116117364Y-100841892D01*
X116108720Y-100829173D01*
X116101640Y-100815514D01*
X116086824Y-100796955D01*
X116073484Y-100777325D01*
X116062536Y-100766529D01*
X116052936Y-100754503D01*
X116049014Y-100750527D01*
X115540000Y-100241512D01*
X115540000Y-99998548D01*
X121700000Y-99998548D01*
X121700000Y-100001452D01*
X121705713Y-100059722D01*
X121722636Y-100115773D01*
X121750124Y-100167469D01*
X121787129Y-100212842D01*
X121832242Y-100250163D01*
X121883745Y-100278011D01*
X121939677Y-100295325D01*
X121997906Y-100301445D01*
X122056214Y-100296138D01*
X122112382Y-100279607D01*
X122164269Y-100252481D01*
X122209899Y-100215794D01*
X122247534Y-100170942D01*
X122275741Y-100119635D01*
X122293444Y-100063826D01*
X122299971Y-100005641D01*
X122300000Y-100001452D01*
X122300000Y-99998548D01*
X122294287Y-99940278D01*
X122277364Y-99884227D01*
X122249876Y-99832531D01*
X122212871Y-99787158D01*
X122167758Y-99749837D01*
X122116255Y-99721989D01*
X122060323Y-99704675D01*
X122002094Y-99698555D01*
X121943786Y-99703862D01*
X121887618Y-99720393D01*
X121835731Y-99747519D01*
X121790101Y-99784206D01*
X121752466Y-99829058D01*
X121724259Y-99880365D01*
X121706556Y-99936174D01*
X121700029Y-99994359D01*
X121700000Y-99998548D01*
X115540000Y-99998548D01*
X115540000Y-99758488D01*
X116049014Y-99249473D01*
X116058780Y-99237584D01*
X116069879Y-99226940D01*
X116083490Y-99207501D01*
X116098565Y-99189149D01*
X116105837Y-99175587D01*
X116114656Y-99162992D01*
X116124235Y-99141275D01*
X116135455Y-99120349D01*
X116139952Y-99105640D01*
X116146160Y-99091565D01*
X116151338Y-99068398D01*
X116158280Y-99045693D01*
X116159835Y-99030385D01*
X116163189Y-99015379D01*
X116163769Y-98991654D01*
X116166169Y-98968026D01*
X116164721Y-98952710D01*
X116165097Y-98937336D01*
X116164883Y-98934673D01*
X116181395Y-98918949D01*
X116249221Y-98822799D01*
X116297080Y-98715306D01*
X116323149Y-98600564D01*
X116325026Y-98466167D01*
X116302171Y-98350742D01*
X116257332Y-98241954D01*
X116192216Y-98143948D01*
X116109305Y-98060455D01*
X116077858Y-98039244D01*
X116012690Y-97544240D01*
X116011340Y-97538438D01*
X116010966Y-97532497D01*
X116010035Y-97526990D01*
X115890330Y-96848113D01*
X115888729Y-96842378D01*
X115888096Y-96836458D01*
X115886925Y-96830997D01*
X115737723Y-96157988D01*
X115735874Y-96152331D01*
X115734983Y-96146439D01*
X115733575Y-96141035D01*
X115641249Y-95796472D01*
X115640502Y-95794485D01*
X115640133Y-95792393D01*
X115638593Y-95787024D01*
X115473714Y-95227024D01*
X115473691Y-95226966D01*
X115472399Y-95222650D01*
X115343895Y-94803906D01*
X115341007Y-94796989D01*
X115339246Y-94789709D01*
X115337373Y-94784448D01*
X115101601Y-94136671D01*
X115099028Y-94131301D01*
X115097377Y-94125581D01*
X115095276Y-94120406D01*
X114831473Y-93483529D01*
X114828668Y-93478275D01*
X114826769Y-93472633D01*
X114824444Y-93467555D01*
X114533112Y-92842792D01*
X114530082Y-92837669D01*
X114527938Y-92832112D01*
X114525394Y-92827140D01*
X114207088Y-92215678D01*
X114203835Y-92210689D01*
X114201452Y-92205233D01*
X114198693Y-92200376D01*
X113854018Y-91603383D01*
X113850552Y-91598541D01*
X113847932Y-91593194D01*
X113844965Y-91588463D01*
X113474577Y-91007070D01*
X113470900Y-91002381D01*
X113468052Y-90997157D01*
X113464881Y-90992560D01*
X113069486Y-90427877D01*
X113065609Y-90423353D01*
X113062535Y-90418258D01*
X113059167Y-90413804D01*
X112639516Y-89866905D01*
X112635451Y-89862561D01*
X112632153Y-89857597D01*
X112628592Y-89853294D01*
X112185487Y-89325221D01*
X112174495Y-89314457D01*
X112164858Y-89302471D01*
X112146672Y-89287211D01*
X112129710Y-89270601D01*
X112116841Y-89262180D01*
X112105056Y-89252291D01*
X112084248Y-89240852D01*
X112064387Y-89227855D01*
X112050128Y-89222094D01*
X112036646Y-89214682D01*
X112014017Y-89207503D01*
X111992005Y-89198610D01*
X111976894Y-89195727D01*
X111962234Y-89191077D01*
X111938645Y-89188431D01*
X111915322Y-89183982D01*
X111899938Y-89184089D01*
X111884654Y-89182375D01*
X111879069Y-89182336D01*
X111188021Y-89182336D01*
X110817664Y-88811978D01*
X110817664Y-88120931D01*
X110816163Y-88105621D01*
X110816485Y-88090243D01*
X110812363Y-88066864D01*
X110810046Y-88043237D01*
X110805600Y-88028512D01*
X110802929Y-88013363D01*
X110794343Y-87991227D01*
X110787482Y-87968503D01*
X110780261Y-87954922D01*
X110774698Y-87940580D01*
X110761977Y-87920535D01*
X110750832Y-87899574D01*
X110741111Y-87887654D01*
X110732868Y-87874666D01*
X110716496Y-87857474D01*
X110701492Y-87839077D01*
X110689639Y-87829271D01*
X110679032Y-87818133D01*
X110674779Y-87814513D01*
X110146706Y-87371407D01*
X110141792Y-87368042D01*
X110137503Y-87363915D01*
X110133096Y-87360484D01*
X109586196Y-86940834D01*
X109581145Y-86937690D01*
X109576676Y-86933750D01*
X109572123Y-86930514D01*
X109007441Y-86535119D01*
X109002251Y-86532195D01*
X108997619Y-86528457D01*
X108992930Y-86525423D01*
X108411537Y-86155035D01*
X108406224Y-86152340D01*
X108401434Y-86148808D01*
X108396617Y-86145982D01*
X107799623Y-85801307D01*
X107794201Y-85798847D01*
X107789258Y-85795526D01*
X107784322Y-85792913D01*
X107172860Y-85474606D01*
X107167333Y-85472384D01*
X107162254Y-85469284D01*
X107157209Y-85466888D01*
X106532445Y-85175556D01*
X106526829Y-85173578D01*
X106521617Y-85170701D01*
X106516472Y-85168527D01*
X105879594Y-84904724D01*
X105873896Y-84902993D01*
X105868564Y-84900346D01*
X105863329Y-84898399D01*
X105215552Y-84662627D01*
X105209784Y-84661146D01*
X105204341Y-84658734D01*
X105199026Y-84657017D01*
X104541580Y-84449725D01*
X104535752Y-84448497D01*
X104530210Y-84446325D01*
X104524826Y-84444842D01*
X103858965Y-84266425D01*
X103853092Y-84265453D01*
X103847456Y-84263523D01*
X103842012Y-84262276D01*
X103169002Y-84113075D01*
X103163095Y-84112360D01*
X103157380Y-84110678D01*
X103151887Y-84109670D01*
X102473010Y-83989965D01*
X102467071Y-83989508D01*
X102461292Y-83988078D01*
X102455760Y-83987310D01*
X101772307Y-83897332D01*
X101766354Y-83897135D01*
X101760519Y-83895958D01*
X101754959Y-83895432D01*
X101068231Y-83835351D01*
X101052850Y-83835512D01*
X101037558Y-83833851D01*
X101013907Y-83835920D01*
X100990169Y-83836169D01*
X100975113Y-83839314D01*
X100959789Y-83840655D01*
X100936988Y-83847279D01*
X100913753Y-83852133D01*
X100899598Y-83858141D01*
X100884822Y-83862434D01*
X100863738Y-83873363D01*
X100841892Y-83882636D01*
X100829173Y-83891280D01*
X100815514Y-83898360D01*
X100796955Y-83913176D01*
X100777325Y-83926516D01*
X100766529Y-83937464D01*
X100754503Y-83947064D01*
X100750527Y-83950986D01*
X100241512Y-84460000D01*
X99758487Y-84460000D01*
X99249474Y-83950986D01*
X99237581Y-83941217D01*
X99226940Y-83930121D01*
X99207503Y-83916511D01*
X99189149Y-83901435D01*
X99175587Y-83894163D01*
X99162992Y-83885344D01*
X99141275Y-83875765D01*
X99120349Y-83864545D01*
X99105641Y-83860048D01*
X99091565Y-83853840D01*
X99068390Y-83848660D01*
X99045693Y-83841721D01*
X99030391Y-83840167D01*
X99015379Y-83836811D01*
X98991650Y-83836231D01*
X98968027Y-83833831D01*
X98952711Y-83835279D01*
X98937336Y-83834903D01*
X98931768Y-83835351D01*
X98245041Y-83895432D01*
X98239186Y-83896528D01*
X98233235Y-83896642D01*
X98227692Y-83897332D01*
X97544240Y-83987310D01*
X97538438Y-83988660D01*
X97532497Y-83989034D01*
X97526990Y-83989965D01*
X96848113Y-84109670D01*
X96842378Y-84111271D01*
X96836458Y-84111904D01*
X96830997Y-84113075D01*
X96157988Y-84262277D01*
X96152330Y-84264126D01*
X96146440Y-84265017D01*
X96141035Y-84266425D01*
X95475174Y-84444842D01*
X95469601Y-84446937D01*
X95463758Y-84448083D01*
X95458419Y-84449725D01*
X94800974Y-84657017D01*
X94795494Y-84659354D01*
X94789709Y-84660754D01*
X94784448Y-84662627D01*
X94136671Y-84898399D01*
X94131301Y-84900972D01*
X94125581Y-84902623D01*
X94120406Y-84904724D01*
X93483529Y-85168527D01*
X93478275Y-85171332D01*
X93472633Y-85173231D01*
X93467555Y-85175556D01*
X92842792Y-85466888D01*
X92837669Y-85469918D01*
X92832112Y-85472062D01*
X92827140Y-85474606D01*
X92215678Y-85792912D01*
X92210689Y-85796165D01*
X92205233Y-85798548D01*
X92200376Y-85801307D01*
X91603383Y-86145982D01*
X91598541Y-86149448D01*
X91593194Y-86152068D01*
X91588463Y-86155035D01*
X91007070Y-86525423D01*
X91002381Y-86529100D01*
X90997157Y-86531948D01*
X90992560Y-86535119D01*
X90427877Y-86930514D01*
X90423353Y-86934391D01*
X90418258Y-86937465D01*
X90413804Y-86940833D01*
X89866905Y-87360484D01*
X89862561Y-87364549D01*
X89857597Y-87367847D01*
X89853294Y-87371408D01*
X89325221Y-87814513D01*
X89314457Y-87825505D01*
X89302471Y-87835142D01*
X89287211Y-87853328D01*
X89270601Y-87870290D01*
X89262180Y-87883159D01*
X89252291Y-87894944D01*
X89240852Y-87915752D01*
X89227855Y-87935613D01*
X89222094Y-87949872D01*
X89214682Y-87963354D01*
X89207503Y-87985983D01*
X89198610Y-88007995D01*
X89195727Y-88023106D01*
X89191077Y-88037766D01*
X89188431Y-88061355D01*
X89183982Y-88084678D01*
X89184089Y-88100062D01*
X89182375Y-88115346D01*
X89182336Y-88120931D01*
X89182336Y-88821978D01*
X88821978Y-89182336D01*
X88120931Y-89182336D01*
X88105621Y-89183837D01*
X88090243Y-89183515D01*
X88066864Y-89187637D01*
X88043237Y-89189954D01*
X88028512Y-89194400D01*
X88013363Y-89197071D01*
X87991227Y-89205657D01*
X87968503Y-89212518D01*
X87954922Y-89219739D01*
X87940580Y-89225302D01*
X87920535Y-89238023D01*
X87899574Y-89249168D01*
X87887654Y-89258889D01*
X87874666Y-89267132D01*
X87857474Y-89283504D01*
X87839077Y-89298508D01*
X87829271Y-89310361D01*
X87818133Y-89320968D01*
X87814513Y-89325221D01*
X87371407Y-89853294D01*
X87368422Y-89857654D01*
X87364746Y-89861448D01*
X87361300Y-89865844D01*
X86913475Y-90445435D01*
X86908804Y-90452883D01*
X86903063Y-90459539D01*
X86899877Y-90464126D01*
X86680842Y-90784255D01*
X86589775Y-90801627D01*
X86480677Y-90845705D01*
X86382219Y-90910135D01*
X86298150Y-90992461D01*
X86231672Y-91089549D01*
X86185318Y-91197700D01*
X86160854Y-91312795D01*
X86159211Y-91430450D01*
X86180452Y-91546183D01*
X86185756Y-91559578D01*
X85804728Y-92194565D01*
X85800730Y-92202997D01*
X85795526Y-92210742D01*
X85792913Y-92215678D01*
X85474606Y-92827140D01*
X85472384Y-92832667D01*
X85469284Y-92837746D01*
X85466888Y-92842791D01*
X85175556Y-93467555D01*
X85173578Y-93473171D01*
X85170701Y-93478383D01*
X85168527Y-93483528D01*
X84904724Y-94120406D01*
X84902993Y-94126104D01*
X84900346Y-94131436D01*
X84898399Y-94136671D01*
X84662627Y-94784448D01*
X84661146Y-94790216D01*
X84658734Y-94795659D01*
X84657017Y-94800974D01*
X84449725Y-95458420D01*
X84448497Y-95464248D01*
X84446325Y-95469790D01*
X84444842Y-95475174D01*
X84266425Y-96141035D01*
X84265453Y-96146908D01*
X84263523Y-96152544D01*
X84262276Y-96157988D01*
X84113075Y-96830998D01*
X84112360Y-96836905D01*
X84110678Y-96842620D01*
X84109670Y-96848113D01*
X83989965Y-97526990D01*
X83989508Y-97532929D01*
X83988078Y-97538708D01*
X83987310Y-97544240D01*
X83897332Y-98227693D01*
X83897135Y-98233646D01*
X83895958Y-98239481D01*
X83895432Y-98245041D01*
X83835351Y-98931769D01*
X83835512Y-98947150D01*
X83833851Y-98962442D01*
X83835920Y-98986093D01*
X83836169Y-99009831D01*
X83839314Y-99024887D01*
X83840655Y-99040211D01*
X83847278Y-99063008D01*
X83852133Y-99086247D01*
X83858144Y-99100408D01*
X83862435Y-99115178D01*
X83873359Y-99136252D01*
X83882636Y-99158108D01*
X83891284Y-99170833D01*
X83898361Y-99184486D01*
X83913170Y-99203037D01*
X83926516Y-99222675D01*
X83937469Y-99233476D01*
X83947065Y-99245497D01*
X83950986Y-99249474D01*
X84460000Y-99758487D01*
X84460000Y-100241513D01*
X83950986Y-100750526D01*
X83941220Y-100762415D01*
X83930121Y-100773059D01*
X83916506Y-100792502D01*
X83901435Y-100810851D01*
X83894166Y-100824409D01*
X83885344Y-100837007D01*
X83875764Y-100858728D01*
X83864545Y-100879651D01*
X83860049Y-100894358D01*
X83853840Y-100908435D01*
X83848660Y-100931610D01*
X83841721Y-100954307D01*
X83840167Y-100969609D01*
X83836811Y-100984621D01*
X83836231Y-101008350D01*
X83833831Y-101031973D01*
X49525947Y-101031973D01*
X49379935Y-99293165D01*
X50481278Y-89474471D01*
X53192603Y-80927287D01*
X88699471Y-80927287D01*
X88701114Y-80985814D01*
X88714095Y-81042907D01*
X88737918Y-81096391D01*
X88771676Y-81144228D01*
X88814083Y-81184599D01*
X88863523Y-81215963D01*
X88918114Y-81237128D01*
X88975776Y-81247285D01*
X89034312Y-81246050D01*
X89091494Y-81233468D01*
X89145143Y-81210019D01*
X89148785Y-81207949D01*
X89151299Y-81206497D01*
X89198900Y-81172407D01*
X89238973Y-81129719D01*
X89269991Y-81080061D01*
X89290774Y-81025324D01*
X89300529Y-80967593D01*
X89298885Y-80909066D01*
X89285905Y-80851973D01*
X89262081Y-80798489D01*
X89228324Y-80750652D01*
X89185917Y-80710281D01*
X89136477Y-80678917D01*
X89081886Y-80657752D01*
X89024224Y-80647595D01*
X88965688Y-80648830D01*
X88908506Y-80661412D01*
X88854857Y-80684861D01*
X88851215Y-80686931D01*
X88848701Y-80688383D01*
X88801100Y-80722473D01*
X88761027Y-80765161D01*
X88730009Y-80814819D01*
X88709226Y-80869556D01*
X88699471Y-80927287D01*
X53192603Y-80927287D01*
X53468773Y-80056691D01*
X58228629Y-71398545D01*
X64579543Y-63829821D01*
X72279612Y-57638807D01*
X81035541Y-53061317D01*
X90513821Y-50271708D01*
X100353426Y-49376234D01*
X110179570Y-50409003D01*
X110179570Y-50409003D01*
G37*
X110179570Y-50409003D02*
X119617977Y-53330678D01*
X128309141Y-58029973D01*
X135922019Y-64327893D01*
X142166638Y-71984553D01*
X146805143Y-80708312D01*
X149660855Y-90166886D01*
X150625000Y-100000000D01*
X150605262Y-101413533D01*
X149366936Y-111215893D01*
X146248239Y-120591043D01*
X141367960Y-129181886D01*
X134911989Y-136661200D01*
X127126231Y-142744101D01*
X118307244Y-147198892D01*
X108790939Y-149855892D01*
X98939790Y-150613897D01*
X89129024Y-149444034D01*
X79732330Y-146390863D01*
X71107626Y-141570679D01*
X63583423Y-135167080D01*
X57446316Y-127423978D01*
X53152200Y-119068532D01*
X88699208Y-119068532D01*
X88708156Y-119126394D01*
X88728172Y-119181416D01*
X88758494Y-119231502D01*
X88797968Y-119274745D01*
X88845088Y-119309497D01*
X88848701Y-119311617D01*
X88851215Y-119313069D01*
X88904531Y-119337265D01*
X88961532Y-119350644D01*
X89020045Y-119352696D01*
X89077844Y-119343345D01*
X89132724Y-119322945D01*
X89182598Y-119292274D01*
X89225565Y-119252500D01*
X89259987Y-119205138D01*
X89284553Y-119151992D01*
X89298330Y-119095086D01*
X89300792Y-119036588D01*
X89291844Y-118978726D01*
X89271827Y-118923704D01*
X89241506Y-118873617D01*
X89202032Y-118830375D01*
X89154912Y-118795623D01*
X89151299Y-118793503D01*
X89148785Y-118792051D01*
X89095469Y-118767855D01*
X89038468Y-118754476D01*
X88979954Y-118752423D01*
X88922156Y-118761775D01*
X88867276Y-118782175D01*
X88817402Y-118812845D01*
X88774435Y-118852620D01*
X88740013Y-118899982D01*
X88715446Y-118953128D01*
X88701669Y-119010034D01*
X88699208Y-119068532D01*
X53152200Y-119068532D01*
X52930065Y-118636305D01*
X50206694Y-109138782D01*
X49525947Y-101031973D01*
X83833831Y-101031973D01*
X83835279Y-101047289D01*
X83834903Y-101062664D01*
X83835351Y-101068231D01*
X83895432Y-101754959D01*
X83896528Y-101760814D01*
X83896642Y-101766765D01*
X83897332Y-101772307D01*
X83987310Y-102455760D01*
X83988660Y-102461562D01*
X83989034Y-102467503D01*
X83989965Y-102473010D01*
X84109670Y-103151887D01*
X84111272Y-103157623D01*
X84111904Y-103163541D01*
X84113075Y-103169002D01*
X84262276Y-103842012D01*
X84264127Y-103847675D01*
X84265017Y-103853560D01*
X84266425Y-103858965D01*
X84444842Y-104524826D01*
X84446936Y-104530398D01*
X84448083Y-104536242D01*
X84449725Y-104541580D01*
X84657017Y-105199026D01*
X84659352Y-105204501D01*
X84660753Y-105210291D01*
X84662627Y-105215552D01*
X84898399Y-105863329D01*
X84900971Y-105868698D01*
X84902623Y-105874420D01*
X84904724Y-105879594D01*
X85168527Y-106516472D01*
X85171333Y-106521727D01*
X85173231Y-106527367D01*
X85175556Y-106532445D01*
X85466888Y-107157209D01*
X85469919Y-107162334D01*
X85472062Y-107167888D01*
X85474606Y-107172860D01*
X85792913Y-107784322D01*
X85796162Y-107789307D01*
X85798548Y-107794767D01*
X85801307Y-107799623D01*
X86145982Y-108396617D01*
X86149447Y-108401457D01*
X86152067Y-108406805D01*
X86155035Y-108411537D01*
X86525423Y-108992930D01*
X86529100Y-108997619D01*
X86531948Y-109002843D01*
X86535119Y-109007441D01*
X86930514Y-109572123D01*
X86934391Y-109576647D01*
X86937465Y-109581742D01*
X86940834Y-109586196D01*
X87360484Y-110133096D01*
X87364551Y-110137442D01*
X87367847Y-110142403D01*
X87371407Y-110146706D01*
X87814513Y-110674779D01*
X87825505Y-110685544D01*
X87835142Y-110697529D01*
X87853324Y-110712785D01*
X87870289Y-110729399D01*
X87883162Y-110737823D01*
X87894944Y-110747709D01*
X87915750Y-110759147D01*
X87935613Y-110772145D01*
X87949871Y-110777905D01*
X87963354Y-110785318D01*
X87985991Y-110792499D01*
X88007995Y-110801389D01*
X88023098Y-110804270D01*
X88037766Y-110808923D01*
X88061368Y-110811570D01*
X88084678Y-110816017D01*
X88100053Y-110815910D01*
X88115346Y-110817625D01*
X88120931Y-110817664D01*
X88791978Y-110817664D01*
X89182336Y-111208021D01*
X89182336Y-111879069D01*
X89183837Y-111894379D01*
X89183515Y-111909756D01*
X89187637Y-111933134D01*
X89189954Y-111956763D01*
X89194400Y-111971489D01*
X89197071Y-111986636D01*
X89205656Y-112008770D01*
X89212518Y-112031497D01*
X89219739Y-112045078D01*
X89225302Y-112059420D01*
X89238024Y-112079467D01*
X89249168Y-112100426D01*
X89258888Y-112112344D01*
X89267131Y-112125333D01*
X89283504Y-112142526D01*
X89298508Y-112160923D01*
X89310361Y-112170729D01*
X89320968Y-112181867D01*
X89325221Y-112185487D01*
X89853294Y-112628592D01*
X89858201Y-112631952D01*
X89862497Y-112636086D01*
X89866905Y-112639516D01*
X90413804Y-113059167D01*
X90418862Y-113062315D01*
X90423325Y-113066250D01*
X90427877Y-113069486D01*
X90992560Y-113464881D01*
X90997747Y-113467804D01*
X91002381Y-113471543D01*
X91007070Y-113474577D01*
X91588463Y-113844965D01*
X91593775Y-113847660D01*
X91598566Y-113851192D01*
X91603383Y-113854018D01*
X92200376Y-114198693D01*
X92205801Y-114201154D01*
X92210742Y-114204474D01*
X92215678Y-114207088D01*
X92827140Y-114525394D01*
X92832667Y-114527616D01*
X92837746Y-114530716D01*
X92842792Y-114533112D01*
X93467555Y-114824444D01*
X93473169Y-114826421D01*
X93478384Y-114829300D01*
X93483529Y-114831473D01*
X94120406Y-115095276D01*
X94126104Y-115097007D01*
X94131436Y-115099654D01*
X94136671Y-115101601D01*
X94784448Y-115337373D01*
X94790216Y-115338854D01*
X94795659Y-115341266D01*
X94800974Y-115342983D01*
X95458419Y-115550275D01*
X95461237Y-115550869D01*
X95463768Y-115557261D01*
X95527509Y-115656167D01*
X95609247Y-115740809D01*
X95705868Y-115807962D01*
X95813693Y-115855070D01*
X95928614Y-115880337D01*
X96046254Y-115882801D01*
X96162133Y-115862369D01*
X96271835Y-115819818D01*
X96338231Y-115777682D01*
X96830997Y-115886925D01*
X96836905Y-115887640D01*
X96842620Y-115889322D01*
X96848113Y-115890330D01*
X97526990Y-116010035D01*
X97532929Y-116010492D01*
X97538708Y-116011922D01*
X97544240Y-116012690D01*
X98227692Y-116102668D01*
X98233645Y-116102865D01*
X98239480Y-116104042D01*
X98245041Y-116104568D01*
X98931768Y-116164649D01*
X98947150Y-116164488D01*
X98962442Y-116166149D01*
X98986093Y-116164080D01*
X99009831Y-116163831D01*
X99024887Y-116160686D01*
X99040211Y-116159345D01*
X99063008Y-116152722D01*
X99086247Y-116147867D01*
X99100408Y-116141856D01*
X99115178Y-116137565D01*
X99136252Y-116126641D01*
X99158108Y-116117364D01*
X99170833Y-116108716D01*
X99184486Y-116101639D01*
X99203037Y-116086830D01*
X99222675Y-116073484D01*
X99233476Y-116062531D01*
X99245497Y-116052935D01*
X99249474Y-116049014D01*
X99738488Y-115560000D01*
X100261512Y-115560000D01*
X100750526Y-116049014D01*
X100762415Y-116058780D01*
X100773059Y-116069879D01*
X100792502Y-116083494D01*
X100810851Y-116098565D01*
X100824409Y-116105834D01*
X100837007Y-116114656D01*
X100858728Y-116124236D01*
X100879651Y-116135455D01*
X100894358Y-116139951D01*
X100908435Y-116146160D01*
X100931610Y-116151340D01*
X100954307Y-116158279D01*
X100969607Y-116159833D01*
X100984621Y-116163189D01*
X101008359Y-116163769D01*
X101031973Y-116166168D01*
X101047283Y-116164721D01*
X101062664Y-116165097D01*
X101068231Y-116164649D01*
X101754959Y-116104568D01*
X101760814Y-116103472D01*
X101766765Y-116103358D01*
X101772307Y-116102668D01*
X102455760Y-116012690D01*
X102461562Y-116011340D01*
X102467503Y-116010966D01*
X102473010Y-116010035D01*
X103151887Y-115890330D01*
X103157623Y-115888728D01*
X103163541Y-115888096D01*
X103169002Y-115886925D01*
X103842012Y-115737724D01*
X103847675Y-115735873D01*
X103853560Y-115734983D01*
X103858965Y-115733575D01*
X104524826Y-115555158D01*
X104530398Y-115553064D01*
X104536242Y-115551917D01*
X104541580Y-115550275D01*
X105199026Y-115342983D01*
X105204501Y-115340648D01*
X105210291Y-115339247D01*
X105215552Y-115337373D01*
X105863329Y-115101601D01*
X105868698Y-115099029D01*
X105874420Y-115097377D01*
X105879594Y-115095276D01*
X106516472Y-114831473D01*
X106521727Y-114828667D01*
X106527367Y-114826769D01*
X106532445Y-114824444D01*
X107157209Y-114533112D01*
X107162334Y-114530081D01*
X107167888Y-114527938D01*
X107172860Y-114525394D01*
X107784322Y-114207087D01*
X107789307Y-114203838D01*
X107794767Y-114201452D01*
X107799623Y-114198693D01*
X108396617Y-113854018D01*
X108401457Y-113850553D01*
X108406805Y-113847933D01*
X108411537Y-113844965D01*
X108992930Y-113474577D01*
X108997619Y-113470900D01*
X109002843Y-113468052D01*
X109007441Y-113464881D01*
X109572123Y-113069486D01*
X109576647Y-113065609D01*
X109581742Y-113062535D01*
X109586196Y-113059166D01*
X110133096Y-112639516D01*
X110137442Y-112635449D01*
X110142403Y-112632153D01*
X110146706Y-112628593D01*
X110674779Y-112185487D01*
X110685544Y-112174495D01*
X110697529Y-112164858D01*
X110712785Y-112146676D01*
X110729399Y-112129711D01*
X110737823Y-112116838D01*
X110747709Y-112105056D01*
X110759147Y-112084250D01*
X110772145Y-112064387D01*
X110777905Y-112050129D01*
X110785318Y-112036646D01*
X110792500Y-112014007D01*
X110801389Y-111992005D01*
X110804270Y-111976902D01*
X110808923Y-111962234D01*
X110811570Y-111938632D01*
X110816017Y-111915322D01*
X110815910Y-111899947D01*
X110817625Y-111884654D01*
X110817664Y-111879069D01*
X110817664Y-111188022D01*
X111188021Y-110817664D01*
X111879069Y-110817664D01*
X111894379Y-110816163D01*
X111909756Y-110816485D01*
X111933134Y-110812363D01*
X111956763Y-110810046D01*
X111971489Y-110805600D01*
X111986636Y-110802929D01*
X112008770Y-110794344D01*
X112031497Y-110787482D01*
X112045078Y-110780261D01*
X112059420Y-110774698D01*
X112079467Y-110761976D01*
X112100426Y-110750832D01*
X112112344Y-110741112D01*
X112125333Y-110732869D01*
X112142526Y-110716496D01*
X112160923Y-110701492D01*
X112170729Y-110689639D01*
X112181867Y-110679032D01*
X112185487Y-110674779D01*
X112628592Y-110146706D01*
X112631952Y-110141799D01*
X112636086Y-110137503D01*
X112639516Y-110133095D01*
X113059167Y-109586196D01*
X113062315Y-109581138D01*
X113066250Y-109576675D01*
X113069486Y-109572123D01*
X113464881Y-109007440D01*
X113467804Y-109002253D01*
X113471543Y-108997619D01*
X113474577Y-108992930D01*
X113844965Y-108411537D01*
X113847660Y-108406225D01*
X113851192Y-108401434D01*
X113854018Y-108396617D01*
X114198693Y-107799624D01*
X114201154Y-107794199D01*
X114204474Y-107789258D01*
X114207088Y-107784322D01*
X114525394Y-107172860D01*
X114527616Y-107167333D01*
X114530716Y-107162254D01*
X114533112Y-107157208D01*
X114824444Y-106532445D01*
X114826421Y-106526831D01*
X114829300Y-106521616D01*
X114831473Y-106516471D01*
X115095276Y-105879594D01*
X115097007Y-105873896D01*
X115099654Y-105868564D01*
X115101601Y-105863329D01*
X115337373Y-105215552D01*
X115338854Y-105209784D01*
X115341266Y-105204341D01*
X115342983Y-105199026D01*
X115550275Y-104541581D01*
X115551504Y-104535751D01*
X115553675Y-104530210D01*
X115555158Y-104524826D01*
X115733575Y-103858965D01*
X115734547Y-103853094D01*
X115736477Y-103847457D01*
X115737723Y-103842012D01*
X115886925Y-103169003D01*
X115887640Y-103163095D01*
X115889322Y-103157380D01*
X115890330Y-103151887D01*
X116010035Y-102473010D01*
X116010492Y-102467071D01*
X116011922Y-102461292D01*
X116012690Y-102455760D01*
X116102668Y-101772308D01*
X116102865Y-101766355D01*
X116104042Y-101760520D01*
X116104568Y-101754959D01*
X116164649Y-101068232D01*
X116164488Y-101052850D01*
X116166149Y-101037558D01*
X116164080Y-101013907D01*
X116163831Y-100990169D01*
X116160686Y-100975113D01*
X116159345Y-100959789D01*
X116152721Y-100936988D01*
X116147867Y-100913753D01*
X116141859Y-100899598D01*
X116137566Y-100884822D01*
X116126637Y-100863738D01*
X116117364Y-100841892D01*
X116108720Y-100829173D01*
X116101640Y-100815514D01*
X116086824Y-100796955D01*
X116073484Y-100777325D01*
X116062536Y-100766529D01*
X116052936Y-100754503D01*
X116049014Y-100750527D01*
X115540000Y-100241512D01*
X115540000Y-99998548D01*
X121700000Y-99998548D01*
X121700000Y-100001452D01*
X121705713Y-100059722D01*
X121722636Y-100115773D01*
X121750124Y-100167469D01*
X121787129Y-100212842D01*
X121832242Y-100250163D01*
X121883745Y-100278011D01*
X121939677Y-100295325D01*
X121997906Y-100301445D01*
X122056214Y-100296138D01*
X122112382Y-100279607D01*
X122164269Y-100252481D01*
X122209899Y-100215794D01*
X122247534Y-100170942D01*
X122275741Y-100119635D01*
X122293444Y-100063826D01*
X122299971Y-100005641D01*
X122300000Y-100001452D01*
X122300000Y-99998548D01*
X122294287Y-99940278D01*
X122277364Y-99884227D01*
X122249876Y-99832531D01*
X122212871Y-99787158D01*
X122167758Y-99749837D01*
X122116255Y-99721989D01*
X122060323Y-99704675D01*
X122002094Y-99698555D01*
X121943786Y-99703862D01*
X121887618Y-99720393D01*
X121835731Y-99747519D01*
X121790101Y-99784206D01*
X121752466Y-99829058D01*
X121724259Y-99880365D01*
X121706556Y-99936174D01*
X121700029Y-99994359D01*
X121700000Y-99998548D01*
X115540000Y-99998548D01*
X115540000Y-99758488D01*
X116049014Y-99249473D01*
X116058780Y-99237584D01*
X116069879Y-99226940D01*
X116083490Y-99207501D01*
X116098565Y-99189149D01*
X116105837Y-99175587D01*
X116114656Y-99162992D01*
X116124235Y-99141275D01*
X116135455Y-99120349D01*
X116139952Y-99105640D01*
X116146160Y-99091565D01*
X116151338Y-99068398D01*
X116158280Y-99045693D01*
X116159835Y-99030385D01*
X116163189Y-99015379D01*
X116163769Y-98991654D01*
X116166169Y-98968026D01*
X116164721Y-98952710D01*
X116165097Y-98937336D01*
X116164883Y-98934673D01*
X116181395Y-98918949D01*
X116249221Y-98822799D01*
X116297080Y-98715306D01*
X116323149Y-98600564D01*
X116325026Y-98466167D01*
X116302171Y-98350742D01*
X116257332Y-98241954D01*
X116192216Y-98143948D01*
X116109305Y-98060455D01*
X116077858Y-98039244D01*
X116012690Y-97544240D01*
X116011340Y-97538438D01*
X116010966Y-97532497D01*
X116010035Y-97526990D01*
X115890330Y-96848113D01*
X115888729Y-96842378D01*
X115888096Y-96836458D01*
X115886925Y-96830997D01*
X115737723Y-96157988D01*
X115735874Y-96152331D01*
X115734983Y-96146439D01*
X115733575Y-96141035D01*
X115641249Y-95796472D01*
X115640502Y-95794485D01*
X115640133Y-95792393D01*
X115638593Y-95787024D01*
X115473714Y-95227024D01*
X115473691Y-95226966D01*
X115472399Y-95222650D01*
X115343895Y-94803906D01*
X115341007Y-94796989D01*
X115339246Y-94789709D01*
X115337373Y-94784448D01*
X115101601Y-94136671D01*
X115099028Y-94131301D01*
X115097377Y-94125581D01*
X115095276Y-94120406D01*
X114831473Y-93483529D01*
X114828668Y-93478275D01*
X114826769Y-93472633D01*
X114824444Y-93467555D01*
X114533112Y-92842792D01*
X114530082Y-92837669D01*
X114527938Y-92832112D01*
X114525394Y-92827140D01*
X114207088Y-92215678D01*
X114203835Y-92210689D01*
X114201452Y-92205233D01*
X114198693Y-92200376D01*
X113854018Y-91603383D01*
X113850552Y-91598541D01*
X113847932Y-91593194D01*
X113844965Y-91588463D01*
X113474577Y-91007070D01*
X113470900Y-91002381D01*
X113468052Y-90997157D01*
X113464881Y-90992560D01*
X113069486Y-90427877D01*
X113065609Y-90423353D01*
X113062535Y-90418258D01*
X113059167Y-90413804D01*
X112639516Y-89866905D01*
X112635451Y-89862561D01*
X112632153Y-89857597D01*
X112628592Y-89853294D01*
X112185487Y-89325221D01*
X112174495Y-89314457D01*
X112164858Y-89302471D01*
X112146672Y-89287211D01*
X112129710Y-89270601D01*
X112116841Y-89262180D01*
X112105056Y-89252291D01*
X112084248Y-89240852D01*
X112064387Y-89227855D01*
X112050128Y-89222094D01*
X112036646Y-89214682D01*
X112014017Y-89207503D01*
X111992005Y-89198610D01*
X111976894Y-89195727D01*
X111962234Y-89191077D01*
X111938645Y-89188431D01*
X111915322Y-89183982D01*
X111899938Y-89184089D01*
X111884654Y-89182375D01*
X111879069Y-89182336D01*
X111188021Y-89182336D01*
X110817664Y-88811978D01*
X110817664Y-88120931D01*
X110816163Y-88105621D01*
X110816485Y-88090243D01*
X110812363Y-88066864D01*
X110810046Y-88043237D01*
X110805600Y-88028512D01*
X110802929Y-88013363D01*
X110794343Y-87991227D01*
X110787482Y-87968503D01*
X110780261Y-87954922D01*
X110774698Y-87940580D01*
X110761977Y-87920535D01*
X110750832Y-87899574D01*
X110741111Y-87887654D01*
X110732868Y-87874666D01*
X110716496Y-87857474D01*
X110701492Y-87839077D01*
X110689639Y-87829271D01*
X110679032Y-87818133D01*
X110674779Y-87814513D01*
X110146706Y-87371407D01*
X110141792Y-87368042D01*
X110137503Y-87363915D01*
X110133096Y-87360484D01*
X109586196Y-86940834D01*
X109581145Y-86937690D01*
X109576676Y-86933750D01*
X109572123Y-86930514D01*
X109007441Y-86535119D01*
X109002251Y-86532195D01*
X108997619Y-86528457D01*
X108992930Y-86525423D01*
X108411537Y-86155035D01*
X108406224Y-86152340D01*
X108401434Y-86148808D01*
X108396617Y-86145982D01*
X107799623Y-85801307D01*
X107794201Y-85798847D01*
X107789258Y-85795526D01*
X107784322Y-85792913D01*
X107172860Y-85474606D01*
X107167333Y-85472384D01*
X107162254Y-85469284D01*
X107157209Y-85466888D01*
X106532445Y-85175556D01*
X106526829Y-85173578D01*
X106521617Y-85170701D01*
X106516472Y-85168527D01*
X105879594Y-84904724D01*
X105873896Y-84902993D01*
X105868564Y-84900346D01*
X105863329Y-84898399D01*
X105215552Y-84662627D01*
X105209784Y-84661146D01*
X105204341Y-84658734D01*
X105199026Y-84657017D01*
X104541580Y-84449725D01*
X104535752Y-84448497D01*
X104530210Y-84446325D01*
X104524826Y-84444842D01*
X103858965Y-84266425D01*
X103853092Y-84265453D01*
X103847456Y-84263523D01*
X103842012Y-84262276D01*
X103169002Y-84113075D01*
X103163095Y-84112360D01*
X103157380Y-84110678D01*
X103151887Y-84109670D01*
X102473010Y-83989965D01*
X102467071Y-83989508D01*
X102461292Y-83988078D01*
X102455760Y-83987310D01*
X101772307Y-83897332D01*
X101766354Y-83897135D01*
X101760519Y-83895958D01*
X101754959Y-83895432D01*
X101068231Y-83835351D01*
X101052850Y-83835512D01*
X101037558Y-83833851D01*
X101013907Y-83835920D01*
X100990169Y-83836169D01*
X100975113Y-83839314D01*
X100959789Y-83840655D01*
X100936988Y-83847279D01*
X100913753Y-83852133D01*
X100899598Y-83858141D01*
X100884822Y-83862434D01*
X100863738Y-83873363D01*
X100841892Y-83882636D01*
X100829173Y-83891280D01*
X100815514Y-83898360D01*
X100796955Y-83913176D01*
X100777325Y-83926516D01*
X100766529Y-83937464D01*
X100754503Y-83947064D01*
X100750527Y-83950986D01*
X100241512Y-84460000D01*
X99758487Y-84460000D01*
X99249474Y-83950986D01*
X99237581Y-83941217D01*
X99226940Y-83930121D01*
X99207503Y-83916511D01*
X99189149Y-83901435D01*
X99175587Y-83894163D01*
X99162992Y-83885344D01*
X99141275Y-83875765D01*
X99120349Y-83864545D01*
X99105641Y-83860048D01*
X99091565Y-83853840D01*
X99068390Y-83848660D01*
X99045693Y-83841721D01*
X99030391Y-83840167D01*
X99015379Y-83836811D01*
X98991650Y-83836231D01*
X98968027Y-83833831D01*
X98952711Y-83835279D01*
X98937336Y-83834903D01*
X98931768Y-83835351D01*
X98245041Y-83895432D01*
X98239186Y-83896528D01*
X98233235Y-83896642D01*
X98227692Y-83897332D01*
X97544240Y-83987310D01*
X97538438Y-83988660D01*
X97532497Y-83989034D01*
X97526990Y-83989965D01*
X96848113Y-84109670D01*
X96842378Y-84111271D01*
X96836458Y-84111904D01*
X96830997Y-84113075D01*
X96157988Y-84262277D01*
X96152330Y-84264126D01*
X96146440Y-84265017D01*
X96141035Y-84266425D01*
X95475174Y-84444842D01*
X95469601Y-84446937D01*
X95463758Y-84448083D01*
X95458419Y-84449725D01*
X94800974Y-84657017D01*
X94795494Y-84659354D01*
X94789709Y-84660754D01*
X94784448Y-84662627D01*
X94136671Y-84898399D01*
X94131301Y-84900972D01*
X94125581Y-84902623D01*
X94120406Y-84904724D01*
X93483529Y-85168527D01*
X93478275Y-85171332D01*
X93472633Y-85173231D01*
X93467555Y-85175556D01*
X92842792Y-85466888D01*
X92837669Y-85469918D01*
X92832112Y-85472062D01*
X92827140Y-85474606D01*
X92215678Y-85792912D01*
X92210689Y-85796165D01*
X92205233Y-85798548D01*
X92200376Y-85801307D01*
X91603383Y-86145982D01*
X91598541Y-86149448D01*
X91593194Y-86152068D01*
X91588463Y-86155035D01*
X91007070Y-86525423D01*
X91002381Y-86529100D01*
X90997157Y-86531948D01*
X90992560Y-86535119D01*
X90427877Y-86930514D01*
X90423353Y-86934391D01*
X90418258Y-86937465D01*
X90413804Y-86940833D01*
X89866905Y-87360484D01*
X89862561Y-87364549D01*
X89857597Y-87367847D01*
X89853294Y-87371408D01*
X89325221Y-87814513D01*
X89314457Y-87825505D01*
X89302471Y-87835142D01*
X89287211Y-87853328D01*
X89270601Y-87870290D01*
X89262180Y-87883159D01*
X89252291Y-87894944D01*
X89240852Y-87915752D01*
X89227855Y-87935613D01*
X89222094Y-87949872D01*
X89214682Y-87963354D01*
X89207503Y-87985983D01*
X89198610Y-88007995D01*
X89195727Y-88023106D01*
X89191077Y-88037766D01*
X89188431Y-88061355D01*
X89183982Y-88084678D01*
X89184089Y-88100062D01*
X89182375Y-88115346D01*
X89182336Y-88120931D01*
X89182336Y-88821978D01*
X88821978Y-89182336D01*
X88120931Y-89182336D01*
X88105621Y-89183837D01*
X88090243Y-89183515D01*
X88066864Y-89187637D01*
X88043237Y-89189954D01*
X88028512Y-89194400D01*
X88013363Y-89197071D01*
X87991227Y-89205657D01*
X87968503Y-89212518D01*
X87954922Y-89219739D01*
X87940580Y-89225302D01*
X87920535Y-89238023D01*
X87899574Y-89249168D01*
X87887654Y-89258889D01*
X87874666Y-89267132D01*
X87857474Y-89283504D01*
X87839077Y-89298508D01*
X87829271Y-89310361D01*
X87818133Y-89320968D01*
X87814513Y-89325221D01*
X87371407Y-89853294D01*
X87368422Y-89857654D01*
X87364746Y-89861448D01*
X87361300Y-89865844D01*
X86913475Y-90445435D01*
X86908804Y-90452883D01*
X86903063Y-90459539D01*
X86899877Y-90464126D01*
X86680842Y-90784255D01*
X86589775Y-90801627D01*
X86480677Y-90845705D01*
X86382219Y-90910135D01*
X86298150Y-90992461D01*
X86231672Y-91089549D01*
X86185318Y-91197700D01*
X86160854Y-91312795D01*
X86159211Y-91430450D01*
X86180452Y-91546183D01*
X86185756Y-91559578D01*
X85804728Y-92194565D01*
X85800730Y-92202997D01*
X85795526Y-92210742D01*
X85792913Y-92215678D01*
X85474606Y-92827140D01*
X85472384Y-92832667D01*
X85469284Y-92837746D01*
X85466888Y-92842791D01*
X85175556Y-93467555D01*
X85173578Y-93473171D01*
X85170701Y-93478383D01*
X85168527Y-93483528D01*
X84904724Y-94120406D01*
X84902993Y-94126104D01*
X84900346Y-94131436D01*
X84898399Y-94136671D01*
X84662627Y-94784448D01*
X84661146Y-94790216D01*
X84658734Y-94795659D01*
X84657017Y-94800974D01*
X84449725Y-95458420D01*
X84448497Y-95464248D01*
X84446325Y-95469790D01*
X84444842Y-95475174D01*
X84266425Y-96141035D01*
X84265453Y-96146908D01*
X84263523Y-96152544D01*
X84262276Y-96157988D01*
X84113075Y-96830998D01*
X84112360Y-96836905D01*
X84110678Y-96842620D01*
X84109670Y-96848113D01*
X83989965Y-97526990D01*
X83989508Y-97532929D01*
X83988078Y-97538708D01*
X83987310Y-97544240D01*
X83897332Y-98227693D01*
X83897135Y-98233646D01*
X83895958Y-98239481D01*
X83895432Y-98245041D01*
X83835351Y-98931769D01*
X83835512Y-98947150D01*
X83833851Y-98962442D01*
X83835920Y-98986093D01*
X83836169Y-99009831D01*
X83839314Y-99024887D01*
X83840655Y-99040211D01*
X83847278Y-99063008D01*
X83852133Y-99086247D01*
X83858144Y-99100408D01*
X83862435Y-99115178D01*
X83873359Y-99136252D01*
X83882636Y-99158108D01*
X83891284Y-99170833D01*
X83898361Y-99184486D01*
X83913170Y-99203037D01*
X83926516Y-99222675D01*
X83937469Y-99233476D01*
X83947065Y-99245497D01*
X83950986Y-99249474D01*
X84460000Y-99758487D01*
X84460000Y-100241513D01*
X83950986Y-100750526D01*
X83941220Y-100762415D01*
X83930121Y-100773059D01*
X83916506Y-100792502D01*
X83901435Y-100810851D01*
X83894166Y-100824409D01*
X83885344Y-100837007D01*
X83875764Y-100858728D01*
X83864545Y-100879651D01*
X83860049Y-100894358D01*
X83853840Y-100908435D01*
X83848660Y-100931610D01*
X83841721Y-100954307D01*
X83840167Y-100969609D01*
X83836811Y-100984621D01*
X83836231Y-101008350D01*
X83833831Y-101031973D01*
X49525947Y-101031973D01*
X49379935Y-99293165D01*
X50481278Y-89474471D01*
X53192603Y-80927287D01*
X88699471Y-80927287D01*
X88701114Y-80985814D01*
X88714095Y-81042907D01*
X88737918Y-81096391D01*
X88771676Y-81144228D01*
X88814083Y-81184599D01*
X88863523Y-81215963D01*
X88918114Y-81237128D01*
X88975776Y-81247285D01*
X89034312Y-81246050D01*
X89091494Y-81233468D01*
X89145143Y-81210019D01*
X89148785Y-81207949D01*
X89151299Y-81206497D01*
X89198900Y-81172407D01*
X89238973Y-81129719D01*
X89269991Y-81080061D01*
X89290774Y-81025324D01*
X89300529Y-80967593D01*
X89298885Y-80909066D01*
X89285905Y-80851973D01*
X89262081Y-80798489D01*
X89228324Y-80750652D01*
X89185917Y-80710281D01*
X89136477Y-80678917D01*
X89081886Y-80657752D01*
X89024224Y-80647595D01*
X88965688Y-80648830D01*
X88908506Y-80661412D01*
X88854857Y-80684861D01*
X88851215Y-80686931D01*
X88848701Y-80688383D01*
X88801100Y-80722473D01*
X88761027Y-80765161D01*
X88730009Y-80814819D01*
X88709226Y-80869556D01*
X88699471Y-80927287D01*
X53192603Y-80927287D01*
X53468773Y-80056691D01*
X58228629Y-71398545D01*
X64579543Y-63829821D01*
X72279612Y-57638807D01*
X81035541Y-53061317D01*
X90513821Y-50271708D01*
X100353426Y-49376234D01*
X110179570Y-50409003D01*
M02*
